<svg width="449" height="422" viewBox="0 0 449 422" fill="none" xmlns="http://www.w3.org/2000/svg">
<g clip-path="url(#clip0_1206_17810)">
<path d="M111.248 263.145C112.768 272.848 114.289 282.551 115.948 292.208C116.225 293.733 118.16 295.258 119.405 295.905C121.893 297.245 124.935 297.337 127.7 297.106C133.506 296.69 139.405 294.287 143.461 289.99C148.714 284.446 153.922 278.901 159.175 273.402C149.959 274.095 140.696 274.835 131.479 275.528C133.691 282.274 135.857 289.066 138.069 295.812C139.59 300.525 145.995 301.218 150.005 300.941C155.535 300.571 162.355 298.215 165.95 293.687C169.913 288.65 173.876 283.614 177.84 278.577C168.531 279.27 159.175 279.964 149.866 280.657C151.203 286.756 152.539 292.855 153.876 298.954C154.244 300.571 156.088 302.096 157.424 302.836C159.959 304.222 163.093 304.36 165.904 304.176C171.71 303.76 177.932 301.357 181.895 296.875C187.517 290.545 193.186 284.168 198.808 277.838C189.453 278.531 180.144 279.224 170.789 279.917C171.526 285.97 172.217 292.023 172.955 298.123C173.139 299.694 175.259 301.357 176.503 302.004C179.038 303.39 182.172 303.529 184.983 303.344C190.881 302.928 196.919 300.479 200.974 296.043C206.965 289.482 212.956 282.967 218.993 276.406C209.822 275.343 200.697 274.28 191.527 273.217C188.716 278.115 188.531 284.584 191.158 289.621C194.891 296.736 201.619 300.387 209.592 300.756C219.316 301.218 230.284 296.736 236.505 289.112C240.791 283.891 243.556 276.637 240.975 269.983C230.791 273.31 220.652 276.637 210.467 279.917C212.495 284.908 214.569 289.944 216.597 294.934C218.716 300.156 225.86 300.941 230.652 300.109C236.92 299 243.233 295.951 246.551 290.268C252.588 279.825 258.395 269.29 264.432 258.847C254.524 259.587 244.616 260.28 234.754 261.019C234.938 270.907 234.8 280.795 234.892 290.73C234.938 297.383 241.759 299.093 247.289 298.723C250.745 298.492 254.386 297.614 257.427 295.951C260.285 294.334 264.11 291.977 265.216 288.697C276.967 253.719 288.35 218.648 300.286 183.716C289.871 184.317 279.456 184.918 269.041 185.518C262.819 210.192 257.105 235.005 251.114 259.772C250.469 262.498 252.957 265.686 255.169 266.841C257.934 268.227 260.93 268.597 264.017 268.412C270.792 268.042 279.317 264.623 282.359 257.969C294.986 230.153 307.613 202.291 320.194 174.475C310.102 174.152 300.009 173.828 289.963 173.459C280.608 203.816 271.114 234.127 261.667 264.485C258.994 273.125 256.275 281.766 253.602 290.406C252.681 293.317 252.266 295.905 254.478 298.446C256.552 300.849 260.607 301.911 263.603 301.958C271.114 302.05 280.423 298.631 283.926 291.423C292.498 273.911 301.069 256.445 309.687 238.933C317.429 223.176 324.895 207.143 334.158 192.218C334.388 191.895 334.573 191.525 334.803 191.202C335.863 189.538 335.172 190.693 334.48 191.664C335.218 190.555 335.955 189.446 336.692 188.337C337.983 186.489 339.273 184.64 340.656 182.838C343.605 178.911 346.739 175.122 350.103 171.472C340.564 170.178 330.978 168.838 321.439 167.544C308.535 199.103 298.903 232.094 292.866 265.686C291.161 275.066 289.779 284.446 288.673 293.918C287.843 300.849 296.415 302.836 301.53 302.512C308.166 302.142 317.06 298.769 319.872 292.116C332.13 263.098 344.481 234.127 356.785 205.11C360.334 196.746 363.882 188.429 367.385 180.066C356.923 180.667 346.462 181.221 336.047 181.822C330.609 220.265 325.171 258.709 319.733 297.198C319.319 300.017 321.346 302.974 323.743 304.222C326.508 305.608 329.503 305.931 332.545 305.793C339.918 305.377 346.969 301.865 350.84 295.396C357.292 284.63 363.744 273.864 370.288 263.191C359.873 263.791 349.458 264.392 339.043 264.993C339.227 273.957 339.457 282.875 339.688 291.839C339.78 295.027 340.932 297.337 343.743 298.954C346.739 300.71 351.301 300.987 354.665 300.433C358.859 299.694 363.237 298.261 366.509 295.489C368.813 293.502 371.901 290.499 371.855 287.218C371.624 278.254 371.44 269.336 371.117 260.372C370.887 253.441 364.251 251.362 358.214 251.732C350.794 252.148 343.697 255.659 339.872 262.174C333.513 272.986 327.015 283.706 320.563 294.426C330.932 293.825 341.301 293.225 351.67 292.578C357.2 254.134 362.684 215.691 368.214 177.247C368.629 174.383 366.601 171.379 364.159 170.132C361.394 168.699 358.352 168.376 355.264 168.515C348.582 168.884 339.734 172.303 336.877 179.003C324.434 208.113 312.268 237.131 300.009 266.194C296.507 274.557 292.912 282.875 289.364 291.238C299.779 290.637 310.148 290.037 320.563 289.436C323.558 264.808 328.443 240.457 335.218 216.615C334.941 217.585 334.665 218.556 334.388 219.526C339.273 202.337 345.08 185.426 351.854 168.884C352.914 166.297 353.098 162.924 350.979 160.752C348.997 158.719 346.416 157.841 343.651 157.471C336.139 156.455 328.305 159.458 323.19 165.003C310.839 178.356 301.346 194.205 293.004 210.285C284.387 226.919 276.414 243.877 268.211 260.696C263.326 270.676 258.441 280.657 253.556 290.637C263.649 290.961 273.787 291.33 283.88 291.654C293.281 261.296 302.682 230.985 312.129 200.628C314.802 191.987 317.475 183.347 320.194 174.66C321.116 171.749 321.531 169.161 319.319 166.62C317.245 164.264 313.189 163.155 310.24 163.155C302.959 163.108 293.235 166.389 289.917 173.643C277.244 201.459 264.616 229.276 251.943 257.092C262.358 256.491 272.727 255.89 283.142 255.29C289.133 230.569 295.355 205.849 301.069 181.036C301.714 178.31 299.272 175.122 297.014 173.967C294.249 172.534 291.253 172.211 288.166 172.396C284.617 172.581 280.838 173.459 277.751 175.261C274.801 176.924 270.884 179.465 269.824 182.838C258.672 218.047 246.966 253.072 235.675 288.188C245.768 287.495 255.907 286.848 265.999 286.155C265.815 276.221 265.354 266.333 265.262 256.398C265.169 249.93 258.533 248.451 253.188 248.821C246.413 249.329 239.132 252.471 235.583 258.57C229.5 269.013 223.233 279.317 217.196 289.805C227.196 288.234 237.15 286.71 247.15 285.139C245.077 280.148 243.049 275.112 240.975 270.122C238.256 263.468 228.348 263.976 222.772 265.963C219.177 267.257 215.26 269.059 212.864 272.155C211.205 274.28 209.361 277.237 210.467 280.056C210.836 280.98 211.066 281.858 211.159 282.828C211.066 281.95 210.974 281.073 210.928 280.241C211.02 281.766 210.836 283.244 210.375 284.723C210.652 283.845 210.928 282.921 211.205 282.043C210.928 282.782 210.606 283.429 210.283 284.122C209.453 285.97 212.172 281.95 210.79 283.429C208.67 285.647 212.495 282.089 211.573 282.828C209.269 284.677 214.984 281.026 212.772 282.089C215.859 280.888 216.689 280.518 215.168 281.073C216.182 280.841 217.196 280.564 218.21 280.333C216.735 280.518 217.472 280.518 220.468 280.195C219.085 280.102 219.684 280.195 222.357 280.426C222.173 280.379 221.988 280.333 221.85 280.287C220.652 279.917 221.159 280.102 223.325 280.795C222.772 280.379 222.035 280.102 221.481 279.733C222.219 280.287 222.956 280.841 223.74 281.396C222.403 280.379 221.389 279.178 220.514 277.792C220.975 278.531 221.389 279.27 221.85 280.01C220.928 278.393 220.375 276.683 220.145 274.881C220.237 275.759 220.283 276.591 220.375 277.468C220.283 275.99 220.375 274.604 220.79 273.217C220.514 274.095 220.237 274.973 219.961 275.897C220.191 275.204 220.514 274.557 220.882 273.911C222.127 271.739 222.035 268.273 220.145 266.425C218.256 264.531 215.767 263.791 213.14 263.514C206.089 262.683 198.209 265.455 193.37 270.722C187.379 277.284 181.388 283.845 175.397 290.36C184.752 289.667 194.061 288.974 203.416 288.281C202.679 282.228 201.988 276.175 201.25 270.075C201.066 268.504 198.946 266.841 197.702 266.194C195.167 264.808 192.034 264.669 189.222 264.854C183.416 265.27 177.194 267.673 173.231 272.155C167.609 278.485 161.94 284.861 156.318 291.192C165.673 290.499 174.982 289.805 184.337 289.112C183.001 283.013 181.619 276.914 180.282 270.815C179.913 269.198 178.07 267.673 176.734 266.933C174.199 265.547 171.065 265.409 168.3 265.593C162.816 265.963 155.857 268.32 152.309 272.848C148.392 277.884 144.475 282.967 140.557 288.003C149.866 287.31 159.129 286.617 168.438 285.878C166.18 279.132 163.922 272.386 161.664 265.64C160.097 261.019 153.83 260.326 149.82 260.603C144.014 261.019 137.977 263.422 133.967 267.765C128.806 273.356 123.644 278.947 118.483 284.538C127.654 283.799 136.825 283.059 145.995 282.366C144.244 272.755 142.262 263.191 140.373 253.58C139.866 251.085 136.318 249.699 134.29 249.283C130.88 248.59 126.548 249.144 123.276 250.253C117.746 252.286 110.142 256.398 111.248 263.145Z" fill="#FF7900"/>
<path d="M220.974 161.166C220.191 161.028 219.408 160.935 218.578 160.75C220.145 161.444 221.712 162.137 223.279 162.876C223.002 162.599 222.726 162.368 222.495 162.09C216.781 156.499 206.135 159.364 200.329 163.015C197.471 164.817 194.937 166.988 193.877 170.269C192.817 173.55 194.153 176.276 197.195 177.893C201.481 180.157 206.965 180.619 211.665 181.358C215.583 181.959 219.5 182.513 223.417 183.114C231.712 184.362 240.007 185.563 248.302 186.811C258.948 188.382 269.547 189.999 280.193 191.57C284.294 192.171 288.35 192.771 292.451 193.326C294.571 193.649 296.691 193.926 298.811 194.25C302.037 194.712 305.217 194.388 308.443 194.157C312.037 193.88 315.77 192.171 318.719 190.23C321.162 188.613 323.973 186.349 325.033 183.484C325.77 181.543 326.047 179.602 325.54 177.569C324.756 174.427 321.208 172.672 318.489 171.794C313.466 170.176 308.166 169.761 302.959 169.068C298.719 168.513 294.479 168.005 290.239 167.497C282.082 166.526 273.879 165.556 265.722 164.539C257.565 163.569 249.362 162.599 241.205 161.582C236.966 161.074 232.726 160.566 228.486 160.057C221.02 159.179 213.232 157.886 205.905 160.335C211.066 164.216 216.274 168.051 221.435 171.932C221.62 171.701 221.85 171.516 222.08 171.285C217.749 173.411 213.37 175.536 209.039 177.662C206.827 177.847 206.458 177.939 207.933 177.893C214.108 177.754 221.297 175.167 225.168 170.223C226.228 168.883 227.518 166.757 226.735 164.909C225.675 162.599 223.325 161.536 220.974 161.166Z" fill="#FF7900"/>
<path d="M91.3393 191.94C91.2932 226.641 91.2471 261.295 90.9245 295.996C90.8324 305.884 90.6941 315.819 90.5098 325.707C90.4637 328.618 96.5008 327.324 96.5468 324.829C97.0999 290.174 97.2381 255.473 97.3303 220.819C97.3303 210.885 97.3764 200.95 97.3764 191.062C97.3764 188.105 91.3393 189.445 91.3393 191.94Z" fill="#1C1C1C"/>
<path d="M92.307 331.02C131.801 330.557 171.342 329.911 210.836 329.264C250.33 328.663 289.871 328.062 329.365 327.415C351.716 327.046 374.159 327.277 396.464 326.075C397.662 326.029 399.505 325.567 400.058 324.273C400.565 323.026 399.459 322.471 398.399 322.471C378.675 322.056 358.859 322.887 339.135 323.211C319.365 323.534 299.594 323.904 279.87 324.227C240.33 324.92 200.836 325.613 161.295 326.307C138.944 326.722 116.547 327.092 94.1964 327.554C93.0904 327.6 91.1549 328.109 90.694 329.264C90.2332 330.511 91.247 331.02 92.307 331.02Z" fill="#1C1C1C"/>
<path d="M385.127 152.433C384.851 174.796 385.588 197.16 385.865 219.524C386.141 241.888 386.464 264.251 386.786 286.615C386.971 299.137 386.694 311.797 387.524 324.319C387.662 326.722 392.869 325.382 392.962 323.395C393.376 312.259 392.823 301.031 392.685 289.849C392.547 278.668 392.362 267.486 392.224 256.304C391.902 233.94 391.579 211.576 391.21 189.213C391.026 176.645 390.98 164.077 390.519 151.509C390.381 149.198 385.173 150.538 385.127 152.433Z" fill="#1C1C1C"/>
<path d="M89.8183 331.112C79.6797 343.634 70.2325 356.849 60.6008 369.74C55.762 376.209 50.9231 382.678 46.0842 389.147C41.2915 395.57 35.8996 401.9 31.6598 408.738C31.0607 409.755 32.1668 410.263 32.9502 410.402C34.1023 410.54 35.6231 410.032 36.4065 409.154C39.2638 406.012 41.6601 402.362 44.1948 398.989C46.5912 395.801 48.9415 392.659 51.2918 389.47C56.1306 383.002 60.9234 376.533 65.7623 370.018C75.3939 357.08 85.3942 344.281 94.5189 330.973C95.2102 329.957 93.7816 329.587 93.0903 329.587C91.8921 329.541 90.6017 330.188 89.8183 331.112Z" fill="#1C1C1C"/>
<path d="M389.828 323.35C398.261 338.321 407.386 352.968 416.234 367.708C420.888 375.47 425.589 383.279 430.244 391.042C432.456 394.738 434.668 398.435 436.88 402.131C439.092 405.782 441.166 409.663 443.654 413.082C444.714 414.561 449.783 412.759 448.862 410.911C444.991 403.102 439.875 395.755 435.405 388.316C430.889 380.83 426.326 373.299 421.764 365.813C412.824 351.074 404.114 336.149 394.759 321.64C393.837 320.162 388.998 321.918 389.828 323.35Z" fill="#1C1C1C"/>
<path d="M32.8581 422.001C58.1584 421.908 83.4587 421.123 108.759 420.568C134.059 420.014 159.406 419.413 184.706 418.812C235.03 417.657 285.354 416.456 335.678 415.255C349.965 414.931 364.205 414.561 378.491 414.238C392.731 413.868 407.063 413.868 421.303 412.99C422.547 412.898 424.437 412.482 424.99 411.142C425.497 409.895 424.391 409.202 423.239 409.202C410.519 409.017 397.754 409.617 385.035 409.941C372.454 410.264 359.873 410.542 347.292 410.865C321.991 411.512 296.645 412.113 271.345 412.759C221.021 414.007 170.696 415.301 120.372 416.595C91.8461 417.334 63.2277 417.842 34.7015 419.136C33.7337 419.182 31.8903 419.644 31.4756 420.661C31.0147 421.723 31.9825 422.001 32.8581 422.001Z" fill="#1C1C1C"/>
<path d="M98.8971 340.446C92.8139 349.271 87.1455 358.374 81.385 367.384C78.5739 371.774 75.7627 376.117 72.9976 380.507C70.0943 385.081 66.6841 389.609 64.2416 394.461C62.9512 397.002 68.2049 396.032 69.1266 394.923C72.3985 390.903 74.9793 386.144 77.7443 381.8C80.6937 377.18 83.6892 372.513 86.6386 367.892C92.4452 358.743 98.4362 349.687 103.92 340.4C104.565 339.291 103.229 338.829 102.353 338.829C101.063 338.782 99.6344 339.383 98.8971 340.446Z" fill="#1C1C1C"/>
<path d="M385.818 337.442C388.537 345.99 391.302 354.538 394.114 363.087C395.496 367.291 396.879 371.496 398.261 375.655C399.69 379.952 400.888 384.48 402.685 388.638C403.607 390.764 408.768 389.101 408.215 386.836C407.201 382.447 405.45 378.104 404.022 373.806C402.639 369.602 401.257 365.443 399.828 361.238C397.017 352.69 394.113 344.188 391.164 335.686C390.519 333.653 385.173 335.409 385.818 337.442Z" fill="#1C1C1C"/>
<path d="M100.694 350.474C151.756 349.319 202.817 347.517 253.833 345.899C268.211 345.437 282.589 345.16 296.968 344.375C298.074 344.328 299.963 343.866 300.424 342.665C300.885 341.51 299.871 341.002 298.857 341.048C273.188 341.279 247.473 342.619 221.804 343.451C196.412 344.282 171.019 345.16 145.673 346.038C131.294 346.546 116.916 347.055 102.538 347.701C101.57 347.748 99.7726 348.21 99.3117 349.226C98.8509 350.243 99.8187 350.52 100.694 350.474Z" fill="#1C1C1C"/>
<path d="M71.7073 402.317C114.059 400.699 156.364 398.62 198.67 396.633C240.837 394.646 283.004 392.706 325.217 390.626C348.997 389.471 372.823 388.409 396.556 386.838C397.616 386.745 399.459 386.329 399.92 385.22C400.381 384.111 399.413 383.696 398.399 383.742C356.048 384.989 313.742 387.392 271.437 389.471C229.27 391.504 187.057 393.584 144.889 395.663C121.11 396.818 97.3302 398.019 73.5507 399.406C72.5368 399.452 70.6935 399.914 70.2326 400.977C69.7718 401.947 70.7395 402.317 71.7073 402.317Z" fill="#1C1C1C"/>
<path d="M75.855 388.639C115.58 386.976 155.304 385.128 194.983 383.233C234.708 381.292 274.433 379.398 314.157 377.457C336.554 376.395 358.997 375.517 381.348 373.946C382.408 373.853 384.252 373.437 384.712 372.329C385.173 371.22 384.206 370.804 383.192 370.804C343.467 371.866 303.742 374.408 264.064 376.302C224.339 378.243 184.614 380.137 144.889 382.124C122.492 383.233 100.095 384.388 77.6984 385.636C76.6845 385.682 74.8412 386.144 74.3803 387.207C73.9656 388.27 74.8873 388.685 75.855 388.639Z" fill="#1C1C1C"/>
<path d="M86.915 373.022C106.501 372.421 126.133 371.173 145.719 370.249C165.028 369.325 184.337 368.355 203.601 367.384C242.68 365.398 281.714 363.411 320.793 361.378C342.637 360.223 364.527 359.437 386.325 357.912C388.629 357.727 391.118 354.17 387.523 354.123C382.869 354.123 378.168 354.123 373.514 354.123C372.454 354.123 370.564 354.678 370.15 355.741C369.689 356.896 370.703 357.219 371.67 357.265C376.325 357.496 380.979 357.727 385.634 357.912C386.279 356.618 386.924 355.371 387.569 354.077C368.122 354.724 348.628 356.064 329.227 357.034C309.779 358.051 290.331 359.021 270.838 360.084C232.081 362.163 193.324 364.196 154.567 366.368C132.677 367.569 110.695 368.493 88.8045 370.064C87.7906 370.157 85.9933 370.527 85.5325 371.635C85.0256 372.698 85.9933 373.022 86.915 373.022Z" fill="#1C1C1C"/>
<path d="M111.662 352.091C108.943 359.53 106.04 366.877 103.367 374.316C100.418 382.541 96.9154 390.719 94.6112 399.129C94.0582 401.116 99.1274 399.914 99.6805 398.62C103.091 391.089 105.441 382.91 108.206 375.148C111.063 367.2 113.644 359.16 116.455 351.167C116.916 349.734 112.215 350.566 111.662 352.091Z" fill="#1C1C1C"/>
<path d="M130.465 360.315C129.036 364.936 127.654 369.556 126.271 374.177C124.889 378.751 123.276 383.372 122.216 388.039C121.755 390.164 126.824 388.917 127.377 387.531C129.082 383.049 130.235 378.289 131.617 373.669C133 368.91 134.382 364.15 135.765 359.345C136.318 357.45 131.018 358.467 130.465 360.315Z" fill="#1C1C1C"/>
<path d="M159.268 353.384C157.655 360.962 156.364 368.632 154.89 376.21C153.461 383.741 151.571 391.411 150.88 399.082C150.696 401.161 155.489 399.636 155.903 398.157C158.023 390.764 159.037 382.909 160.466 375.332C161.894 367.708 163.415 360.13 164.659 352.46C165.028 350.196 159.682 351.443 159.268 353.384Z" fill="#1C1C1C"/>
<path d="M182.863 353.383C181.572 360.776 180.328 368.123 179.13 375.516C177.932 382.863 176.319 390.256 175.628 397.695C175.397 400.051 180.559 398.573 180.973 396.771C182.679 389.516 183.554 381.985 184.706 374.638C185.904 367.245 187.057 359.852 188.209 352.459C188.577 350.287 183.185 351.443 182.863 353.383Z" fill="#1C1C1C"/>
<path d="M202.08 347.885C201.804 364.981 201.251 382.124 201.757 399.174C201.804 401.438 207.011 400.144 207.057 398.25C207.795 381.2 207.426 364.011 207.38 346.961C207.38 344.697 202.08 345.991 202.08 347.885Z" fill="#1C1C1C"/>
<path d="M223.601 349.317C222.587 355.786 221.574 362.255 220.606 368.724C219.638 375.1 218.255 381.662 217.933 388.13C217.795 390.626 222.956 389.055 223.371 387.206C224.846 380.922 225.352 374.222 226.182 367.8C227.058 361.331 227.887 354.862 228.671 348.393C228.993 346.36 223.878 347.561 223.601 349.317Z" fill="#1C1C1C"/>
<path d="M238.487 346.36C236.459 362.948 234.109 379.582 232.864 396.263C232.68 398.666 238.072 397.372 238.348 395.339C240.791 378.797 242.173 362.07 243.832 345.436C244.063 343.172 238.717 344.42 238.487 346.36Z" fill="#1C1C1C"/>
<path d="M265.907 346.499C265.815 352.968 265.723 359.436 265.63 365.905C265.538 372.467 265.17 379.166 265.63 385.728C265.769 387.576 270.838 386.097 270.976 384.388C271.529 377.965 271.207 371.404 271.207 364.981C271.207 358.512 271.161 352.043 271.161 345.575C271.114 343.403 265.907 344.697 265.907 346.499Z" fill="#1C1C1C"/>
<path d="M288.258 344.143C289.318 352.737 290.424 361.285 291.576 369.833C292.728 378.335 293.465 387.022 295.216 395.431C295.585 397.28 300.654 395.801 300.562 394.091C300.009 385.543 298.396 376.949 297.244 368.447C296.046 359.76 294.802 351.073 293.511 342.387C293.189 340.631 287.981 342.11 288.258 344.143Z" fill="#1C1C1C"/>
<path d="M312.728 340.03C313.42 347.7 314.157 355.371 314.894 362.995C315.632 370.572 316.047 378.335 317.337 385.867C317.66 387.669 322.637 386.19 322.591 384.573C322.36 376.949 321.208 369.279 320.379 361.701C319.549 353.938 318.673 346.176 317.798 338.367C317.66 336.657 312.544 338.043 312.728 340.03Z" fill="#1C1C1C"/>
<path d="M332.176 341.416C333.651 349.318 335.126 357.173 336.692 365.074C338.213 372.883 339.273 380.969 341.393 388.685C341.946 390.764 347.015 389.009 346.785 386.929C345.817 379.028 343.697 371.127 342.13 363.318C340.564 355.463 338.904 347.608 337.292 339.799C336.923 338.043 331.854 339.522 332.176 341.416Z" fill="#1C1C1C"/>
<path d="M360.011 341.417C361.025 348.625 362.085 355.787 363.237 362.995C364.343 370.111 365.034 377.457 366.785 384.435C367.246 386.329 372.316 384.85 372.177 383.095C371.67 375.933 370.057 368.678 368.905 361.609C367.707 354.308 366.463 347.008 365.173 339.753C364.85 337.905 359.735 339.384 360.011 341.417Z" fill="#1C1C1C"/>
<path d="M95.6712 194.573C95.2564 231.677 94.3348 268.78 93.8739 305.884C93.7357 316.511 93.6435 327.138 93.5974 337.812C93.5974 338.32 94.6113 338.089 94.6113 337.673C94.7495 300.524 95.579 263.42 96.2242 226.317C96.4086 215.689 96.5468 205.062 96.6851 194.481C96.6851 193.926 95.6712 194.157 95.6712 194.573Z" fill="#1C1C1C"/>
<path d="M385.818 152.295C385.081 150.493 384.344 148.737 383.606 146.981C383.468 146.612 382.685 146.843 382.639 147.212C380.611 191.339 378.537 235.466 376.509 279.546C375.956 291.976 375.357 304.451 374.85 316.927C374.85 317.343 375.772 317.112 375.772 316.788C377.984 272.662 379.874 228.535 381.901 184.454C382.454 172.025 383.053 159.549 383.606 147.12C383.284 147.212 382.961 147.258 382.639 147.351C383.376 149.107 384.113 150.909 384.897 152.665C385.081 152.896 385.957 152.618 385.818 152.295Z" fill="#1C1C1C"/>
<path d="M95.2565 327.278C80.233 352.507 64.933 377.643 50.3703 403.148C50.186 403.472 51.0155 403.333 51.1538 403.102C66.546 378.059 81.1547 352.553 96.086 327.278C96.3165 326.862 95.3948 327.001 95.2565 327.278Z" fill="#1C1C1C"/>
<path d="M34.8399 413.913C32.9965 415.808 31.1532 417.749 29.3098 419.643C29.0794 419.92 29.4481 420.013 29.6324 419.966C78.9887 414.791 128.437 410.633 178.024 407.814C227.012 405.042 276.046 403.425 325.125 403.055C352.868 402.824 380.565 403.101 408.308 403.563C408.722 403.563 409.275 402.963 408.63 402.963C359.136 401.761 309.595 402.177 260.1 403.609C210.882 405.042 161.664 407.722 112.584 411.649C84.9336 413.821 57.3291 416.409 29.7706 419.412C29.8628 419.504 30.0011 419.643 30.0932 419.735C31.9366 417.795 33.7339 415.9 35.5773 413.96C35.8999 413.636 35.0243 413.729 34.8399 413.913Z" fill="#1C1C1C"/>
<path d="M388.537 318.684C406.418 343.265 424.253 367.847 442.318 392.29C442.548 392.614 443.47 392.198 443.193 391.828C425.359 367.2 407.294 342.803 389.321 318.314C389.136 318.083 388.353 318.407 388.537 318.684Z" fill="#1C1C1C"/>
<path d="M90.3254 362.025C126.824 360.731 163.323 359.206 199.776 357.774C236.275 356.341 272.773 354.909 309.226 353.477C329.78 352.645 350.333 351.859 370.841 350.982C371.21 350.982 371.763 350.381 371.164 350.381C334.665 351.721 298.166 353.246 261.713 354.678C225.214 356.11 188.715 357.589 152.263 359.021C131.709 359.853 111.155 360.639 90.6019 361.517C90.2793 361.563 89.7263 362.071 90.3254 362.025Z" fill="#1C1C1C"/>
<path d="M79.1729 383.926C120.372 385.358 161.618 385.358 202.771 384.388C243.694 383.417 284.617 381.338 325.448 378.15C348.49 376.348 371.532 374.222 394.482 371.681C394.989 371.635 395.219 370.988 394.574 371.08C353.467 375.424 312.314 378.889 271.022 381.107C230.33 383.325 189.545 384.434 148.806 384.434C125.672 384.434 102.584 384.018 79.4494 383.464C79.1729 383.417 78.6199 383.926 79.1729 383.926Z" fill="#1C1C1C"/>
<path d="M122.769 348.764C116.363 367.708 109.681 386.607 103.644 405.69C103.552 406.013 104.427 405.875 104.519 405.597C111.248 386.745 117.285 367.616 123.644 348.579C123.783 348.256 122.861 348.441 122.769 348.764Z" fill="#1C1C1C"/>
<path d="M141.387 350.288C132.492 364.75 127.101 381.708 126.732 398.758C126.732 399.128 127.608 398.943 127.608 398.619C128.529 381.431 133.23 364.981 142.216 350.288C142.447 349.918 141.525 350.057 141.387 350.288Z" fill="#1C1C1C"/>
<path d="M161.71 350.242C159.36 365.49 156.779 380.691 154.751 395.986C154.705 396.401 155.627 396.17 155.673 395.847C158.254 380.645 160.281 365.351 162.539 350.103C162.586 349.78 161.756 349.964 161.71 350.242Z" fill="#1C1C1C"/>
<path d="M188.531 348.949C181.296 364.751 177.425 382.818 178.439 400.238C178.485 400.654 179.36 400.423 179.36 400.099C179.176 382.31 182.171 365.26 189.361 348.949C189.545 348.533 188.669 348.672 188.531 348.949Z" fill="#1C1C1C"/>
<path d="M224.431 350.058C221.712 362.995 218.855 375.933 216.412 388.917C216.32 389.287 217.242 389.102 217.334 388.778C220.191 375.887 222.726 362.857 225.307 349.919C225.399 349.549 224.477 349.734 224.431 350.058Z" fill="#1C1C1C"/>
<path d="M235.215 347.516C234.431 361.839 233.509 376.117 233.049 390.441C233.049 390.857 233.924 390.626 233.97 390.302C234.938 376.025 235.491 361.655 236.182 347.377C236.136 346.961 235.215 347.146 235.215 347.516Z" fill="#1C1C1C"/>
<path d="M262.358 355.602C262.266 352.968 262.128 350.288 262.082 347.654C262.082 347.285 261.206 347.47 261.206 347.793C260.515 363.318 260.239 379.028 260.239 394.6C260.239 395.016 261.16 394.785 261.16 394.461C261.759 378.89 262.174 363.226 262.128 347.654C261.851 347.701 261.529 347.747 261.252 347.793C261.437 350.473 261.483 353.153 261.621 355.833C261.529 356.11 262.358 355.925 262.358 355.602Z" fill="#1C1C1C"/>
<path d="M289.686 344.928C291.115 357.912 292.451 370.896 294.157 383.88C294.203 384.157 295.032 383.926 294.986 383.603C293.696 370.619 292.083 357.635 290.562 344.651C290.516 344.328 289.64 344.559 289.686 344.928Z" fill="#1C1C1C"/>
<path d="M317.89 341.971C318.259 355.833 318.305 369.741 319.042 383.557C319.042 383.926 319.918 383.695 319.918 383.418C319.918 369.556 319.18 355.695 318.766 341.833C318.812 341.417 317.89 341.648 317.89 341.971Z" fill="#1C1C1C"/>
<path d="M332.591 344.697C334.941 358.143 337.153 371.681 339.78 385.081C339.826 385.404 340.748 385.173 340.702 384.804C338.536 371.311 335.909 357.866 333.467 344.42C333.42 344.096 332.499 344.373 332.591 344.697Z" fill="#1C1C1C"/>
<path d="M356.371 350.058C356.186 348.349 355.956 346.639 355.772 344.929C355.495 345.022 355.172 345.114 354.896 345.207C358.076 359.993 361.901 374.732 365.726 389.333C365.818 389.657 366.693 389.38 366.647 389.056C363.283 374.316 359.827 359.484 355.772 344.929C355.679 344.606 354.85 344.883 354.896 345.207C355.126 346.916 355.311 348.626 355.541 350.335C355.587 350.613 356.417 350.382 356.371 350.058Z" fill="#1C1C1C"/>
<path d="M378.537 345.899C378.399 344.19 378.307 342.526 378.168 340.817C377.846 340.909 377.569 340.955 377.247 341.048C380.795 355.418 384.851 369.695 388.86 383.927C388.998 384.343 389.966 384.019 389.828 383.603C386.095 369.28 382.316 354.91 378.122 340.724C378.03 340.355 377.201 340.678 377.247 341.001C377.385 342.711 377.523 344.421 377.615 346.13C377.662 346.5 378.537 346.269 378.537 345.899Z" fill="#1C1C1C"/>
<path d="M112.492 228.165C112.031 252.793 112.953 277.467 112.953 302.095C112.953 305.006 118.99 303.712 118.99 301.217C118.99 276.589 118.114 251.915 118.529 227.287C118.529 224.376 112.538 225.67 112.492 228.165Z" fill="#1C1C1C"/>
<path d="M361.993 174.612C362.361 207.649 363.421 240.687 364.251 273.724C364.481 283.196 364.619 292.715 365.173 302.187C365.311 304.821 370.887 303.481 370.887 301.309C370.979 284.813 370.242 268.272 369.827 251.776C369.412 235.234 368.951 218.739 368.491 202.197C368.214 192.725 368.03 183.206 367.615 173.734C367.569 171.1 361.993 172.44 361.993 174.612Z" fill="#1C1C1C"/>
<path d="M114.474 303.944C147.009 305.053 179.683 304.314 212.218 304.267C244.339 304.221 276.506 304.175 308.627 304.129C326.83 304.082 345.08 304.036 363.283 303.944C364.527 303.944 366.417 303.389 366.924 302.096C367.431 300.848 366.325 300.201 365.172 300.201C332.867 300.201 300.562 300.247 268.303 300.294C235.86 300.34 203.416 300.432 170.973 300.525C152.724 300.571 134.52 300.432 116.271 301.125C114.566 301.218 111.063 303.851 114.474 303.944Z" fill="#1C1C1C"/>
<path d="M241.943 253.903C253.695 246.602 261.805 233.757 266.322 220.866C268.626 214.212 270.147 207.235 271.022 200.258C271.437 196.792 271.714 193.281 271.806 189.815C271.944 186.211 272.128 182.33 271.483 178.772C271.068 176.415 265.907 178.217 265.676 180.158C265.308 183.577 265.63 187.181 265.492 190.647C265.4 193.927 265.123 197.162 264.755 200.396C263.971 207.142 262.635 213.796 260.423 220.219C258.303 226.456 255.446 232.463 251.667 237.869C247.888 243.322 243.233 247.804 238.21 252.101C237.381 252.794 236.735 253.903 237.934 254.596C239.132 255.289 240.883 254.55 241.943 253.903Z" fill="#1C1C1C"/>
<path d="M271.16 174.752C261.483 174.798 251.667 176.831 242.081 178.125C237.196 178.771 232.357 179.465 227.472 180.158C222.726 180.851 217.749 181.59 213.14 182.884C211.343 183.392 209.73 185.933 212.679 185.933C217.426 185.933 222.403 185.287 227.15 184.686C232.035 184.039 236.874 183.392 241.759 182.699C251.344 181.359 261.391 180.712 270.7 178.078C272.635 177.524 274.156 174.705 271.16 174.752Z" fill="#1C1C1C"/>
<path d="M71.7995 145.549C76.9609 162.137 82.9519 178.679 90.2793 194.435C96.9616 208.759 105.072 222.482 115.487 234.45C125.396 245.862 137.47 255.658 151.341 261.85C164.936 267.903 179.821 270.49 194.66 269.751C211.389 268.919 228.394 263.837 242.219 254.226C243.187 253.533 243.602 252.193 242.634 251.315C241.62 250.437 239.685 250.714 238.671 251.315C226.459 258.8 213.325 263.652 199.038 265.038C185.075 266.378 170.604 264.345 157.609 258.893C130.142 247.387 110.879 222.482 98.0215 196.376C89.6802 179.372 83.8736 161.444 77.2835 143.793C76.5001 141.668 71.1543 143.424 71.7995 145.549Z" fill="#1C1C1C"/>
<path d="M76.8227 145.364C74.3802 139.635 71.4308 134.09 68.8501 128.407C66.2694 122.677 63.9191 116.901 61.707 111.079C57.329 99.4818 53.6423 87.6992 50.6468 75.6856C49.3103 70.2795 46.8218 63.4872 49.0799 58.0349C49.8634 56.1867 51.292 54.0612 53.5501 54.2922C55.8082 54.5695 57.7438 56.4639 59.2185 58.0811C63.1817 62.5169 65.6242 68.3389 68.4814 73.514C71.7074 79.4745 74.9793 85.3889 78.2052 91.3495C85.3944 104.472 92.3531 117.733 99.7727 130.717C100.971 132.796 106.731 130.486 105.579 128.222C98.5285 114.868 91.0628 101.792 83.7815 88.5771C80.233 82.1083 76.6384 75.6394 73.0899 69.1706C70.2327 63.9493 67.6519 57.8963 63.1817 53.8302C59.2185 50.1799 53.8727 49.0247 48.9878 51.6585C43.7802 54.4309 41.9368 60.2528 42.3977 65.8437C42.9968 72.4512 45.1167 79.0587 46.8679 85.4351C48.7112 91.9964 50.739 98.5114 52.9971 104.98C55.5317 112.235 58.3429 119.397 61.4305 126.42C64.5182 133.397 67.6058 140.605 71.7074 147.074C72.6751 148.599 77.6061 147.12 76.8227 145.364Z" fill="#1C1C1C"/>
<path d="M105.902 126.004C97.4684 101.33 91.8461 75.8705 90.5558 49.764C90.2793 44.1269 89.8184 38.2587 90.6019 32.6678C91.0627 29.4334 92.1687 23.7038 95.9476 22.6411C101.34 21.1625 105.533 28.232 107.1 32.2057C109.543 38.4435 111.155 45.051 113.137 51.4737C117.653 66.1672 122.124 80.8607 126.64 95.5542C128.575 94.7225 130.511 93.8908 132.4 93.1053C131.755 92.0888 131.11 91.0722 130.511 90.0557C129.451 88.2999 124.29 89.7785 125.119 91.8115C125.626 93.0591 126.133 94.3067 126.594 95.5542C127.608 98.1418 133.46 96.2935 132.631 93.5674C128.115 78.8738 123.506 64.2265 118.944 49.533C116.87 42.9255 115.211 35.9946 112.538 29.572C110.28 24.1659 106.271 19.3604 100.141 18.6211C94.8877 17.9742 89.9106 20.6542 87.2377 25.1824C84.8413 29.2485 84.3344 34.3312 84.2883 38.9518C84.2422 52.9522 85.5326 67.0913 87.8829 80.9069C90.6019 96.848 94.7034 112.65 100.648 127.667C101.478 129.516 106.501 127.806 105.902 126.004Z" fill="#1C1C1C"/>
<path d="M119.958 41.3544C117.377 34.0076 114.059 24.3505 119.359 17.4196C121.248 14.9245 123.967 13.3073 127.055 14.5549C129.958 15.71 132.032 18.5286 133.46 21.1623C137.285 28.047 139.544 36.0869 141.986 43.5723C144.705 51.7969 147.101 60.1602 149.129 68.616C151.433 78.1806 153.092 87.8377 155.166 97.4485C155.627 99.5278 160.742 97.772 160.558 95.6927C159.636 85.6198 157.378 75.5931 154.936 65.7974C152.539 56.0941 149.682 46.5295 146.41 37.1034C144.797 32.4828 143.138 27.8622 141.249 23.334C139.912 20.0996 138.207 16.7265 135.765 14.1852C130.142 8.36325 121.386 9.24116 115.81 14.7859C107.837 22.7795 111.294 33.8228 114.796 43.0178C115.534 44.866 120.603 43.1564 119.958 41.3544Z" fill="#1C1C1C"/>
<path d="M165.212 112.973C170.19 106.873 170.42 98.8798 172.586 91.6254C173.646 88.1138 175.305 84.2787 178.485 82.2456C181.158 80.536 184.384 80.6746 186.642 83.0311C191.434 87.9752 189.315 97.124 188.623 103.177C187.656 112.233 186.642 121.29 185.674 130.346C184.568 140.927 183.324 151.462 182.586 162.09C182.402 164.585 187.886 163.245 188.162 161.166C191.112 140.28 192.817 119.164 194.937 98.1867C195.582 91.7641 196.273 82.9849 190.098 78.9188C183.37 74.483 174.153 79.0112 170.19 85.018C164.659 93.3813 166.18 104.286 160.512 112.603C159.867 113.573 161.019 114.128 161.802 114.22C162.908 114.313 164.521 113.851 165.212 112.973Z" fill="#1C1C1C"/>
<path d="M153.046 93.1508C154.29 100.174 155.673 107.151 157.194 114.175C157.747 116.716 162.171 114.59 162.908 113.297C163.922 111.541 164.89 109.877 165.627 107.983C166.641 105.349 161.756 106.504 160.834 107.613C159.406 109.323 158.346 111.217 157.24 113.158C159.129 112.881 161.065 112.557 162.954 112.28C161.387 105.349 159.728 98.4183 157.885 91.5798C157.516 89.9164 152.723 91.4412 153.046 93.1508Z" fill="#1C1C1C"/>
<path d="M182.218 156.084C183.969 156.084 187.287 153.404 184.015 153.404C182.31 153.404 178.946 156.084 182.218 156.084Z" fill="#1C1C1C"/>
<path d="M182.632 158.071C182.771 167.035 188.531 175.029 195.628 180.112C199.177 182.653 203.324 184.548 207.564 185.518C211.942 186.534 217.564 187.181 221.666 184.963C222.772 184.363 224.339 182.145 222.034 181.868C217.979 181.406 214.108 182.191 210.053 181.175C206.32 180.204 202.771 178.495 199.684 176.184C193.232 171.425 189.361 164.587 187.656 156.824C187.287 155.16 182.632 156.593 182.632 158.071Z" fill="#1C1C1C"/>
<path d="M188.577 140.744C194.753 141.622 201.204 141.16 207.426 141.16C213.693 141.16 219.961 141.114 226.228 141.114C238.901 141.067 251.621 141.021 264.294 140.975C289.364 140.836 314.434 140.698 339.504 140.513C353.836 140.42 368.306 140.698 382.638 140.097C384.021 140.051 385.91 139.543 386.51 138.11C387.063 136.77 385.818 135.892 384.62 135.892C371.947 135.523 359.228 135.985 346.554 136.031C333.881 136.123 321.162 136.216 308.489 136.308C283.419 136.539 258.349 136.724 233.279 137.001C226.228 137.094 219.223 137.186 212.172 137.232C205.029 137.325 197.425 136.77 190.374 137.972C189.315 138.156 185.858 140.374 188.577 140.744Z" fill="#1C1C1C"/>
<path d="M185.812 165.556C191.481 166.619 197.61 166.111 203.324 166.203C209.315 166.295 215.26 166.388 221.251 166.434C232.91 166.573 244.524 166.711 256.183 166.85C279.778 167.127 303.373 167.358 326.969 167.589C333.697 167.682 340.471 167.728 347.2 167.82C353.928 167.913 360.702 168.19 367.431 167.913C368.767 167.866 370.61 167.358 371.21 165.972C371.763 164.632 370.518 163.939 369.366 163.847C357.476 163.153 345.448 163.523 333.513 163.431C321.853 163.338 310.24 163.2 298.581 163.107C274.985 162.876 251.39 162.691 227.795 162.507C221.067 162.46 214.292 162.414 207.564 162.368C204.2 162.368 200.836 162.322 197.425 162.322C194.107 162.322 190.835 162.137 187.563 162.738C186.503 162.969 183.093 165.048 185.812 165.556Z" fill="#1C1C1C"/>
<path d="M76.9148 149.108C68.5274 125.451 60.1401 101.793 51.7527 78.1355C49.8633 72.8681 47.1443 66.0296 51.4301 61.0855C56.5455 55.1711 62.4443 62.102 64.9329 66.6302C70.9699 77.5349 76.5461 88.7167 82.3528 99.7138C88.9889 112.374 95.5329 125.081 102.307 137.649C102.492 138.019 103.413 137.695 103.229 137.326C96.7772 124.757 90.0949 112.282 83.5049 99.76C80.2329 93.5222 76.9148 87.2381 73.6428 81.0003C70.6934 75.4094 68.0666 69.495 64.6564 64.2275C62.4904 60.9007 59.0802 57.389 54.7482 58.3594C50.785 59.2373 48.4347 63.3496 48.2503 67.1847C47.9738 73.1453 51.1997 79.3369 53.1353 84.8354C55.4856 91.4429 57.8359 98.0041 60.1862 104.612C65.4859 119.536 70.8317 134.415 76.1314 149.339C76.2235 149.663 77.0531 149.385 76.9148 149.108Z" fill="#1C1C1C"/>
<path d="M103.551 129.932C99.6343 104.288 95.3023 78.7357 91.3852 53.0913C90.4635 47.1307 89.68 40.6619 91.846 34.8399C93.7355 29.8035 98.6665 24.9518 104.335 25.1829C106.501 25.2753 106.777 26.1532 107.469 28.0014C107.976 29.4338 108.529 30.8662 109.035 32.2986C110.188 35.4868 111.34 38.6288 112.492 41.817C114.704 47.87 116.916 53.923 119.082 59.9298C124.105 73.7454 129.128 87.561 134.198 101.377C134.382 101.839 135.257 101.469 135.211 101.053C134.935 98.5119 134.612 96.0168 134.29 93.4754C134.244 93.152 133.322 93.383 133.368 93.7527C133.645 96.294 133.921 98.7891 134.198 101.33C134.52 101.238 134.843 101.099 135.211 101.007C130.326 87.4686 125.349 73.9303 120.418 60.4381C118.022 53.8306 115.579 47.177 113.183 40.5695C112.031 37.3813 110.879 34.2393 109.727 31.051C109.082 29.3414 108.482 27.5856 107.837 25.876C107.423 24.7208 107.284 24.767 106.04 24.536C101.938 23.7967 97.837 25.7373 94.8876 28.5559C91.0626 32.2986 89.5879 37.4275 89.4496 42.695C89.3114 48.9328 90.6478 55.1706 91.6156 61.316C92.7216 68.2469 93.8276 75.224 94.9337 82.1549C97.4683 98.1885 100.003 114.176 102.63 130.163C102.676 130.579 103.598 130.302 103.551 129.932Z" fill="#1C1C1C"/>
<path d="M152.585 96.7088C152.862 96.7088 153.415 96.293 152.862 96.293C152.585 96.293 152.032 96.7088 152.585 96.7088Z" fill="#1C1C1C"/>
<path d="M153.737 94.3986C153.184 98.5109 152.539 103.039 154.383 106.967C155.719 109.831 158.254 112.234 161.526 112.465C167.194 112.881 170.466 107.151 171.526 102.346C173.185 94.7683 168.807 85.2498 174.475 78.7347C179.637 72.8204 189.545 75.7314 193.877 81.1375C199.499 88.1608 198.071 98.5571 195.352 106.412C192.356 115.099 187.425 123.139 185.812 132.288C183.001 148.413 190.974 164.678 204.891 172.903C223.233 183.807 245.537 180.943 265.584 177.985C266.137 177.893 266.368 177.107 265.63 177.246C246.736 179.926 226.366 182.791 208.578 173.873C193.278 166.203 183.969 149.661 186.734 132.472C189.315 116.67 204.338 100.544 196.734 84.0022C194.292 78.6885 189.038 75.1307 183.231 74.761C177.517 74.3914 172.632 77.6258 171.065 83.2167C168.853 91.2104 172.909 99.6661 168.623 107.29C166.088 111.818 160.788 113.482 156.963 109.231C153.231 105.165 153.876 99.2964 154.475 94.2138C154.567 93.9827 153.784 94.1676 153.737 94.3986Z" fill="#1C1C1C"/>
<path d="M77.3295 159.965C82.0301 186.164 95.072 210.653 114.013 229.321C133.691 248.727 159.452 261.064 186.734 264.761C202.402 266.886 218.44 266.193 233.832 262.45C234.477 262.312 234.247 261.619 233.602 261.757C205.813 268.226 176.134 265.269 150.189 253.302C126.087 242.166 106.04 223.314 92.9521 200.257C85.809 187.689 80.7858 173.966 78.159 159.688C78.1129 159.411 77.2834 159.642 77.3295 159.965Z" fill="#1C1C1C"/>
<path d="M271.299 178.402C265.492 204.508 259.363 233.387 239.685 252.886C239.27 253.302 240.192 253.255 240.468 253.024C250.468 243.876 256.782 231.03 261.39 218.462C266.183 205.386 269.317 191.801 272.22 178.217C272.266 177.893 271.391 178.078 271.299 178.402Z" fill="#1C1C1C"/>
<path d="M287.244 185.979C288.995 190.646 289.594 195.59 289.041 200.534C288.488 205.617 286.553 209.868 284.11 214.258C282.728 216.706 288.074 215.875 288.995 214.72C295.677 206.403 296.553 193.927 292.59 184.224C291.806 182.237 286.507 184.039 287.244 185.979Z" fill="#1C1C1C"/>
<path d="M309.641 191.57C310.977 201.504 309.042 211.808 304.664 220.772C300.194 229.875 293.327 236.806 284.986 242.443C284.294 242.905 283.695 243.69 284.479 244.337C285.262 245.03 286.967 244.43 287.705 244.106C307.429 234.958 318.074 210.792 314.848 189.86C314.572 188.058 309.364 189.537 309.641 191.57Z" fill="#1C1C1C"/>
<path d="M7.09703 24.1196C3.13377 31.9746 0.737387 40.5227 0.184375 49.3019C-0.368637 57.6652 0.322628 67.3684 3.73287 75.1311C4.60847 77.1641 9.72384 75.5007 9.21691 73.329C8.20306 69.2629 6.95878 65.3354 6.40576 61.1768C5.85275 57.0645 5.7145 52.9059 5.94492 48.7936C6.40576 40.2455 8.52565 31.7898 12.2124 24.0733C13.3184 21.6244 7.92655 22.4561 7.09703 24.1196Z" fill="#1C1C1C"/>
<path d="M21.4752 54.893C18.3876 61.0847 17.2355 68.3852 17.6042 75.2699C17.9267 81.8312 19.3554 89.409 23.1343 94.9537C24.1942 96.5247 29.2174 94.7227 28.434 92.7358C27.2358 89.5938 25.7611 86.6828 24.8855 83.4022C24.056 80.214 23.549 76.9333 23.4108 73.6065C23.1804 66.9528 24.5168 60.6688 26.6828 54.3848C27.374 52.3979 22.1665 53.5531 21.4752 54.893Z" fill="#1C1C1C"/>
<path d="M163.185 3.37291C177.425 8.17834 187.241 20.4229 190.328 34.9779C190.743 36.9647 195.858 35.3013 195.628 33.2682C193.969 17.6506 181.572 4.43565 166.871 0.0922814C165.719 -0.231161 164.06 0.369518 163.231 1.15502C162.632 1.70949 161.986 2.95706 163.185 3.37291Z" fill="#1C1C1C"/>
<path d="M203.232 10.119C206.827 15.8486 209.039 22.6871 209.546 29.4332C210.099 36.5951 208.578 43.0177 206.458 49.81C206.089 51.0114 208.071 51.2886 208.762 51.2424C210.007 51.15 211.481 50.5493 212.08 49.3942C215.491 43.0177 216.228 34.8855 215.537 27.8159C214.799 20.423 212.403 13.6769 208.301 7.48528C207.149 5.82186 201.896 7.94734 203.232 10.119Z" fill="#1C1C1C"/>
</g>
<defs>
<clipPath id="clip0_1206_17810">
<rect width="449" height="422" fill="white"/>
</clipPath>
</defs>
</svg>
