<svg width="506" height="476" viewBox="0 0 506 476" fill="none" xmlns="http://www.w3.org/2000/svg">
<g clip-path="url(#clip0_1206_17810)">
<path d="M125.371 296.817C127.084 307.762 128.798 318.707 130.668 329.599C130.98 331.319 133.161 333.039 134.563 333.769C137.367 335.28 140.795 335.385 143.911 335.124C150.455 334.655 157.103 331.945 161.673 327.098C167.593 320.844 173.462 314.589 179.383 308.387C168.996 309.169 158.557 310.003 148.17 310.785C150.663 318.394 153.104 326.055 155.597 333.665C157.31 338.981 164.529 339.763 169.048 339.45C175.28 339.033 182.966 336.375 187.017 331.267C191.483 325.586 195.95 319.905 200.416 314.224C189.925 315.006 179.383 315.788 168.892 316.57C170.398 323.449 171.904 330.329 173.41 337.209C173.826 339.033 175.903 340.753 177.409 341.587C180.266 343.15 183.797 343.307 186.965 343.098C193.509 342.629 200.52 339.919 204.986 334.863C211.323 327.723 217.71 320.531 224.047 313.391C213.504 314.172 203.013 314.954 192.47 315.736C193.301 322.563 194.08 329.391 194.911 336.271C195.119 338.043 197.508 339.919 198.91 340.649C201.767 342.212 205.298 342.369 208.466 342.16C215.114 341.691 221.917 338.929 226.487 333.925C233.239 326.524 239.991 319.176 246.794 311.775C236.459 310.576 226.176 309.377 215.841 308.179C212.673 313.703 212.465 321 215.425 326.681C219.632 334.707 227.215 338.824 236.199 339.241C247.157 339.763 259.518 334.707 266.529 326.107C271.359 320.218 274.475 312.035 271.567 304.53C260.089 308.283 248.664 312.035 237.186 315.736C239.471 321.365 241.808 327.046 244.093 332.674C246.482 338.564 254.532 339.45 259.933 338.512C266.997 337.261 274.112 333.821 277.851 327.41C284.654 315.632 291.198 303.749 298.002 291.97C286.836 292.804 275.67 293.585 264.556 294.419C264.763 305.573 264.608 316.726 264.711 327.932C264.763 335.437 272.45 337.365 278.682 336.948C282.577 336.688 286.68 335.697 290.107 333.821C293.327 331.997 297.638 329.339 298.884 325.638C312.128 286.185 324.956 246.626 338.407 207.225C326.67 207.902 314.932 208.58 303.195 209.257C296.184 237.089 289.744 265.077 282.992 293.012C282.265 296.087 285.07 299.683 287.563 300.986C290.679 302.55 294.055 302.967 297.534 302.758C305.169 302.341 314.777 298.485 318.204 290.979C332.434 259.604 346.664 228.176 360.843 196.801C349.469 196.436 338.095 196.071 326.773 195.654C316.231 229.896 305.532 264.086 294.885 298.328C291.873 308.074 288.809 317.821 285.797 327.567C284.758 330.85 284.291 333.769 286.784 336.635C289.121 339.346 293.691 340.544 297.067 340.596C305.532 340.701 316.023 336.844 319.97 328.713C329.63 308.96 339.29 289.26 349.001 269.507C357.727 251.734 366.14 233.649 376.579 216.815C376.838 216.45 377.046 216.033 377.306 215.668C378.5 213.792 377.721 215.095 376.942 216.189C377.773 214.938 378.604 213.687 379.435 212.437C380.889 210.352 382.344 208.267 383.902 206.235C387.225 201.804 390.757 197.531 394.548 193.413C383.798 191.954 372.995 190.443 362.245 188.983C347.703 224.58 336.849 261.793 330.045 299.683C328.124 310.263 326.566 320.844 325.319 331.528C324.384 339.346 334.044 341.587 339.809 341.222C347.288 340.805 357.311 337 360.479 329.495C374.294 296.765 388.212 264.086 402.079 231.356C406.078 221.922 410.077 212.541 414.024 203.107C402.235 203.785 390.445 204.41 378.708 205.088C372.58 248.451 366.452 291.813 360.323 335.228C359.856 338.408 362.141 341.743 364.842 343.15C367.958 344.714 371.333 345.079 374.761 344.922C383.071 344.453 391.017 340.492 395.379 333.196C402.65 321.052 409.921 308.908 417.296 296.869C405.558 297.546 393.821 298.224 382.084 298.902C382.292 309.013 382.551 319.071 382.811 329.182C382.915 332.779 384.213 335.385 387.381 337.209C390.757 339.189 395.899 339.502 399.69 338.877C404.416 338.043 409.35 336.427 413.037 333.3C415.634 331.059 419.113 327.671 419.061 323.971C418.802 313.86 418.594 303.801 418.23 293.69C417.971 285.872 410.492 283.527 403.689 283.943C395.327 284.413 387.329 288.374 383.019 295.722C375.852 307.918 368.529 320.01 361.258 332.101C372.943 331.424 384.629 330.746 396.314 330.016C402.546 286.654 408.726 243.291 414.959 199.928C415.426 196.697 413.141 193.309 410.388 191.902C407.272 190.286 403.845 189.921 400.365 190.078C392.834 190.495 382.863 194.351 379.643 201.909C365.621 234.743 351.91 267.474 338.095 300.257C334.148 309.69 330.097 319.071 326.098 328.505C337.836 327.827 349.521 327.15 361.258 326.472C364.634 298.693 370.139 271.227 377.773 244.333C377.462 245.428 377.15 246.522 376.838 247.617C382.344 228.229 388.887 209.153 396.522 190.495C397.716 187.576 397.924 183.771 395.535 181.322C393.302 179.029 390.393 178.038 387.277 177.621C378.812 176.475 369.983 179.862 364.218 186.117C350.3 201.179 339.601 219.056 330.201 237.193C320.489 255.956 311.505 275.083 302.26 294.055C296.755 305.312 291.25 316.57 285.745 327.827C297.119 328.192 308.544 328.609 319.918 328.974C330.513 294.732 341.107 260.542 351.754 226.3C354.766 216.554 357.778 206.808 360.843 197.01C361.881 193.726 362.349 190.807 359.856 187.941C357.519 185.283 352.949 184.032 349.625 184.032C341.419 183.98 330.461 187.68 326.721 195.863C312.439 227.238 298.209 258.614 283.927 289.989C295.665 289.312 307.35 288.634 319.087 287.957C325.839 260.073 332.85 232.19 339.29 204.202C340.017 201.127 337.264 197.531 334.719 196.228C331.603 194.612 328.228 194.247 324.748 194.456C320.749 194.664 316.49 195.654 313.011 197.687C309.687 199.563 305.272 202.43 304.078 206.235C291.51 245.949 278.318 285.455 265.594 325.065C276.968 324.283 288.394 323.554 299.767 322.772C299.56 311.566 299.04 300.413 298.936 289.207C298.833 281.911 291.354 280.243 285.33 280.66C277.695 281.233 269.489 284.777 265.49 291.657C258.635 303.436 251.572 315.058 244.768 326.889C256.038 325.117 267.256 323.397 278.526 321.625C276.189 315.996 273.904 310.316 271.567 304.687C268.503 297.182 257.337 297.755 251.053 299.996C247.002 301.455 242.587 303.488 239.887 306.98C238.017 309.377 235.94 312.713 237.186 315.892C237.602 316.935 237.861 317.925 237.965 319.019C237.861 318.029 237.757 317.039 237.705 316.101C237.809 317.821 237.601 319.488 237.082 321.156C237.394 320.166 237.705 319.124 238.017 318.133C237.705 318.967 237.342 319.697 236.978 320.479C236.043 322.563 239.108 318.029 237.55 319.697C235.161 322.199 239.471 318.185 238.432 319.019C235.836 321.104 242.276 316.987 239.783 318.185C243.262 316.83 244.197 316.413 242.483 317.039C243.626 316.778 244.768 316.466 245.911 316.205C244.249 316.413 245.08 316.413 248.456 316.049C246.898 315.944 247.573 316.049 250.585 316.309C250.377 316.257 250.17 316.205 250.014 316.153C248.664 315.736 249.235 315.944 251.676 316.726C251.053 316.257 250.222 315.944 249.598 315.527C250.429 316.153 251.26 316.778 252.143 317.404C250.637 316.257 249.495 314.902 248.508 313.338C249.027 314.172 249.495 315.006 250.014 315.84C248.975 314.016 248.352 312.088 248.092 310.055C248.196 311.045 248.248 311.983 248.352 312.974C248.248 311.306 248.352 309.742 248.819 308.179C248.508 309.169 248.196 310.159 247.885 311.202C248.144 310.42 248.508 309.69 248.923 308.96C250.325 306.511 250.222 302.602 248.092 300.517C245.963 298.38 243.159 297.546 240.198 297.234C232.252 296.296 223.371 299.423 217.918 305.364C211.167 312.765 204.415 320.166 197.664 327.515C208.206 326.733 218.697 325.951 229.24 325.169C228.409 318.342 227.63 311.514 226.799 304.635C226.591 302.863 224.202 300.986 222.8 300.257C219.944 298.693 216.412 298.537 213.244 298.745C206.7 299.214 199.689 301.924 195.223 306.98C188.887 314.12 182.499 321.313 176.163 328.453C186.705 327.671 197.196 326.889 207.739 326.107C206.233 319.228 204.675 312.348 203.169 305.468C202.753 303.644 200.676 301.924 199.17 301.091C196.313 299.527 192.782 299.371 189.666 299.579C183.486 299.996 175.643 302.654 171.644 307.762C167.23 313.443 162.815 319.176 158.401 324.857C168.892 324.075 179.331 323.293 189.822 322.459C187.277 314.85 184.732 307.241 182.187 299.631C180.421 294.419 173.358 293.638 168.84 293.95C162.296 294.419 155.493 297.13 150.974 302.029C145.158 308.335 139.341 314.641 133.524 320.948C143.859 320.114 154.194 319.28 164.529 318.498C162.556 307.657 160.323 296.869 158.193 286.028C157.622 283.214 153.623 281.65 151.338 281.181C147.495 280.399 142.613 281.025 138.926 282.276C132.693 284.569 124.124 289.207 125.371 296.817Z" fill="#FF006E"/>
<path d="M249.027 181.79C248.144 181.633 247.261 181.529 246.326 181.32C248.092 182.102 249.858 182.884 251.624 183.718C251.312 183.405 251 183.145 250.741 182.832C244.301 176.526 232.304 179.757 225.76 183.874C222.54 185.907 219.684 188.356 218.489 192.057C217.295 195.757 218.801 198.832 222.229 200.657C227.059 203.21 233.239 203.732 238.536 204.565C242.951 205.243 247.365 205.868 251.779 206.546C261.128 207.953 270.476 209.308 279.824 210.715C291.821 212.487 303.766 214.312 315.763 216.084C320.385 216.761 324.956 217.439 329.578 218.064C331.967 218.429 334.356 218.742 336.745 219.107C340.38 219.628 343.964 219.263 347.599 219.002C351.65 218.69 355.857 216.761 359.18 214.572C361.933 212.748 365.101 210.194 366.296 206.963C367.127 204.774 367.438 202.585 366.867 200.292C365.984 196.748 361.985 194.767 358.921 193.777C353.26 191.953 347.287 191.484 341.419 190.702C336.641 190.076 331.863 189.503 327.085 188.93C317.892 187.835 308.648 186.741 299.456 185.594C290.263 184.5 281.019 183.405 271.826 182.259C267.048 181.685 262.27 181.112 257.492 180.539C249.079 179.548 240.302 178.089 232.044 180.851C237.861 185.229 243.73 189.555 249.546 193.933C249.754 193.673 250.014 193.464 250.273 193.204C245.392 195.601 240.458 197.998 235.576 200.396C233.083 200.604 232.668 200.709 234.329 200.657C241.289 200.5 249.39 197.582 253.753 192.005C254.948 190.493 256.402 188.096 255.519 186.011C254.324 183.405 251.676 182.206 249.027 181.79Z" fill="#FF006E"/>
<path d="M102.935 216.501C102.883 255.642 102.831 294.731 102.467 333.872C102.363 345.025 102.208 356.231 102 367.384C101.948 370.668 108.751 369.209 108.803 366.394C109.426 327.305 109.582 288.164 109.686 249.075C109.686 237.869 109.738 226.664 109.738 215.511C109.738 212.175 102.935 213.686 102.935 216.501Z" fill="#1C1C1C"/>
<path d="M104.025 373.378C148.533 372.857 193.093 372.127 237.601 371.397C282.109 370.72 326.669 370.042 371.177 369.313C396.366 368.896 421.658 369.156 446.794 367.801C448.145 367.749 450.222 367.228 450.845 365.769C451.417 364.361 450.17 363.736 448.976 363.736C426.748 363.267 404.416 364.205 382.188 364.57C359.908 364.935 337.628 365.352 315.4 365.717C270.84 366.498 226.332 367.28 181.772 368.062C156.583 368.531 131.343 368.948 106.155 369.469C104.908 369.521 102.727 370.094 102.208 371.397C101.688 372.805 102.831 373.378 104.025 373.378Z" fill="#1C1C1C"/>
<path d="M434.019 171.939C433.707 197.164 434.538 222.39 434.85 247.615C435.161 272.841 435.525 298.066 435.888 323.291C436.096 337.416 435.784 351.696 436.719 365.82C436.875 368.53 442.744 367.019 442.848 364.778C443.315 352.217 442.692 339.552 442.536 326.94C442.38 314.327 442.172 301.714 442.017 289.102C441.653 263.876 441.29 238.651 440.874 213.425C440.666 199.249 440.614 185.073 440.095 170.896C439.939 168.29 434.071 169.802 434.019 171.939Z" fill="#1C1C1C"/>
<path d="M101.221 373.482C89.7951 387.606 79.1485 402.512 68.2941 417.054C62.841 424.35 57.3878 431.647 51.9347 438.943C46.5335 446.188 40.4571 453.328 35.6791 461.042C35.004 462.188 36.2504 462.762 37.1333 462.918C38.4317 463.074 40.1455 462.501 41.0284 461.511C44.2483 457.967 46.9489 453.849 49.8054 450.045C52.506 446.448 55.1546 442.904 57.8033 439.308C63.2565 432.012 68.6577 424.715 74.1108 417.366C84.9652 402.773 96.235 388.336 106.518 373.326C107.297 372.179 105.687 371.762 104.908 371.762C103.558 371.71 102.104 372.44 101.221 373.482Z" fill="#1C1C1C"/>
<path d="M439.316 364.726C448.82 381.613 459.103 398.135 469.074 414.76C474.32 423.516 479.617 432.324 484.863 441.08C487.355 445.25 489.848 449.419 492.341 453.589C494.834 457.706 497.171 462.084 499.976 465.941C501.17 467.609 506.883 465.576 505.844 463.491C501.482 454.683 495.717 446.396 490.679 438.005C485.59 429.562 480.448 421.067 475.307 412.624C465.231 395.998 455.416 379.163 444.873 362.798C443.834 361.13 438.381 363.111 439.316 364.726Z" fill="#1C1C1C"/>
<path d="M37.0294 476C65.5416 475.896 94.0537 475.01 122.566 474.385C151.078 473.759 179.642 473.082 208.154 472.404C264.867 471.101 321.58 469.746 378.292 468.391C394.392 468.026 410.44 467.609 426.54 467.244C442.588 466.827 458.739 466.827 474.787 465.837C476.189 465.733 478.319 465.264 478.942 463.752C479.513 462.345 478.267 461.563 476.968 461.563C462.634 461.355 448.249 462.033 433.915 462.397C419.736 462.762 405.558 463.075 391.38 463.44C362.868 464.169 334.304 464.847 305.792 465.577C249.079 466.984 192.366 468.443 135.653 469.902C103.506 470.736 71.2544 471.31 39.1068 472.769C38.0162 472.821 35.9388 473.342 35.4714 474.489C34.952 475.688 36.0427 476 37.0294 476Z" fill="#1C1C1C"/>
<path d="M111.452 384.011C104.597 393.965 98.2086 404.233 91.7167 414.396C88.5487 419.347 85.3807 424.246 82.2646 429.197C78.9927 434.357 75.1495 439.465 72.397 444.937C70.9428 447.804 76.8634 446.709 77.9021 445.458C81.5894 440.924 84.4978 435.556 87.6139 430.657C90.9377 425.445 94.3134 420.181 97.6373 414.969C104.181 404.65 110.933 394.434 117.113 383.958C117.84 382.708 116.334 382.186 115.347 382.186C113.893 382.134 112.283 382.812 111.452 384.011Z" fill="#1C1C1C"/>
<path d="M434.798 380.622C437.862 390.264 440.978 399.906 444.146 409.548C445.704 414.291 447.262 419.034 448.82 423.724C450.43 428.571 451.78 433.679 453.806 438.37C454.844 440.767 460.661 438.891 460.038 436.337C458.895 431.386 456.922 426.487 455.312 421.64C453.754 416.897 452.196 412.206 450.586 407.463C447.418 397.821 444.146 388.232 440.822 378.642C440.095 376.349 434.07 378.329 434.798 380.622Z" fill="#1C1C1C"/>
<path d="M113.477 395.321C171.021 394.018 228.565 391.985 286.057 390.161C302.26 389.64 318.464 389.327 334.667 388.441C335.914 388.389 338.043 387.868 338.563 386.513C339.082 385.21 337.939 384.637 336.797 384.689C307.869 384.949 278.89 386.461 249.962 387.399C221.346 388.337 192.73 389.327 164.166 390.318C147.962 390.891 131.758 391.464 115.555 392.194C114.464 392.246 112.439 392.767 111.919 393.914C111.4 395.06 112.491 395.373 113.477 395.321Z" fill="#1C1C1C"/>
<path d="M80.8104 453.797C128.538 451.973 176.215 449.628 223.891 447.387C271.411 445.146 318.931 442.957 366.503 440.611C393.302 439.308 420.152 438.11 446.898 436.338C448.093 436.233 450.17 435.764 450.69 434.513C451.209 433.263 450.118 432.794 448.976 432.846C401.248 434.253 353.572 436.963 305.896 439.308C258.375 441.602 210.803 443.947 163.283 446.292C136.484 447.595 109.686 448.95 82.8878 450.514C81.7453 450.566 79.6679 451.087 79.1485 452.286C78.6292 453.38 79.7198 453.797 80.8104 453.797Z" fill="#1C1C1C"/>
<path d="M85.4846 438.371C130.252 436.494 175.02 434.41 219.736 432.273C264.504 430.084 309.271 427.947 354.039 425.758C379.279 424.559 404.572 423.569 429.76 421.797C430.954 421.693 433.032 421.224 433.551 419.973C434.07 418.722 432.98 418.253 431.837 418.253C387.07 419.452 342.302 422.318 297.586 424.455C252.818 426.644 208.051 428.781 163.283 431.022C138.043 432.273 112.802 433.576 87.562 434.983C86.4195 435.035 84.3421 435.556 83.8227 436.755C83.3553 437.954 84.394 438.423 85.4846 438.371Z" fill="#1C1C1C"/>
<path d="M97.9488 420.754C120.021 420.077 142.145 418.67 164.218 417.627C185.978 416.585 207.739 415.49 229.448 414.396C273.488 412.155 317.477 409.914 361.518 407.62C386.135 406.318 410.804 405.432 435.369 403.712C437.965 403.503 440.77 399.49 436.719 399.438C431.474 399.438 426.176 399.438 420.931 399.438C419.736 399.438 417.607 400.063 417.14 401.262C416.62 402.565 417.763 402.93 418.854 402.982C424.099 403.243 429.344 403.503 434.59 403.712C435.317 402.252 436.044 400.845 436.771 399.386C414.855 400.115 392.886 401.627 371.022 402.721C349.105 403.868 327.189 404.962 305.22 406.161C261.543 408.507 217.866 410.8 174.189 413.249C149.52 414.604 124.747 415.647 100.078 417.419C98.9356 417.523 96.9101 417.94 96.3908 419.191C95.8195 420.39 96.9101 420.754 97.9488 420.754Z" fill="#1C1C1C"/>
<path d="M125.838 397.145C122.774 405.536 119.502 413.823 116.489 422.214C113.166 431.491 109.219 440.716 106.622 450.201C105.999 452.443 111.711 451.088 112.335 449.628C116.178 441.133 118.827 431.908 121.943 423.152C125.163 414.187 128.071 405.119 131.239 396.102C131.758 394.487 126.461 395.425 125.838 397.145Z" fill="#1C1C1C"/>
<path d="M147.027 406.421C145.417 411.633 143.859 416.845 142.301 422.057C140.743 427.217 138.925 432.429 137.731 437.693C137.211 440.09 142.924 438.683 143.548 437.119C145.469 432.064 146.767 426.696 148.326 421.484C149.884 416.116 151.442 410.747 153 405.327C153.623 403.19 147.65 404.337 147.027 406.421Z" fill="#1C1C1C"/>
<path d="M179.486 398.604C177.669 407.151 176.214 415.803 174.552 424.35C172.943 432.846 170.813 441.497 170.034 450.149C169.826 452.494 175.228 450.774 175.695 449.107C178.084 440.768 179.227 431.908 180.837 423.36C182.447 414.76 184.16 406.213 185.563 397.561C185.978 395.007 179.954 396.415 179.486 398.604Z" fill="#1C1C1C"/>
<path d="M206.077 398.603C204.623 406.942 203.221 415.229 201.87 423.568C200.52 431.855 198.702 440.194 197.923 448.585C197.664 451.243 203.48 449.575 203.948 447.542C205.869 439.36 206.856 430.864 208.154 422.578C209.505 414.239 210.803 405.9 212.101 397.561C212.517 395.111 206.441 396.414 206.077 398.603Z" fill="#1C1C1C"/>
<path d="M227.734 392.401C227.422 411.685 226.799 431.021 227.37 450.253C227.422 452.807 233.291 451.347 233.343 449.211C234.174 429.979 233.758 410.591 233.706 391.359C233.706 388.805 227.734 390.264 227.734 392.401Z" fill="#1C1C1C"/>
<path d="M251.987 394.017C250.845 401.314 249.702 408.61 248.611 415.907C247.521 423.099 245.963 430.5 245.599 437.797C245.443 440.611 251.26 438.839 251.728 436.754C253.389 429.666 253.961 422.109 254.896 414.865C255.882 407.568 256.817 400.271 257.7 392.975C258.064 390.681 252.299 392.037 251.987 394.017Z" fill="#1C1C1C"/>
<path d="M268.762 390.682C266.477 409.392 263.828 428.155 262.426 446.97C262.218 449.68 268.295 448.221 268.606 445.928C271.359 427.269 272.917 408.402 274.787 389.639C275.046 387.086 269.022 388.493 268.762 390.682Z" fill="#1C1C1C"/>
<path d="M299.663 390.838C299.56 398.134 299.456 405.431 299.352 412.728C299.248 420.128 298.833 427.686 299.352 435.086C299.508 437.171 305.22 435.503 305.376 433.575C306 426.331 305.636 418.93 305.636 411.685C305.636 404.389 305.584 397.092 305.584 389.795C305.532 387.346 299.663 388.805 299.663 390.838Z" fill="#1C1C1C"/>
<path d="M324.852 388.18C326.046 397.874 327.293 407.516 328.591 417.158C329.889 426.748 330.72 436.546 332.694 446.032C333.109 448.116 338.822 446.449 338.718 444.52C338.095 434.878 336.277 425.184 334.979 415.594C333.629 405.796 332.226 395.998 330.772 386.199C330.409 384.219 324.54 385.887 324.852 388.18Z" fill="#1C1C1C"/>
<path d="M352.429 383.541C353.208 392.193 354.039 400.844 354.87 409.444C355.701 417.992 356.168 426.747 357.623 435.243C357.986 437.275 363.595 435.608 363.543 433.783C363.283 425.184 361.985 416.532 361.05 407.985C360.115 399.229 359.129 390.473 358.142 381.665C357.986 379.736 352.221 381.3 352.429 383.541Z" fill="#1C1C1C"/>
<path d="M374.345 385.105C376.007 394.017 377.669 402.877 379.435 411.789C381.149 420.597 382.343 429.718 384.732 438.422C385.356 440.767 391.068 438.787 390.809 436.442C389.718 427.529 387.329 418.617 385.563 409.809C383.798 400.949 381.928 392.089 380.11 383.28C379.695 381.3 373.982 382.968 374.345 385.105Z" fill="#1C1C1C"/>
<path d="M405.714 385.105C406.857 393.235 408.051 401.314 409.35 409.444C410.596 417.47 411.375 425.757 413.348 433.627C413.868 435.764 419.581 434.096 419.425 432.116C418.854 424.037 417.036 415.855 415.737 407.881C414.387 399.646 412.985 391.411 411.531 383.228C411.167 381.144 405.402 382.811 405.714 385.105Z" fill="#1C1C1C"/>
<path d="M107.816 219.472C107.349 261.323 106.31 303.174 105.791 345.026C105.635 357.013 105.531 369 105.479 381.04C105.479 381.613 106.622 381.352 106.622 380.883C106.778 338.98 107.712 297.128 108.44 255.277C108.647 243.29 108.803 231.303 108.959 219.367C108.959 218.742 107.816 219.003 107.816 219.472Z" fill="#1C1C1C"/>
<path d="M434.797 171.783C433.967 169.75 433.136 167.77 432.305 165.789C432.149 165.372 431.266 165.633 431.214 166.05C428.929 215.823 426.592 265.597 424.307 315.318C423.683 329.338 423.008 343.41 422.437 357.482C422.437 357.951 423.476 357.69 423.476 357.326C425.969 307.552 428.098 257.779 430.383 208.058C431.006 194.038 431.681 179.966 432.305 165.946C431.941 166.05 431.578 166.102 431.214 166.206C432.045 168.187 432.876 170.219 433.759 172.2C433.967 172.461 434.953 172.148 434.797 171.783Z" fill="#1C1C1C"/>
<path d="M107.349 369.157C90.4185 397.614 73.1762 425.967 56.7648 454.736C56.5571 455.101 57.4919 454.945 57.6477 454.684C74.9939 426.436 91.4572 397.666 108.284 369.157C108.544 368.688 107.505 368.845 107.349 369.157Z" fill="#1C1C1C"/>
<path d="M39.2627 466.878C37.1853 469.015 35.1079 471.204 33.0306 473.341C32.7709 473.654 33.1864 473.758 33.3941 473.706C89.0162 467.869 144.742 463.178 200.624 459.999C255.831 456.872 311.089 455.047 366.4 454.631C397.664 454.37 428.877 454.683 460.142 455.204C460.609 455.204 461.232 454.526 460.505 454.526C404.727 453.171 348.898 453.64 293.12 455.256C237.653 456.872 182.187 459.895 126.877 464.325C95.7158 466.774 64.6069 469.693 33.5499 473.081C33.6538 473.185 33.8096 473.341 33.9134 473.445C35.9908 471.256 38.0163 469.12 40.0937 466.931C40.4572 466.566 39.4705 466.67 39.2627 466.878Z" fill="#1C1C1C"/>
<path d="M437.862 359.463C458.012 387.19 478.111 414.917 498.47 442.488C498.729 442.853 499.768 442.384 499.456 441.967C479.358 414.188 458.999 386.669 438.745 359.046C438.537 358.785 437.654 359.15 437.862 359.463Z" fill="#1C1C1C"/>
<path d="M101.792 408.35C142.924 406.89 184.057 405.17 225.137 403.555C266.269 401.939 307.402 400.323 348.482 398.708C371.645 397.77 394.808 396.884 417.919 395.893C418.334 395.893 418.957 395.216 418.282 395.216C377.15 396.727 336.018 398.447 294.937 400.063C253.805 401.679 212.673 403.346 171.592 404.962C148.429 405.9 125.267 406.786 102.104 407.776C101.74 407.829 101.117 408.402 101.792 408.35Z" fill="#1C1C1C"/>
<path d="M89.2237 433.054C135.653 434.67 182.135 434.67 228.513 433.575C274.631 432.481 320.749 430.135 366.763 426.539C392.73 424.506 418.698 422.109 444.561 419.242C445.132 419.19 445.392 418.461 444.665 418.565C398.339 423.464 351.961 427.373 305.428 429.875C259.57 432.376 213.607 433.627 167.697 433.627C141.626 433.627 115.607 433.158 89.5353 432.533C89.2237 432.481 88.6005 433.054 89.2237 433.054Z" fill="#1C1C1C"/>
<path d="M138.354 393.392C131.135 414.761 123.605 436.077 116.801 457.602C116.697 457.967 117.684 457.811 117.788 457.498C125.37 436.234 132.174 414.657 139.341 393.184C139.497 392.819 138.458 393.027 138.354 393.392Z" fill="#1C1C1C"/>
<path d="M159.336 395.112C149.312 411.425 143.236 430.553 142.821 449.784C142.821 450.201 143.807 449.993 143.807 449.628C144.846 430.24 150.143 411.686 160.271 395.112C160.53 394.695 159.492 394.851 159.336 395.112Z" fill="#1C1C1C"/>
<path d="M182.239 395.06C179.59 412.259 176.682 429.406 174.397 446.657C174.345 447.126 175.383 446.866 175.435 446.501C178.344 429.354 180.629 412.102 183.174 394.903C183.226 394.538 182.291 394.747 182.239 395.06Z" fill="#1C1C1C"/>
<path d="M212.465 393.601C204.311 411.425 199.949 431.804 201.091 451.452C201.143 451.922 202.13 451.661 202.13 451.296C201.922 431.23 205.298 411.999 213.4 393.601C213.607 393.132 212.621 393.288 212.465 393.601Z" fill="#1C1C1C"/>
<path d="M252.922 394.851C249.858 409.445 246.638 424.038 243.885 438.683C243.782 439.1 244.82 438.892 244.924 438.527C248.144 423.986 251.001 409.288 253.909 394.695C254.013 394.278 252.974 394.487 252.922 394.851Z" fill="#1C1C1C"/>
<path d="M265.075 391.985C264.192 408.141 263.153 424.246 262.634 440.403C262.634 440.872 263.621 440.611 263.672 440.247C264.763 424.142 265.386 407.933 266.165 391.828C266.113 391.359 265.075 391.568 265.075 391.985Z" fill="#1C1C1C"/>
<path d="M295.664 401.105C295.561 398.134 295.405 395.111 295.353 392.14C295.353 391.723 294.366 391.932 294.366 392.297C293.587 409.809 293.275 427.529 293.275 445.093C293.275 445.562 294.314 445.301 294.314 444.937C294.989 427.373 295.457 409.704 295.405 392.14C295.093 392.193 294.73 392.245 294.418 392.297C294.626 395.32 294.678 398.343 294.833 401.365C294.73 401.678 295.664 401.47 295.664 401.105Z" fill="#1C1C1C"/>
<path d="M326.462 389.067C328.072 403.712 329.578 418.357 331.499 433.003C331.551 433.315 332.486 433.055 332.434 432.69C330.98 418.045 329.162 403.399 327.448 388.754C327.397 388.389 326.41 388.65 326.462 389.067Z" fill="#1C1C1C"/>
<path d="M358.246 385.731C358.661 401.366 358.713 417.054 359.544 432.637C359.544 433.054 360.531 432.794 360.531 432.481C360.531 416.846 359.7 401.21 359.232 385.574C359.284 385.105 358.246 385.366 358.246 385.731Z" fill="#1C1C1C"/>
<path d="M374.813 388.805C377.462 403.972 379.954 419.243 382.915 434.357C382.967 434.722 384.005 434.461 383.953 434.044C381.513 418.826 378.552 403.659 375.8 388.493C375.748 388.128 374.709 388.441 374.813 388.805Z" fill="#1C1C1C"/>
<path d="M401.611 394.852C401.404 392.924 401.144 390.995 400.936 389.067C400.625 389.171 400.261 389.275 399.949 389.38C403.533 406.058 407.843 422.683 412.154 439.153C412.258 439.518 413.245 439.205 413.193 438.84C409.401 422.214 405.506 405.484 400.936 389.067C400.832 388.702 399.897 389.015 399.949 389.38C400.209 391.308 400.417 393.236 400.676 395.165C400.728 395.478 401.663 395.217 401.611 394.852Z" fill="#1C1C1C"/>
<path d="M426.592 390.161C426.436 388.232 426.332 386.356 426.176 384.428C425.813 384.532 425.501 384.584 425.138 384.688C429.137 400.897 433.707 417.002 438.225 433.054C438.381 433.523 439.472 433.159 439.316 432.69C435.109 416.533 430.85 400.324 426.124 384.323C426.02 383.906 425.086 384.271 425.138 384.636C425.293 386.565 425.449 388.493 425.553 390.421C425.605 390.838 426.592 390.578 426.592 390.161Z" fill="#1C1C1C"/>
<path d="M126.773 257.362C126.253 285.141 127.292 312.973 127.292 340.752C127.292 344.036 134.095 342.576 134.095 339.762C134.095 311.983 133.109 284.151 133.576 256.372C133.576 253.088 126.825 254.548 126.773 257.362Z" fill="#1C1C1C"/>
<path d="M407.947 196.956C408.363 234.221 409.557 271.486 410.492 308.751C410.752 319.435 410.908 330.172 411.531 340.856C411.687 343.827 417.971 342.315 417.971 339.866C418.075 321.259 417.244 302.601 416.776 283.995C416.309 265.336 415.789 246.73 415.27 228.071C414.958 217.387 414.751 206.65 414.283 195.966C414.231 192.995 407.947 194.507 407.947 196.956Z" fill="#1C1C1C"/>
<path d="M129.006 342.837C165.672 344.088 202.493 343.254 239.159 343.202C275.358 343.15 311.608 343.097 347.807 343.045C368.321 342.993 388.887 342.941 409.401 342.837C410.803 342.837 412.933 342.211 413.504 340.752C414.075 339.345 412.829 338.615 411.531 338.615C375.124 338.615 338.718 338.667 302.364 338.719C265.802 338.772 229.24 338.876 192.678 338.98C172.112 339.032 151.597 338.876 131.031 339.658C129.11 339.762 125.163 342.733 129.006 342.837Z" fill="#1C1C1C"/>
<path d="M272.657 286.392C285.901 278.158 295.041 263.669 300.131 249.128C302.727 241.623 304.441 233.753 305.428 225.883C305.895 221.974 306.207 218.013 306.311 214.104C306.467 210.039 306.675 205.661 305.947 201.647C305.48 198.989 299.663 201.022 299.404 203.211C298.988 207.068 299.352 211.133 299.196 215.042C299.092 218.742 298.78 222.391 298.365 226.039C297.482 233.648 295.976 241.153 293.483 248.398C291.094 255.434 287.874 262.209 283.615 268.307C279.357 274.457 274.111 279.513 268.451 284.36C267.516 285.142 266.789 286.392 268.139 287.174C269.489 287.956 271.463 287.122 272.657 286.392Z" fill="#1C1C1C"/>
<path d="M305.584 197.113C294.678 197.165 283.615 199.458 272.813 200.918C267.308 201.647 261.855 202.429 256.35 203.211C251 203.993 245.392 204.826 240.198 206.286C238.173 206.859 236.355 209.726 239.679 209.726C245.028 209.726 250.637 208.996 255.986 208.318C261.491 207.589 266.944 206.859 272.449 206.077C283.252 204.566 294.574 203.836 305.065 200.865C307.246 200.24 308.96 197.061 305.584 197.113Z" fill="#1C1C1C"/>
<path d="M80.9142 164.174C86.7309 182.885 93.4824 201.543 101.74 219.316C109.271 235.473 118.411 250.952 130.148 264.451C141.314 277.324 154.921 288.373 170.554 295.357C185.874 302.185 202.649 305.103 219.372 304.269C238.225 303.331 257.388 297.598 272.969 286.758C274.059 285.976 274.527 284.464 273.436 283.474C272.294 282.484 270.112 282.797 268.97 283.474C255.207 291.917 240.406 297.39 224.306 298.953C208.57 300.465 192.262 298.172 177.617 292.022C146.664 279.044 124.955 250.952 110.465 221.505C101.065 202.325 94.5211 182.103 87.0945 162.194C86.2116 159.796 80.1872 161.777 80.9142 164.174Z" fill="#1C1C1C"/>
<path d="M86.5751 163.965C83.8226 157.503 80.4987 151.248 77.5904 144.838C74.6821 138.375 72.0334 131.86 69.5405 125.293C64.6067 112.211 60.4519 98.9212 57.0762 85.3703C55.5701 79.2724 52.7656 71.611 55.3104 65.461C56.1933 63.3762 57.8033 60.9788 60.3481 61.2394C62.8929 61.5521 65.0741 63.6889 66.736 65.5131C71.2024 70.5165 73.955 77.0835 77.1749 82.9207C80.8104 89.6441 84.4977 96.3152 88.1331 103.039C96.235 117.84 104.077 132.798 112.439 147.444C113.789 149.789 120.281 147.183 118.982 144.629C111.036 129.567 102.623 114.817 94.4173 99.9114C90.4183 92.6148 86.3674 85.3182 82.3684 78.0216C79.1484 72.1322 76.2401 65.3046 71.2024 60.7182C66.736 56.6008 60.7116 55.2978 55.2065 58.2686C49.3379 61.3957 47.2605 67.9627 47.7799 74.269C48.455 81.722 50.844 89.175 52.8175 96.3674C54.8949 103.768 57.1801 111.117 59.7249 118.414C62.5813 126.596 65.7493 134.675 69.2289 142.597C72.7085 150.467 76.1882 158.597 80.8104 165.894C81.901 167.614 87.458 165.946 86.5751 163.965Z" fill="#1C1C1C"/>
<path d="M119.346 142.127C109.842 114.296 103.506 85.5786 102.052 56.1315C101.74 49.773 101.221 43.1539 102.104 36.8476C102.623 33.1993 103.869 26.7366 108.128 25.5378C114.204 23.87 118.931 31.8442 120.696 36.3264C123.449 43.3624 125.267 50.8154 127.5 58.0599C132.589 74.6336 137.627 91.2074 142.717 107.781C144.898 106.843 147.079 105.905 149.208 105.019C148.481 103.872 147.754 102.726 147.079 101.579C145.885 99.5985 140.068 101.266 141.003 103.56C141.574 104.967 142.145 106.374 142.665 107.781C143.807 110.7 150.403 108.615 149.468 105.54C144.379 88.9663 139.185 72.4447 134.044 55.8709C131.707 48.4179 129.837 40.6001 126.825 33.3556C124.28 27.2577 119.762 21.8374 112.854 21.0035C106.934 20.2738 101.325 23.2967 98.3125 28.4044C95.6119 32.9908 95.0406 38.7239 94.9886 43.9357C94.9367 59.7277 96.3909 75.676 99.0396 91.2595C102.104 109.24 106.726 127.065 113.425 144.004C114.36 146.088 120.021 144.16 119.346 142.127Z" fill="#1C1C1C"/>
<path d="M135.186 46.646C132.278 38.3591 128.538 27.4663 134.511 19.6485C136.64 16.8341 139.704 15.0099 143.184 16.4171C146.456 17.7201 148.793 20.8993 150.403 23.8701C154.713 31.6358 157.258 40.7044 160.011 49.1477C163.075 58.4248 165.776 67.8583 168.061 77.396C170.657 88.1846 172.527 99.0774 174.864 109.918C175.384 112.263 181.148 110.283 180.941 107.938C179.902 96.5757 177.357 85.2659 174.604 74.2168C171.904 63.2718 168.684 52.4833 164.997 41.8511C163.179 36.6392 161.309 31.4273 159.18 26.3197C157.674 22.6714 155.752 18.8667 153 16.0002C146.664 9.43323 136.796 10.4235 130.512 16.6777C121.527 25.6943 125.422 38.1506 129.369 48.5222C130.2 50.607 135.913 48.6786 135.186 46.646Z" fill="#1C1C1C"/>
<path d="M186.186 127.429C191.795 120.55 192.055 111.533 194.496 103.351C195.69 99.3895 197.56 95.0637 201.143 92.7704C204.155 90.8421 207.791 90.9984 210.336 93.6565C215.737 99.2332 213.348 109.553 212.569 116.38C211.478 126.595 210.336 136.811 209.245 147.026C207.999 158.961 206.596 170.844 205.765 182.832C205.558 185.646 211.738 184.135 212.049 181.789C215.373 158.232 217.295 134.413 219.684 110.751C220.411 103.507 221.19 93.6043 214.231 89.0179C206.648 84.0145 196.261 89.1221 191.795 95.8976C185.563 105.331 187.277 117.631 180.889 127.012C180.162 128.107 181.46 128.732 182.343 128.837C183.589 128.941 185.407 128.42 186.186 127.429Z" fill="#1C1C1C"/>
<path d="M172.475 105.071C173.877 112.993 175.435 120.863 177.149 128.785C177.772 131.651 182.758 129.254 183.589 127.794C184.732 125.814 185.822 123.938 186.653 121.801C187.796 118.83 182.291 120.133 181.252 121.384C179.642 123.312 178.448 125.449 177.201 127.638C179.33 127.325 181.512 126.96 183.641 126.648C181.875 118.83 180.006 111.012 177.928 103.299C177.513 101.422 172.112 103.142 172.475 105.071Z" fill="#1C1C1C"/>
<path d="M205.35 176.057C207.323 176.057 211.063 173.034 207.375 173.034C205.454 173.034 201.663 176.057 205.35 176.057Z" fill="#1C1C1C"/>
<path d="M205.817 178.298C205.973 188.409 212.465 197.426 220.463 203.159C224.462 206.025 229.136 208.162 233.914 209.257C238.848 210.403 245.184 211.133 249.806 208.631C251.052 207.954 252.818 205.452 250.221 205.139C245.651 204.618 241.289 205.504 236.718 204.358C232.512 203.263 228.513 201.335 225.033 198.729C217.762 193.361 213.4 185.647 211.478 176.891C211.063 175.015 205.817 176.63 205.817 178.298Z" fill="#1C1C1C"/>
<path d="M212.517 158.754C219.476 159.744 226.747 159.223 233.758 159.223C240.821 159.223 247.884 159.171 254.947 159.171C269.23 159.119 283.564 159.067 297.846 159.015C326.098 158.858 354.351 158.702 382.603 158.493C398.755 158.389 415.062 158.702 431.214 158.024C432.772 157.972 434.901 157.399 435.576 155.783C436.2 154.272 434.797 153.282 433.447 153.282C419.165 152.865 404.831 153.386 390.549 153.438C376.267 153.542 361.933 153.646 347.651 153.751C319.398 154.011 291.146 154.22 262.894 154.532C254.947 154.637 247.053 154.741 239.107 154.793C231.058 154.897 222.488 154.272 214.542 155.627C213.348 155.835 209.453 158.337 212.517 158.754Z" fill="#1C1C1C"/>
<path d="M209.401 186.741C215.789 187.94 222.696 187.366 229.136 187.471C235.888 187.575 242.587 187.679 249.339 187.731C262.478 187.888 275.566 188.044 288.705 188.2C315.296 188.513 341.886 188.774 368.477 189.034C376.059 189.139 383.694 189.191 391.276 189.295C398.859 189.399 406.493 189.712 414.076 189.399C415.582 189.347 417.659 188.774 418.334 187.21C418.957 185.699 417.555 184.917 416.257 184.813C402.858 184.031 389.303 184.448 375.852 184.344C362.712 184.239 349.625 184.083 336.485 183.979C309.894 183.718 283.304 183.51 256.713 183.301C249.131 183.249 241.496 183.197 233.914 183.145C230.123 183.145 226.332 183.093 222.488 183.093C218.749 183.093 215.062 182.884 211.374 183.562C210.18 183.822 206.337 186.168 209.401 186.741Z" fill="#1C1C1C"/>
<path d="M86.6791 168.188C77.227 141.503 67.7749 114.818 58.3228 88.1334C56.1934 82.1919 53.1293 74.4783 57.9592 68.9016C63.724 62.2304 70.3716 70.0482 73.1761 75.1559C79.9796 87.4559 86.2637 100.069 92.8074 112.473C100.286 126.753 107.661 141.086 115.295 155.262C115.503 155.679 116.542 155.314 116.334 154.897C109.063 140.721 101.532 126.649 94.1058 112.525C90.4184 105.489 86.6791 98.4008 82.9918 91.3648C79.6679 85.0584 76.7077 78.3872 72.8645 72.4457C70.4236 68.6932 66.5804 64.7321 61.6985 65.8266C57.2321 66.8169 54.5835 71.4554 54.3757 75.7813C54.0641 82.5046 57.6996 89.4885 59.8808 95.6906C62.5295 103.144 65.1782 110.544 67.8268 117.997C73.7993 134.832 79.8237 151.614 85.7962 168.448C85.9001 168.813 86.8349 168.5 86.6791 168.188Z" fill="#1C1C1C"/>
<path d="M116.697 146.558C112.283 117.632 107.401 88.8106 102.986 59.8847C101.948 53.1614 101.065 45.8648 103.506 39.2978C105.635 33.6169 111.192 28.1444 117.58 28.405C120.021 28.5092 120.333 29.4995 121.112 31.5842C121.683 33.1999 122.306 34.8156 122.877 36.4313C124.176 40.0275 125.474 43.5715 126.772 47.1677C129.265 53.9953 131.758 60.8228 134.199 67.5983C139.86 83.1817 145.521 98.7652 151.234 114.349C151.441 114.87 152.428 114.453 152.376 113.984C152.065 111.117 151.701 108.303 151.338 105.436C151.286 105.072 150.247 105.332 150.299 105.749C150.611 108.616 150.922 111.43 151.234 114.297C151.597 114.192 151.961 114.036 152.376 113.932C146.871 98.661 141.262 83.3902 135.705 68.1716C133.005 60.7186 130.252 53.2135 127.552 45.7605C126.253 42.1643 124.955 38.6203 123.656 35.0241C122.929 33.0957 122.254 31.1152 121.527 29.1868C121.06 27.8838 120.904 27.9359 119.502 27.6753C114.879 26.8414 110.257 29.0304 106.933 32.2097C102.623 36.4313 100.961 42.2165 100.805 48.158C100.649 55.194 102.155 62.23 103.246 69.1618C104.492 76.9796 105.739 84.8495 106.985 92.6674C109.842 110.753 112.698 128.786 115.658 146.819C115.71 147.288 116.749 146.975 116.697 146.558Z" fill="#1C1C1C"/>
<path d="M171.956 109.084C172.267 109.084 172.891 108.615 172.267 108.615C171.956 108.615 171.333 109.084 171.956 109.084Z" fill="#1C1C1C"/>
<path d="M173.254 106.479C172.631 111.117 171.904 116.225 173.981 120.655C175.487 123.886 178.344 126.596 182.031 126.857C188.419 127.326 192.106 120.863 193.301 115.443C195.171 106.896 190.237 96.1591 196.625 88.8104C202.441 82.1392 213.607 85.4227 218.489 91.5205C224.825 99.4426 223.215 111.169 220.151 120.029C216.775 129.828 211.218 138.896 209.401 149.216C206.233 167.405 215.217 185.751 230.902 195.028C251.572 207.328 276.708 204.097 299.3 200.761C299.923 200.657 300.183 199.771 299.352 199.927C278.058 202.95 255.103 206.182 235.056 196.123C217.814 187.471 207.323 168.813 210.439 149.424C213.348 131.6 230.278 113.41 221.709 94.7519C218.957 88.7583 213.036 84.7451 206.492 84.3282C200.052 83.9112 194.547 87.5595 192.782 93.8659C190.289 102.882 194.859 112.42 190.029 121.02C187.173 126.127 181.2 128.004 176.89 123.209C172.683 118.622 173.41 112.003 174.085 106.27C174.189 106.01 173.306 106.218 173.254 106.479Z" fill="#1C1C1C"/>
<path d="M87.1464 180.435C92.4437 209.986 107.141 237.609 128.486 258.665C150.663 280.555 179.694 294.47 210.439 298.64C228.097 301.037 246.17 300.256 263.517 296.034C264.244 295.878 263.984 295.096 263.257 295.252C231.94 302.549 198.494 299.213 169.255 285.714C142.093 273.154 119.502 251.889 104.752 225.882C96.7024 211.706 91.0415 196.227 88.0812 180.122C88.0293 179.809 87.0944 180.07 87.1464 180.435Z" fill="#1C1C1C"/>
<path d="M305.74 201.23C299.196 230.677 292.289 263.251 270.112 285.245C269.645 285.715 270.684 285.662 270.995 285.402C282.265 275.082 289.38 260.593 294.574 246.417C299.975 231.667 303.506 216.345 306.778 201.022C306.83 200.657 305.844 200.865 305.74 201.23Z" fill="#1C1C1C"/>
<path d="M323.709 209.778C325.683 215.042 326.358 220.618 325.735 226.195C325.112 231.928 322.93 236.723 320.178 241.674C318.62 244.437 324.644 243.498 325.683 242.195C333.213 232.814 334.2 218.742 329.734 207.797C328.851 205.556 322.878 207.589 323.709 209.778Z" fill="#1C1C1C"/>
<path d="M348.949 216.084C350.455 227.29 348.274 238.912 343.34 249.023C338.303 259.29 330.564 267.108 321.164 273.467C320.385 273.988 319.71 274.874 320.593 275.604C321.476 276.385 323.397 275.708 324.228 275.343C346.456 265.024 358.453 237.765 354.818 214.156C354.506 212.123 348.638 213.791 348.949 216.084Z" fill="#1C1C1C"/>
<path d="M7.99796 27.2058C3.53158 36.066 0.830971 45.708 0.207755 55.6105C-0.415462 65.044 0.363559 75.9889 4.20673 84.7449C5.19349 87.0381 10.9582 85.1618 10.387 82.7122C9.2444 78.1258 7.84216 73.6957 7.21894 69.005C6.59572 64.3665 6.43992 59.6758 6.69959 55.0372C7.21894 45.3953 9.60794 35.8575 13.7627 27.1537C15.0091 24.3914 8.93279 25.3296 7.99796 27.2058Z" fill="#1C1C1C"/>
<path d="M24.2016 61.9168C20.722 68.9007 19.4237 77.1355 19.8391 84.9012C20.2027 92.302 21.8127 100.849 26.0713 107.104C27.2658 108.876 32.9267 106.843 32.0438 104.602C30.6935 101.058 29.0316 97.7745 28.0448 94.074C27.11 90.4779 26.5387 86.7774 26.3829 83.0249C26.1232 75.5198 27.6293 68.4316 30.0703 61.3435C30.8493 59.1024 24.9807 60.4054 24.2016 61.9168Z" fill="#1C1C1C"/>
<path d="M183.901 3.80512C199.949 9.22546 211.011 23.0369 214.49 39.4543C214.958 41.6954 220.723 39.8191 220.463 37.5259C218.593 19.9098 204.623 5.00385 188.056 0.104692C186.757 -0.260139 184.888 0.417404 183.953 1.30342C183.278 1.92885 182.551 3.33605 183.901 3.80512Z" fill="#1C1C1C"/>
<path d="M229.032 11.4141C233.083 17.8768 235.576 25.5904 236.147 33.1997C236.771 41.2781 235.057 48.5226 232.668 56.1841C232.252 57.5391 234.485 57.8519 235.264 57.7997C236.667 57.6955 238.329 57.018 239.004 55.715C242.847 48.5226 243.678 39.3497 242.899 31.3756C242.068 23.0366 239.367 15.4272 234.745 8.44333C233.447 6.56706 227.526 8.96452 229.032 11.4141Z" fill="#1C1C1C"/>
</g>
<defs>
<clipPath id="clip0_1206_17810">
<rect width="506" height="476" fill="white"/>
</clipPath>
</defs>
</svg>
