<svg width="500" height="71" viewBox="0 0 500 71" fill="none" xmlns="http://www.w3.org/2000/svg">
<path d="M229.57 70.8175H8.81548C3.98392 70.8175 0 66.8336 0 61.9738V8.99614C0 4.16458 3.98392 0.180664 8.81548 0.180664H229.542C234.401 0.180664 238.357 4.16458 238.357 8.99614V61.9738C238.385 66.8336 234.43 70.8175 229.57 70.8175Z" fill="black"/>
<path d="M229.57 1.5934C233.667 1.5934 236.973 4.92746 236.973 9.0244V62.002C236.973 66.099 233.638 69.433 229.57 69.433H8.81548C4.7468 69.4048 1.41274 66.0707 1.41274 62.002V9.0244C1.41274 4.92746 4.7468 1.5934 8.81548 1.5934H229.57ZM229.57 0.180664H8.81548C3.98392 0.180664 0 4.16458 0 9.0244V62.002C0 66.8336 3.98392 70.8175 8.81548 70.8175H229.542C234.401 70.8175 238.357 66.8336 238.357 62.002V9.0244C238.385 4.16458 234.43 0.180664 229.57 0.180664Z" fill="#A6A6A6"/>
<path d="M120.309 38.5794C116.156 38.5794 112.765 41.744 112.765 46.0952C112.765 50.4182 116.156 53.6109 120.309 53.6109C124.462 53.6109 127.853 50.4182 127.853 46.0952C127.853 41.744 124.462 38.5794 120.309 38.5794ZM120.309 50.6442C118.02 50.6442 116.071 48.7794 116.071 46.0952C116.071 43.3827 118.02 41.5462 120.309 41.5462C122.598 41.5462 124.547 43.3827 124.547 46.0952C124.547 48.7794 122.598 50.6442 120.309 50.6442ZM103.865 38.5794C99.7113 38.5794 96.3207 41.744 96.3207 46.0952C96.3207 50.4182 99.7113 53.6109 103.865 53.6109C108.018 53.6109 111.409 50.4182 111.409 46.0952C111.409 41.744 108.018 38.5794 103.865 38.5794ZM103.865 50.6442C101.576 50.6442 99.6265 48.7794 99.6265 46.0952C99.6265 43.3827 101.576 41.5462 103.865 41.5462C106.153 41.5462 108.103 43.3827 108.103 46.0952C108.103 48.7794 106.153 50.6442 103.865 50.6442ZM84.3124 40.8963V44.0891H91.9412C91.7152 45.8691 91.1218 47.1971 90.2177 48.1013C89.1157 49.2032 87.3639 50.4464 84.3407 50.4464C79.6504 50.4464 75.9773 46.6603 75.9773 41.97C75.9773 37.2797 79.6504 33.4936 84.3407 33.4936C86.8836 33.4936 88.7202 34.4825 90.0764 35.7822L92.3368 33.5218C90.4437 31.7135 87.9008 30.3008 84.3407 30.3008C77.8986 30.3008 72.502 35.5279 72.502 41.97C72.502 48.4121 77.8986 53.6392 84.3407 53.6392C87.816 53.6392 90.4155 52.509 92.4781 50.3616C94.5972 48.2425 95.247 45.304 95.247 42.9024C95.247 42.1678 95.1905 41.4897 95.0775 40.9246H84.3124V40.8963ZM164.33 43.3827C163.708 41.7157 161.787 38.6077 157.888 38.6077C154.017 38.6077 150.796 41.6592 150.796 46.1234C150.796 50.3334 153.989 53.6392 158.255 53.6392C161.702 53.6392 163.68 51.5201 164.528 50.3051L161.956 48.6099C161.109 49.8531 159.95 50.6724 158.255 50.6724C156.588 50.6724 155.373 49.9096 154.61 48.3838L164.641 44.2304L164.33 43.3827ZM154.073 45.8691C153.989 42.9589 156.334 41.4897 158.001 41.4897C159.301 41.4897 160.431 42.1395 160.798 43.0719L154.073 45.8691ZM145.908 53.1589H149.214V31.0919H145.908V53.1589ZM140.511 40.2747H140.398C139.663 39.3988 138.222 38.6077 136.442 38.6077C132.685 38.6077 129.237 41.9135 129.237 46.1517C129.237 50.3616 132.685 53.6392 136.442 53.6392C138.222 53.6392 139.663 52.8481 140.398 51.9439H140.511V53.0176C140.511 55.8996 138.985 57.4253 136.499 57.4253C134.493 57.4253 133.221 55.9843 132.713 54.7411L129.831 55.9278C130.65 57.9057 132.854 60.3638 136.499 60.3638C140.37 60.3638 143.647 58.0752 143.647 52.5373V39.0598H140.511V40.2747V40.2747ZM136.725 50.6442C134.436 50.6442 132.543 48.7511 132.543 46.1234C132.543 43.4675 134.436 41.5462 136.725 41.5462C138.985 41.5462 140.737 43.4675 140.737 46.1234C140.737 48.7511 138.985 50.6442 136.725 50.6442ZM179.785 31.0919H171.902V53.1589H175.18V44.7955H179.785C183.43 44.7955 187.018 42.1395 187.018 37.9296C187.018 33.7196 183.43 31.0919 179.785 31.0919ZM179.87 41.7157H175.18V34.1434H179.87C182.328 34.1434 183.741 36.1778 183.741 37.9296C183.741 39.6531 182.328 41.7157 179.87 41.7157ZM200.242 38.5512C197.868 38.5512 195.382 39.5966 194.365 41.9417L197.303 43.1567C197.925 41.9417 199.083 41.5462 200.326 41.5462C202.022 41.5462 203.773 42.5633 203.802 44.3999V44.6259C203.208 44.2869 201.937 43.7783 200.355 43.7783C197.19 43.7783 193.997 45.5018 193.997 48.7511C193.997 51.7179 196.569 53.6109 199.479 53.6109C201.683 53.6109 202.926 52.622 203.689 51.4636H203.802V53.1589H206.995V44.6824C206.938 40.7268 204 38.5512 200.242 38.5512ZM199.818 50.6442C198.744 50.6442 197.247 50.1074 197.247 48.7794C197.247 47.0841 199.111 46.4342 200.75 46.4342C202.191 46.4342 202.869 46.745 203.773 47.1689C203.491 49.2032 201.739 50.6442 199.818 50.6442ZM218.522 39.0315L214.736 48.6099H214.623L210.696 39.0315H207.136L213.013 52.396L209.65 59.827H213.098L222.167 39.0032H218.522V39.0315ZM188.827 53.1589H192.133V31.0919H188.827V53.1589Z" fill="white"/>
<path d="M18.4219 13.488C17.9133 14.0249 17.6025 14.8725 17.6025 15.9744V55.0225C17.6025 56.1244 17.9133 56.9721 18.4219 57.5089L18.5632 57.6502L40.4324 35.781V35.4985V35.2442L18.5632 13.375L18.4219 13.488Z" fill="url(#paint0_linear_1235_13273)"/>
<path d="M47.7223 43.0431L40.4326 35.7534V35.4991V35.2448L47.7223 27.9551L47.8919 28.0398L56.5378 32.9562C58.996 34.3689 58.996 36.6575 56.5378 38.042L47.8919 42.9583L47.7223 43.0431Z" fill="url(#paint1_linear_1235_13273)"/>
<path d="M47.8921 42.9592L40.4328 35.5L18.4224 57.5104C19.2418 58.3581 20.5697 58.4711 22.0955 57.6234L47.8921 42.9592Z" fill="url(#paint2_linear_1235_13273)"/>
<path d="M47.8921 28.0403L22.0955 13.3761C20.5697 12.5285 19.2418 12.6132 18.4224 13.4891L40.4328 35.4996L47.8921 28.0403Z" fill="url(#paint3_linear_1235_13273)"/>
<path opacity="0.2" d="M47.7225 42.7891L22.0955 57.3402C20.6545 58.1596 19.383 58.1031 18.5636 57.3685L18.4224 57.5098L18.5636 57.651C19.383 58.3857 20.6545 58.4422 22.0955 57.6228L47.8921 42.9586L47.7225 42.7891Z" fill="black"/>
<path opacity="0.12" d="M18.4219 57.2559C17.9133 56.7191 17.6025 55.8715 17.6025 54.7695V55.0238C17.6025 56.1258 17.9133 56.9734 18.4219 57.5102L18.5632 57.369L18.4219 57.2559Z" fill="black"/>
<path opacity="0.12" d="M56.5371 37.7886L47.7217 42.7897L47.8912 42.9593L56.5371 38.0429C57.7803 37.3366 58.4019 36.4042 58.4019 35.5C58.2889 36.3476 57.6673 37.167 56.5371 37.7886Z" fill="black"/>
<path opacity="0.25" d="M22.095 13.6303L56.5376 33.1826C57.6677 33.8042 58.2893 34.6236 58.4024 35.4712C58.4024 34.5388 57.7808 33.6347 56.5376 32.9283L22.095 13.376C19.6369 11.9633 17.6025 13.15 17.6025 15.9755V16.2298C17.6025 13.4043 19.6369 12.2458 22.095 13.6303Z" fill="white"/>
<path d="M76.119 23.3232H72.7002V12.3604H76.119C77.7861 12.3604 79.1423 12.8689 80.1595 13.8861C81.1766 14.9033 81.6852 16.2313 81.6852 17.8418C81.6852 19.4523 81.1766 20.7803 80.1595 21.7974C79.1423 22.8146 77.7861 23.3232 76.119 23.3232ZM74.4237 21.6562H76.119C77.2775 21.6562 78.2381 21.3171 78.9162 20.6672C79.5944 20.0174 79.9334 19.0567 79.9334 17.8418C79.9334 16.6551 79.5944 15.6944 78.9162 15.0163C78.2381 14.3382 77.3057 13.9991 76.119 13.9991H74.4237V21.6562Z" fill="white"/>
<path d="M84.934 23.3232H83.2104V12.3604H84.934V23.3232Z" fill="white"/>
<path d="M90.1619 23.5486C89.3707 23.5486 88.5796 23.2943 87.8167 22.7575C87.0538 22.2207 86.5452 21.486 86.291 20.5254L86.2627 20.3841L87.845 19.7342L87.9015 19.932C88.0427 20.4689 88.3253 20.9492 88.7491 21.3165C89.1729 21.6838 89.6533 21.8816 90.1901 21.8816C90.7552 21.8816 91.2073 21.7403 91.6028 21.4578C91.9702 21.1752 92.1679 20.8079 92.1679 20.3276C92.1679 19.7908 91.9984 19.3952 91.6028 19.1126C91.2073 18.8018 90.5574 18.5193 89.6815 18.2367C88.7209 17.9259 87.9862 17.5304 87.4777 17.05C86.9691 16.5415 86.6865 15.8916 86.6865 15.1287C86.6865 14.3093 86.9973 13.603 87.6472 13.0096C88.2688 12.4163 89.1164 12.1055 90.1336 12.1055C91.066 12.1055 91.8289 12.3315 92.4222 12.8118C93.0156 13.2922 93.4111 13.8008 93.5807 14.3658L93.6372 14.5071L92.0549 15.157L91.9984 14.9592C91.9136 14.6484 91.7159 14.3658 91.4051 14.1116C91.0943 13.8573 90.6704 13.716 90.1619 13.716C89.6815 13.716 89.2577 13.8573 88.9469 14.1116C88.6078 14.3658 88.4666 14.6766 88.4666 15.0722C88.4666 15.4113 88.6078 15.6938 88.9186 15.9199C89.2577 16.1742 89.738 16.4002 90.3596 16.6262C90.8965 16.7958 91.3203 16.9653 91.6876 17.1348C92.0549 17.3043 92.4222 17.5021 92.7895 17.7847C93.1568 18.0672 93.4677 18.4063 93.6654 18.8301C93.8632 19.2539 93.948 19.7342 93.948 20.2711C93.948 20.8079 93.835 21.2883 93.6089 21.7403C93.3829 22.1642 93.0721 22.5032 92.7048 22.7575C92.3375 23.0118 91.9419 23.1813 91.5181 23.3226C91.0377 23.4921 90.6139 23.5486 90.1619 23.5486Z" fill="white"/>
<path d="M97.1967 23.3232H95.4731V12.3604H99.2593C100.192 12.3604 101.011 12.6712 101.717 13.2928C102.396 13.9144 102.763 14.7338 102.763 15.6944C102.763 16.6551 102.424 17.4462 101.717 18.0678C101.039 18.6894 100.22 19.0002 99.2593 19.0002H97.1967V23.3232ZM97.1967 17.3614H99.2875C99.8244 17.3614 100.22 17.1919 100.531 16.8529C100.842 16.4855 101.011 16.1182 101.011 15.6944C101.011 15.2706 100.87 14.9033 100.531 14.536C100.22 14.1969 99.8244 14.0274 99.2875 14.0274H97.1967V17.3614Z" fill="white"/>
<path d="M109.092 23.5487C107.51 23.5487 106.153 22.9836 105.08 21.8817C104.006 20.7797 103.469 19.4235 103.469 17.8412C103.469 16.259 104.006 14.8745 105.08 13.8008C106.153 12.6989 107.51 12.1338 109.092 12.1338C110.674 12.1338 112.03 12.6989 113.104 13.8008C114.178 14.9028 114.715 16.259 114.715 17.8412C114.715 19.4235 114.178 20.7797 113.104 21.8817C112.03 22.9836 110.674 23.5487 109.092 23.5487ZM106.323 20.7515C107.058 21.5144 107.99 21.8817 109.064 21.8817C110.137 21.8817 111.07 21.4861 111.804 20.7515C112.539 19.9886 112.935 18.9997 112.935 17.8412C112.935 16.6828 112.567 15.6939 111.804 14.931C111.07 14.1681 110.137 13.8008 109.064 13.8008C107.99 13.8008 107.058 14.1964 106.323 14.931C105.588 15.6939 105.193 16.6828 105.193 17.8412C105.193 18.9997 105.588 19.9886 106.323 20.7515Z" fill="white"/>
<path d="M124.773 23.3232H123.078L123.021 23.2384L117.907 15.0446L117.964 16.5421V23.3232H116.24V12.3604H118.162L123.106 20.2434L123.078 18.7459V12.3604H124.801V23.3232H124.773Z" fill="white"/>
<path d="M128.56 23.3232H126.865V12.3604H128.588V23.3232H128.56Z" fill="white"/>
<path d="M134.86 23.3232H130.65V12.3604H134.662C135.538 12.3604 136.301 12.6429 136.922 13.2362C137.572 13.8296 137.883 14.5642 137.883 15.4401C137.883 15.977 137.742 16.4573 137.459 16.8811C137.233 17.1919 136.951 17.4745 136.64 17.6722C137.064 17.87 137.431 18.1526 137.714 18.5199C138.081 18.972 138.25 19.5371 138.25 20.1304C138.25 21.0346 137.911 21.8257 137.233 22.419C136.583 23.0124 135.764 23.3232 134.86 23.3232ZM132.345 21.6562H134.916C135.397 21.6562 135.764 21.4866 136.047 21.1758C136.357 20.8368 136.499 20.4977 136.499 20.1021C136.499 19.7066 136.357 19.3675 136.047 19.0285C135.736 18.6894 135.368 18.5481 134.86 18.5481H132.345V21.6562V21.6562ZM132.345 16.9094H134.634C135.114 16.9094 135.453 16.7681 135.736 16.4573C136.018 16.1465 136.16 15.8357 136.16 15.4684C136.16 15.1011 136.018 14.7903 135.764 14.4795C135.481 14.1687 135.142 14.0274 134.719 14.0274H132.373V16.9094H132.345Z" fill="white"/>
<path d="M141.444 23.3232H139.721V12.3604H141.444V23.3232Z" fill="white"/>
<path d="M149.836 23.3232H143.535V12.3604H145.259V21.6562H149.836V23.3232V23.3232Z" fill="white"/>
<path d="M157.719 23.3232H151.192V12.3604H157.719V14.0274H152.887V17.0224H157.238V18.6612H152.887V21.6562H157.719V23.3232Z" fill="white"/>
<path d="M165.771 23.5486C164.98 23.5486 164.189 23.2943 163.426 22.7575C162.663 22.2207 162.155 21.486 161.9 20.5254L161.872 20.3841L163.454 19.7342L163.511 19.932C163.652 20.4689 163.935 20.9492 164.358 21.3165C164.782 21.6838 165.263 21.8816 165.799 21.8816C166.365 21.8816 166.817 21.7403 167.212 21.4578C167.58 21.1752 167.777 20.8079 167.777 20.3276C167.777 19.7908 167.608 19.3952 167.212 19.1126C166.817 18.8018 166.167 18.5193 165.291 18.2367C164.33 17.9259 163.596 17.5304 163.087 17.05C162.578 16.5415 162.296 15.8916 162.296 15.1287C162.296 14.3093 162.607 13.603 163.257 13.0096C163.878 12.4163 164.726 12.1055 165.743 12.1055C166.675 12.1055 167.438 12.3315 168.032 12.8118C168.625 13.2922 169.021 13.8008 169.19 14.3658L169.247 14.5071L167.664 15.157L167.608 14.9592C167.523 14.6484 167.325 14.3658 167.014 14.1116C166.704 13.8573 166.28 13.716 165.771 13.716C165.291 13.716 164.867 13.8573 164.528 14.1116C164.189 14.3658 164.048 14.6766 164.048 15.0722C164.048 15.4113 164.189 15.6938 164.5 15.9199C164.811 16.1742 165.319 16.4002 165.941 16.6262C166.478 16.7958 166.901 16.9653 167.269 17.1348C167.636 17.3043 168.003 17.5021 168.371 17.7847C168.766 18.0672 169.049 18.4063 169.247 18.8301C169.444 19.2539 169.529 19.7342 169.529 20.2711C169.529 20.8079 169.416 21.2883 169.19 21.7403C168.964 22.1924 168.653 22.5032 168.286 22.7575C167.919 23.0118 167.523 23.1813 167.099 23.3226C166.647 23.4921 166.223 23.5486 165.771 23.5486Z" fill="white"/>
<path d="M174.954 23.5492C173.739 23.5492 172.75 23.1537 171.988 22.3343C171.225 21.5431 170.857 20.4695 170.857 19.198V12.3604H172.581V19.2545C172.581 20.0456 172.779 20.6955 173.203 21.1758C173.598 21.6562 174.191 21.8822 174.983 21.8822C175.745 21.8822 176.339 21.6562 176.734 21.1758C177.13 20.6955 177.356 20.0456 177.356 19.2545V12.3604H179.08V19.198C179.08 20.4977 178.712 21.5431 177.978 22.3343C177.215 23.1537 176.198 23.5492 174.954 23.5492Z" fill="white"/>
<path d="M482.776 0.00023075H305.841C305.196 0.00023075 304.559 0.00023075 303.915 0.00378075C303.377 0.00733075 302.843 0.0176435 302.299 0.0263232C301.118 0.040349 299.94 0.145206 298.775 0.339983C297.611 0.539001 296.484 0.914206 295.431 1.45291C294.38 1.99617 293.42 2.70208 292.585 3.54503C291.745 4.38561 291.045 5.35721 290.512 6.42246C289.978 7.4856 289.607 8.62485 289.413 9.80086C289.217 10.9754 289.112 12.1635 289.098 13.3544C289.082 13.8986 289.08 14.4446 289.071 14.9889V56.0167C289.08 56.5679 289.082 57.1018 289.098 57.6531C289.112 58.844 289.217 60.032 289.413 61.2065C289.607 62.3832 289.977 63.5231 290.512 64.5866C291.045 65.6484 291.745 66.6161 292.585 67.452C293.416 68.2987 294.378 69.0051 295.431 69.5442C296.484 70.0843 297.611 70.4618 298.775 70.6639C299.94 70.8571 301.118 70.962 302.299 70.9777C302.843 70.9898 303.377 70.9967 303.915 70.9967C304.559 71.0002 305.196 71.0002 305.841 71.0002H482.776C483.408 71.0002 484.05 71.0002 484.682 70.9967C485.218 70.9967 485.768 70.9898 486.303 70.9777C487.482 70.9628 488.658 70.8579 489.821 70.6639C490.989 70.4604 492.12 70.083 493.177 69.5442C494.23 69.0048 495.19 68.2984 496.021 67.452C496.859 66.6128 497.56 65.6459 498.1 64.5866C498.631 63.5223 498.998 62.3825 499.189 61.2065C499.385 60.0319 499.494 58.8441 499.515 57.6531C499.522 57.1018 499.522 56.5679 499.522 56.0167C499.536 55.3719 499.536 54.7306 499.536 54.0752V16.9269C499.536 16.2768 499.536 15.632 499.522 14.9889C499.522 14.4446 499.522 13.8986 499.515 13.3543C499.494 12.1633 499.385 10.9755 499.189 9.80079C498.997 8.62546 498.63 7.4863 498.1 6.42239C497.014 4.2872 495.292 2.54918 493.177 1.45275C492.12 0.915363 490.988 0.540257 489.821 0.339824C488.658 0.144188 487.482 0.0392945 486.303 0.0260747C485.768 0.0174128 485.218 0.00701125 484.682 0.00355C484.05 0 483.408 0 482.776 0V0.00023075Z" fill="#A6A6A6"/>
<path d="M303.924 69.4475C303.388 69.4475 302.865 69.4405 302.334 69.4285C301.232 69.414 300.134 69.3172 299.046 69.139C298.033 68.9628 297.05 68.635 296.132 68.1664C295.223 67.7018 294.393 67.0925 293.675 66.362C292.947 65.64 292.341 64.8027 291.881 63.8832C291.415 62.9577 291.093 61.9657 290.926 60.9417C290.745 59.8414 290.647 58.7288 290.633 57.6135C290.622 57.2392 290.607 55.9928 290.607 55.9928V14.9893C290.607 14.9893 290.622 13.762 290.633 13.4015C290.646 12.288 290.744 11.1771 290.924 10.0786C291.092 9.05175 291.414 8.05686 291.88 7.12833C292.338 6.20944 292.941 5.37149 293.665 4.64697C294.388 3.91556 295.22 3.30316 296.132 2.83208C297.047 2.36505 298.028 2.03959 299.039 1.86659C300.13 1.68655 301.233 1.5892 302.338 1.57538L303.925 1.55371H484.674L486.28 1.57625C487.375 1.58939 488.467 1.68586 489.548 1.86485C490.57 2.04002 491.561 2.36775 492.487 2.83728C494.312 3.78664 495.797 5.2886 496.734 7.13266C497.193 8.05479 497.51 9.04156 497.676 10.0595C497.858 11.1671 497.96 12.2867 497.981 13.4093C497.986 13.912 497.986 14.4519 497.986 14.9893C498 15.6549 498 16.2885 498 16.9272V54.0756C498 54.7205 498 55.3497 497.986 55.9841C497.986 56.5613 497.986 57.0901 497.98 57.6343C497.959 58.7369 497.859 59.8365 497.679 60.9243C497.515 61.9556 497.195 62.9554 496.729 63.8885C496.266 64.7981 495.663 65.6281 494.943 66.3481C494.225 67.0826 493.393 67.6954 492.482 68.1631C491.558 68.6352 490.569 68.9642 489.548 69.139C488.461 69.3182 487.362 69.4149 486.261 69.4285C485.745 69.4405 485.206 69.4475 484.682 69.4475L482.776 69.451L303.924 69.4475Z" fill="black"/>
<path d="M332.635 36.0344C332.654 34.5528 333.044 33.1002 333.769 31.8116C334.493 30.5231 335.529 29.4404 336.78 28.6644C335.985 27.5193 334.937 26.5769 333.719 25.912C332.5 25.2472 331.145 24.8783 329.76 24.8346C326.807 24.5217 323.944 26.6181 322.439 26.6181C320.905 26.6181 318.587 24.8656 316.092 24.9174C314.478 24.9701 312.905 25.4437 311.526 26.2923C310.148 27.1408 309.01 28.3353 308.225 29.7594C304.824 35.7029 307.361 44.4377 310.619 49.242C312.249 51.5944 314.155 54.2222 316.648 54.1291C319.087 54.0269 319.998 52.5591 322.943 52.5591C325.861 52.5591 326.715 54.1291 329.259 54.0698C331.877 54.0269 333.526 51.7069 335.099 49.3321C336.27 47.6558 337.172 45.8032 337.77 43.8429C336.249 43.1937 334.951 42.1071 334.038 40.7185C333.125 39.3299 332.637 37.7008 332.635 36.0344Z" fill="white"/>
<path d="M327.831 21.6753C329.258 19.9461 329.962 17.7235 329.791 15.4795C327.611 15.7106 325.596 16.7624 324.15 18.4253C323.443 19.2377 322.901 20.1827 322.556 21.2065C322.211 22.2303 322.069 23.3126 322.138 24.3918C323.229 24.4031 324.308 24.1645 325.294 23.694C326.28 23.2235 327.148 22.5332 327.831 21.6753Z" fill="white"/>
<path d="M363.473 48.1741H355.148L353.149 54.1318H349.623L357.508 32.0898H361.172L369.057 54.1318H365.471L363.473 48.1741ZM356.01 45.4249H362.609L359.356 35.756H359.265L356.01 45.4249Z" fill="white"/>
<path d="M386.087 46.0978C386.087 51.0917 383.439 54.3002 379.442 54.3002C378.429 54.3537 377.422 54.1183 376.536 53.621C375.65 53.1238 374.921 52.3848 374.432 51.4886H374.356V59.4484H371.087V38.0617H374.251V40.7346H374.311C374.823 39.8428 375.565 39.1076 376.458 38.6073C377.35 38.107 378.361 37.8604 379.382 37.8936C383.423 37.8936 386.087 41.1177 386.087 46.0978ZM382.727 46.0978C382.727 42.8442 381.061 40.7052 378.519 40.7052C376.022 40.7052 374.342 42.8893 374.342 46.0978C374.342 49.3358 376.022 51.5043 378.519 51.5043C381.061 51.5043 382.727 49.3808 382.727 46.0978Z" fill="white"/>
<path d="M403.613 46.0978C403.613 51.0917 400.964 54.3002 396.968 54.3002C395.955 54.3536 394.948 54.1183 394.062 53.621C393.176 53.1238 392.447 52.3848 391.957 51.4886H391.882V59.4484H388.613V38.0617H391.777V40.7346H391.837C392.349 39.8427 393.091 39.1076 393.983 38.6073C394.876 38.107 395.887 37.8604 396.907 37.8936C400.949 37.8936 403.613 41.1177 403.613 46.0978ZM400.253 46.0978C400.253 42.8442 398.587 40.7052 396.045 40.7052C393.548 40.7052 391.868 42.8892 391.868 46.0978C391.868 49.3358 393.548 51.5042 396.045 51.5042C398.587 51.5042 400.253 49.3808 400.253 46.0978H400.253Z" fill="white"/>
<path d="M415.196 47.9907C415.439 50.1765 417.543 51.6117 420.418 51.6117C423.173 51.6117 425.155 50.1764 425.155 48.2056C425.155 46.4947 423.96 45.4703 421.129 44.7682L418.298 44.0801C414.288 43.1024 412.426 41.2095 412.426 38.138C412.426 34.3349 415.71 31.7227 420.373 31.7227C424.988 31.7227 428.152 34.3349 428.259 38.138H424.959C424.762 35.9383 422.96 34.6105 420.327 34.6105C417.694 34.6105 415.892 35.9539 415.892 37.9092C415.892 39.4675 417.043 40.3845 419.858 41.0864L422.264 41.6827C426.745 42.7522 428.607 44.5689 428.607 47.7929C428.607 51.9167 425.352 54.4995 420.176 54.4995C415.332 54.4995 412.062 51.9774 411.851 47.9905L415.196 47.9907Z" fill="white"/>
<path d="M435.66 34.2578V38.0609H438.688V40.6731H435.66V49.5325C435.66 50.9088 436.267 51.5502 437.598 51.5502C437.957 51.5439 438.316 51.5184 438.673 51.4739V54.0705C438.074 54.1834 437.466 54.2345 436.857 54.223C433.634 54.223 432.376 53.001 432.376 49.8843V40.6731H430.061V38.0609H432.376V34.2578H435.66Z" fill="white"/>
<path d="M440.443 46.0969C440.443 41.0406 443.394 37.8633 447.995 37.8633C452.612 37.8633 455.549 41.0405 455.549 46.0969C455.549 51.1671 452.627 54.3306 447.995 54.3306C443.364 54.3306 440.443 51.1671 440.443 46.0969ZM452.219 46.0969C452.219 42.6284 450.644 40.5812 447.995 40.5812C445.347 40.5812 443.773 42.644 443.773 46.0969C443.773 49.5793 445.347 51.6109 447.995 51.6109C450.644 51.6109 452.218 49.5793 452.218 46.0969H452.219Z" fill="white"/>
<path d="M458.244 38.0616H461.361V40.7969H461.437C461.648 39.9426 462.144 39.1876 462.841 38.6589C463.539 38.1301 464.395 37.8598 465.267 37.8934C465.644 37.8921 466.019 37.9334 466.387 38.0165V41.1019C465.911 40.9553 465.415 40.888 464.918 40.9026C464.443 40.8832 463.97 40.9677 463.531 41.1503C463.091 41.3329 462.696 41.6093 462.372 41.9606C462.049 42.3118 461.804 42.7296 461.656 43.1852C461.507 43.6408 461.458 44.1234 461.512 44.5999V54.1319H458.244L458.244 38.0616Z" fill="white"/>
<path d="M481.457 49.4112C481.017 52.3285 478.202 54.3306 474.6 54.3306C469.968 54.3306 467.093 51.1983 467.093 46.1732C467.093 41.1325 469.983 37.8633 474.463 37.8633C478.868 37.8633 481.639 40.9175 481.639 45.7901V46.9203H470.392V47.1196C470.34 47.7111 470.414 48.3069 470.607 48.8675C470.801 49.4281 471.111 49.9407 471.516 50.3712C471.921 50.8017 472.413 51.1403 472.957 51.3645C473.502 51.5887 474.088 51.6934 474.676 51.6715C475.448 51.7446 476.223 51.564 476.886 51.1568C477.548 50.7495 478.063 50.1373 478.353 49.4112L481.457 49.4112ZM470.408 44.6149H478.369C478.398 44.0831 478.318 43.5509 478.134 43.0518C477.95 42.5526 477.666 42.0973 477.299 41.7143C476.932 41.3313 476.491 41.029 476.003 40.8262C475.515 40.6235 474.99 40.5247 474.463 40.5362C473.931 40.533 473.403 40.6362 472.91 40.8399C472.418 41.0435 471.97 41.3436 471.593 41.7228C471.216 42.102 470.917 42.5528 470.714 43.0492C470.51 43.5456 470.406 44.0777 470.408 44.6149V44.6149Z" fill="white"/>
<path d="M352.93 23.2405C353.068 24.2458 354.041 24.8846 355.446 24.8846C356.755 24.8846 357.715 24.2025 357.715 23.263C357.715 22.4552 357.104 21.9708 355.714 21.6405L354.363 21.3104C352.465 20.8623 351.599 19.9375 351.599 18.3818C351.599 16.495 353.126 15.2401 355.417 15.2401C356.318 15.1387 357.221 15.4015 357.93 15.9711C358.639 16.5406 359.095 17.3703 359.199 18.2787H357.612C357.508 17.7815 357.222 17.3423 356.811 17.0485C356.4 16.7547 355.894 16.628 355.395 16.6934C354.107 16.6934 353.25 17.3174 353.25 18.2717C353.25 19.0274 353.803 19.4608 355.17 19.7832L356.326 20.0701C358.478 20.5762 359.366 21.4568 359.366 23.0498C359.366 25.0753 357.81 26.345 355.323 26.345C352.995 26.345 351.431 25.1342 351.314 23.2405L352.93 23.2405Z" fill="white"/>
<path d="M366.729 20.7075C366.629 20.293 366.386 19.9283 366.043 19.6793C365.7 19.4303 365.279 19.3136 364.858 19.3502C363.55 19.3502 362.749 20.3625 362.749 22.0656C362.749 23.7981 363.557 24.833 364.858 24.833C365.275 24.8817 365.696 24.7751 366.04 24.5331C366.384 24.2912 366.629 23.9305 366.729 23.5191H368.249C368.148 24.3284 367.739 25.0661 367.107 25.5748C366.475 26.0835 365.671 26.323 364.867 26.2422C364.337 26.2591 363.811 26.159 363.323 25.949C362.836 25.7389 362.4 25.424 362.046 25.0262C361.692 24.6283 361.429 24.1573 361.274 23.6459C361.119 23.1345 361.077 22.5952 361.15 22.0657C361.081 21.54 361.126 21.0054 361.282 20.499C361.438 19.9927 361.702 19.5269 362.055 19.1341C362.408 18.7414 362.842 18.4311 363.326 18.2251C363.81 18.019 364.333 17.9221 364.858 17.941C365.669 17.8657 366.477 18.1126 367.111 18.6293C367.744 19.1459 368.152 19.8916 368.249 20.7075L366.729 20.7075Z" fill="white"/>
<path d="M369.801 23.828C369.801 22.3893 370.862 21.5599 372.746 21.442L374.892 21.3172V20.6273C374.892 19.7831 374.339 19.3065 373.27 19.3065C372.398 19.3065 371.793 19.6297 371.62 20.1948H370.107C370.266 18.822 371.546 17.9414 373.342 17.9414C375.328 17.9414 376.448 18.939 376.448 20.6273V26.0884H374.943V24.9651H374.82C374.569 25.368 374.216 25.6965 373.798 25.917C373.38 26.1375 372.912 26.242 372.441 26.2201C372.108 26.255 371.772 26.2192 371.454 26.115C371.136 26.0108 370.844 25.8405 370.595 25.6151C370.346 25.3898 370.147 25.1143 370.01 24.8065C369.873 24.4987 369.802 24.1654 369.801 23.828ZM374.892 23.145V22.4768L372.958 22.6016C371.867 22.6753 371.372 23.0497 371.372 23.7543C371.372 24.4737 371.991 24.8923 372.841 24.8923C373.09 24.9178 373.342 24.8924 373.581 24.8177C373.82 24.7429 374.042 24.6204 374.233 24.4574C374.425 24.2944 374.582 24.0942 374.695 23.8688C374.808 23.6433 374.875 23.3972 374.892 23.145Z" fill="white"/>
<path d="M378.895 18.0955H380.4V19.321H380.516C380.685 18.8956 380.983 18.535 381.367 18.291C381.751 18.047 382.202 17.9321 382.655 17.9629C382.889 17.9597 383.123 17.9818 383.352 18.0288V19.5855C383.065 19.5236 382.773 19.4917 382.48 19.4901C382.222 19.4668 381.962 19.4981 381.717 19.5821C381.472 19.6661 381.247 19.8009 381.057 19.9778C380.866 20.1548 380.715 20.3699 380.611 20.6095C380.508 20.8491 380.456 21.1078 380.458 21.369V26.0882H378.895L378.895 18.0955Z" fill="white"/>
<path d="M384.992 15.7321C384.98 15.5278 385.029 15.3245 385.133 15.1486C385.236 14.9728 385.39 14.8324 385.574 14.7457C385.757 14.659 385.963 14.6299 386.163 14.6623C386.363 14.6947 386.549 14.787 386.697 14.9273C386.845 15.0675 386.947 15.2493 386.991 15.4491C387.035 15.6489 387.019 15.8574 386.944 16.0477C386.87 16.238 386.74 16.4012 386.572 16.5163C386.405 16.6314 386.206 16.693 386.004 16.6932C385.874 16.6999 385.744 16.68 385.623 16.6349C385.501 16.5897 385.389 16.5201 385.295 16.4303C385.2 16.3405 385.125 16.2324 385.073 16.1124C385.021 15.9924 384.993 15.863 384.992 15.7321ZM385.224 18.0955H386.782V26.0882H385.224V18.0955Z" fill="white"/>
<path d="M394.489 20.7075C394.389 20.293 394.146 19.9283 393.803 19.6793C393.46 19.4303 393.04 19.3136 392.619 19.3502C391.31 19.3502 390.51 20.3625 390.51 22.0656C390.51 23.7981 391.317 24.833 392.619 24.833C393.036 24.8817 393.456 24.7751 393.8 24.5331C394.145 24.2912 394.39 23.9305 394.489 23.5191H396.009C395.909 24.3284 395.499 25.0661 394.867 25.5748C394.235 26.0835 393.432 26.323 392.627 26.2422C392.098 26.2591 391.571 26.159 391.084 25.949C390.596 25.7389 390.161 25.424 389.807 25.0262C389.453 24.6283 389.189 24.1573 389.034 23.6459C388.879 23.1345 388.837 22.5952 388.91 22.0657C388.841 21.54 388.886 21.0054 389.042 20.499C389.198 19.9927 389.462 19.5269 389.815 19.1341C390.168 18.7414 390.602 18.4311 391.086 18.2251C391.571 18.019 392.094 17.9221 392.619 17.941C393.43 17.8657 394.238 18.1126 394.871 18.6293C395.504 19.1459 395.912 19.8916 396.009 20.7075L394.489 20.7075Z" fill="white"/>
<path d="M397.56 23.828C397.56 22.3893 398.622 21.5599 400.506 21.442L402.651 21.3172V20.6273C402.651 19.7831 402.098 19.3065 401.03 19.3065C400.157 19.3065 399.552 19.6297 399.379 20.1948H397.866C398.026 18.822 399.305 17.9414 401.102 17.9414C403.087 17.9414 404.208 18.939 404.208 20.6273V26.0884H402.702V24.9651H402.579C402.328 25.368 401.975 25.6965 401.557 25.917C401.139 26.1375 400.671 26.242 400.2 26.2201C399.867 26.2549 399.531 26.2191 399.213 26.1149C398.896 26.0107 398.603 25.8405 398.354 25.6151C398.105 25.3897 397.906 25.1143 397.769 24.8065C397.633 24.4987 397.561 24.1653 397.56 23.828ZM402.651 23.145V22.4768L400.717 22.6016C399.626 22.6753 399.132 23.0497 399.132 23.7543C399.132 24.4737 399.75 24.8923 400.6 24.8923C400.849 24.9178 401.101 24.8924 401.34 24.8177C401.579 24.743 401.801 24.6204 401.993 24.4574C402.184 24.2944 402.341 24.0942 402.454 23.8688C402.567 23.6433 402.634 23.3972 402.651 23.145H402.651Z" fill="white"/>
<path d="M413.845 17.9414C415.626 17.9414 416.79 18.7778 416.943 20.187H415.444C415.299 19.6003 414.731 19.2259 413.845 19.2259C412.972 19.2259 412.309 19.6436 412.309 20.2676C412.309 20.7451 412.709 21.0459 413.568 21.2444L414.884 21.5521C416.39 21.9048 417.096 22.5583 417.096 23.7327C417.096 25.2373 415.706 26.2427 413.815 26.2427C411.931 26.2427 410.703 25.3837 410.564 23.9676H412.129C412.264 24.3046 412.507 24.5862 412.819 24.7671C413.131 24.948 413.495 25.0177 413.851 24.9651C414.825 24.9651 415.517 24.5249 415.517 23.8861C415.517 23.4094 415.146 23.1009 414.353 22.9102L412.972 22.5869C411.466 22.2272 410.768 21.5451 410.768 20.356C410.768 18.939 412.055 17.9414 413.845 17.9414Z" fill="white"/>
<path d="M425.879 26.0884H424.372V24.8187H424.249C424.049 25.2795 423.71 25.665 423.28 25.9205C422.851 26.1761 422.353 26.2888 421.856 26.2427C421.473 26.2701 421.089 26.2106 420.732 26.0686C420.374 25.9265 420.053 25.7056 419.792 25.4219C419.53 25.1382 419.335 24.799 419.22 24.4291C419.105 24.0593 419.074 23.6682 419.129 23.2846V18.0957H420.693V22.8738C420.693 24.1652 421.209 24.7823 422.358 24.7823C422.624 24.8078 422.893 24.773 423.144 24.6803C423.396 24.5877 423.623 24.4396 423.811 24.2469C423.998 24.0541 424.141 23.8216 424.228 23.5662C424.315 23.3108 424.344 23.039 424.314 22.7707V18.0957H425.879V26.0884Z" fill="white"/>
<defs>
<linearGradient id="paint0_linear_1235_13273" x1="38.4961" y1="15.5608" x2="8.85983" y2="45.1971" gradientUnits="userSpaceOnUse">
<stop stop-color="#00A0FF"/>
<stop offset="0.00657445" stop-color="#00A1FF"/>
<stop offset="0.2601" stop-color="#00BEFF"/>
<stop offset="0.5122" stop-color="#00D2FF"/>
<stop offset="0.7604" stop-color="#00DFFF"/>
<stop offset="1" stop-color="#00E3FF"/>
</linearGradient>
<linearGradient id="paint1_linear_1235_13273" x1="59.7485" y1="35.5017" x2="17.0188" y2="35.5017" gradientUnits="userSpaceOnUse">
<stop stop-color="#FFE000"/>
<stop offset="0.4087" stop-color="#FFBD00"/>
<stop offset="0.7754" stop-color="#FFA500"/>
<stop offset="1" stop-color="#FF9C00"/>
</linearGradient>
<linearGradient id="paint2_linear_1235_13273" x1="43.8423" y1="39.5547" x2="3.65321" y2="79.7438" gradientUnits="userSpaceOnUse">
<stop stop-color="#FF3A44"/>
<stop offset="1" stop-color="#C31162"/>
</linearGradient>
<linearGradient id="paint3_linear_1235_13273" x1="12.8865" y1="0.492442" x2="30.8327" y2="18.4386" gradientUnits="userSpaceOnUse">
<stop stop-color="#32A071"/>
<stop offset="0.0685" stop-color="#2DA771"/>
<stop offset="0.4762" stop-color="#15CF74"/>
<stop offset="0.8009" stop-color="#06E775"/>
<stop offset="1" stop-color="#00F076"/>
</linearGradient>
</defs>
</svg>
