<svg xmlns="http://www.w3.org/2000/svg" viewBox="0 0 841.8898 365.7087"><path d="M395.5723,319.75l-7.36-16.04h-3.3983v16.04h-11.951v-44.035h16.7956c8.9332,0,15.7892,4.78,15.7892,14.28,0,6.1032-2.4528,9.3747-6.2283,11.3876l9.877,18.3672ZM388.82,284.5182h-4.0063v10.4271H388.82c4.0046,0,5.2736-1.9891,5.2736-5.1312C394.0938,286.7523,392.8248,284.5182,388.82,284.5182Z" style="fill:#1c1c1c"/><path d="M438.169,320.3148c-11.3234,0-19.7525-8.4275-19.7525-22.6436,0-14.28,8.4291-22.5216,19.7525-22.5216,11.386,0,19.8152,8.2414,19.8152,22.5216C457.9842,311.8873,449.555,320.3148,438.169,320.3148Zm0-34.4068c-4.0885,0-7.9251,3.2683-7.9251,11.7632,0,8.7422,3.8366,11.8885,7.9251,11.8885,4.1528,0,7.9893-3.1463,7.9893-11.8885C446.1583,289.1763,442.3218,285.908,438.169,285.908Z" style="fill:#1c1c1c"/><path d="M504.4833,319.75V297.2282s-.8813,1.5731-1.3211,2.2666l-8.808,14.28-8.4291-14.28c-.3773-.6293-1.2586-2.1382-1.2586-2.1382V319.75h-11.951v-44.035h11.0088l10.6941,18.3062L505.49,275.7147h10.9445V319.75Z" style="fill:#1c1c1c"/><path d="M559.6652,319.75l-2.5154-7.8014H544.1906l-2.5154,7.8014H529.0933l16.1664-44.035h10.6941L571.87,319.75Zm-8.1145-27.302c-.44-1.3837-.8813-3.3324-.8813-3.3324s-.3773,1.8235-.8171,3.3324l-2.8942,10.1934h7.36Z" style="fill:#1c1c1c"/><path d="M599.1831,319.75H584.84v-44.035h14.3429c13.3347,0,19.6257,10.38,19.6257,22.2711C618.8088,309.7491,612.2048,319.75,599.1831,319.75Zm0-36.8628h-6.4162v29.6906h6.4162c8.4291,0,11.8884-7.2974,11.8884-14.5917C611.0715,290.6242,607.8,282.8869,599.1831,282.8869Z" style="fill:#1c1c1c"/><path d="M634.1052,319.75v-44.035h26.7353v7.1722H641.9677v10.0649h13.5884v7.1722H641.9677v12.4535h21.1362V319.75Z" style="fill:#1c1c1c"/><path d="M688.653,320.5042c-7.9251,0-13.7762-5.22-15.2851-6.9186l5.85-4.97c2.0129,2.2634,5.4739,4.78,9.4356,4.78,4.3406,0,6.92-2.517,6.92-5.7243,0-8.1771-20.6964-6.6682-20.6964-20.4444,0-7.3584,5.8511-12.4567,14.4681-12.4567a20.3463,20.3463,0,0,1,12.8965,5.1593l-5.7243,5.034a11.3171,11.3171,0,0,0-7.1722-2.9569c-4.026,0-6.1642,1.9488-6.1642,4.97,0,7.7373,20.4444,6.3535,20.4444,20.5054C703.6251,316.2888,696.0773,320.5042,688.653,320.5042Z" style="fill:#1c1c1c"/><path d="M718.1028,319.75v-44.035h7.8625V319.75Z" style="fill:#1c1c1c"/><path d="M759.69,320.1286c-12.8323,0-18.3688-10.8226-18.3688-22.5216,0-11.7632,5.4739-22.5826,18.3688-22.5826,5.7243,0,10.1275,2.578,13.8388,6.3536l-5.6617,4.591a10.7156,10.7156,0,0,0-8.1771-3.6471c-8.2413,0-10.5673,8.2413-10.5673,15.0957,0,6.8576,2.326,15.3493,10.5673,15.3493a10.7881,10.7881,0,0,0,7.4852-3.2715v-4.78H762.27v-6.7292h12.77v13.5868A18.2846,18.2846,0,0,1,759.69,320.1286Z" style="fill:#1c1c1c"/><path d="M818.2653,319.75l-18.1168-28.4963a17.4458,17.4458,0,0,1-1.5732-2.9568V319.75h-7.8v-44.035h7.8L816.63,304.15a20.9491,20.9491,0,0,1,1.6358,3.1431V275.7147h7.8V319.75Z" style="fill:#1c1c1c"/><path d="M453.0757,220.0565l24.6432-26.8934c10.9582,11.1205,23.3909,19.0025,37.8063,19.0025,12.8764,0,19.1653-7.2412,19.1653-13.53,0-8.0861-12.8765-12.8765-27.55-18.5667-23.0583-8.6847-52.1056-19.4652-52.1056-47.9126,0-27.85,23.9569-47.9139,62.8862-47.9139,27.4775,0,46.6257,14.6666,53.7836,21.19l-23.8172,25.9919c-4.3854-5.28-15.6483-13.6968-29.9664-13.6968-11.9791,0-18.2667,5.7439-18.2667,12.3315,0,8.3847,12.5765,12.5777,27.25,17.968,23.0583,8.0848,52.4055,18.2667,52.4055,47.6139,0,32.94-29.0472,49.71-64.0847,49.71-31.0077,0-51.1322-14.2851-62.1495-25.2944" style="fill:#1c1c1c"/><path d="M787.4532,242.5093l-2.8483-15.2885c-5.5988,8.1343-23.5218,17.3844-40.5912,17.3844-23.957,0-47.8954-14.9723-47.8954-44.6195,0-34.3283,37.5027-55.2867,86.5247-59.0631,0-15.3576-8.6835-21.644-23.3571-21.644-15.8709,0-27.25,9.13-31.9254,14.4015l-26.4192-24.2088c14.54-14.1809,34.4318-25.2289,57.746-25.2289,42.8223,0,67.3778,21.31,67.3778,55.4489v102.818Zm-4.81-72.8394c-32.0851,2.0869-43.6452,13.8463-43.6452,24.6268,0,9.5637,6.7062,14.6736,18.4909,14.6736,8.9847,0,20.9625-6.6425,25.1543-13.53Z" style="fill:#1c1c1c"/><path d="M372.8629,242.6748h44.0208V87.22c-4.8272-.48-9.7206-.7333-14.6737-.7333a147.1276,147.1276,0,0,0-29.3471,2.9454Z" style="fill:#1c1c1c"/><path d="M615.3151,242.6748h44.0208V87.22c-4.8272-.48-9.7206-.7333-14.6737-.7333a147.1276,147.1276,0,0,0-29.3471,2.9454Z" style="fill:#1c1c1c"/><path d="M242.0144,143.6271l-39.77-36.4334a4.1039,4.1039,0,0,1-1.3042-3.501L206.8052,53.35a144.1592,144.1592,0,0,1,49.8032,29.8707l-9.1323,58.492A3.2832,3.2832,0,0,1,242.0144,143.6271Z" style="fill:#1c1c1c"/><path d="M96.6637,59.2075A144.0357,144.0357,0,0,0,52.1074,92.16l213.44,195.5758A144.4976,144.4976,0,0,0,294.5021,240.5Z" style="fill:#1c1c1c"/><path d="M14.408,180.162a145.19,145.19,0,0,0,6.5933,54.0505,90.3484,90.3484,0,0,1,105.7414,96.9,145.4416,145.4416,0,0,0,54.4253,1.8461A144.7656,144.7656,0,0,0,14.408,180.162Z" style="fill:#1c1c1c"/></svg>