<svg width="199" height="47" viewBox="0 0 199 47" fill="none" xmlns="http://www.w3.org/2000/svg">
<path d="M36.5918 1.74365V45.3419H26.688L26.1858 42.0671C23.8053 44.8366 20.35 46.4517 16.0108 46.4517C6.34305 46.4269 0 38.5545 0 29.4979C0 20.0846 6.61425 12.5441 16.0058 12.5441C20.1039 12.5441 23.4487 13.9413 25.8845 16.5076V1.74365H36.5918ZM25.8845 29.4186C25.8845 24.9597 22.4844 22.1803 18.4466 22.1803C14.0521 22.1803 10.8128 25.4552 10.8128 29.4186C10.8079 30.3988 11.0022 31.37 11.3842 32.2748C11.7663 33.1796 12.3284 33.9997 13.0373 34.6865C13.7461 35.3733 14.5874 35.913 15.5113 36.2735C16.4353 36.6341 17.4231 36.8083 18.4164 36.7858C22.6753 36.7858 25.8845 33.7487 25.8845 29.4186Z" fill="#1C1C1C"/>
<path d="M79.9937 13.6241V45.332H69.9794L69.4772 42.0571C67.0966 44.8266 63.6414 46.4417 59.3072 46.4417C49.6394 46.4417 43.2964 38.5693 43.2964 29.488C43.2964 20.0747 49.9106 12.5342 59.3072 12.5342C63.561 12.5342 67.0414 14.0651 69.5023 16.8643L70.0045 13.639L79.9937 13.6241ZM69.1758 29.3938C69.1758 24.9349 65.7758 22.1555 61.7379 22.1555C57.3435 22.1555 54.1042 25.4551 54.1042 29.4186C54.0998 30.3974 54.2947 31.3672 54.6773 32.2704C55.0599 33.1735 55.6224 33.9917 56.3315 34.6765C57.0406 35.3612 57.8819 35.8985 58.8054 36.2566C59.7289 36.6146 60.7159 36.7861 61.7078 36.7609C65.9666 36.7609 69.1758 33.7239 69.1758 29.3938Z" fill="#1C1C1C"/>
<path d="M127.142 5.3606C127.142 2.38799 129.743 0 133.168 0C136.593 0 139.195 2.40286 139.195 5.3606C139.195 8.31835 136.624 10.7212 133.168 10.7212C129.713 10.7212 127.142 8.31835 127.142 5.3606ZM127.759 13.6245H138.577V45.3323H127.759V13.6245Z" fill="#1C1C1C"/>
<path d="M185.617 2.74463H198.88L197.032 30.4493H187.545L185.617 2.74463ZM185.617 40.5909C185.617 37.2071 188.67 34.4871 192.256 34.4871C195.952 34.4871 199.001 37.3656 199.001 40.7197C199.001 44.0738 195.952 46.8235 192.311 46.8235C188.67 46.8235 185.617 44.049 185.617 40.5909Z" fill="#1C1C1C"/>
<path d="M118.523 29.4683C125.861 41.4579 116.012 51.1783 103.853 43.94C91.7047 51.1783 81.8511 41.4628 89.1885 29.4683C81.8511 17.4838 91.6996 7.76336 103.853 15.0017C116.007 7.76336 125.861 17.4788 118.523 29.4683Z" fill="#FF006E"/>
<path d="M175.546 30.2215H178.916C178.917 28.7687 178.627 27.33 178.064 25.9875C177.501 24.645 176.676 23.425 175.635 22.3973C174.594 21.3695 173.358 20.5541 171.998 19.9975C170.638 19.4409 169.179 19.1541 167.707 19.1535H164.332C163.739 19.1535 163.171 18.9212 162.751 18.5078C162.332 18.0943 162.097 17.5335 162.097 16.9488V13.6294C160.624 13.6287 159.166 13.9143 157.805 14.4696C156.444 15.025 155.207 15.8393 154.165 16.8662C153.124 17.893 152.297 19.1122 151.733 20.4542C151.169 21.7962 150.878 23.2347 150.877 24.6875V28.0168C150.876 28.5986 150.642 29.1564 150.226 29.5691C149.811 29.9819 149.247 30.2163 148.657 30.2215H145.292C145.292 31.675 145.581 33.1143 146.145 34.4574C146.708 35.8005 147.534 37.021 148.575 38.0492C149.616 39.0774 150.853 39.8932 152.214 40.4501C153.575 41.0069 155.034 41.2938 156.507 41.2945H159.877C160.47 41.2958 161.039 41.5292 161.458 41.9434C161.877 42.3577 162.112 42.9189 162.112 43.5041V46.8235C165.084 46.8196 167.933 45.6524 170.034 43.5783C172.135 41.5041 173.315 38.6924 173.316 35.7605C173.316 35.7605 173.316 35.7258 173.316 35.706V32.4361C173.315 31.8509 173.549 31.2891 173.967 30.8739C174.385 30.4588 174.953 30.2241 175.546 30.2215Z" fill="#FECE00"/>
</svg>
