<svg width="1226" height="558" viewBox="0 0 1226 558" fill="none" xmlns="http://www.w3.org/2000/svg">
<rect x="613" y="6" width="613" height="541" fill="#1C1C1C"/>
<rect x="0.5" y="6.5" width="612" height="540" fill="#F3F3F3" stroke="black"/>
<path d="M48.2031 114.363V88.3672H39.0078V123H61.459V114.363H48.2031ZM90.7637 109.078C90.7637 102.805 85.9512 96.3594 77.7656 96.3594C70.0742 96.3594 63.7793 102.074 63.7793 110.109C63.7793 118.037 69.9023 123.859 77.7441 123.859C80.8594 123.859 85.7363 122.936 89.1094 118.574L82.6426 114.814C80.7734 116.49 79.1621 116.855 77.916 116.855C75.4023 116.855 73.4473 115.309 72.502 113.053H90.1621V112.881C90.5273 111.893 90.7637 110.453 90.7637 109.078ZM77.6367 103.342C80.4512 103.342 81.9551 105.232 82.4707 107.768H72.2012C72.9102 105.254 74.8223 103.342 77.6367 103.342ZM127.631 96.3164C123.613 96.3164 120.605 98.0352 118.693 100.678C116.953 97.3047 114.01 96.3164 110.98 96.3164C107.758 96.3164 105.18 97.4336 103.289 99.2598L102.988 97.2188H94.9531V123H103.633V109.057C103.633 106.178 105.072 104.18 107.887 104.18C110.314 104.18 111.604 105.641 111.604 109.057V123H120.283V109.057C120.283 106.178 121.701 104.18 124.537 104.18C126.965 104.18 128.232 105.641 128.232 109.057V123H136.912V109.057C136.912 98.7656 132.379 96.3164 127.631 96.3164ZM155.625 123.902C163.768 123.902 170.105 117.844 170.105 110.109C170.105 102.375 163.768 96.3164 155.625 96.3164C147.461 96.3164 141.123 102.375 141.123 110.109C141.123 117.844 147.461 123.902 155.625 123.902ZM155.625 115.932C152.338 115.932 149.803 113.354 149.803 110.109C149.803 106.865 152.338 104.266 155.625 104.266C158.912 104.266 161.426 106.865 161.426 110.109C161.426 113.354 158.912 115.932 155.625 115.932ZM190.602 96.4238C187.336 96.4238 184.65 97.584 182.695 99.4746L182.352 97.2188H174.316V123H182.996V109.057C182.996 106.178 184.586 104.18 187.4 104.18C190.021 104.18 191.504 105.598 191.504 109.057V123H200.184V109.057C200.184 98.7441 195.414 96.4238 190.602 96.4238ZM251.896 96.3164C247.879 96.3164 244.871 98.0352 242.959 100.678C241.219 97.3047 238.275 96.3164 235.246 96.3164C232.023 96.3164 229.445 97.4336 227.555 99.2598L227.254 97.2188H219.219V123H227.898V109.057C227.898 106.178 229.338 104.18 232.152 104.18C234.58 104.18 235.869 105.641 235.869 109.057V123H244.549V109.057C244.549 106.178 245.967 104.18 248.803 104.18C251.23 104.18 252.498 105.641 252.498 109.057V123H261.178V109.057C261.178 98.7656 256.645 96.3164 251.896 96.3164ZM271.619 94.8555C274.391 94.8555 276.453 92.9004 276.453 90.4941C276.453 88.0879 274.391 86.1328 271.619 86.1328C268.869 86.1328 266.785 88.0879 266.785 90.4941C266.785 92.9004 268.869 94.8555 271.619 94.8555ZM267.279 123H275.959V97.2188H267.279V123ZM282.039 123H290.719V87.5508H282.039V123ZM323.332 123L312.504 110.002L322.344 97.2188H312.719L304.984 107.531V87.5508H296.305V123H304.984V113.096L313.234 123H323.332ZM340.648 123H349.844V112.795H353.732C360.994 112.795 366.816 107.188 366.816 100.506C366.816 93.7383 360.865 88.3672 353.732 88.3672H340.648V123ZM353.732 104.33L349.844 104.309V96.8535H353.732C356.182 96.8535 357.943 98.4434 357.943 100.549C357.943 102.676 356.203 104.352 353.732 104.33ZM399.988 123L390.707 109.1C394.102 107.553 396.701 103.943 396.701 99.625C396.701 93.416 391.352 88.3672 383.875 88.3672H370.727L370.77 123H379.965V107.961L389.225 123H399.988ZM379.922 96.6387H383.682C385.615 96.6387 387.42 97.9707 387.42 100.119C387.42 102.246 385.637 103.621 383.682 103.6L379.922 103.578V96.6387ZM420.785 123.881C431.57 123.881 439.82 116.039 439.82 105.727C439.82 95.3281 431.57 87.4434 420.807 87.4434C410.043 87.4434 401.793 95.3281 401.793 105.727C401.793 116.039 410.021 123.881 420.785 123.881ZM420.807 115.094C415.307 115.094 411.096 110.99 411.096 105.662C411.096 100.312 415.307 96.1875 420.807 96.1875C426.307 96.1875 430.518 100.312 430.518 105.662C430.518 110.99 426.307 115.094 420.807 115.094Z" fill="#FECE00"/>
<path d="M57.4844 168.492C58.9023 168.492 61.2656 165.936 61.2656 162.369C61.2656 157.6 56.668 153.367 50.3945 153.367H39.0078V188H53.7891C60.7285 188 65.3262 182.908 65.3262 177.43C65.3262 172.209 61.1797 168.492 57.4844 168.492ZM53.5527 164.023C53.5527 165.807 52.0488 166.795 50.0508 166.795H47.8594V161.359H50.1152C52.0918 161.359 53.5527 162.348 53.5527 164.023ZM52.3926 179.643H47.8594V173.068L52.457 173.09C55.0566 173.09 56.5176 174.314 56.5176 176.334C56.5176 178.611 54.498 179.643 52.3926 179.643ZM82.1484 188.902C90.291 188.902 96.6289 182.844 96.6289 175.109C96.6289 167.375 90.291 161.316 82.1484 161.316C73.9844 161.316 67.6465 167.375 67.6465 175.109C67.6465 182.844 73.9844 188.902 82.1484 188.902ZM82.1484 180.932C78.8613 180.932 76.3262 178.354 76.3262 175.109C76.3262 171.865 78.8613 169.266 82.1484 169.266C85.4355 169.266 87.9492 171.865 87.9492 175.109C87.9492 178.354 85.4355 180.932 82.1484 180.932ZM100.84 188H109.52V152.551H100.84V188ZM134.484 152.551V164.582C132.529 162.477 129.844 161.338 126.557 161.338C119.016 161.338 113.709 167.461 113.709 175.131C113.709 182.5 118.801 188.902 126.557 188.902C130.037 188.902 132.809 187.592 134.721 185.336L135.129 188H143.078V152.551H134.484ZM128.49 181.061C124.773 181.061 122.389 178.16 122.389 175.066C122.389 171.844 124.988 169.18 128.512 169.18C131.756 169.18 134.484 171.436 134.484 175.066C134.484 178.59 131.906 181.061 128.49 181.061ZM62.9414 253H73.0176L56.9043 217.938H52.543L36.4512 253H46.5059L48.2676 248.961H61.2012L62.9414 253ZM51.168 242.236L54.7344 234.029L58.2793 242.236H51.168ZM94.9531 233.492C96.3711 233.492 98.7344 230.936 98.7344 227.369C98.7344 222.6 94.1367 218.367 87.8633 218.367H76.4766V253H91.2578C98.1973 253 102.795 247.908 102.795 242.43C102.795 237.209 98.6484 233.492 94.9531 233.492ZM91.0215 229.023C91.0215 230.807 89.5176 231.795 87.5195 231.795H85.3281V226.359H87.584C89.5605 226.359 91.0215 227.348 91.0215 229.023ZM89.8613 244.643H85.3281V238.068L89.9258 238.09C92.5254 238.09 93.9863 239.314 93.9863 241.334C93.9863 243.611 91.9668 244.643 89.8613 244.643ZM124.129 253.773C129.393 253.773 133.797 251.689 137.105 248.682L131.863 241.699C129.629 243.697 127.029 245.072 124.129 245.072C119.188 245.072 114.547 241.119 114.547 235.748C114.547 230.441 118.994 226.381 124.322 226.381C126.879 226.381 129.693 227.648 131.82 229.582L137.105 222.793C133.561 219.57 128.77 217.615 124.301 217.551C113.516 217.551 105.223 225.436 105.223 235.684C105.223 246.555 114.354 253.773 124.129 253.773ZM152.316 218.367L141.016 218.389V253H152.316C164.09 253 171.287 246.469 171.287 235.727C171.287 224.898 164.09 218.324 152.316 218.367ZM152.166 244.342H149.975V226.961H152.08C158.289 226.961 162.07 230.27 162.07 235.705C162.07 241.076 158.311 244.342 152.166 244.342ZM198.271 226.918V218.367H175.82V253H198.271V244.385H184.908V239.422H195.908V231.752H184.908V226.918H198.271ZM225.857 226.918V218.281H203.406V253.043H212.494V240.217H223.494V232.525H212.494V226.918H225.857ZM264.379 233.105H246.611V239.959H254.539C254.41 243.268 251.424 245.287 247.234 245.287C240.832 245.287 236.943 240.561 236.943 235.705C236.943 230.355 241.477 226.123 246.633 226.123C249.189 226.123 251.961 227.283 253.895 229.088L258.986 222.105C256.129 219.463 251.037 217.594 246.633 217.529C235.891 217.529 227.555 225.844 227.555 235.727C227.555 245.609 235.869 253.816 246.869 253.816C256.709 253.816 264.658 247.006 264.658 236.479C264.658 235.383 264.551 234.266 264.379 233.105ZM288.678 218.367V231.365H278.387V218.367H269.191V253H278.387V239.959H288.678V253H297.852V218.367H288.678ZM303.867 253H313.062V218.367H303.867V253ZM325.33 253.559H325.588C333.859 253.559 340.434 247.521 340.434 239.68L340.283 218.389L331.066 218.367L331.238 239.637C331.238 242.408 328.725 244.9 325.545 244.9H325.395C323.697 244.9 322.859 244.535 321.613 243.59L316.973 251.174C319.486 252.807 322.064 253.559 325.33 253.559ZM375.238 253L363.314 235.254L373.928 218.367H363.357L355.322 231.279V218.367H346.148V253H355.322V239.83L364.088 253H375.238ZM387.742 244.363V218.367H378.547V253H400.998V244.363H387.742ZM438.359 218.045L423.492 238.412L408.625 218.045H404.93V253H414.125V239.271L423.471 252.42H423.535L432.859 239.271V253H442.055V218.045H438.359ZM468.781 218.324V235.211L451.035 218.023H448.07V253.021H457.266V236.092L475.076 253.344H477.998V218.324H468.781ZM501.523 253.881C512.309 253.881 520.559 246.039 520.559 235.727C520.559 225.328 512.309 217.443 501.545 217.443C490.781 217.443 482.531 225.328 482.531 235.727C482.531 246.039 490.76 253.881 501.523 253.881ZM501.545 245.094C496.045 245.094 491.834 240.99 491.834 235.662C491.834 230.312 496.045 226.188 501.545 226.188C507.045 226.188 511.256 230.312 511.256 235.662C511.256 240.99 507.045 245.094 501.545 245.094ZM525.07 253H534.266V242.795H538.154C545.416 242.795 551.238 237.188 551.238 230.506C551.238 223.738 545.287 218.367 538.154 218.367H525.07V253ZM538.154 234.33L534.266 234.309V226.854H538.154C540.604 226.854 542.365 228.443 542.365 230.549C542.365 232.676 540.625 234.352 538.154 234.33ZM75.6602 316.518C72.8672 316.453 70.0957 316.109 67.7324 315.551C72.502 312.307 75.5312 306.979 75.5312 300.727C75.5312 290.328 67.2812 282.443 56.5176 282.443C45.7539 282.443 37.5039 290.328 37.5039 300.727C37.5039 311.039 45.7324 318.881 56.4961 318.881C57.377 318.881 58.2363 318.838 59.0957 318.73C62.2324 321.674 66.25 324.252 72.5234 324.703L75.6602 316.518ZM46.8066 300.662C46.8066 295.312 51.0176 291.188 56.5176 291.188C62.0176 291.188 66.2285 295.312 66.2285 300.662C66.2285 305.99 62.0176 310.094 56.5176 310.094C51.0176 310.094 46.8066 305.99 46.8066 300.662ZM109.52 318L100.238 304.1C103.633 302.553 106.232 298.943 106.232 294.625C106.232 288.416 100.883 283.367 93.4062 283.367H80.2578L80.3008 318H89.4961V302.961L98.7559 318H109.52ZM89.4531 291.639H93.2129C95.1465 291.639 96.9512 292.971 96.9512 295.119C96.9512 297.246 95.168 298.621 93.2129 298.6L89.4531 298.578V291.639ZM123.635 318.473C130.574 318.473 136.719 314.369 136.719 307.773C136.719 302.66 133.131 299.352 127.717 297.074C123.979 295.506 121.529 294.99 121.529 293.4C121.529 292.219 122.883 291.252 124.773 291.252C126.428 291.252 129.092 292.047 130.123 293.873L135.43 288.76C134.076 285.344 129.951 282.852 124.666 282.852C118.092 282.852 112.398 287.127 112.398 293.121C112.398 298.342 116.158 301.221 120.541 303.111C123.936 304.615 127.48 306.184 127.48 307.967C127.48 309.385 125.568 310.094 123.613 310.094C120.713 310.094 118.027 308.805 116.588 306.678L111.023 312.135C112.764 315.959 117.941 318.473 123.635 318.473ZM164.648 283.367H138.824V291.961H147.139V318H156.355V291.961H164.648V283.367ZM182.631 318.967C190.559 318.967 197.004 313.359 197.004 305.41V283.367H187.744V305.389C187.744 308.225 185.209 310.18 182.609 310.18C179.988 310.18 177.518 308.268 177.518 305.389V283.367H168.258V305.41C168.258 313.359 174.703 318.967 182.631 318.967ZM226.115 283.367L218.102 302.123L210.109 283.367H200.162L216.061 318.365H220.229L236.191 283.367H226.115ZM248.695 318.215H251.209L259.244 301.092L267.344 318.215H269.879L281.438 283.367H271.49L266.721 299.18L259.631 283.432H258.943L251.854 299.223L247.062 283.367H237.115L248.695 318.215ZM282.361 318H292.953L298.754 307.773L304.576 318H315.168L304.146 299.996L314.588 283.367H304.061L298.775 292.52L293.469 283.367H282.941L293.34 300.018L282.361 318ZM326.77 318H335.9V303.047L346.6 283.367H336.158L331.346 293.4L326.512 283.367H316.092L326.77 303.047V318ZM348.855 318H375.045V309.363H363.357L375.045 283.367H348.855V291.961H360.564L348.855 318ZM58.8164 357.219L58.4297 359.84C56.4531 357.562 53.6602 356.316 50.2441 356.316C42.7031 356.316 37.3965 362.439 37.3965 370.109C37.3965 377.5 42.4883 383.902 50.2441 383.902C53.7246 383.902 56.4961 382.592 58.4082 380.336L58.8164 383H66.8516V357.219H58.8164ZM52.1777 376.039C48.4609 376.039 46.0762 373.16 46.0762 370.066C46.0762 366.844 48.6758 364.158 52.1992 364.158C55.4434 364.158 58.1719 366.436 58.1719 370.045C58.1719 373.568 55.5938 376.039 52.1777 376.039ZM89.0664 356.338C85.7793 356.338 83.0723 357.498 81.1172 359.582V347.551H72.4375V383H80.4727L80.8809 380.314C82.8145 382.592 85.5859 383.902 89.0664 383.902C96.8008 383.902 101.893 377.5 101.893 370.131C101.893 362.461 96.5859 356.338 89.0664 356.338ZM87.1328 376.061C83.6953 376.061 81.1172 373.59 81.1172 370.066C81.1172 366.436 83.8672 364.18 87.1113 364.18C90.6348 364.18 93.2129 366.844 93.2129 370.066C93.2129 373.16 90.8281 376.061 87.1328 376.061ZM119.037 383.859C122.582 383.859 125.955 382.635 128.49 380.594L124.15 374.729C123.119 375.695 121.4 376.404 119.574 376.404C116.029 376.404 113.365 373.697 113.365 370.109C113.365 366.543 116.029 363.793 119.553 363.793C121.314 363.793 123.098 364.502 124.193 365.533L128.146 359.367C125.719 357.52 122.496 356.359 119.037 356.359C111.582 356.359 104.686 361.795 104.686 370.109C104.686 378.424 111.582 383.859 119.037 383.859ZM150.855 347.551V359.582C148.9 357.477 146.215 356.338 142.928 356.338C135.387 356.338 130.08 362.461 130.08 370.131C130.08 377.5 135.172 383.902 142.928 383.902C146.408 383.902 149.18 382.592 151.092 380.336L151.5 383H159.449V347.551H150.855ZM144.861 376.061C141.145 376.061 138.76 373.16 138.76 370.066C138.76 366.844 141.359 364.18 144.883 364.18C148.127 364.18 150.855 366.436 150.855 370.066C150.855 373.59 148.277 376.061 144.861 376.061ZM190.623 369.078C190.623 362.805 185.811 356.359 177.625 356.359C169.934 356.359 163.639 362.074 163.639 370.109C163.639 378.037 169.762 383.859 177.604 383.859C180.719 383.859 185.596 382.936 188.969 378.574L182.502 374.814C180.633 376.49 179.021 376.855 177.775 376.855C175.262 376.855 173.307 375.309 172.361 373.053H190.021V372.881C190.387 371.893 190.623 370.453 190.623 369.078ZM177.496 363.342C180.311 363.342 181.814 365.232 182.33 367.768H172.061C172.77 365.254 174.682 363.342 177.496 363.342ZM207.66 353.824C208.498 353.824 209.465 354.061 210.367 354.404V347.658C208.734 347.057 206.264 346.691 204.588 346.691C198.852 346.691 196.166 351.182 196.166 356.316V357.219H192.857V364.91H196.166V383H204.846V364.91H210.367V357.219H204.846V356.316C204.846 355.607 205.297 353.824 207.66 353.824ZM234.043 357.219L233.656 359.84C231.68 357.562 228.887 356.316 225.471 356.316C217.93 356.316 212.623 362.439 212.623 370.109C212.623 377.5 217.715 383.902 225.471 383.902C228.801 383.902 231.486 382.699 233.398 380.615C233.205 384.332 229.982 386.48 225.535 386.48C222.914 386.48 219.928 385.686 218.982 384.783L214.406 390.176C217.371 392.604 221.711 393.957 225.965 393.957C236.277 393.957 241.992 387.963 242.078 380.422V357.219H234.043ZM227.404 376.039C223.688 376.039 221.303 373.16 221.303 370.066C221.303 366.844 223.902 364.158 227.426 364.158C230.67 364.158 233.398 366.436 233.398 370.045C233.398 373.568 230.82 376.039 227.404 376.039ZM263.949 356.424C260.855 356.424 258.277 357.455 256.344 359.174V347.551H247.664V383H256.344V369.057C256.344 366.178 257.934 364.18 260.748 364.18C263.369 364.18 264.852 365.598 264.852 369.057V383H273.531V369.057C273.531 358.744 268.762 356.424 263.949 356.424ZM283.951 354.855C286.723 354.855 288.785 352.9 288.785 350.494C288.785 348.088 286.723 346.133 283.951 346.133C281.201 346.133 279.117 348.088 279.117 350.494C279.117 352.9 281.201 354.855 283.951 354.855ZM279.611 383H288.291V357.219H279.611V383ZM298.84 354.855C301.611 354.855 303.674 352.9 303.674 350.494C303.674 348.088 301.611 346.133 298.84 346.133C296.09 346.133 294.006 348.088 294.006 350.494C294.006 352.9 296.09 354.855 298.84 354.855ZM294.457 393.42C300.73 393.42 303.201 388.973 303.201 383.902V357.219H294.521V383.902C294.521 384.676 294.049 386.287 291.707 386.287C290.955 386.287 290.182 386.137 289.322 385.793V392.561C290.482 393.012 292.566 393.42 294.457 393.42ZM336.309 383L325.48 370.002L335.32 357.219H325.695L317.961 367.531V347.551H309.281V383H317.961V373.096L326.211 383H336.309ZM339.961 383H348.641V347.551H339.961V383ZM386.904 356.316C382.887 356.316 379.879 358.035 377.967 360.678C376.227 357.305 373.283 356.316 370.254 356.316C367.031 356.316 364.453 357.434 362.562 359.26L362.262 357.219H354.227V383H362.906V369.057C362.906 366.178 364.346 364.18 367.16 364.18C369.588 364.18 370.877 365.641 370.877 369.057V383H379.557V369.057C379.557 366.178 380.975 364.18 383.811 364.18C386.238 364.18 387.506 365.641 387.506 369.057V383H396.186V369.057C396.186 358.766 391.652 356.316 386.904 356.316ZM418.078 356.424C414.812 356.424 412.127 357.584 410.172 359.475L409.828 357.219H401.793V383H410.473V369.057C410.473 366.178 412.062 364.18 414.877 364.18C417.498 364.18 418.98 365.598 418.98 369.057V383H427.66V369.057C427.66 358.744 422.891 356.424 418.078 356.424ZM446.352 383.902C454.494 383.902 460.832 377.844 460.832 370.109C460.832 362.375 454.494 356.316 446.352 356.316C438.188 356.316 431.85 362.375 431.85 370.109C431.85 377.844 438.188 383.902 446.352 383.902ZM446.352 375.932C443.064 375.932 440.529 373.354 440.529 370.109C440.529 366.865 443.064 364.266 446.352 364.266C449.639 364.266 452.152 366.865 452.152 370.109C452.152 373.354 449.639 375.932 446.352 375.932ZM481.586 356.338C478.148 356.338 475.355 357.584 473.379 359.861L472.992 357.219H465.043V392.668H473.637V380.594C475.549 382.699 478.234 383.902 481.586 383.902C489.32 383.902 494.412 377.5 494.412 370.131C494.412 362.461 489.105 356.338 481.586 356.338ZM479.652 376.061C476.215 376.061 473.637 373.59 473.637 370.066C473.637 366.436 476.387 364.18 479.631 364.18C483.154 364.18 485.732 366.844 485.732 370.066C485.732 373.16 483.348 376.061 479.652 376.061ZM518.625 357.219L518.238 359.861C516.262 357.584 513.469 356.338 510.053 356.338C502.512 356.338 497.205 362.461 497.205 370.131C497.205 377.5 502.297 383.902 510.053 383.902C513.383 383.902 516.068 382.699 517.98 380.615V392.668H526.574V357.219H518.625ZM511.986 376.061C508.27 376.061 505.885 373.16 505.885 370.066C505.885 366.844 508.484 364.18 512.008 364.18C515.252 364.18 517.98 366.436 517.98 370.066C517.98 373.59 515.402 376.061 511.986 376.061ZM540.646 360.291L540.195 357.219H532.16V383H540.84V372.602C540.84 365.705 544.492 364.631 547.07 364.631C547.65 364.631 548.166 364.695 548.51 364.76L549.842 356.102C546.77 356.123 543.268 357.326 540.646 360.291ZM561.701 383.945C568.469 383.945 573.475 380.529 573.475 375.029C573.475 371.012 570.703 368.906 565.719 367.08C561.723 365.748 560.391 365.297 560.391 364.395C560.391 363.578 561.336 363.32 562.582 363.32C564.559 363.32 566.471 364.072 567.717 365.254L572.1 360.441C570.746 357.971 566.75 356.295 562.84 356.295C557.447 356.295 552.227 359.324 552.227 364.932C552.227 368.906 555.492 371.527 559.939 372.945C562.539 373.891 564.773 374.557 564.773 375.631C564.773 376.576 563.527 376.834 562.41 376.834C559.402 376.834 556.309 375.33 555.17 373.891L551.346 379.09C552.742 381.84 556.889 383.945 561.701 383.945ZM48.7617 448.43C50.459 448.43 52.8867 448.107 54.3262 447.549V441.039C53.5527 441.275 52.5 441.555 51.7051 441.555C50.1582 441.555 49.127 440.652 49.127 438.891V429.889H54.3906V422.219H49.127V416.783H41.3066V419.34C41.3066 421.66 39.9531 422.928 37.6543 422.928H36.8379V429.889H40.4473V439.32C40.4473 444.133 42.4238 448.43 48.7617 448.43ZM70.4609 448.322C77.9375 448.322 83.0938 443.059 83.0723 435.926L83.0293 422.219H74.3496L74.3711 435.904C74.3711 438.805 72.8457 440.652 70.4395 440.652C68.1406 440.652 66.7441 438.805 66.7441 435.904L66.7227 422.219H58.043L58.0859 435.926C58.0859 443.059 63.0273 448.322 70.4609 448.322ZM104.857 422.219L100.625 434.1L96.3066 422.219H86.7246L98.4766 448.645H102.838L114.633 422.219H104.857ZM125.719 448.43H129.436L135.15 436.635L141.059 448.43H144.797L154.164 422.219H144.754L141.445 434.207L135.537 422.262H134.979L129.049 434.229L125.719 422.219H116.33L125.719 448.43ZM155.861 448H165.959L170.385 441.018L174.939 448H184.908L175.541 434.379L184.307 422.219H174.252L170.406 428.213L166.539 422.219H156.484L165.207 434.4L155.861 448ZM207.488 422.219L201.193 436.355L196.23 422.219H186.584L197.004 445.744L191.676 457.668H200.699L216.855 422.219H207.488ZM219.111 448H241.906V440.33H231.938L241.691 422.219H219.799V429.889H228.865L219.111 448ZM47.3867 478.152L37.5039 480.752V489.797L40.877 488.98V513H50.0723V478.152H47.3867ZM84.8555 504.557C90.5488 501.398 95.4258 495.941 95.4258 490.27C95.4258 483.459 89.4746 477.637 82.1055 477.637C74.7363 477.637 68.8496 483.223 68.8496 489.496L76.3262 491.967C76.3262 488.852 79.0332 486.316 82.084 486.316C84.3828 486.316 86.1875 488.314 86.1875 490.635C86.1875 493.857 81.2031 498.648 68.0547 509.67V513H95.834V504.557H84.8555ZM131.605 493.277C134.055 492.139 135.537 489.453 135.537 486.574C135.537 481.246 130.768 477.271 124.709 477.271C118.93 477.271 114.783 480.988 113.559 486.016L121.207 487.691C121.723 486.23 122.861 485.436 124.086 485.436C125.525 485.436 126.621 486.531 126.621 488.057C126.621 490.076 124.666 491.773 121.357 491.773L120.305 495.855C125.568 495.898 128.168 498.412 128.168 501.162C128.168 503.354 126.643 504.943 124.387 504.943C122.604 504.943 120.584 503.934 119.961 501.957L112.312 503.783C113.129 509.004 118.414 513.537 124.902 513.537C131.67 513.537 137.471 508.939 137.471 502.322C137.471 497.982 134.936 494.652 131.605 493.277ZM183.898 498.734H180.525V491.172H171.352V498.734H165.723L173.865 478.217L164.584 478.174L152.896 506.963H171.352V513H180.525V506.963H183.898V498.734ZM214.75 489.281C212.945 489.281 211.312 489.646 210.045 490.312L210.604 486.553H223.129V478.346H204.137L201.451 496.672L205.598 498.928C206.951 497.553 209.701 496.758 211.893 496.758C214.664 496.758 216.705 498.068 216.705 500.818C216.705 503.697 214.557 505.094 212.086 505.094C210.152 505.094 208.648 504.213 207.252 502.473L199.754 505.781C202.504 511.174 207.488 513.537 212.688 513.537C220.4 513.537 226.266 508.553 226.266 501.055C226.266 494.416 221.668 489.281 214.75 489.281ZM258.17 490.871C257.762 490.871 257.354 490.893 256.945 490.957L264.572 478.41L254.088 478.367C243.561 495.533 242.723 498.734 242.723 501.721C242.723 509.734 248.717 513.666 255.721 513.666C263.348 513.666 268.912 508.037 268.912 501.592C268.912 495.404 263.82 490.871 258.17 490.871ZM255.85 505.244C253.701 505.244 251.961 503.633 251.961 501.334C251.961 498.992 253.744 497.316 255.871 497.295C258.02 497.295 259.803 499.014 259.803 501.312C259.803 503.59 257.998 505.244 255.85 505.244ZM284.789 478.367V486.811H297.422L287.432 513H297.057L310.248 479.957V478.367H284.789ZM338.908 513.709C346.879 513.709 352.186 508.896 352.186 502.537C352.186 496.758 347.824 493.943 345.59 493.428C347.223 492.977 350.295 490.764 350.295 486.854C350.295 481.998 345.611 477.637 338.93 477.637C332.398 477.637 327.629 481.891 327.629 486.896C327.629 490.635 330.25 493.041 332.119 493.428C329.734 493.9 325.652 496.908 325.652 502.494C325.652 508.961 331.066 513.709 338.908 513.709ZM338.951 490.936C337.297 490.936 335.922 489.711 335.922 487.971C335.922 486.166 337.361 485.113 338.951 485.113C340.562 485.113 342.023 486.145 342.023 487.992C342.023 489.818 340.541 490.936 338.951 490.936ZM338.908 505.438C336.717 505.438 334.654 503.891 334.654 501.463C334.654 499.057 336.695 497.273 338.93 497.273C341.143 497.273 343.205 498.992 343.205 501.398C343.205 503.826 341.121 505.438 338.908 505.438ZM381.77 477.594C374.379 477.594 368.664 483.158 368.664 489.904C368.664 495.727 373.67 501.033 379.449 501.033C379.707 501.033 379.943 501.012 380.201 500.99L372.982 512.957H383.531C394.037 495.211 394.854 494.008 394.854 490.012C394.854 483.201 389.203 477.594 381.77 477.594ZM381.748 493.965C379.621 493.965 377.838 492.203 377.838 490.055C377.838 487.67 379.578 486.016 381.748 486.016C383.854 486.016 385.658 487.67 385.658 490.055C385.658 492.246 383.854 493.965 381.748 493.965ZM426.715 513.709C436.018 513.709 441.947 506.555 441.947 495.662C441.947 484.791 436.018 477.637 426.715 477.637C417.326 477.637 411.332 484.791 411.332 495.684C411.332 506.555 417.326 513.709 426.715 513.709ZM426.65 504.943C422.869 504.943 420.506 501.227 420.506 495.662C420.506 490.076 422.869 486.359 426.629 486.359C430.389 486.359 432.73 490.098 432.73 495.705C432.73 501.248 430.389 504.943 426.65 504.943Z" fill="#1C1C1C"/>
<path d="M662.203 114.363V88.3672H653.008V123H675.459V114.363H662.203ZM704.764 109.078C704.764 102.805 699.951 96.3594 691.766 96.3594C684.074 96.3594 677.779 102.074 677.779 110.109C677.779 118.037 683.902 123.859 691.744 123.859C694.859 123.859 699.736 122.936 703.109 118.574L696.643 114.814C694.773 116.49 693.162 116.855 691.916 116.855C689.402 116.855 687.447 115.309 686.502 113.053H704.162V112.881C704.527 111.893 704.764 110.453 704.764 109.078ZM691.637 103.342C694.451 103.342 695.955 105.232 696.471 107.768H686.201C686.91 105.254 688.822 103.342 691.637 103.342ZM741.631 96.3164C737.613 96.3164 734.605 98.0352 732.693 100.678C730.953 97.3047 728.01 96.3164 724.98 96.3164C721.758 96.3164 719.18 97.4336 717.289 99.2598L716.988 97.2188H708.953V123H717.633V109.057C717.633 106.178 719.072 104.18 721.887 104.18C724.314 104.18 725.604 105.641 725.604 109.057V123H734.283V109.057C734.283 106.178 735.701 104.18 738.537 104.18C740.965 104.18 742.232 105.641 742.232 109.057V123H750.912V109.057C750.912 98.7656 746.379 96.3164 741.631 96.3164ZM769.625 123.902C777.768 123.902 784.105 117.844 784.105 110.109C784.105 102.375 777.768 96.3164 769.625 96.3164C761.461 96.3164 755.123 102.375 755.123 110.109C755.123 117.844 761.461 123.902 769.625 123.902ZM769.625 115.932C766.338 115.932 763.803 113.354 763.803 110.109C763.803 106.865 766.338 104.266 769.625 104.266C772.912 104.266 775.426 106.865 775.426 110.109C775.426 113.354 772.912 115.932 769.625 115.932ZM804.602 96.4238C801.336 96.4238 798.65 97.584 796.695 99.4746L796.352 97.2188H788.316V123H796.996V109.057C796.996 106.178 798.586 104.18 801.4 104.18C804.021 104.18 805.504 105.598 805.504 109.057V123H814.184V109.057C814.184 98.7441 809.414 96.4238 804.602 96.4238ZM865.896 96.3164C861.879 96.3164 858.871 98.0352 856.959 100.678C855.219 97.3047 852.275 96.3164 849.246 96.3164C846.023 96.3164 843.445 97.4336 841.555 99.2598L841.254 97.2188H833.219V123H841.898V109.057C841.898 106.178 843.338 104.18 846.152 104.18C848.58 104.18 849.869 105.641 849.869 109.057V123H858.549V109.057C858.549 106.178 859.967 104.18 862.803 104.18C865.23 104.18 866.498 105.641 866.498 109.057V123H875.178V109.057C875.178 98.7656 870.645 96.3164 865.896 96.3164ZM885.619 94.8555C888.391 94.8555 890.453 92.9004 890.453 90.4941C890.453 88.0879 888.391 86.1328 885.619 86.1328C882.869 86.1328 880.785 88.0879 880.785 90.4941C880.785 92.9004 882.869 94.8555 885.619 94.8555ZM881.279 123H889.959V97.2188H881.279V123ZM896.039 123H904.719V87.5508H896.039V123ZM937.332 123L926.504 110.002L936.344 97.2188H926.719L918.984 107.531V87.5508H910.305V123H918.984V113.096L927.234 123H937.332ZM954.648 123H963.844V112.795H967.732C974.994 112.795 980.816 107.188 980.816 100.506C980.816 93.7383 974.865 88.3672 967.732 88.3672H954.648V123ZM967.732 104.33L963.844 104.309V96.8535H967.732C970.182 96.8535 971.943 98.4434 971.943 100.549C971.943 102.676 970.203 104.352 967.732 104.33ZM1013.99 123L1004.71 109.1C1008.1 107.553 1010.7 103.943 1010.7 99.625C1010.7 93.416 1005.35 88.3672 997.875 88.3672H984.727L984.77 123H993.965V107.961L1003.22 123H1013.99ZM993.922 96.6387H997.682C999.615 96.6387 1001.42 97.9707 1001.42 100.119C1001.42 102.246 999.637 103.621 997.682 103.6L993.922 103.578V96.6387ZM1034.79 123.881C1045.57 123.881 1053.82 116.039 1053.82 105.727C1053.82 95.3281 1045.57 87.4434 1034.81 87.4434C1024.04 87.4434 1015.79 95.3281 1015.79 105.727C1015.79 116.039 1024.02 123.881 1034.79 123.881ZM1034.81 115.094C1029.31 115.094 1025.1 110.99 1025.1 105.662C1025.1 100.312 1029.31 96.1875 1034.81 96.1875C1040.31 96.1875 1044.52 100.312 1044.52 105.662C1044.52 110.99 1040.31 115.094 1034.81 115.094Z" fill="#FECE00"/>
<path d="M671.484 168.492C672.902 168.492 675.266 165.936 675.266 162.369C675.266 157.6 670.668 153.367 664.395 153.367H653.008V188H667.789C674.729 188 679.326 182.908 679.326 177.43C679.326 172.209 675.18 168.492 671.484 168.492ZM667.553 164.023C667.553 165.807 666.049 166.795 664.051 166.795H661.859V161.359H664.115C666.092 161.359 667.553 162.348 667.553 164.023ZM666.393 179.643H661.859V173.068L666.457 173.09C669.057 173.09 670.518 174.314 670.518 176.334C670.518 178.611 668.498 179.643 666.393 179.643ZM696.148 188.902C704.291 188.902 710.629 182.844 710.629 175.109C710.629 167.375 704.291 161.316 696.148 161.316C687.984 161.316 681.646 167.375 681.646 175.109C681.646 182.844 687.984 188.902 696.148 188.902ZM696.148 180.932C692.861 180.932 690.326 178.354 690.326 175.109C690.326 171.865 692.861 169.266 696.148 169.266C699.436 169.266 701.949 171.865 701.949 175.109C701.949 178.354 699.436 180.932 696.148 180.932ZM714.84 188H723.52V152.551H714.84V188ZM748.484 152.551V164.582C746.529 162.477 743.844 161.338 740.557 161.338C733.016 161.338 727.709 167.461 727.709 175.131C727.709 182.5 732.801 188.902 740.557 188.902C744.037 188.902 746.809 187.592 748.721 185.336L749.129 188H757.078V152.551H748.484ZM742.49 181.061C738.773 181.061 736.389 178.16 736.389 175.066C736.389 171.844 738.988 169.18 742.512 169.18C745.756 169.18 748.484 171.436 748.484 175.066C748.484 178.59 745.906 181.061 742.49 181.061ZM676.941 253H687.018L670.904 217.938H666.543L650.451 253H660.506L662.268 248.961H675.201L676.941 253ZM665.168 242.236L668.734 234.029L672.279 242.236H665.168ZM708.953 233.492C710.371 233.492 712.734 230.936 712.734 227.369C712.734 222.6 708.137 218.367 701.863 218.367H690.477V253H705.258C712.197 253 716.795 247.908 716.795 242.43C716.795 237.209 712.648 233.492 708.953 233.492ZM705.021 229.023C705.021 230.807 703.518 231.795 701.52 231.795H699.328V226.359H701.584C703.561 226.359 705.021 227.348 705.021 229.023ZM703.861 244.643H699.328V238.068L703.926 238.09C706.525 238.09 707.986 239.314 707.986 241.334C707.986 243.611 705.967 244.643 703.861 244.643ZM738.129 253.773C743.393 253.773 747.797 251.689 751.105 248.682L745.863 241.699C743.629 243.697 741.029 245.072 738.129 245.072C733.188 245.072 728.547 241.119 728.547 235.748C728.547 230.441 732.994 226.381 738.322 226.381C740.879 226.381 743.693 227.648 745.82 229.582L751.105 222.793C747.561 219.57 742.77 217.615 738.301 217.551C727.516 217.551 719.223 225.436 719.223 235.684C719.223 246.555 728.354 253.773 738.129 253.773ZM766.316 218.367L755.016 218.389V253H766.316C778.09 253 785.287 246.469 785.287 235.727C785.287 224.898 778.09 218.324 766.316 218.367ZM766.166 244.342H763.975V226.961H766.08C772.289 226.961 776.07 230.27 776.07 235.705C776.07 241.076 772.311 244.342 766.166 244.342ZM812.271 226.918V218.367H789.82V253H812.271V244.385H798.908V239.422H809.908V231.752H798.908V226.918H812.271ZM839.857 226.918V218.281H817.406V253.043H826.494V240.217H837.494V232.525H826.494V226.918H839.857ZM878.379 233.105H860.611V239.959H868.539C868.41 243.268 865.424 245.287 861.234 245.287C854.832 245.287 850.943 240.561 850.943 235.705C850.943 230.355 855.477 226.123 860.633 226.123C863.189 226.123 865.961 227.283 867.895 229.088L872.986 222.105C870.129 219.463 865.037 217.594 860.633 217.529C849.891 217.529 841.555 225.844 841.555 235.727C841.555 245.609 849.869 253.816 860.869 253.816C870.709 253.816 878.658 247.006 878.658 236.479C878.658 235.383 878.551 234.266 878.379 233.105ZM902.678 218.367V231.365H892.387V218.367H883.191V253H892.387V239.959H902.678V253H911.852V218.367H902.678ZM917.867 253H927.062V218.367H917.867V253ZM939.33 253.559H939.588C947.859 253.559 954.434 247.521 954.434 239.68L954.283 218.389L945.066 218.367L945.238 239.637C945.238 242.408 942.725 244.9 939.545 244.9H939.395C937.697 244.9 936.859 244.535 935.613 243.59L930.973 251.174C933.486 252.807 936.064 253.559 939.33 253.559ZM989.238 253L977.314 235.254L987.928 218.367H977.357L969.322 231.279V218.367H960.148V253H969.322V239.83L978.088 253H989.238ZM1001.74 244.363V218.367H992.547V253H1015V244.363H1001.74ZM1052.36 218.045L1037.49 238.412L1022.62 218.045H1018.93V253H1028.12V239.271L1037.47 252.42H1037.54L1046.86 239.271V253H1056.05V218.045H1052.36ZM1082.78 218.324V235.211L1065.04 218.023H1062.07V253.021H1071.27V236.092L1089.08 253.344H1092V218.324H1082.78ZM1115.52 253.881C1126.31 253.881 1134.56 246.039 1134.56 235.727C1134.56 225.328 1126.31 217.443 1115.54 217.443C1104.78 217.443 1096.53 225.328 1096.53 235.727C1096.53 246.039 1104.76 253.881 1115.52 253.881ZM1115.54 245.094C1110.04 245.094 1105.83 240.99 1105.83 235.662C1105.83 230.312 1110.04 226.188 1115.54 226.188C1121.04 226.188 1125.26 230.312 1125.26 235.662C1125.26 240.99 1121.04 245.094 1115.54 245.094ZM1139.07 253H1148.27V242.795H1152.15C1159.42 242.795 1165.24 237.188 1165.24 230.506C1165.24 223.738 1159.29 218.367 1152.15 218.367H1139.07V253ZM1152.15 234.33L1148.27 234.309V226.854H1152.15C1154.6 226.854 1156.37 228.443 1156.37 230.549C1156.37 232.676 1154.62 234.352 1152.15 234.33ZM689.66 316.518C686.867 316.453 684.096 316.109 681.732 315.551C686.502 312.307 689.531 306.979 689.531 300.727C689.531 290.328 681.281 282.443 670.518 282.443C659.754 282.443 651.504 290.328 651.504 300.727C651.504 311.039 659.732 318.881 670.496 318.881C671.377 318.881 672.236 318.838 673.096 318.73C676.232 321.674 680.25 324.252 686.523 324.703L689.66 316.518ZM660.807 300.662C660.807 295.312 665.018 291.188 670.518 291.188C676.018 291.188 680.229 295.312 680.229 300.662C680.229 305.99 676.018 310.094 670.518 310.094C665.018 310.094 660.807 305.99 660.807 300.662ZM723.52 318L714.238 304.1C717.633 302.553 720.232 298.943 720.232 294.625C720.232 288.416 714.883 283.367 707.406 283.367H694.258L694.301 318H703.496V302.961L712.756 318H723.52ZM703.453 291.639H707.213C709.146 291.639 710.951 292.971 710.951 295.119C710.951 297.246 709.168 298.621 707.213 298.6L703.453 298.578V291.639ZM737.635 318.473C744.574 318.473 750.719 314.369 750.719 307.773C750.719 302.66 747.131 299.352 741.717 297.074C737.979 295.506 735.529 294.99 735.529 293.4C735.529 292.219 736.883 291.252 738.773 291.252C740.428 291.252 743.092 292.047 744.123 293.873L749.43 288.76C748.076 285.344 743.951 282.852 738.666 282.852C732.092 282.852 726.398 287.127 726.398 293.121C726.398 298.342 730.158 301.221 734.541 303.111C737.936 304.615 741.48 306.184 741.48 307.967C741.48 309.385 739.568 310.094 737.613 310.094C734.713 310.094 732.027 308.805 730.588 306.678L725.023 312.135C726.764 315.959 731.941 318.473 737.635 318.473ZM778.648 283.367H752.824V291.961H761.139V318H770.355V291.961H778.648V283.367ZM796.631 318.967C804.559 318.967 811.004 313.359 811.004 305.41V283.367H801.744V305.389C801.744 308.225 799.209 310.18 796.609 310.18C793.988 310.18 791.518 308.268 791.518 305.389V283.367H782.258V305.41C782.258 313.359 788.703 318.967 796.631 318.967ZM840.115 283.367L832.102 302.123L824.109 283.367H814.162L830.061 318.365H834.229L850.191 283.367H840.115ZM862.695 318.215H865.209L873.244 301.092L881.344 318.215H883.879L895.438 283.367H885.49L880.721 299.18L873.631 283.432H872.943L865.854 299.223L861.062 283.367H851.115L862.695 318.215ZM896.361 318H906.953L912.754 307.773L918.576 318H929.168L918.146 299.996L928.588 283.367H918.061L912.775 292.52L907.469 283.367H896.941L907.34 300.018L896.361 318ZM940.77 318H949.9V303.047L960.6 283.367H950.158L945.346 293.4L940.512 283.367H930.092L940.77 303.047V318ZM962.855 318H989.045V309.363H977.357L989.045 283.367H962.855V291.961H974.564L962.855 318ZM672.816 357.219L672.43 359.84C670.453 357.562 667.66 356.316 664.244 356.316C656.703 356.316 651.396 362.439 651.396 370.109C651.396 377.5 656.488 383.902 664.244 383.902C667.725 383.902 670.496 382.592 672.408 380.336L672.816 383H680.852V357.219H672.816ZM666.178 376.039C662.461 376.039 660.076 373.16 660.076 370.066C660.076 366.844 662.676 364.158 666.199 364.158C669.443 364.158 672.172 366.436 672.172 370.045C672.172 373.568 669.594 376.039 666.178 376.039ZM703.066 356.338C699.779 356.338 697.072 357.498 695.117 359.582V347.551H686.438V383H694.473L694.881 380.314C696.814 382.592 699.586 383.902 703.066 383.902C710.801 383.902 715.893 377.5 715.893 370.131C715.893 362.461 710.586 356.338 703.066 356.338ZM701.133 376.061C697.695 376.061 695.117 373.59 695.117 370.066C695.117 366.436 697.867 364.18 701.111 364.18C704.635 364.18 707.213 366.844 707.213 370.066C707.213 373.16 704.828 376.061 701.133 376.061ZM733.037 383.859C736.582 383.859 739.955 382.635 742.49 380.594L738.15 374.729C737.119 375.695 735.4 376.404 733.574 376.404C730.029 376.404 727.365 373.697 727.365 370.109C727.365 366.543 730.029 363.793 733.553 363.793C735.314 363.793 737.098 364.502 738.193 365.533L742.146 359.367C739.719 357.52 736.496 356.359 733.037 356.359C725.582 356.359 718.686 361.795 718.686 370.109C718.686 378.424 725.582 383.859 733.037 383.859ZM764.855 347.551V359.582C762.9 357.477 760.215 356.338 756.928 356.338C749.387 356.338 744.08 362.461 744.08 370.131C744.08 377.5 749.172 383.902 756.928 383.902C760.408 383.902 763.18 382.592 765.092 380.336L765.5 383H773.449V347.551H764.855ZM758.861 376.061C755.145 376.061 752.76 373.16 752.76 370.066C752.76 366.844 755.359 364.18 758.883 364.18C762.127 364.18 764.855 366.436 764.855 370.066C764.855 373.59 762.277 376.061 758.861 376.061ZM804.623 369.078C804.623 362.805 799.811 356.359 791.625 356.359C783.934 356.359 777.639 362.074 777.639 370.109C777.639 378.037 783.762 383.859 791.604 383.859C794.719 383.859 799.596 382.936 802.969 378.574L796.502 374.814C794.633 376.49 793.021 376.855 791.775 376.855C789.262 376.855 787.307 375.309 786.361 373.053H804.021V372.881C804.387 371.893 804.623 370.453 804.623 369.078ZM791.496 363.342C794.311 363.342 795.814 365.232 796.33 367.768H786.061C786.77 365.254 788.682 363.342 791.496 363.342ZM821.66 353.824C822.498 353.824 823.465 354.061 824.367 354.404V347.658C822.734 347.057 820.264 346.691 818.588 346.691C812.852 346.691 810.166 351.182 810.166 356.316V357.219H806.857V364.91H810.166V383H818.846V364.91H824.367V357.219H818.846V356.316C818.846 355.607 819.297 353.824 821.66 353.824ZM848.043 357.219L847.656 359.84C845.68 357.562 842.887 356.316 839.471 356.316C831.93 356.316 826.623 362.439 826.623 370.109C826.623 377.5 831.715 383.902 839.471 383.902C842.801 383.902 845.486 382.699 847.398 380.615C847.205 384.332 843.982 386.48 839.535 386.48C836.914 386.48 833.928 385.686 832.982 384.783L828.406 390.176C831.371 392.604 835.711 393.957 839.965 393.957C850.277 393.957 855.992 387.963 856.078 380.422V357.219H848.043ZM841.404 376.039C837.688 376.039 835.303 373.16 835.303 370.066C835.303 366.844 837.902 364.158 841.426 364.158C844.67 364.158 847.398 366.436 847.398 370.045C847.398 373.568 844.82 376.039 841.404 376.039ZM877.949 356.424C874.855 356.424 872.277 357.455 870.344 359.174V347.551H861.664V383H870.344V369.057C870.344 366.178 871.934 364.18 874.748 364.18C877.369 364.18 878.852 365.598 878.852 369.057V383H887.531V369.057C887.531 358.744 882.762 356.424 877.949 356.424ZM897.951 354.855C900.723 354.855 902.785 352.9 902.785 350.494C902.785 348.088 900.723 346.133 897.951 346.133C895.201 346.133 893.117 348.088 893.117 350.494C893.117 352.9 895.201 354.855 897.951 354.855ZM893.611 383H902.291V357.219H893.611V383ZM912.84 354.855C915.611 354.855 917.674 352.9 917.674 350.494C917.674 348.088 915.611 346.133 912.84 346.133C910.09 346.133 908.006 348.088 908.006 350.494C908.006 352.9 910.09 354.855 912.84 354.855ZM908.457 393.42C914.73 393.42 917.201 388.973 917.201 383.902V357.219H908.521V383.902C908.521 384.676 908.049 386.287 905.707 386.287C904.955 386.287 904.182 386.137 903.322 385.793V392.561C904.482 393.012 906.566 393.42 908.457 393.42ZM950.309 383L939.48 370.002L949.32 357.219H939.695L931.961 367.531V347.551H923.281V383H931.961V373.096L940.211 383H950.309ZM953.961 383H962.641V347.551H953.961V383ZM1000.9 356.316C996.887 356.316 993.879 358.035 991.967 360.678C990.227 357.305 987.283 356.316 984.254 356.316C981.031 356.316 978.453 357.434 976.562 359.26L976.262 357.219H968.227V383H976.906V369.057C976.906 366.178 978.346 364.18 981.16 364.18C983.588 364.18 984.877 365.641 984.877 369.057V383H993.557V369.057C993.557 366.178 994.975 364.18 997.811 364.18C1000.24 364.18 1001.51 365.641 1001.51 369.057V383H1010.19V369.057C1010.19 358.766 1005.65 356.316 1000.9 356.316ZM1032.08 356.424C1028.81 356.424 1026.13 357.584 1024.17 359.475L1023.83 357.219H1015.79V383H1024.47V369.057C1024.47 366.178 1026.06 364.18 1028.88 364.18C1031.5 364.18 1032.98 365.598 1032.98 369.057V383H1041.66V369.057C1041.66 358.744 1036.89 356.424 1032.08 356.424ZM1060.35 383.902C1068.49 383.902 1074.83 377.844 1074.83 370.109C1074.83 362.375 1068.49 356.316 1060.35 356.316C1052.19 356.316 1045.85 362.375 1045.85 370.109C1045.85 377.844 1052.19 383.902 1060.35 383.902ZM1060.35 375.932C1057.06 375.932 1054.53 373.354 1054.53 370.109C1054.53 366.865 1057.06 364.266 1060.35 364.266C1063.64 364.266 1066.15 366.865 1066.15 370.109C1066.15 373.354 1063.64 375.932 1060.35 375.932ZM1095.59 356.338C1092.15 356.338 1089.36 357.584 1087.38 359.861L1086.99 357.219H1079.04V392.668H1087.64V380.594C1089.55 382.699 1092.23 383.902 1095.59 383.902C1103.32 383.902 1108.41 377.5 1108.41 370.131C1108.41 362.461 1103.11 356.338 1095.59 356.338ZM1093.65 376.061C1090.21 376.061 1087.64 373.59 1087.64 370.066C1087.64 366.436 1090.39 364.18 1093.63 364.18C1097.15 364.18 1099.73 366.844 1099.73 370.066C1099.73 373.16 1097.35 376.061 1093.65 376.061ZM1132.62 357.219L1132.24 359.861C1130.26 357.584 1127.47 356.338 1124.05 356.338C1116.51 356.338 1111.21 362.461 1111.21 370.131C1111.21 377.5 1116.3 383.902 1124.05 383.902C1127.38 383.902 1130.07 382.699 1131.98 380.615V392.668H1140.57V357.219H1132.62ZM1125.99 376.061C1122.27 376.061 1119.88 373.16 1119.88 370.066C1119.88 366.844 1122.48 364.18 1126.01 364.18C1129.25 364.18 1131.98 366.436 1131.98 370.066C1131.98 373.59 1129.4 376.061 1125.99 376.061ZM1154.65 360.291L1154.2 357.219H1146.16V383H1154.84V372.602C1154.84 365.705 1158.49 364.631 1161.07 364.631C1161.65 364.631 1162.17 364.695 1162.51 364.76L1163.84 356.102C1160.77 356.123 1157.27 357.326 1154.65 360.291ZM1175.7 383.945C1182.47 383.945 1187.47 380.529 1187.47 375.029C1187.47 371.012 1184.7 368.906 1179.72 367.08C1175.72 365.748 1174.39 365.297 1174.39 364.395C1174.39 363.578 1175.34 363.32 1176.58 363.32C1178.56 363.32 1180.47 364.072 1181.72 365.254L1186.1 360.441C1184.75 357.971 1180.75 356.295 1176.84 356.295C1171.45 356.295 1166.23 359.324 1166.23 364.932C1166.23 368.906 1169.49 371.527 1173.94 372.945C1176.54 373.891 1178.77 374.557 1178.77 375.631C1178.77 376.576 1177.53 376.834 1176.41 376.834C1173.4 376.834 1170.31 375.33 1169.17 373.891L1165.35 379.09C1166.74 381.84 1170.89 383.945 1175.7 383.945ZM662.762 448.43C664.459 448.43 666.887 448.107 668.326 447.549V441.039C667.553 441.275 666.5 441.555 665.705 441.555C664.158 441.555 663.127 440.652 663.127 438.891V429.889H668.391V422.219H663.127V416.783H655.307V419.34C655.307 421.66 653.953 422.928 651.654 422.928H650.838V429.889H654.447V439.32C654.447 444.133 656.424 448.43 662.762 448.43ZM684.461 448.322C691.938 448.322 697.094 443.059 697.072 435.926L697.029 422.219H688.35L688.371 435.904C688.371 438.805 686.846 440.652 684.439 440.652C682.141 440.652 680.744 438.805 680.744 435.904L680.723 422.219H672.043L672.086 435.926C672.086 443.059 677.027 448.322 684.461 448.322ZM718.857 422.219L714.625 434.1L710.307 422.219H700.725L712.477 448.645H716.838L728.633 422.219H718.857ZM739.719 448.43H743.436L749.15 436.635L755.059 448.43H758.797L768.164 422.219H758.754L755.445 434.207L749.537 422.262H748.979L743.049 434.229L739.719 422.219H730.33L739.719 448.43ZM769.861 448H779.959L784.385 441.018L788.939 448H798.908L789.541 434.379L798.307 422.219H788.252L784.406 428.213L780.539 422.219H770.484L779.207 434.4L769.861 448ZM821.488 422.219L815.193 436.355L810.23 422.219H800.584L811.004 445.744L805.676 457.668H814.699L830.855 422.219H821.488ZM833.111 448H855.906V440.33H845.938L855.691 422.219H833.799V429.889H842.865L833.111 448ZM661.387 478.152L651.504 480.752V489.797L654.877 488.98V513H664.072V478.152H661.387ZM698.855 504.557C704.549 501.398 709.426 495.941 709.426 490.27C709.426 483.459 703.475 477.637 696.105 477.637C688.736 477.637 682.85 483.223 682.85 489.496L690.326 491.967C690.326 488.852 693.033 486.316 696.084 486.316C698.383 486.316 700.188 488.314 700.188 490.635C700.188 493.857 695.203 498.648 682.055 509.67V513H709.834V504.557H698.855ZM745.605 493.277C748.055 492.139 749.537 489.453 749.537 486.574C749.537 481.246 744.768 477.271 738.709 477.271C732.93 477.271 728.783 480.988 727.559 486.016L735.207 487.691C735.723 486.23 736.861 485.436 738.086 485.436C739.525 485.436 740.621 486.531 740.621 488.057C740.621 490.076 738.666 491.773 735.357 491.773L734.305 495.855C739.568 495.898 742.168 498.412 742.168 501.162C742.168 503.354 740.643 504.943 738.387 504.943C736.604 504.943 734.584 503.934 733.961 501.957L726.312 503.783C727.129 509.004 732.414 513.537 738.902 513.537C745.67 513.537 751.471 508.939 751.471 502.322C751.471 497.982 748.936 494.652 745.605 493.277ZM797.898 498.734H794.525V491.172H785.352V498.734H779.723L787.865 478.217L778.584 478.174L766.896 506.963H785.352V513H794.525V506.963H797.898V498.734ZM828.75 489.281C826.945 489.281 825.312 489.646 824.045 490.312L824.604 486.553H837.129V478.346H818.137L815.451 496.672L819.598 498.928C820.951 497.553 823.701 496.758 825.893 496.758C828.664 496.758 830.705 498.068 830.705 500.818C830.705 503.697 828.557 505.094 826.086 505.094C824.152 505.094 822.648 504.213 821.252 502.473L813.754 505.781C816.504 511.174 821.488 513.537 826.688 513.537C834.4 513.537 840.266 508.553 840.266 501.055C840.266 494.416 835.668 489.281 828.75 489.281ZM872.17 490.871C871.762 490.871 871.354 490.893 870.945 490.957L878.572 478.41L868.088 478.367C857.561 495.533 856.723 498.734 856.723 501.721C856.723 509.734 862.717 513.666 869.721 513.666C877.348 513.666 882.912 508.037 882.912 501.592C882.912 495.404 877.82 490.871 872.17 490.871ZM869.85 505.244C867.701 505.244 865.961 503.633 865.961 501.334C865.961 498.992 867.744 497.316 869.871 497.295C872.02 497.295 873.803 499.014 873.803 501.312C873.803 503.59 871.998 505.244 869.85 505.244ZM898.789 478.367V486.811H911.422L901.432 513H911.057L924.248 479.957V478.367H898.789ZM952.908 513.709C960.879 513.709 966.186 508.896 966.186 502.537C966.186 496.758 961.824 493.943 959.59 493.428C961.223 492.977 964.295 490.764 964.295 486.854C964.295 481.998 959.611 477.637 952.93 477.637C946.398 477.637 941.629 481.891 941.629 486.896C941.629 490.635 944.25 493.041 946.119 493.428C943.734 493.9 939.652 496.908 939.652 502.494C939.652 508.961 945.066 513.709 952.908 513.709ZM952.951 490.936C951.297 490.936 949.922 489.711 949.922 487.971C949.922 486.166 951.361 485.113 952.951 485.113C954.562 485.113 956.023 486.145 956.023 487.992C956.023 489.818 954.541 490.936 952.951 490.936ZM952.908 505.438C950.717 505.438 948.654 503.891 948.654 501.463C948.654 499.057 950.695 497.273 952.93 497.273C955.143 497.273 957.205 498.992 957.205 501.398C957.205 503.826 955.121 505.438 952.908 505.438ZM995.77 477.594C988.379 477.594 982.664 483.158 982.664 489.904C982.664 495.727 987.67 501.033 993.449 501.033C993.707 501.033 993.943 501.012 994.201 500.99L986.982 512.957H997.531C1008.04 495.211 1008.85 494.008 1008.85 490.012C1008.85 483.201 1003.2 477.594 995.77 477.594ZM995.748 493.965C993.621 493.965 991.838 492.203 991.838 490.055C991.838 487.67 993.578 486.016 995.748 486.016C997.854 486.016 999.658 487.67 999.658 490.055C999.658 492.246 997.854 493.965 995.748 493.965ZM1040.71 513.709C1050.02 513.709 1055.95 506.555 1055.95 495.662C1055.95 484.791 1050.02 477.637 1040.71 477.637C1031.33 477.637 1025.33 484.791 1025.33 495.684C1025.33 506.555 1031.33 513.709 1040.71 513.709ZM1040.65 504.943C1036.87 504.943 1034.51 501.227 1034.51 495.662C1034.51 490.076 1036.87 486.359 1040.63 486.359C1044.39 486.359 1046.73 490.098 1046.73 495.705C1046.73 501.248 1044.39 504.943 1040.65 504.943Z" fill="#F3F3F3"/>
<path d="M270.422 34.6914L270.715 32.4531H267.727L268.43 27.1094H266.027L265.324 32.4531H260.871L261.574 27.1094H259.172L258.469 32.4531H255.375L255.059 34.6914H258.176L257.602 39.0859H254.531L254.238 41.3242H257.297L256.688 46H259.09L259.699 41.3242H264.152L263.543 46H265.945L266.555 41.3242H269.578L269.895 39.0859H266.859L267.434 34.6914H270.422ZM264.457 39.0859H260.004L260.578 34.6914H265.031L264.457 39.0859ZM276.938 26.9336L272.285 28.4102V31.5039L274.84 30.7422V46H277.805V26.9336H276.938ZM290.332 46.3047C293.145 46.3047 295.219 45.0742 296.848 43.4688L295.137 41.0781C293.836 42.3672 292.172 43.3281 290.238 43.3281C286.852 43.3281 283.535 40.3867 283.535 36.5781C283.535 32.793 286.805 29.793 290.227 29.793C292.078 29.793 293.801 30.6719 295.125 31.9961L296.848 29.6641C294.996 27.8594 292.734 26.8164 290.285 26.7812C284.977 26.7812 280.535 31.2461 280.535 36.5664C280.535 41.8984 284.977 46.3047 290.332 46.3047ZM302.953 26.9336L298.301 28.4102V31.5039L300.855 30.7422V46H303.82V26.9336H302.953ZM316.348 46.3047C319.16 46.3047 321.234 45.0742 322.863 43.4688L321.152 41.0781C319.852 42.3672 318.188 43.3281 316.254 43.3281C312.867 43.3281 309.551 40.3867 309.551 36.5781C309.551 32.793 312.82 29.793 316.242 29.793C318.094 29.793 319.816 30.6719 321.141 31.9961L322.863 29.6641C321.012 27.8594 318.75 26.8164 316.301 26.7812C310.992 26.7812 306.551 31.2461 306.551 36.5664C306.551 41.8984 310.992 46.3047 316.348 46.3047ZM328.969 26.9336L324.316 28.4102V31.5039L326.871 30.7422V46H329.836V26.9336H328.969ZM342.363 46.3047C345.176 46.3047 347.25 45.0742 348.879 43.4688L347.168 41.0781C345.867 42.3672 344.203 43.3281 342.27 43.3281C338.883 43.3281 335.566 40.3867 335.566 36.5781C335.566 32.793 338.836 29.793 342.258 29.793C344.109 29.793 345.832 30.6719 347.156 31.9961L348.879 29.6641C347.027 27.8594 344.766 26.8164 342.316 26.7812C337.008 26.7812 332.566 31.2461 332.566 36.5664C332.566 41.8984 337.008 46.3047 342.363 46.3047Z" fill="#1C1C1C"/>
<path d="M888.422 34.6914L888.715 32.4531H885.727L886.43 27.1094H884.027L883.324 32.4531H878.871L879.574 27.1094H877.172L876.469 32.4531H873.375L873.059 34.6914H876.176L875.602 39.0859H872.531L872.238 41.3242H875.297L874.688 46H877.09L877.699 41.3242H882.152L881.543 46H883.945L884.555 41.3242H887.578L887.895 39.0859H884.859L885.434 34.6914H888.422ZM882.457 39.0859H878.004L878.578 34.6914H883.031L882.457 39.0859ZM894.938 26.9336L890.285 28.4102V31.5039L892.84 30.7422V46H895.805V26.9336H894.938ZM908.332 46.3047C911.145 46.3047 913.219 45.0742 914.848 43.4688L913.137 41.0781C911.836 42.3672 910.172 43.3281 908.238 43.3281C904.852 43.3281 901.535 40.3867 901.535 36.5781C901.535 32.793 904.805 29.793 908.227 29.793C910.078 29.793 911.801 30.6719 913.125 31.9961L914.848 29.6641C912.996 27.8594 910.734 26.8164 908.285 26.7812C902.977 26.7812 898.535 31.2461 898.535 36.5664C898.535 41.8984 902.977 46.3047 908.332 46.3047ZM920.953 26.9336L916.301 28.4102V31.5039L918.855 30.7422V46H921.82V26.9336H920.953ZM934.348 46.3047C937.16 46.3047 939.234 45.0742 940.863 43.4688L939.152 41.0781C937.852 42.3672 936.188 43.3281 934.254 43.3281C930.867 43.3281 927.551 40.3867 927.551 36.5781C927.551 32.793 930.82 29.793 934.242 29.793C936.094 29.793 937.816 30.6719 939.141 31.9961L940.863 29.6641C939.012 27.8594 936.75 26.8164 934.301 26.7812C928.992 26.7812 924.551 31.2461 924.551 36.5664C924.551 41.8984 928.992 46.3047 934.348 46.3047ZM946.969 26.9336L942.316 28.4102V31.5039L944.871 30.7422V46H947.836V26.9336H946.969ZM960.363 46.3047C963.176 46.3047 965.25 45.0742 966.879 43.4688L965.168 41.0781C963.867 42.3672 962.203 43.3281 960.27 43.3281C956.883 43.3281 953.566 40.3867 953.566 36.5781C953.566 32.793 956.836 29.793 960.258 29.793C962.109 29.793 963.832 30.6719 965.156 31.9961L966.879 29.6641C965.027 27.8594 962.766 26.8164 960.316 26.7812C955.008 26.7812 950.566 31.2461 950.566 36.5664C950.566 41.8984 955.008 46.3047 960.363 46.3047Z" fill="#F3F3F3"/>
</svg>
