<svg xmlns="http://www.w3.org/2000/svg" viewBox="0 0 364.54 912.02"><defs><style>.cls-1{fill:#ff006e;}.cls-2{fill:#ffce00;}.cls-3{fill:#ff7900;}.cls-4{fill:#893eff;}.cls-5{fill:#06b9ff;}</style></defs><title>declinazioniRisorsa 8</title><g id="Livello_2" data-name="Livello 2"><g id="Livello_1-2" data-name="Livello 1"><path d="M19.13,493.65v-9.22a8.55,8.55,0,0,0,3.25.67c3.19,0,3.84-2.2,3.84-3.25V445.46H38.05v36.39c0,6.91-3.37,13-11.92,13A21.56,21.56,0,0,1,19.13,493.65Zm6.38-57.36c0-3.28,2.84-6,6.59-6s6.6,2.67,6.6,6-2.82,5.95-6.6,5.95S25.51,439.57,25.51,436.29Z"/><path d="M85.55,445.46v35.16h-11L74,477a14.06,14.06,0,0,1-11.14,4.87c-10.57,0-17.51-8.73-17.51-18.81,0-10.46,7.23-18.81,17.51-18.81A14.24,14.24,0,0,1,74.07,449l.52-3.58ZM73.72,463a7.84,7.84,0,0,0-8.15-8,8.11,8.11,0,1,0,0,16.21A7.92,7.92,0,0,0,73.72,463Z"/><path d="M150.1,461.6v19H138.26v-19c0-4.65-1.73-6.65-5-6.65-3.86,0-5.8,2.73-5.8,6.65v19H115.59v-19c0-4.65-1.76-6.65-5.07-6.65-3.84,0-5.8,2.73-5.8,6.65v19H92.88V445.46h11l.41,2.78a14.65,14.65,0,0,1,10.49-4c4.13,0,8.14,1.35,10.51,5.95a14.43,14.43,0,0,1,12.19-5.95C143.92,444.23,150.1,447.57,150.1,461.6Z"/><path d="M259.55,461.6v19H247.71v-19c0-4.65-1.73-6.65-5-6.65-3.87,0-5.8,2.73-5.8,6.65v19H225v-19C225,457,223.28,455,220,455c-3.84,0-5.8,2.73-5.8,6.65v19H202.33V445.46h11l.41,2.78a14.62,14.62,0,0,1,10.48-4c4.14,0,8.15,1.35,10.52,5.95a14.43,14.43,0,0,1,12.19-5.95C253.36,444.23,259.55,447.57,259.55,461.6Z"/><path d="M266.19,436.29c0-3.28,2.85-6,6.6-6s6.59,2.67,6.59,6-2.81,5.95-6.59,5.95S266.19,439.57,266.19,436.29Zm.68,9.17H278.7v35.16H266.87Z"/><path d="M330.76,433.39h14.53l-2,30.73h-10.4Zm0,42a7.07,7.07,0,0,1,7.27-6.76,7.24,7.24,0,0,1,7.38,6.91c0,3.78-3.34,6.77-7.32,6.77A7.14,7.14,0,0,1,330.76,475.37Z"/><path class="cls-1" d="M160.69,463.15a11,11,0,1,0,15.54,15.54l15.55-15.54a11,11,0,1,0-15.55-15.54l-15.54,15.54"/><path class="cls-2" d="M321.15,457.64h0a7.79,7.79,0,1,1,0-11,7.8,7.8,0,0,1,0,11"/><path class="cls-2" d="M299.33,457.64h0a7.79,7.79,0,1,1,0-11,7.79,7.79,0,0,1,0,11"/><path class="cls-2" d="M321.15,479.68h0a7.79,7.79,0,1,1,0-11,7.8,7.8,0,0,1,0,11"/><path class="cls-2" d="M299.33,479.68h0a7.79,7.79,0,1,1,0-11,7.79,7.79,0,0,1,0,11"/><path d="M91,211.94v48.34H80.13l-.56-3.64a14.05,14.05,0,0,1-11.13,4.87c-10.58,0-17.52-8.73-17.52-18.78,0-10.46,7.23-18.81,17.52-18.81a14.21,14.21,0,0,1,10.81,4.42v-16.4Zm-11.72,30.7a7.82,7.82,0,0,0-8.15-8,8.1,8.1,0,1,0,0,16.2A7.91,7.91,0,0,0,79.25,242.64Z"/><path d="M138.45,225.38v35.16H127.5l-.56-3.63a14.07,14.07,0,0,1-11.13,4.86c-10.58,0-17.52-8.73-17.52-18.81,0-10.46,7.23-18.81,17.52-18.81A14.23,14.23,0,0,1,127,229l.53-3.58Zm-11.83,17.49a7.83,7.83,0,0,0-8.15-8,8.1,8.1,0,1,0,0,16.2A7.92,7.92,0,0,0,126.62,242.87Z"/><path d="M183.64,273.58v-9.23a8.59,8.59,0,0,0,3.25.67c3.2,0,3.84-2.2,3.84-3.25V225.38h11.84v36.39c0,6.91-3.37,13-11.93,13A21.86,21.86,0,0,1,183.64,273.58ZM190,216.21c0-3.28,2.84-6,6.59-6s6.59,2.67,6.59,6-2.81,5.95-6.59,5.95S190,219.49,190,216.21Z"/><path d="M245.87,246.74V247H221.79a8,8,0,0,0,7.38,5.19,9.41,9.41,0,0,0,6.45-2.78l8.82,5.12c-4.6,5.95-11.25,7.21-15.5,7.21-10.69,0-19-7.94-19-18.75,0-11,8.58-18.75,19.07-18.75a17.29,17.29,0,0,1,17.72,17.34A16,16,0,0,1,245.87,246.74Zm-24.49-7h14c-.7-3.46-2.75-6-6.59-6S222.35,236.34,221.38,239.77Z"/><path d="M299,213.31H313.5l-2,30.73h-10.4Zm0,42a7.07,7.07,0,0,1,7.27-6.76,7.24,7.24,0,0,1,7.38,6.91c0,3.78-3.34,6.77-7.33,6.77A7.14,7.14,0,0,1,299,255.29Z"/><path class="cls-1" d="M180.65,243c8,13.3-2.76,24.08-16.06,16-13.3,8-24.08-2.75-16.05-16-8-13.3,2.75-24.08,16.05-16.05,13.3-8,24.08,2.75,16.06,16.05"/><path class="cls-3" d="M257.29,243a11,11,0,1,0,15.53,15.53L288.37,243a11,11,0,1,0-15.54-15.55L257.29,243"/><path d="M61.22,656.31V688c-.12,10.29-7.91,18.46-22,18.46-5.8,0-11.72-1.85-15.76-5.16l6.24-7.35c1.29,1.23,5.36,2.31,8.94,2.31,6.06,0,10.46-2.92,10.72-8a14.18,14.18,0,0,1-10.81,4.48C28,692.7,21.05,684,21.05,673.89c0-10.46,7.24-18.81,17.52-18.81a14.21,14.21,0,0,1,11.16,4.81l.53-3.58ZM49.38,673.8a7.83,7.83,0,0,0-8.15-8,8.1,8.1,0,1,0,0,16.2A7.91,7.91,0,0,0,49.38,673.8Z"/><path d="M103.82,672.45v19H92v-19c0-4.71-2-6.65-5.59-6.65-3.84,0-6,2.73-6,6.65v19H68.55V643.13H80.38V659a15.24,15.24,0,0,1,10.37-3.75C97.31,655.23,103.82,658.39,103.82,672.45Z"/><path d="M110.47,647.14c0-3.28,2.85-5.94,6.6-5.94s6.59,2.66,6.59,5.94-2.81,6-6.59,6S110.47,650.42,110.47,647.14Zm.68,9.17H123v35.16H111.15Z"/><path d="M230,672.45v19H218.18v-19c0-4.65-1.73-6.65-5-6.65-3.86,0-5.8,2.73-5.8,6.65v19H195.51v-19c0-4.65-1.76-6.65-5.07-6.65-3.84,0-5.8,2.73-5.8,6.65v19H172.8V656.31h11l.41,2.79a14.65,14.65,0,0,1,10.49-4c4.13,0,8.14,1.35,10.52,5.95a14.42,14.42,0,0,1,12.18-5.95C223.84,655.08,230,658.42,230,672.45Z"/><path d="M237.26,673.89c0-10.55,8.64-18.81,19.78-18.81s19.74,8.26,19.74,18.81S268.14,692.7,257,692.7,237.26,684.44,237.26,673.89Zm27.69,0a7.93,7.93,0,1,0-7.91,7.94A7.86,7.86,0,0,0,265,673.89Z"/><path d="M328.84,644.24h14.53l-2,30.73H331Zm0,42a7.07,7.07,0,0,1,7.26-6.76,7.25,7.25,0,0,1,7.39,6.91c0,3.78-3.34,6.77-7.33,6.77A7.14,7.14,0,0,1,328.84,686.22Z"/><rect class="cls-2" x="130.31" y="656.31" width="17.58" height="17.58"/><rect class="cls-2" x="147.89" y="673.89" width="17.58" height="17.58"/><path class="cls-4" d="M319.23,668.38h0a7.79,7.79,0,1,1,0-11,7.8,7.8,0,0,1,0,11"/><path class="cls-4" d="M297.41,668.38h0a7.79,7.79,0,1,1,0-11,7.8,7.8,0,0,1,0,11"/><path class="cls-4" d="M319.23,690.42h0a7.79,7.79,0,1,1,0-11,7.8,7.8,0,0,1,0,11"/><path class="cls-4" d="M297.41,690.42h0a7.79,7.79,0,1,1,0-11,7.8,7.8,0,0,1,0,11"/><path d="M82.45,767.19l-22,48.34H48.12l7.26-16.26L41.17,767.19H54.33l6.76,19.27,8.59-19.27Z"/><path d="M125.76,767.19v35.15h-11l-.55-3.63a14.05,14.05,0,0,1-11.14,4.86c-10.57,0-17.52-8.73-17.52-18.8,0-10.46,7.24-18.81,17.52-18.81a14.27,14.27,0,0,1,11.17,4.8l.52-3.57Zm-11.84,17.49a7.83,7.83,0,0,0-8.14-8,8.1,8.1,0,1,0,0,16.2A7.91,7.91,0,0,0,113.92,784.68Z"/><path d="M133.09,754h11.84v48.34H133.09Z"/><path d="M197.11,754h11.83v48.34H197.11Z"/><path d="M256.44,767.19v35.15h-11l-.55-3.63a14.05,14.05,0,0,1-11.14,4.86c-10.57,0-17.52-8.73-17.52-18.8,0-10.46,7.24-18.81,17.52-18.81a14.23,14.23,0,0,1,11.16,4.8l.53-3.57ZM244.6,784.68a7.83,7.83,0,0,0-8.14-8,8.1,8.1,0,1,0,0,16.2A7.91,7.91,0,0,0,244.6,784.68Z"/><path d="M308.72,755.12h14.53l-2,30.73h-10.4Zm0,42a7.08,7.08,0,0,1,7.26-6.77,7.25,7.25,0,0,1,7.38,6.92C323.36,801,320,804,316,804A7.13,7.13,0,0,1,308.72,797.1Z"/><path class="cls-1" d="M282.58,772.23c0,3.46-2.81,12.53-6.27,12.53S270,775.69,270,772.23a6.27,6.27,0,0,1,12.54,0"/><path class="cls-1" d="M301.39,778.5a6.27,6.27,0,0,1-6.27,6.26c-3.47,0-12.54-2.8-12.54-6.26s9.07-6.27,12.54-6.27a6.27,6.27,0,0,1,6.27,6.27"/><path class="cls-1" d="M295.12,797.3a6.27,6.27,0,1,1-12.54,0c0-3.46,2.8-12.53,6.27-12.53s6.27,9.07,6.27,12.53"/><path class="cls-1" d="M282.58,791c0,3.47-9.08,6.27-12.54,6.27a6.27,6.27,0,1,1,0-12.53c3.46,0,12.54,2.8,12.54,6.26"/><path class="cls-1" d="M182,803.57a7.84,7.84,0,1,1,7.84-7.83,7.83,7.83,0,0,1-7.84,7.83"/><path class="cls-1" d="M171.06,781.64a7.84,7.84,0,1,1,7.84-7.84,7.84,7.84,0,0,1-7.84,7.84"/><path class="cls-1" d="M160.09,803.57a7.84,7.84,0,1,1,7.83-7.83,7.83,7.83,0,0,1-7.83,7.83"/><path d="M188.39,32.42c0-10.55,8.64-18.81,19.78-18.81s19.74,8.26,19.74,18.81-8.64,18.81-19.74,18.81S188.39,43,188.39,32.42Zm27.69,0a7.93,7.93,0,1,0-7.91,7.94A7.85,7.85,0,0,0,216.08,32.42ZM200.81.48h9.82l5,9.88h-7.88Z"/><path d="M109.86,15.12V50.27h-11l-.56-3.63A14,14,0,0,1,87.22,51.5c-10.58,0-17.52-8.73-17.52-18.8,0-10.46,7.24-18.81,17.52-18.81a14.23,14.23,0,0,1,11.16,4.8l.53-3.57ZM98,32.61a7.84,7.84,0,0,0-8.15-8,8.1,8.1,0,1,0,0,16.2A7.91,7.91,0,0,0,98,32.61Z"/><path d="M162.14,63.31V54.08a8.58,8.58,0,0,0,3.25.68c3.19,0,3.84-2.2,3.84-3.26V15.12h11.83V51.5c0,6.92-3.37,13-11.92,13A21.59,21.59,0,0,1,162.14,63.31ZM168.52,6c0-3.28,2.84-5.95,6.59-5.95s6.6,2.67,6.6,6-2.82,5.94-6.6,5.94S168.52,9.23,168.52,6Z"/><path d="M280.19,3.05h14.53l-2,30.73H282.3Zm0,42a7.08,7.08,0,0,1,7.27-6.77,7.25,7.25,0,0,1,7.38,6.92c0,3.78-3.34,6.76-7.33,6.76A7.13,7.13,0,0,1,280.19,45Z"/><path class="cls-4" d="M238.51,32.7A11,11,0,1,0,254,48.24L269.59,32.7A11,11,0,1,0,254,17.15L238.51,32.7"/><path class="cls-1" d="M151.05,32.68h3.76a12.52,12.52,0,0,0-12.52-12.53h-3.77a2.5,2.5,0,0,1-2.5-2.5V13.89a12.52,12.52,0,0,0-12.53,12.52v3.77a2.5,2.5,0,0,1-2.5,2.5h-3.76a12.52,12.52,0,0,0,12.52,12.53h3.77a2.5,2.5,0,0,1,2.5,2.5v3.76A12.52,12.52,0,0,0,148.55,39V35.18A2.5,2.5,0,0,1,151.05,32.68Z"/><path d="M149.66,142v19H137.82V142c0-4.66-1.73-6.65-5-6.65-3.86,0-5.8,2.72-5.8,6.65v19H115.15V142c0-4.66-1.76-6.65-5.07-6.65-3.84,0-5.8,2.72-5.8,6.65v19H92.44V125.85h11l.41,2.78a14.65,14.65,0,0,1,10.49-4c4.13,0,8.14,1.35,10.52,6a14.42,14.42,0,0,1,12.18-6C143.48,124.61,149.66,128,149.66,142Z"/><path d="M157.05,144.54,157,125.85h11.83l0,18.66c0,4,1.91,6.47,5,6.47,3.28,0,5.36-2.52,5.36-6.47l0-18.66h11.84l.06,18.69c0,9.72-7,16.9-17.2,16.9S157.05,154.26,157.05,144.54Z"/><path d="M278.45,142v19H266.61V142c0-4.72-2-6.65-5.59-6.65-3.84,0-6,2.72-6,6.65v19H243.18V125.85h10.95l.47,3.07a15.14,15.14,0,0,1,10.78-4.16C272,124.76,278.45,127.93,278.45,142Z"/><path d="M284.28,112.08h9.82l5,9.87h-7.88Zm1.49,13.77h11.84V161H285.77Z"/><path d="M349.89,113.78h14.53l-2,30.73H352Zm0,42a7.08,7.08,0,0,1,7.26-6.77,7.25,7.25,0,0,1,7.39,6.91c0,3.78-3.34,6.77-7.33,6.77A7.13,7.13,0,0,1,349.89,155.76Z"/><path class="cls-5" d="M233.57,137.91h0a7.79,7.79,0,1,1,0-11,7.78,7.78,0,0,1,0,11"/><path class="cls-5" d="M211.75,137.91h0a7.79,7.79,0,1,1,0-11,7.78,7.78,0,0,1,0,11"/><path class="cls-5" d="M233.57,160h0a7.79,7.79,0,1,1,0-11,7.8,7.8,0,0,1,0,11"/><path class="cls-5" d="M211.75,160h0a7.79,7.79,0,1,1,0-11,7.8,7.8,0,0,1,0,11"/><path d="M40.17,125.93v35.16h-11l-.56-3.63a14.06,14.06,0,0,1-11.13,4.86C6.94,162.32,0,153.59,0,143.51c0-10.46,7.24-18.81,17.52-18.81a14.21,14.21,0,0,1,11.16,4.81l.53-3.58ZM28.33,143.42a7.83,7.83,0,0,0-8.14-8,8.1,8.1,0,1,0,0,16.2A7.91,7.91,0,0,0,28.33,143.42Z"/><path class="cls-1" d="M81.35,143.5h3.76A12.52,12.52,0,0,0,72.59,131H68.82a2.5,2.5,0,0,1-2.5-2.5V124.7a12.53,12.53,0,0,0-12.53,12.53V141a2.5,2.5,0,0,1-2.5,2.5H47.53A12.52,12.52,0,0,0,60.05,156h3.77a2.5,2.5,0,0,1,2.5,2.5v3.76a12.53,12.53,0,0,0,12.53-12.53V146A2.5,2.5,0,0,1,81.35,143.5Z"/><path class="cls-2" d="M313.48,147.68c-7.77,8.37-2.35,13.78,6,6,.43,11.38,8.06,11.39,8.5,0,8.36,7.74,13.75,2.33,6-6,11.42-.42,11.42-8.08,0-8.51,7.72-8.35,2.33-13.74-6-6-.43-11.4-8.08-11.39-8.5,0-8.36-7.76-13.78-2.36-6,6C302.09,139.61,302.1,147.25,313.48,147.68Z"/><path d="M110.74,572.92v19H98.91v-19c0-4.72-2-6.65-5.6-6.65-3.84,0-6,2.72-6,6.65v19H75.47V556.78h11l.47,3.07a15.11,15.11,0,0,1,10.78-4.16C104.24,555.69,110.74,558.86,110.74,572.92Z"/><path d="M118.07,574.35c0-10.54,8.65-18.8,19.78-18.8s19.74,8.26,19.74,18.8-8.64,18.81-19.74,18.81S118.07,584.9,118.07,574.35Zm27.69,0a7.93,7.93,0,1,0-7.91,7.94A7.86,7.86,0,0,0,145.76,574.35Zm-15.27-31.93h9.82l5,9.87h-7.88Z"/><path d="M222.14,572.92v19H210.3v-19c0-4.66-1.72-6.65-5-6.65-3.87,0-5.8,2.72-5.8,6.65v19H187.63v-19c0-4.66-1.76-6.65-5.07-6.65-3.84,0-5.8,2.72-5.8,6.65v19H164.92V556.78h11l.41,2.78a14.65,14.65,0,0,1,10.49-4c4.13,0,8.14,1.34,10.52,5.94a14.43,14.43,0,0,1,12.18-5.94C216,555.55,222.14,558.88,222.14,572.92Z"/><path d="M274.42,544.71H289l-2,30.73h-10.4Zm0,42a7.08,7.08,0,0,1,7.26-6.77,7.25,7.25,0,0,1,7.39,6.91c0,3.78-3.34,6.77-7.33,6.77A7.13,7.13,0,0,1,274.42,586.69Z"/><path class="cls-4" d="M238,578.59c-7.77,8.37-2.35,13.79,6,6,.43,11.38,8.06,11.39,8.5,0,8.36,7.74,13.75,2.32,6-6,11.42-.42,11.42-8.07,0-8.5,7.72-8.35,2.33-13.75-6-6-.43-11.4-8.08-11.39-8.5,0-8.36-7.76-13.78-2.37-6,6C226.62,570.53,226.63,578.16,238,578.59Z"/><path d="M87.94,891.33v19H76.1v-19c0-4.65-1.73-6.65-5-6.65-3.87,0-5.8,2.73-5.8,6.65v19H53.42v-19c0-4.65-1.75-6.65-5.06-6.65-3.84,0-5.8,2.73-5.8,6.65v19H30.72V875.19h11l.41,2.78a14.63,14.63,0,0,1,10.49-4c4.13,0,8.14,1.35,10.51,5.95A14.43,14.43,0,0,1,75.28,874C81.75,874,87.94,877.3,87.94,891.33Z"/><path d="M131.24,896.55v.23H107.16a8,8,0,0,0,7.38,5.19,9.41,9.41,0,0,0,6.45-2.78l8.82,5.12c-4.6,6-11.25,7.21-15.5,7.21-10.69,0-19-7.94-19-18.75S103.85,874,114.34,874a17.29,17.29,0,0,1,17.72,17.34A16,16,0,0,1,131.24,896.55Zm-24.49-7h14c-.7-3.46-2.75-6-6.59-6S107.72,886.15,106.75,889.58Z"/><path d="M219.39,891.33v19H207.56v-19c0-4.71-2-6.65-5.6-6.65-3.83,0-6,2.73-6,6.65v19H184.12V875.19h11l.47,3.08a15.13,15.13,0,0,1,10.78-4.16C212.89,874.11,219.39,877.27,219.39,891.33Z"/><path d="M266.89,875.19v35.16h-11l-.55-3.64a14.06,14.06,0,0,1-11.14,4.87c-10.57,0-17.52-8.73-17.52-18.81,0-10.46,7.24-18.81,17.52-18.81a14.24,14.24,0,0,1,11.17,4.81l.52-3.58Zm-11.84,17.49a7.83,7.83,0,0,0-8.14-8,8.11,8.11,0,1,0,0,16.21A7.91,7.91,0,0,0,255.05,892.68Z"/><path d="M319.17,863.12H333.7l-2,30.73h-10.4Zm0,42a7.07,7.07,0,0,1,7.26-6.76,7.25,7.25,0,0,1,7.39,6.91c0,3.78-3.34,6.77-7.33,6.77A7.14,7.14,0,0,1,319.17,905.1Z"/><path class="cls-3" d="M174.51,887.26h0a7.79,7.79,0,1,1,0-11,7.8,7.8,0,0,1,0,11"/><path class="cls-3" d="M152.69,887.26h0a7.79,7.79,0,1,1,0-11,7.8,7.8,0,0,1,0,11"/><path class="cls-3" d="M174.51,909.3h0a7.79,7.79,0,1,1,0-11,7.8,7.8,0,0,1,0,11"/><path class="cls-3" d="M152.69,909.3h0a7.79,7.79,0,1,1,0-11,7.8,7.8,0,0,1,0,11"/><path class="cls-1" d="M282.76,897c-7.77,8.37-2.35,13.79,6,6,.43,11.38,8.06,11.39,8.5,0,8.36,7.74,13.75,2.32,6-6,11.42-.42,11.42-8.07,0-8.5,7.72-8.35,2.33-13.75-6-6-.43-11.4-8.08-11.39-8.5,0-8.36-7.76-13.78-2.37-6,6C271.37,889,271.38,896.59,282.76,897Z"/><path d="M84.77,352c0,10.05-6.94,18.78-17.49,18.78a14.12,14.12,0,0,1-10.84-4.51v16.46H44.72V334.41H55.56l.53,3.6a14.25,14.25,0,0,1,11.19-4.8C77.53,333.21,84.77,341.56,84.77,352Zm-11.83-.09a8.08,8.08,0,0,0-8.33-8,8.1,8.1,0,1,0,0,16.2A8.13,8.13,0,0,0,72.94,351.93Z"/><path d="M92.1,352c0-10.55,8.64-18.81,19.78-18.81s19.74,8.26,19.74,18.81S123,370.8,111.88,370.8,92.1,362.54,92.1,352Zm27.69,0a7.93,7.93,0,1,0-7.91,7.94A7.86,7.86,0,0,0,119.79,352Z"/><path d="M188.82,357.73V344.87H183.9v-9.49H185c3.14,0,5-1.73,5-4.89V327h10.67v7.41h7.17v10.46h-7.17v12.28a3.26,3.26,0,0,0,3.51,3.63,13.93,13.93,0,0,0,3.58-.7V369a24.63,24.63,0,0,1-7.59,1.2C191.52,370.15,188.82,364.29,188.82,357.73Z"/><path d="M255.33,334.41v35.16h-11l-.55-3.64a14.06,14.06,0,0,1-11.14,4.87c-10.57,0-17.52-8.73-17.52-18.81,0-10.46,7.24-18.81,17.52-18.81A14.24,14.24,0,0,1,243.85,338l.52-3.58ZM243.49,351.9a7.83,7.83,0,0,0-8.14-8,8.11,8.11,0,1,0,0,16.21A7.91,7.91,0,0,0,243.49,351.9Z"/><path d="M305.17,322.34H319.7l-2,30.73h-10.4Zm0,42a7.07,7.07,0,0,1,7.26-6.76,7.24,7.24,0,0,1,7.38,6.91c0,3.78-3.34,6.77-7.32,6.77A7.14,7.14,0,0,1,305.17,364.32Z"/><polygon class="cls-1" points="274.38 334.39 286.11 334.39 286.11 346.12 297.84 346.12 297.84 357.84 286.11 357.84 286.11 369.56 274.38 369.56 274.38 357.84 262.66 357.84 262.66 346.12 274.38 346.12 274.38 334.39"/><path class="cls-4" d="M171.6,359.56h0l-3.11-3.11h3.65a4.44,4.44,0,0,0,3.13-7.57h0a4.44,4.44,0,0,0-3.13-1.3h-3.7l5.61-5.61,1.22-1.22a4.44,4.44,0,0,0,1.3-3.14h0a4.44,4.44,0,0,0-4.43-4.43h0a4.44,4.44,0,0,0-3.14,1.3l-3.67,3.67h0l-3.17,3.17v-3.71a4.43,4.43,0,0,0-1.29-3.13h0a4.44,4.44,0,0,0-6.27,0h0a4.4,4.4,0,0,0-1.3,3.13v3.65l-4.63-4.64h0l-2.15-2.14a4.44,4.44,0,0,0-3.13-1.3h0a4.44,4.44,0,0,0-4.44,4.43h0a4.44,4.44,0,0,0,1.3,3.14l1.47,1.47h0l5.36,5.36h-3.69a4.44,4.44,0,0,0-3.14,1.3h0a4.44,4.44,0,0,0,0,6.27h0a4.44,4.44,0,0,0,3.14,1.3H147l-5.31,5.31h0l-1.47,1.47a4.44,4.44,0,0,0-1.3,3.13h0a4.43,4.43,0,0,0,7.57,3.14l3.67-3.67h0l3.11-3.11v3.64a4.4,4.4,0,0,0,1.3,3.14h0a4.43,4.43,0,0,0,7.56-3.14v-3.7l3.17,3.17h0l2.4,2.39.27.28h0l1,1a4.43,4.43,0,0,0,7.57-3.14h0a4.44,4.44,0,0,0-1.3-3.13Z"/></g></g></svg>