<svg xmlns="http://www.w3.org/2000/svg" viewBox="0 0 1132.99 311.95"><defs><style>.cls-1{fill:#ff006e;}.cls-2{fill:#ffce00;}.cls-3{fill:#ff7900;}.cls-4{fill:#06b9ff;}.cls-5{fill:#893eff;}</style></defs><title>declinazioniRisorsa 7</title><g id="Livello_2" data-name="Livello 2"><g id="Livello_1-2" data-name="Livello 1"><path d="M954.35,164.36v19H942.51v-19c0-4.72-2-6.65-5.59-6.65-3.84,0-6,2.72-6,6.65v19H919.08V148.22H930l.47,3.07a15.14,15.14,0,0,1,10.78-4.16C947.85,147.13,954.35,150.3,954.35,164.36Z"/><path d="M961.68,165.79c0-10.54,8.64-18.8,19.78-18.8s19.74,8.26,19.74,18.8-8.64,18.81-19.74,18.81S961.68,176.34,961.68,165.79Zm27.69,0a7.93,7.93,0,1,0-7.91,7.94A7.85,7.85,0,0,0,989.37,165.79ZM974.1,133.86h9.82l5,9.87h-7.88Z"/><path d="M1065.75,164.36v19h-11.84v-19c0-4.66-1.73-6.65-5-6.65-3.86,0-5.8,2.72-5.8,6.65v19h-11.83v-19c0-4.66-1.76-6.65-5.07-6.65-3.84,0-5.8,2.72-5.8,6.65v19h-11.84V148.22h11l.41,2.78a14.65,14.65,0,0,1,10.49-4c4.13,0,8.14,1.34,10.52,5.94a14.41,14.41,0,0,1,12.18-5.94C1059.57,147,1065.75,150.33,1065.75,164.36Z"/><path d="M1118,136.15h14.53l-2,30.73h-10.4Zm0,42a7.08,7.08,0,0,1,7.26-6.77,7.25,7.25,0,0,1,7.39,6.91c0,3.78-3.34,6.77-7.33,6.77A7.13,7.13,0,0,1,1118,178.13Z"/><path d="M433.94,188.23V179a8.62,8.62,0,0,0,3.25.68c3.2,0,3.84-2.2,3.84-3.26V140h11.84v36.38c0,6.92-3.37,13-11.93,13A21.63,21.63,0,0,1,433.94,188.23Zm6.39-57.36c0-3.28,2.84-6,6.59-6s6.59,2.67,6.59,6-2.81,5.95-6.59,5.95S440.33,134.15,440.33,130.87Z"/><path d="M500.37,140v35.15h-11l-.56-3.63a14,14,0,0,1-11.13,4.86c-10.57,0-17.52-8.73-17.52-18.8,0-10.46,7.24-18.81,17.52-18.81a14.23,14.23,0,0,1,11.16,4.8l.53-3.57Zm-11.84,17.49a7.83,7.83,0,0,0-8.14-8,8.1,8.1,0,1,0,0,16.2A7.91,7.91,0,0,0,488.53,157.53Z"/><path d="M564.91,156.18v19H553.08v-19c0-4.66-1.73-6.65-5-6.65-3.87,0-5.8,2.72-5.8,6.65v19H530.4v-19c0-4.66-1.76-6.65-5.07-6.65-3.83,0-5.8,2.72-5.8,6.65v19H507.7V140h10.95l.41,2.78a14.66,14.66,0,0,1,10.49-4c4.13,0,8.15,1.35,10.52,5.94a14.45,14.45,0,0,1,12.19-5.94C558.73,138.81,564.91,142.15,564.91,156.18Z"/><path d="M674.36,156.18v19H662.53v-19c0-4.66-1.73-6.65-5-6.65-3.87,0-5.8,2.72-5.8,6.65v19H639.85v-19c0-4.66-1.76-6.65-5.07-6.65-3.84,0-5.8,2.72-5.8,6.65v19H617.15V140h11l.41,2.78a14.66,14.66,0,0,1,10.49-4c4.13,0,8.15,1.35,10.52,5.94a14.45,14.45,0,0,1,12.19-5.94C668.18,138.81,674.36,142.15,674.36,156.18Z"/><path d="M681,130.87c0-3.28,2.84-6,6.59-6s6.59,2.67,6.59,6-2.81,5.95-6.59,5.95S681,134.15,681,130.87Zm.67,9.17h11.84v35.15H681.68Z"/><path d="M745.58,128h14.53l-2,30.73h-10.4Zm0,42a7.08,7.08,0,0,1,7.26-6.77,7.25,7.25,0,0,1,7.39,6.92c0,3.78-3.34,6.76-7.33,6.76A7.13,7.13,0,0,1,745.58,170Z"/><path class="cls-1" d="M575.51,157.73a11,11,0,1,0,15.54,15.54l15.55-15.54a11,11,0,1,0-15.55-15.55l-15.54,15.55"/><path class="cls-2" d="M736,152.22h0a7.79,7.79,0,1,1,0-11,7.8,7.8,0,0,1,0,11"/><path class="cls-2" d="M714.15,152.22h0a7.79,7.79,0,1,1,0-11,7.8,7.8,0,0,1,0,11"/><path class="cls-2" d="M736,174.25h0a7.79,7.79,0,1,1,0-11,7.8,7.8,0,0,1,0,11"/><path class="cls-2" d="M714.15,174.25h0a7.79,7.79,0,1,1,0-11,7.8,7.8,0,0,1,0,11"/><path d="M40.05,157.21c0,10-6.94,18.78-17.49,18.78a14.12,14.12,0,0,1-10.84-4.52v16.47H0V139.6H10.84l.53,3.6a14.25,14.25,0,0,1,11.19-4.8C32.81,138.4,40.05,146.75,40.05,157.21Zm-11.84-.09a8.07,8.07,0,0,0-8.32-8,8.1,8.1,0,1,0,0,16.2A8.12,8.12,0,0,0,28.21,157.12Z"/><path d="M47.38,157.18c0-10.55,8.64-18.81,19.77-18.81s19.75,8.26,19.75,18.81S78.26,176,67.15,176,47.38,167.72,47.38,157.18Zm27.68,0a7.93,7.93,0,1,0-7.91,7.94A7.85,7.85,0,0,0,75.06,157.18Z"/><path d="M144.1,162.92V150.06h-4.92v-9.49h1.11c3.14,0,5-1.73,5-4.9v-3.48h10.66v7.41h7.18v10.46h-7.18v12.27a3.27,3.27,0,0,0,3.52,3.64,13.87,13.87,0,0,0,3.57-.71v8.88a24.52,24.52,0,0,1-7.58,1.2C146.79,175.34,144.1,169.48,144.1,162.92Z"/><path d="M210.61,139.6v35.15h-11l-.56-3.63A14,14,0,0,1,188,176c-10.57,0-17.52-8.74-17.52-18.81,0-10.46,7.24-18.81,17.52-18.81a14.23,14.23,0,0,1,11.16,4.8l.53-3.57Zm-11.84,17.49a7.83,7.83,0,0,0-8.14-8,8.1,8.1,0,1,0,0,16.2A7.91,7.91,0,0,0,198.77,157.09Z"/><path d="M260.44,127.53H275l-2,30.73h-10.4Zm0,42a7.08,7.08,0,0,1,7.27-6.77,7.25,7.25,0,0,1,7.38,6.92c0,3.78-3.34,6.76-7.32,6.76A7.13,7.13,0,0,1,260.44,169.51Z"/><polygon class="cls-1" points="229.66 139.58 241.39 139.58 241.39 151.3 253.11 151.3 253.11 163.03 241.39 163.03 241.39 174.75 229.66 174.75 229.66 163.03 217.94 163.03 217.94 151.3 229.66 151.3 229.66 139.58"/><path d="M910.14,1.67V50H899.3l-.56-3.63a14,14,0,0,1-11.13,4.86c-10.57,0-17.52-8.73-17.52-18.78,0-10.46,7.24-18.81,17.52-18.81a14.21,14.21,0,0,1,10.81,4.43V1.67Zm-11.72,30.7a7.81,7.81,0,0,0-8.14-8,8.1,8.1,0,1,0,0,16.2A7.91,7.91,0,0,0,898.42,32.37Z"/><path d="M957.63,15.12V50.27h-11l-.56-3.63A14,14,0,0,1,935,51.5c-10.58,0-17.52-8.73-17.52-18.8,0-10.46,7.24-18.81,17.52-18.81a14.23,14.23,0,0,1,11.16,4.8l.53-3.57ZM945.79,32.61a7.83,7.83,0,0,0-8.14-8,8.1,8.1,0,1,0,0,16.2A7.91,7.91,0,0,0,945.79,32.61Z"/><path d="M1002.81,63.31V54.08a8.66,8.66,0,0,0,3.26.68c3.19,0,3.83-2.2,3.83-3.26V15.12h11.84V51.5c0,6.92-3.37,13-11.92,13A21.7,21.7,0,0,1,1002.81,63.31ZM1009.2,6c0-3.28,2.84-5.95,6.59-5.95s6.6,2.67,6.6,6-2.82,5.94-6.6,5.94S1009.2,9.23,1009.2,6Z"/><path d="M1065.05,36.47v.24H1041a7.94,7.94,0,0,0,7.39,5.18,9.34,9.34,0,0,0,6.44-2.78l8.82,5.13c-4.6,5.95-11.25,7.21-15.5,7.21-10.69,0-19-7.94-19-18.75,0-11,8.58-18.75,19.07-18.75a17.3,17.3,0,0,1,17.73,17.34A15.94,15.94,0,0,1,1065.05,36.47Zm-24.5-7h14c-.7-3.46-2.76-6-6.59-6S1041.52,26.07,1040.55,29.5Z"/><path d="M1118.14,3.05h14.54l-2,30.73h-10.4Zm0,42a7.08,7.08,0,0,1,7.27-6.77,7.25,7.25,0,0,1,7.38,6.92c0,3.78-3.34,6.76-7.32,6.76A7.13,7.13,0,0,1,1118.14,45Z"/><path class="cls-1" d="M999.82,32.69c8,13.3-2.76,24.09-16.06,16.06-13.29,8-24.08-2.76-16-16.06-8-13.29,2.76-24.08,16-16,13.3-8,24.09,2.76,16.06,16"/><path class="cls-3" d="M1076.46,32.7A11,11,0,1,0,1092,48.24l15.55-15.54A11,11,0,1,0,1092,17.15L1076.46,32.7"/><path d="M510.21,35.42v19H498.38v-19c0-4.65-1.73-6.65-5-6.65-3.87,0-5.8,2.73-5.8,6.65v19H475.7v-19c0-4.65-1.76-6.65-5.07-6.65-3.83,0-5.8,2.73-5.8,6.65v19H453V19.28H464l.41,2.78a14.66,14.66,0,0,1,10.49-4c4.13,0,8.15,1.35,10.52,5.95a14.43,14.43,0,0,1,12.19-5.95C504,18.05,510.21,21.39,510.21,35.42Z"/><path d="M517.6,38l-.06-18.69h11.84l0,18.66c0,4,1.9,6.48,5,6.48s5.36-2.52,5.36-6.48l0-18.66h11.84L551.68,38c0,9.73-7,16.91-17.2,16.91S517.6,47.7,517.6,38Z"/><path d="M639,35.42v19H627.17v-19c0-4.71-2-6.65-5.6-6.65-3.83,0-6,2.73-6,6.65v19H603.73V19.28h11l.47,3.08a15.13,15.13,0,0,1,10.78-4.16C632.5,18.2,639,21.36,639,35.42Z"/><path d="M644.84,5.51h9.81l5,9.87h-7.88Zm1.49,13.77h11.84V54.44H646.33Z"/><path d="M710.44,7.21H725l-2,30.73h-10.4Zm0,42a7.07,7.07,0,0,1,7.27-6.76,7.24,7.24,0,0,1,7.38,6.91c0,3.78-3.34,6.77-7.32,6.77A7.14,7.14,0,0,1,710.44,49.19Z"/><path class="cls-4" d="M594.12,31.35h0a7.79,7.79,0,1,1,0-11,7.8,7.8,0,0,1,0,11"/><path class="cls-4" d="M572.3,31.35h0a7.79,7.79,0,1,1,0-11,7.79,7.79,0,0,1,0,11"/><path class="cls-4" d="M594.12,53.39h0a7.79,7.79,0,1,1,0-11,7.8,7.8,0,0,1,0,11"/><path class="cls-4" d="M572.3,53.39h0a7.79,7.79,0,1,1,0-11,7.79,7.79,0,0,1,0,11"/><path d="M40.17,261.85v31.64c-.12,10.28-7.91,18.46-22,18.46-5.8,0-11.72-1.85-15.76-5.16l6.24-7.35c1.29,1.23,5.36,2.31,8.94,2.31,6.06,0,10.46-2.93,10.72-8a14.15,14.15,0,0,1-10.81,4.49C6.94,298.24,0,289.51,0,279.43,0,269,7.24,260.62,17.52,260.62a14.23,14.23,0,0,1,11.16,4.8l.53-3.57ZM28.33,279.34a7.83,7.83,0,0,0-8.14-8,8.1,8.1,0,1,0,0,16.2A7.91,7.91,0,0,0,28.33,279.34Z"/><path d="M82.77,278v19H70.93V278c0-4.72-2-6.65-5.59-6.65-3.84,0-6,2.73-6,6.65v19H47.5V248.67H59.33v15.85a15.24,15.24,0,0,1,10.37-3.75C76.27,260.77,82.77,263.93,82.77,278Z"/><path d="M89.43,252.68c0-3.28,2.84-6,6.59-6s6.59,2.67,6.59,6-2.81,5.95-6.59,5.95S89.43,256,89.43,252.68Zm.67,9.17h11.84V297H90.1Z"/><path d="M209,278v19H197.13V278c0-4.66-1.73-6.65-5-6.65-3.86,0-5.8,2.73-5.8,6.65v19H174.46V278c0-4.66-1.76-6.65-5.07-6.65-3.84,0-5.8,2.73-5.8,6.65v19H151.75V261.85h11l.41,2.78a14.65,14.65,0,0,1,10.49-4c4.13,0,8.14,1.35,10.52,5.95a14.4,14.4,0,0,1,12.18-5.95C202.79,260.62,209,264,209,278Z"/><path d="M216.21,279.43c0-10.55,8.64-18.81,19.78-18.81s19.74,8.26,19.74,18.81-8.64,18.81-19.74,18.81S216.21,290,216.21,279.43Zm27.69,0a7.93,7.93,0,1,0-7.91,7.94A7.85,7.85,0,0,0,243.9,279.43Z"/><path d="M307.79,249.78h14.53l-2,30.73H309.9Zm0,42a7.08,7.08,0,0,1,7.27-6.77,7.25,7.25,0,0,1,7.38,6.92c0,3.78-3.34,6.77-7.33,6.77A7.14,7.14,0,0,1,307.79,291.76Z"/><rect class="cls-2" x="109.26" y="261.85" width="17.58" height="17.58"/><rect class="cls-2" x="126.84" y="279.43" width="17.58" height="17.58"/><path class="cls-5" d="M298.18,273.92h0a7.79,7.79,0,1,1,0-11,7.8,7.8,0,0,1,0,11"/><path class="cls-5" d="M276.36,273.92h0a7.79,7.79,0,1,1,0-11,7.8,7.8,0,0,1,0,11"/><path class="cls-5" d="M298.18,296h0a7.79,7.79,0,1,1,0-11,7.78,7.78,0,0,1,0,11"/><path class="cls-5" d="M276.36,296h0a7.79,7.79,0,1,1,0-11,7.78,7.78,0,0,1,0,11"/><path d="M887.11,282.63v19H875.27v-19c0-4.65-1.72-6.65-5-6.65-3.86,0-5.8,2.73-5.8,6.65v19H852.6v-19c0-4.65-1.76-6.65-5.07-6.65-3.84,0-5.8,2.73-5.8,6.65v19H829.89V266.49h11l.41,2.78a14.65,14.65,0,0,1,10.49-4c4.13,0,8.14,1.35,10.52,5.95a14.4,14.4,0,0,1,12.18-5.95C880.93,265.26,887.11,268.6,887.11,282.63Z"/><path d="M930.42,287.85v.23H906.33a8,8,0,0,0,7.39,5.19,9.36,9.36,0,0,0,6.44-2.79l8.82,5.13c-4.6,5.95-11.25,7.21-15.5,7.21-10.69,0-19-7.94-19-18.75s8.58-18.75,19.07-18.75a17.3,17.3,0,0,1,17.73,17.34A16.28,16.28,0,0,1,930.42,287.85Zm-24.5-7h14c-.71-3.46-2.76-6-6.59-6S906.89,277.45,905.92,280.88Z"/><path d="M1018.57,282.63v19h-11.84v-19c0-4.71-2-6.65-5.59-6.65-3.84,0-6,2.73-6,6.65v19H983.29V266.49h11l.47,3.08a15.14,15.14,0,0,1,10.78-4.16C1012.06,265.41,1018.57,268.57,1018.57,282.63Z"/><path d="M1066.06,266.49v35.16h-11l-.56-3.64a14.05,14.05,0,0,1-11.13,4.87c-10.58,0-17.52-8.73-17.52-18.81,0-10.46,7.23-18.81,17.52-18.81a14.25,14.25,0,0,1,11.16,4.8l.53-3.57ZM1054.23,284a7.84,7.84,0,0,0-8.15-8,8.1,8.1,0,1,0,0,16.2A7.91,7.91,0,0,0,1054.23,284Z"/><path d="M1118.34,254.42h14.53l-2,30.73h-10.4Zm0,42a7.07,7.07,0,0,1,7.27-6.76,7.24,7.24,0,0,1,7.38,6.91c0,3.78-3.34,6.77-7.32,6.77A7.14,7.14,0,0,1,1118.34,296.4Z"/><path class="cls-3" d="M973.68,278.56h0a7.79,7.79,0,1,1,0-11,7.79,7.79,0,0,1,0,11"/><path class="cls-3" d="M951.87,278.56h0a7.79,7.79,0,1,1,0-11,7.8,7.8,0,0,1,0,11"/><path class="cls-3" d="M973.68,300.6h0a7.79,7.79,0,1,1,0-11,7.79,7.79,0,0,1,0,11"/><path class="cls-3" d="M951.87,300.6h0a7.79,7.79,0,1,1,0-11,7.8,7.8,0,0,1,0,11"/><path d="M476.35,261.93l-22,48.34H442L449.28,294l-14.21-32.08h13.15L455,281.2l8.59-19.27Z"/><path d="M519.66,261.93v35.15h-11l-.56-3.63A14,14,0,0,1,497,298.31c-10.58,0-17.52-8.73-17.52-18.8,0-10.46,7.24-18.81,17.52-18.81a14.23,14.23,0,0,1,11.16,4.8l.53-3.57Zm-11.84,17.49a7.83,7.83,0,0,0-8.14-8,8.1,8.1,0,1,0,0,16.2A7.91,7.91,0,0,0,507.82,279.42Z"/><path d="M527,248.74h11.83v48.34H527Z"/><path d="M591,248.74h11.84v48.34H591Z"/><path d="M650.34,261.93v35.15h-11l-.56-3.63a14,14,0,0,1-11.13,4.86c-10.58,0-17.52-8.73-17.52-18.8,0-10.46,7.24-18.81,17.52-18.81a14.23,14.23,0,0,1,11.16,4.8l.53-3.57ZM638.5,279.42a7.83,7.83,0,0,0-8.14-8,8.1,8.1,0,1,0,0,16.2A7.91,7.91,0,0,0,638.5,279.42Z"/><path d="M702.61,249.86h14.53l-2,30.73h-10.4Zm0,42a7.08,7.08,0,0,1,7.27-6.77,7.25,7.25,0,0,1,7.38,6.92c0,3.77-3.34,6.76-7.32,6.76A7.13,7.13,0,0,1,702.61,291.84Z"/><path class="cls-1" d="M676.47,267c0,3.46-2.8,12.53-6.26,12.53s-6.27-9.07-6.27-12.53a6.27,6.27,0,1,1,12.53,0"/><path class="cls-1" d="M695.28,273.24A6.26,6.26,0,0,1,689,279.5c-3.46,0-12.54-2.8-12.54-6.26S685.55,267,689,267a6.26,6.26,0,0,1,6.27,6.27"/><path class="cls-1" d="M689,292a6.27,6.27,0,0,1-12.54,0c0-3.46,2.81-12.53,6.27-12.53S689,288.58,689,292"/><path class="cls-1" d="M676.47,285.77c0,3.47-9.07,6.27-12.53,6.27a6.27,6.27,0,0,1,0-12.54c3.46,0,12.53,2.81,12.53,6.27"/><path class="cls-1" d="M575.92,298.31a7.84,7.84,0,1,1,7.83-7.83,7.83,7.83,0,0,1-7.83,7.83"/><path class="cls-1" d="M565,276.38a7.84,7.84,0,1,1,7.84-7.84,7.84,7.84,0,0,1-7.84,7.84"/><path class="cls-1" d="M554,298.31a7.84,7.84,0,1,1,7.84-7.83,7.84,7.84,0,0,1-7.84,7.83"/><path d="M118.69,36.67c0-10.55,8.64-18.81,19.78-18.81s19.74,8.26,19.74,18.81-8.64,18.81-19.74,18.81S118.69,47.22,118.69,36.67Zm27.69,0a7.93,7.93,0,1,0-7.91,7.94A7.86,7.86,0,0,0,146.38,36.67ZM131.11,4.74h9.82l5,9.87h-7.88Z"/><path d="M40.17,19.37V54.53h-11l-.56-3.64a14,14,0,0,1-11.13,4.87C6.94,55.76,0,47,0,37,0,26.49,7.24,18.14,17.52,18.14a14.23,14.23,0,0,1,11.16,4.8l.53-3.57ZM28.33,36.86a7.83,7.83,0,0,0-8.14-8,8.1,8.1,0,1,0,0,16.2A7.91,7.91,0,0,0,28.33,36.86Z"/><path d="M92.44,67.56V58.33a8.58,8.58,0,0,0,3.25.68c3.19,0,3.84-2.2,3.84-3.25V19.37h11.83V55.76c0,6.91-3.37,13-11.92,13A21.59,21.59,0,0,1,92.44,67.56ZM98.82,10.2c0-3.28,2.84-5.95,6.59-5.95S112,6.92,112,10.2s-2.82,5.95-6.6,5.95S98.82,13.48,98.82,10.2Z"/><path d="M210.49,7.3H225L223,38H212.6Zm0,42a7.08,7.08,0,0,1,7.27-6.77,7.25,7.25,0,0,1,7.38,6.92c0,3.78-3.34,6.77-7.33,6.77A7.14,7.14,0,0,1,210.49,49.28Z"/><path class="cls-5" d="M168.81,37a11,11,0,1,0,15.54,15.54L199.89,37a11,11,0,1,0-15.54-15.54L168.81,37"/><path class="cls-1" d="M81.35,36.94h3.76A12.53,12.53,0,0,0,72.59,24.4H68.82a2.5,2.5,0,0,1-2.5-2.5V18.14A12.52,12.52,0,0,0,53.79,30.66v3.77a2.5,2.5,0,0,1-2.5,2.5H47.53A12.53,12.53,0,0,0,60.05,49.47h3.77a2.5,2.5,0,0,1,2.5,2.5v3.76A12.52,12.52,0,0,0,78.85,43.2V39.44A2.5,2.5,0,0,1,81.35,36.94Z"/><path d="M400.72,19.37V54.53h-11l-.55-3.64a14.05,14.05,0,0,1-11.13,4.87C367.5,55.76,360.56,47,360.56,37c0-10.46,7.23-18.81,17.52-18.81a14.26,14.26,0,0,1,11.16,4.8l.52-3.57ZM388.89,36.86a7.84,7.84,0,0,0-8.15-8,8.1,8.1,0,1,0,0,16.2A7.91,7.91,0,0,0,388.89,36.86Z"/><path class="cls-1" d="M441.9,36.94h3.77A12.54,12.54,0,0,0,433.14,24.4h-3.77a2.49,2.49,0,0,1-2.49-2.5V18.14a12.52,12.52,0,0,0-12.54,12.52v3.77a2.5,2.5,0,0,1-2.5,2.5h-3.76a12.54,12.54,0,0,0,12.53,12.54h3.76a2.5,2.5,0,0,1,2.5,2.5v3.76A12.53,12.53,0,0,0,439.41,43.2s0,0,0-.06v-3.7A2.5,2.5,0,0,1,441.9,36.94Z"/><path class="cls-2" d="M674,41.11c-7.77,8.37-2.36,13.79,6,6,.43,11.38,8.07,11.39,8.51,0,8.35,7.74,13.75,2.32,6-6,11.41-.42,11.42-8.07,0-8.5,7.73-8.35,2.33-13.74-6-6-.43-11.4-8.09-11.39-8.51,0-8.36-7.76-13.77-2.37-6,6C662.65,33.05,662.66,40.68,674,41.11Z"/><path class="cls-5" d="M1081.62,170c-7.77,8.37-2.35,13.79,6,6,.43,11.38,8.06,11.39,8.5,0,8.36,7.74,13.75,2.32,6-6,11.41-.42,11.42-8.07,0-8.5,7.73-8.35,2.34-13.74-6-6-.43-11.4-8.08-11.39-8.5,0-8.37-7.76-13.78-2.37-6,6C1070.23,162,1070.24,169.6,1081.62,170Z"/><path class="cls-1" d="M1081.94,288.32c-7.77,8.37-2.36,13.79,6,6,.43,11.38,8.06,11.38,8.51,0,8.35,7.74,13.75,2.32,6-6,11.42-.42,11.43-8.07,0-8.5,7.73-8.35,2.33-13.75-6-6-.43-11.4-8.09-11.39-8.51,0-8.36-7.77-13.77-2.37-6,6C1070.55,280.26,1070.56,287.89,1081.94,288.32Z"/><path class="cls-5" d="M126.88,164.74h0l-3.11-3.11h3.64a4.43,4.43,0,0,0,3.14-7.56h0a4.4,4.4,0,0,0-3.14-1.3h-3.69l5.6-5.61,1.23-1.22a4.46,4.46,0,0,0,1.3-3.14h0a4.43,4.43,0,0,0-4.44-4.43h0a4.44,4.44,0,0,0-3.13,1.3l-3.67,3.67h0l-3.17,3.16v-3.7a4.44,4.44,0,0,0-1.3-3.13h0a4.44,4.44,0,0,0-6.27,0h0a4.43,4.43,0,0,0-1.29,3.13v3.64l-4.64-4.63h0l-2.14-2.14a4.44,4.44,0,0,0-3.14-1.3h0a4.43,4.43,0,0,0-4.43,4.43h0a4.46,4.46,0,0,0,1.3,3.14L97,147.4h0l5.36,5.37h-3.7a4.4,4.4,0,0,0-3.13,1.3h0a4.44,4.44,0,0,0,0,6.27h0a4.43,4.43,0,0,0,3.13,1.29h3.65L97,167h0l-1.47,1.47a4.44,4.44,0,0,0-1.3,3.13h0a4.43,4.43,0,0,0,7.57,3.14l3.67-3.68h0l3.11-3.1v3.64a4.43,4.43,0,0,0,1.29,3.14h0a4.44,4.44,0,0,0,7.57-3.14v-3.7l3.17,3.16h0l2.39,2.4.28.28h0l1,1a4.43,4.43,0,0,0,7.57-3.14h0a4.44,4.44,0,0,0-1.3-3.13Z"/></g></g></svg>