<svg xmlns="http://www.w3.org/2000/svg" viewBox="0 0 672 541"><rect width="672" height="541" style="fill:#f3f3f3"/><path d="M77.2031,108.363V82.3672H68.0078V117H90.459v-8.637Zm42.5609-5.285a12.6856,12.6856,0,0,0-12.998-12.7186,13.7516,13.7516,0,1,0-.022,27.5,14.1468,14.1468,0,0,0,11.365-5.285l-6.466-3.76a6.8786,6.8786,0,0,1-4.727,2.041,5.8243,5.8243,0,0,1-5.414-3.802h17.66v-.172A11.77,11.77,0,0,0,119.764,103.078Zm-13.127-5.736c2.814,0,4.318,1.89,4.834,4.426h-10.27A5.61,5.61,0,0,1,106.637,97.342Zm49.994-7.0256a10.5865,10.5865,0,0,0-8.938,4.3616c-1.74-3.3733-4.683-4.3616-7.713-4.3616a10.7444,10.7444,0,0,0-7.691,2.9434l-.301-2.041h-8.035V117h8.68V103.057c0-2.879,1.439-4.877,4.254-4.877,2.427,0,3.717,1.461,3.717,4.877V117h8.679V103.057c0-2.879,1.418-4.877,4.254-4.877,2.428,0,3.695,1.461,3.695,4.877V117h8.68V103.057C165.912,92.7656,161.379,90.3164,156.631,90.3164Zm27.994,27.5856c8.143,0,14.48-6.058,14.48-13.793s-6.337-13.7926-14.48-13.7926c-8.164,0-14.502,6.0586-14.502,13.7926S176.461,117.902,184.625,117.902Zm0-7.97a5.8331,5.8331,0,1,1,5.801-5.823A5.7592,5.7592,0,0,1,184.625,109.932Zm34.977-19.5082a11.1052,11.1052,0,0,0-7.907,3.0508l-.343-2.2558h-8.036V117h8.68V103.057c0-2.879,1.59-4.877,4.404-4.877,2.621,0,4.104,1.418,4.104,4.877V117h8.68V103.057C229.184,92.7441,224.414,90.4238,219.602,90.4238Zm61.294-.1074a10.5859,10.5859,0,0,0-8.937,4.3616c-1.74-3.3733-4.684-4.3616-7.713-4.3616a10.741,10.741,0,0,0-7.691,2.9434l-.301-2.041h-8.035V117h8.679V103.057c0-2.879,1.44-4.877,4.254-4.877,2.428,0,3.717,1.461,3.717,4.877V117h8.68V103.057c0-2.879,1.418-4.877,4.254-4.877,2.427,0,3.695,1.461,3.695,4.877V117h8.68V103.057C290.178,92.7656,285.645,90.3164,280.896,90.3164Zm19.723-1.4609a4.3845,4.3845,0,1,0-4.834-4.3614A4.5541,4.5541,0,0,0,300.619,88.8555ZM296.279,117h8.68V91.2188h-8.68Zm14.76,0h8.68V81.5508h-8.68Zm41.293,0-10.828-12.998,9.84-12.7832h-9.625l-7.735,10.3122v-19.98h-8.679V117h8.679v-9.904l8.25,9.904Zm17.316,0h9.196V106.795h3.888c7.262,0,13.084-5.607,13.084-12.289,0-6.7677-5.951-12.1388-13.084-12.1388H369.648Zm13.084-18.67-3.888-.021V90.8535h3.888c2.45,0,4.211,1.59,4.211,3.6955A3.888,3.888,0,0,1,382.732,98.33ZM428.988,117l-9.281-13.9a10.4369,10.4369,0,0,0,5.994-9.475c0-6.209-5.349-11.2578-12.826-11.2578H399.727L399.77,117h9.195V101.961L418.225,117ZM408.922,90.6387h3.76a3.49,3.49,0,1,1,0,6.9613l-3.76-.022Zm40.863,27.2423c10.785,0,19.035-7.842,19.035-18.154,0-10.3989-8.25-18.2836-19.013-18.2836s-19.014,7.8847-19.014,18.2836C430.793,110.039,439.021,117.881,449.785,117.881Zm.022-8.787a9.4567,9.4567,0,1,1,9.711-9.432A9.4155,9.4155,0,0,1,449.807,109.094Zm55.451-11.602c1.418,0,3.781-2.556,3.781-6.1229,0-4.77-4.598-9.0019-10.871-9.0019H486.781V117h14.781c6.94,0,11.538-5.092,11.538-10.57C513.1,101.209,508.953,97.492,505.258,97.492Zm-3.932-4.4686c0,1.7836-1.504,2.7716-3.502,2.7716h-2.191V90.3594h2.256C499.865,90.3594,501.326,91.3477,501.326,93.0234Zm-1.16,15.62h-4.533v-6.575l4.597.022c2.6,0,4.061,1.224,4.061,3.244C504.291,107.611,502.271,108.643,500.166,108.643Zm29.756,9.259c8.142,0,14.48-6.058,14.48-13.793s-6.338-13.7926-14.48-13.7926c-8.164,0-14.502,6.0586-14.502,13.7926S521.758,117.902,529.922,117.902Zm0-7.97a5.8331,5.8331,0,1,1,5.801-5.823A5.7592,5.7592,0,0,1,529.922,109.932ZM548.613,117h8.68V81.5508h-8.68Zm33.645-35.4492V93.582a10.4177,10.4177,0,0,0-7.928-3.2441c-7.541,0-12.848,6.1231-12.848,13.7931,0,7.369,5.092,13.771,12.848,13.771a10.3025,10.3025,0,0,0,8.164-3.566l.408,2.664h7.95V81.5508Zm-5.994,28.51a5.9429,5.9429,0,1,1,.021-11.881,5.7309,5.7309,0,0,1,5.973,5.886A5.8017,5.8017,0,0,1,576.264,110.061ZM91.9414,217H102.018L85.9043,181.938H81.543L65.4512,217H75.5059l1.7617-4.039H90.2012ZM80.168,206.236l3.5664-8.207,3.5449,8.207Zm43.785-8.744c1.418,0,3.781-2.556,3.781-6.123,0-4.769-4.597-9.002-10.871-9.002H105.477V217h14.781c6.939,0,11.537-5.092,11.537-10.57C131.795,201.209,127.648,197.492,123.953,197.492Zm-3.932-4.469c0,1.784-1.503,2.772-3.501,2.772h-2.192v-5.436h2.256C118.561,190.359,120.021,191.348,120.021,193.023Zm-1.16,15.62h-4.533v-6.575l4.598.022c2.599,0,4.06,1.224,4.06,3.244C122.986,207.611,120.967,208.643,118.861,208.643Zm34.268,9.13a19.0652,19.0652,0,0,0,12.976-5.091l-5.242-6.983a11.7033,11.7033,0,0,1-7.734,3.373,9.3517,9.3517,0,1,1,.193-18.691,11.7294,11.7294,0,0,1,7.498,3.201l5.285-6.789a20.0969,20.0969,0,0,0-12.804-5.242c-10.785,0-19.078,7.885-19.078,18.133C134.223,210.555,143.354,217.773,153.129,217.773Zm28.187-35.406-11.3.022V217h11.3c11.774,0,18.971-6.531,18.971-17.273C200.287,188.898,193.09,182.324,181.316,182.367Zm-.15,25.975h-2.191V190.961h2.105c6.209,0,9.99,3.309,9.99,8.744C191.07,205.076,187.311,208.342,181.166,208.342Zm46.105-17.424v-8.551H204.82V217h22.451v-8.615H213.908v-4.963h11v-7.67h-11v-4.834Zm27.586,0v-8.637H232.406v34.762h9.088V204.217h11v-7.692h-11v-5.607Zm38.522,6.187H275.611v6.854h7.928c-.129,3.309-3.115,5.328-7.305,5.328-6.402,0-10.291-4.726-10.291-9.582a9.725,9.725,0,0,1,9.69-9.582,11.1156,11.1156,0,0,1,7.262,2.965l5.091-6.983c-2.857-2.642-7.949-4.511-12.353-4.576-10.742,0-19.078,8.315-19.078,18.198s8.314,18.089,19.314,18.089c9.84,0,17.789-6.81,17.789-17.337A23.0315,23.0315,0,0,0,293.379,197.105Zm24.299-14.738v12.998H307.387V182.367h-9.196V217h9.196V203.959h10.291V217h9.174V182.367ZM332.867,217h9.195V182.367h-9.195Zm21.463.559h.258c8.271,0,14.846-6.038,14.846-13.879l-.151-21.291-9.217-.022.172,21.27a5.5577,5.5577,0,0,1-5.693,5.263h-.15a5.323,5.323,0,0,1-3.782-1.31l-4.64,7.584A14.4935,14.4935,0,0,0,354.33,217.559ZM404.238,217l-11.924-17.746,10.614-16.887H392.357l-8.035,12.912V182.367h-9.174V217h9.174V203.83L393.088,217Zm12.504-8.637V182.367h-9.195V217h22.451v-8.637Zm50.617-26.318-14.867,20.367-14.867-20.367H433.93V217h9.195V203.271l9.346,13.149h.064l9.324-13.149V217h9.196V182.045Zm30.422.279v16.887l-17.746-17.188H477.07v34.998h9.196V200.092l17.81,17.252h2.922v-35.02Zm32.742,35.557c10.786,0,19.036-7.842,19.036-18.154,0-10.399-8.25-18.284-19.014-18.284s-19.014,7.885-19.014,18.284C511.531,210.039,519.76,217.881,530.523,217.881Zm.022-8.787a9.4564,9.4564,0,1,1,9.711-9.432A9.4155,9.4155,0,0,1,530.545,209.094ZM554.07,217h9.196V206.795h3.888c7.262,0,13.084-5.607,13.084-12.289,0-6.768-5.951-12.139-13.084-12.139H554.07Zm13.084-18.67-3.888-.021v-7.455h3.888c2.45,0,4.211,1.589,4.211,3.695A3.888,3.888,0,0,1,567.154,198.33Zm53.647,17.188a39.3262,39.3262,0,0,1-7.928-.967,17.6841,17.6841,0,0,0,7.799-14.824c0-10.399-8.25-18.284-19.014-18.284s-19.013,7.885-19.013,18.284c0,10.312,8.228,18.154,18.992,18.154a20.7287,20.7287,0,0,0,2.599-.151,20.7637,20.7637,0,0,0,13.428,5.973Zm-28.854-15.856a9.7151,9.7151,0,1,1,9.711,9.432A9.4364,9.4364,0,0,1,591.947,199.662ZM97.27,282l-9.2812-13.9a10.4379,10.4379,0,0,0,5.9941-9.475c0-6.209-5.35-11.258-12.8262-11.258H68.0078L68.0508,282h9.1953V266.961L86.5059,282ZM77.2031,255.639h3.76a3.4894,3.4894,0,1,1,0,6.961l-3.76-.022Zm34.1819,26.834c6.939,0,13.084-4.104,13.084-10.7,0-5.113-3.588-8.421-9.002-10.699-3.738-1.568-6.188-2.084-6.188-3.674,0-1.181,1.354-2.148,3.244-2.148,1.655,0,4.319.795,5.35,2.621l5.307-5.113c-1.354-3.416-5.479-5.908-10.764-5.908-6.574,0-12.268,4.275-12.268,10.269,0,5.221,3.76,8.1,8.143,9.99,3.395,1.504,6.939,3.073,6.939,4.856,0,1.418-1.912,2.127-3.867,2.127a8.44,8.44,0,0,1-7.025-3.416l-5.5646,5.457C100.514,279.959,105.691,282.473,111.385,282.473Zm41.013-35.106H126.574v8.594h8.315V282h9.216V255.961h8.293Zm17.983,35.6c7.928,0,14.373-5.608,14.373-13.557V247.367h-9.26v22.022a4.9946,4.9946,0,0,1-5.135,4.791,4.9145,4.9145,0,0,1-5.091-4.791V247.367h-9.26V269.41C156.008,277.359,162.453,282.967,170.381,282.967Zm43.484-35.6-8.013,18.756-7.993-18.756h-9.947l15.899,34.998h4.168l15.962-34.998Zm22.58,34.848h2.514l8.035-17.123,8.1,17.123h2.535l11.559-34.848H259.24l-4.769,15.813-7.09-15.748h-.688l-7.089,15.791-4.792-15.856h-9.947ZM270.111,282h10.592l5.801-10.227L292.326,282h10.592l-11.022-18.004,10.442-16.629H291.811l-5.286,9.153-5.306-9.153H270.691l10.399,16.651Zm44.409,0h9.13V267.047l10.7-19.68H323.908L319.096,257.4l-4.834-10.033h-10.42l10.678,19.68Zm22.085,0h26.19v-8.637H351.107l11.688-25.996h-26.19v8.594h11.709ZM87.8164,336.219,87.43,338.84a10.4346,10.4346,0,0,0-8.1856-3.524c-7.541,0-12.8476,6.123-12.8476,13.793,0,7.391,5.0918,13.793,12.8476,13.793a10.3036,10.3036,0,0,0,8.1641-3.566L87.8164,362h8.0352V336.219Zm-6.6387,18.82a5.9429,5.9429,0,1,1,.0215-11.881,5.7436,5.7436,0,0,1,5.9727,5.887A5.8015,5.8015,0,0,1,81.1777,355.039Zm36.8883-19.701a10.5416,10.5416,0,0,0-7.949,3.244V326.551h-8.679V362h8.035l.408-2.686a10.325,10.325,0,0,0,8.185,3.588c7.735,0,12.827-6.402,12.827-13.771C130.893,341.461,125.586,335.338,118.066,335.338Zm-1.933,19.723a5.807,5.807,0,0,1-6.016-5.995,5.7479,5.7479,0,0,1,5.994-5.886,5.9424,5.9424,0,1,1,.022,11.881Zm31.904,7.798a15.1763,15.1763,0,0,0,9.453-3.265l-4.34-5.865a6.9012,6.9012,0,0,1-4.576,1.675,6.3064,6.3064,0,0,1-.021-12.611,7.0408,7.0408,0,0,1,4.64,1.74l3.953-6.166a15.141,15.141,0,0,0-9.109-3.008c-7.455,0-14.351,5.436-14.351,13.75S140.582,362.859,148.037,362.859Zm31.818-36.308v12.031a10.4169,10.4169,0,0,0-7.927-3.244c-7.541,0-12.848,6.123-12.848,13.793,0,7.369,5.092,13.771,12.848,13.771a10.304,10.304,0,0,0,8.164-3.566L180.5,362h7.949V326.551Zm-5.994,28.51a5.9429,5.9429,0,1,1,.022-11.881,5.73,5.73,0,0,1,5.972,5.886A5.8017,5.8017,0,0,1,173.861,355.061Zm45.762-6.983a12.6853,12.6853,0,0,0-12.998-12.719,13.7518,13.7518,0,1,0-.021,27.5,14.1468,14.1468,0,0,0,11.365-5.285l-6.467-3.76a6.8769,6.8769,0,0,1-4.727,2.041,5.8263,5.8263,0,0,1-5.414-3.802h17.66v-.172A11.7429,11.7429,0,0,0,219.623,348.078Zm-13.127-5.736c2.815,0,4.318,1.89,4.834,4.426H201.061A5.61,5.61,0,0,1,206.496,342.342Zm30.164-9.518a7.9845,7.9845,0,0,1,2.707.58v-6.746a19.1894,19.1894,0,0,0-5.779-.967c-5.736,0-8.422,4.491-8.422,9.625v.903h-3.309v7.691h3.309V362h8.68V343.91h5.521v-7.691h-5.521v-.903A2.5351,2.5351,0,0,1,236.66,332.824Zm26.383,3.395-.387,2.621a10.4326,10.4326,0,0,0-8.185-3.524c-7.541,0-12.848,6.123-12.848,13.793,0,7.391,5.092,13.793,12.848,13.793a10.39,10.39,0,0,0,7.927-3.287c-.193,3.717-3.416,5.865-7.863,5.865-2.621,0-5.607-.794-6.553-1.697l-4.576,5.393a18.6966,18.6966,0,0,0,11.559,3.781c10.312,0,16.027-5.994,16.113-13.535V336.219Zm-6.639,18.82a5.9429,5.9429,0,1,1,.022-11.881,5.7432,5.7432,0,0,1,5.972,5.887A5.8014,5.8014,0,0,1,256.404,355.039Zm36.545-19.615a11.1929,11.1929,0,0,0-7.605,2.75V326.551h-8.68V362h8.68V348.057c0-2.879,1.59-4.877,4.404-4.877,2.621,0,4.104,1.418,4.104,4.877V362h8.679V348.057C302.531,337.744,297.762,335.424,292.949,335.424Zm20.002-1.569a4.3841,4.3841,0,1,0-4.834-4.361A4.5539,4.5539,0,0,0,312.951,333.855ZM308.611,362h8.68V336.219h-8.68Zm19.229-28.145a4.3841,4.3841,0,1,0-4.834-4.361A4.5545,4.5545,0,0,0,327.84,333.855Zm-4.383,38.565c6.273,0,8.744-4.447,8.744-9.518V336.219h-8.68v26.683c0,.774-.472,2.385-2.814,2.385a6.32,6.32,0,0,1-2.385-.494v6.768A15.9489,15.9489,0,0,0,323.457,372.42ZM365.309,362,354.48,349.002l9.84-12.783h-9.625l-7.734,10.312v-19.98h-8.68V362h8.68v-9.904l8.25,9.904Zm3.652,0h8.68V326.551h-8.68Zm46.943-26.684a10.5857,10.5857,0,0,0-8.937,4.362c-1.74-3.373-4.684-4.362-7.713-4.362a10.7464,10.7464,0,0,0-7.692,2.944l-.3-2.041h-8.035V362h8.679V348.057c0-2.879,1.44-4.877,4.254-4.877,2.428,0,3.717,1.461,3.717,4.877V362h8.68V348.057c0-2.879,1.418-4.877,4.254-4.877,2.427,0,3.695,1.461,3.695,4.877V362h8.68V348.057C425.186,337.766,420.652,335.316,415.904,335.316Zm31.174.108a11.1012,11.1012,0,0,0-7.906,3.051l-.344-2.256h-8.035V362h8.68V348.057c0-2.879,1.589-4.877,4.404-4.877,2.621,0,4.103,1.418,4.103,4.877V362h8.68V348.057C456.66,337.744,451.891,335.424,447.078,335.424Zm28.274,27.478c8.142,0,14.48-6.058,14.48-13.793s-6.338-13.793-14.48-13.793c-8.164,0-14.502,6.059-14.502,13.793S467.188,362.902,475.352,362.902Zm0-7.97a5.8331,5.8331,0,1,1,5.8-5.823A5.7595,5.7595,0,0,1,475.352,354.932Zm35.234-19.594a10.45,10.45,0,0,0-8.207,3.523l-.387-2.642h-7.949v35.449h8.594V359.594a10.3466,10.3466,0,0,0,7.949,3.308c7.734,0,12.826-6.402,12.826-13.771C523.412,341.461,518.105,335.338,510.586,335.338Zm-1.934,19.723a5.8068,5.8068,0,0,1-6.015-5.995,5.7479,5.7479,0,0,1,5.994-5.886,5.9424,5.9424,0,1,1,.021,11.881Zm38.973-18.842-.387,2.642a10.4351,10.4351,0,0,0-8.185-3.523c-7.541,0-12.848,6.123-12.848,13.793,0,7.369,5.092,13.771,12.848,13.771a10.39,10.39,0,0,0,7.927-3.287v12.053h8.594V336.219Zm-6.639,18.842a5.9429,5.9429,0,1,1,.022-11.881,5.73,5.73,0,0,1,5.972,5.886A5.8017,5.8017,0,0,1,540.986,355.061Zm28.66-15.77-.451-3.072H561.16V362h8.68V351.602c0-6.897,3.652-7.971,6.23-7.971a8.0225,8.0225,0,0,1,1.44.129l1.332-8.658A12.3759,12.3759,0,0,0,569.646,339.291Zm21.055,23.654c6.768,0,11.774-3.416,11.774-8.916,0-4.017-2.772-6.123-7.756-7.949-3.996-1.332-5.328-1.783-5.328-2.685,0-.817.945-1.075,2.191-1.075a7.6056,7.6056,0,0,1,5.135,1.934l4.383-4.813c-1.354-2.47-5.35-4.146-9.26-4.146-5.393,0-10.613,3.029-10.613,8.637,0,3.974,3.265,6.595,7.712,8.013,2.6.946,4.834,1.612,4.834,2.686,0,.945-1.246,1.203-2.363,1.203-3.008,0-6.101-1.504-7.24-2.943l-3.824,5.199C581.742,360.84,585.889,362.945,590.701,362.945Zm25.932-.515a17.9861,17.9861,0,0,0,5.564-.881v-6.51a10.131,10.131,0,0,1-2.621.516,2.397,2.397,0,0,1-2.578-2.664v-9.002h5.264v-7.67h-5.264v-5.436h-7.82v2.557c0,2.32-1.354,3.588-3.653,3.588h-.816v6.961h3.609v9.431C608.318,358.133,610.295,362.43,616.633,362.43ZM80.2109,427.322c7.4766,0,12.6329-5.263,12.6114-12.396l-.043-13.707H84.1l.0215,13.685c0,2.901-1.5254,4.748-3.9316,4.748-2.2989,0-3.6954-1.847-3.6954-4.748l-.0214-13.685h-8.68l.0429,13.707C67.8359,422.059,72.7773,427.322,80.2109,427.322Zm34.3961-26.103L110.375,413.1l-4.318-11.881H96.4746l11.7524,26.426h4.361l11.795-26.426Zm20.862,26.211h3.717l5.714-11.795,5.909,11.795h3.738l9.367-26.211h-9.41l-3.309,11.988-5.908-11.945h-.558l-5.93,11.967-3.33-12.01H126.08Zm30.142-.43h10.098l4.426-6.982L184.689,427h9.969l-9.367-13.621,8.766-12.16H184.002l-3.846,5.994-3.867-5.994H166.234l8.723,12.181Zm51.627-25.781-6.295,14.136-4.963-14.136h-9.646l10.42,23.525-5.328,11.924h9.023l16.156-35.449ZM228.861,427h22.795v-7.67h-9.968l9.753-18.111H229.549v7.67h9.066ZM76.3867,472.152l-9.8828,2.6v9.045l3.3731-.817V507h9.1953V472.152Zm37.4683,26.405c5.694-3.159,10.571-8.616,10.571-14.287,0-6.811-5.951-12.633-13.321-12.633S97.85,477.223,97.85,483.496l7.4764,2.471a5.7934,5.7934,0,0,1,5.758-5.651,4.2354,4.2354,0,0,1,4.104,4.319c0,3.222-4.985,8.013-18.1333,19.035V507H124.834v-8.443Zm46.75-11.28a7.281,7.281,0,0,0,3.932-6.703c0-5.328-4.769-9.303-10.828-9.303a11.1544,11.1544,0,0,0-11.15,8.745l7.648,1.675a3.0948,3.0948,0,0,1,2.879-2.255,2.5075,2.5075,0,0,1,2.535,2.621c0,2.019-1.955,3.716-5.264,3.716l-1.052,4.082c5.263.043,7.863,2.557,7.863,5.307a3.62,3.62,0,0,1-3.781,3.781,4.5811,4.5811,0,0,1-4.426-2.986l-7.649,1.826c.817,5.221,6.102,9.754,12.59,9.754,6.768,0,12.569-4.598,12.569-11.215A9.5991,9.5991,0,0,0,160.605,487.277Zm52.293,5.457h-3.373v-7.562h-9.173v7.562h-5.629l8.142-20.517-9.281-.043-11.688,28.789h18.456V507h9.173v-6.037h3.373Zm30.852-9.453a10.2081,10.2081,0,0,0-4.705,1.031l.559-3.759h12.525v-8.207H233.137l-2.686,18.326,4.147,2.256c1.353-1.375,4.103-2.17,6.295-2.17,2.771,0,4.812,1.31,4.812,4.06,0,2.879-2.148,4.276-4.619,4.276a5.9662,5.9662,0,0,1-4.834-2.621l-7.498,3.308a13.9737,13.9737,0,0,0,12.934,7.756c7.712,0,13.578-4.984,13.578-12.482C255.266,488.416,250.668,483.281,243.75,483.281Zm43.42,1.59a7.8941,7.8941,0,0,0-1.225.086l7.627-12.547-10.484-.043c-10.527,17.166-11.365,20.367-11.365,23.354,0,8.013,5.994,11.945,12.998,11.945,7.627,0,13.191-5.629,13.191-12.074A10.739,10.739,0,0,0,287.17,484.871Zm-2.32,14.373a3.8126,3.8126,0,0,1-3.889-3.91,3.9224,3.9224,0,1,1,7.842-.022A3.8973,3.8973,0,0,1,284.85,499.244Zm28.939-26.877v8.444h12.633L316.432,507h9.625l13.191-33.043v-1.59Zm54.119,35.342c7.971,0,13.278-4.813,13.278-11.172a9.26,9.26,0,0,0-6.596-9.109,6.9871,6.9871,0,0,0,4.705-6.574c0-4.856-4.684-9.217-11.365-9.217-6.532,0-11.301,4.254-11.301,9.259,0,3.739,2.621,6.145,4.49,6.532-2.385.472-6.467,3.48-6.467,9.066C354.652,502.961,360.066,507.709,367.908,507.709Zm.043-22.773a2.9449,2.9449,0,0,1-3.029-2.965,3.0563,3.0563,0,0,1,6.101.021A2.948,2.948,0,0,1,367.951,484.936Zm-.043,14.502a4.0684,4.0684,0,0,1-4.254-3.975,4.2773,4.2773,0,0,1,8.551-.065A4.1458,4.1458,0,0,1,367.908,499.438Zm42.862-27.844c-7.391,0-13.106,5.564-13.106,12.31,0,5.823,5.006,11.129,10.785,11.129.258,0,.494-.021.752-.043l-7.219,11.967h10.549c10.506-17.746,11.323-18.949,11.323-22.945C423.854,477.201,418.203,471.594,410.77,471.594Zm-.022,16.371a3.9384,3.9384,0,0,1-3.91-3.91,3.9121,3.9121,0,1,1,7.82,0A3.9239,3.9239,0,0,1,410.748,487.965Zm44.967,19.744c9.303,0,15.232-7.154,15.232-18.047,0-10.871-5.929-18.025-15.232-18.025-9.389,0-15.383,7.154-15.383,18.047C440.332,500.555,446.326,507.709,455.715,507.709Zm-.065-8.766c-3.781,0-6.144-3.716-6.144-9.281,0-5.586,2.363-9.303,6.123-9.303s6.101,3.739,6.101,9.346C461.73,495.248,459.389,498.943,455.65,498.943Z" style="fill:#1c1c1c"/><path d="M280.422,28.6914l.293-2.2383h-2.988l.703-5.3437h-2.403l-.703,5.3437h-4.453l.703-5.3437h-2.402l-.703,5.3437h-3.094l-.316,2.2383h3.117l-.574,4.3945h-3.071l-.293,2.2383h3.059L266.688,40h2.402l.609-4.6758h4.453L273.543,40h2.402l.61-4.6758h3.023l.317-2.2383h-3.036l.575-4.3945Zm-5.965,4.3945h-4.453l.574-4.3945h4.453Zm12.481-12.1523L282.285,22.41v3.0937l2.555-.7617V40h2.965V20.9336Zm13.394,19.3711a9.004,9.004,0,0,0,6.516-2.8359l-1.711-2.3907a7.0169,7.0169,0,0,1-4.899,2.25,6.7679,6.7679,0,0,1-.011-13.5351,7.0191,7.0191,0,0,1,4.898,2.2031l1.723-2.332a9.5539,9.5539,0,0,0-6.563-2.8829,9.7618,9.7618,0,1,0,.047,19.5235Zm12.621-19.3711L308.301,22.41v3.0937l2.554-.7617V40h2.965V20.9336Zm13.395,19.3711a9.0034,9.0034,0,0,0,6.515-2.8359l-1.711-2.3907a7.0127,7.0127,0,0,1-4.898,2.25,6.7679,6.7679,0,0,1-.012-13.5351,7.0214,7.0214,0,0,1,4.899,2.2031l1.722-2.332a9.55,9.55,0,0,0-6.562-2.8829,9.7618,9.7618,0,1,0,.047,19.5235Zm12.621-19.3711L334.316,22.41v3.0937l2.555-.7617V40h2.965V20.9336Zm13.394,19.3711a9.004,9.004,0,0,0,6.516-2.8359l-1.711-2.3907a7.0165,7.0165,0,0,1-4.898,2.25,6.7679,6.7679,0,0,1-.012-13.5351,7.0191,7.0191,0,0,1,4.898,2.2031l1.723-2.332a9.552,9.552,0,0,0-6.563-2.8829,9.7618,9.7618,0,1,0,.047,19.5235Z" style="fill:#1c1c1c"/></svg>