<svg xmlns="http://www.w3.org/2000/svg" viewBox="0 0 672 541"><rect width="672" height="541" style="fill:#1c1c1c"/><path d="M67.203,108.363V82.3672H58.008V117H80.459v-8.637Zm42.561-5.285A12.6856,12.6856,0,0,0,96.766,90.3594a13.7516,13.7516,0,1,0-.022,27.5,14.1468,14.1468,0,0,0,11.365-5.285l-6.466-3.76a6.8786,6.8786,0,0,1-4.727,2.041,5.8243,5.8243,0,0,1-5.414-3.802h17.66v-.172A11.77,11.77,0,0,0,109.764,103.078ZM96.637,97.342c2.814,0,4.318,1.89,4.834,4.426H91.201A5.61,5.61,0,0,1,96.637,97.342Zm49.994-7.0256a10.5865,10.5865,0,0,0-8.938,4.3616c-1.74-3.3733-4.683-4.3616-7.713-4.3616a10.7444,10.7444,0,0,0-7.691,2.9434l-.301-2.041h-8.035V117h8.68V103.057c0-2.879,1.439-4.877,4.254-4.877,2.427,0,3.717,1.461,3.717,4.877V117h8.679V103.057c0-2.879,1.418-4.877,4.254-4.877,2.428,0,3.695,1.461,3.695,4.877V117h8.68V103.057C155.912,92.7656,151.379,90.3164,146.631,90.3164Zm27.994,27.5856c8.143,0,14.48-6.058,14.48-13.793s-6.337-13.7926-14.48-13.7926c-8.164,0-14.502,6.0586-14.502,13.7926S166.461,117.902,174.625,117.902Zm0-7.97a5.8331,5.8331,0,1,1,5.801-5.823A5.7592,5.7592,0,0,1,174.625,109.932Zm34.977-19.5082a11.1052,11.1052,0,0,0-7.907,3.0508l-.343-2.2558h-8.036V117h8.68V103.057c0-2.879,1.59-4.877,4.404-4.877,2.621,0,4.104,1.418,4.104,4.877V117h8.68V103.057C219.184,92.7441,214.414,90.4238,209.602,90.4238Zm61.294-.1074a10.5859,10.5859,0,0,0-8.937,4.3616c-1.74-3.3733-4.684-4.3616-7.713-4.3616a10.741,10.741,0,0,0-7.691,2.9434l-.301-2.041h-8.035V117h8.679V103.057c0-2.879,1.44-4.877,4.254-4.877,2.428,0,3.717,1.461,3.717,4.877V117h8.68V103.057c0-2.879,1.418-4.877,4.254-4.877,2.427,0,3.695,1.461,3.695,4.877V117h8.68V103.057C280.178,92.7656,275.645,90.3164,270.896,90.3164Zm19.723-1.4609a4.3845,4.3845,0,1,0-4.834-4.3614A4.5541,4.5541,0,0,0,290.619,88.8555ZM286.279,117h8.68V91.2188h-8.68Zm14.76,0h8.68V81.5508h-8.68Zm41.291,0L331.5,104.002l9.84-12.7832h-9.62l-7.736,10.3122v-19.98h-8.679V117h8.679v-9.904L332.23,117Zm17.32,0h9.19V106.795h3.89c7.26,0,13.09-5.607,13.09-12.289,0-6.7677-5.95-12.1388-13.09-12.1388H359.65Zm13.08-18.67-3.89-.021V90.8535h3.89c2.45,0,4.21,1.59,4.21,3.6955A3.8876,3.8876,0,0,1,372.73,98.33ZM418.99,117l-9.28-13.9a10.442,10.442,0,0,0,5.99-9.475c0-6.209-5.35-11.2578-12.82-11.2578H389.73L389.77,117h9.19V101.961L408.22,117ZM398.92,90.6387h3.76a3.49,3.49,0,1,1,0,6.9613l-3.76-.022Zm40.87,27.2423c10.78,0,19.03-7.842,19.03-18.154,0-10.3989-8.25-18.2836-19.01-18.2836-10.77,0-19.02,7.8847-19.02,18.2836C420.79,110.039,429.02,117.881,439.79,117.881Zm.02-8.787a9.4566,9.4566,0,1,1,9.71-9.432A9.4147,9.4147,0,0,1,439.81,109.094Zm55.45-11.602c1.42,0,3.78-2.556,3.78-6.1229,0-4.77-4.6-9.0019-10.87-9.0019H476.78V117h14.78c6.94,0,11.54-5.092,11.54-10.57C503.1,101.209,498.95,97.492,495.26,97.492Zm-3.93-4.4686c0,1.7836-1.51,2.7716-3.51,2.7716h-2.19V90.3594h2.26C489.87,90.3594,491.33,91.3477,491.33,93.0234Zm-1.16,15.62h-4.54v-6.575l4.6.022c2.6,0,4.06,1.224,4.06,3.244C494.29,107.611,492.27,108.643,490.17,108.643Zm29.75,9.259c8.14,0,14.48-6.058,14.48-13.793s-6.34-13.7926-14.48-13.7926c-8.16,0-14.5,6.0586-14.5,13.7926S511.76,117.902,519.92,117.902Zm0-7.97a5.8331,5.8331,0,1,1,5.8-5.823A5.7557,5.7557,0,0,1,519.92,109.932ZM538.61,117h8.68V81.5508h-8.68Zm33.65-35.4492V93.582a10.4252,10.4252,0,0,0-7.93-3.2441c-7.54,0-12.85,6.1231-12.85,13.7931,0,7.369,5.09,13.771,12.85,13.771a10.2926,10.2926,0,0,0,8.16-3.566L572.9,117h7.95V81.5508Zm-6,28.51a5.943,5.943,0,1,1,.03-11.881,5.7307,5.7307,0,0,1,5.97,5.886A5.8042,5.8042,0,0,1,566.26,110.061ZM81.941,217H92.018L75.904,181.938H71.543L55.451,217H65.506l1.762-4.039H80.201ZM70.168,206.236l3.566-8.207,3.545,8.207Zm43.785-8.744c1.418,0,3.781-2.556,3.781-6.123,0-4.769-4.597-9.002-10.871-9.002H95.477V217h14.781c6.939,0,11.537-5.092,11.537-10.57C121.795,201.209,117.648,197.492,113.953,197.492Zm-3.932-4.469c0,1.784-1.503,2.772-3.501,2.772h-2.192v-5.436h2.256C108.561,190.359,110.021,191.348,110.021,193.023Zm-1.16,15.62h-4.533v-6.575l4.598.022c2.599,0,4.06,1.224,4.06,3.244C112.986,207.611,110.967,208.643,108.861,208.643Zm34.268,9.13a19.0652,19.0652,0,0,0,12.976-5.091l-5.242-6.983a11.7033,11.7033,0,0,1-7.734,3.373,9.3517,9.3517,0,1,1,.193-18.691,11.7294,11.7294,0,0,1,7.498,3.201l5.285-6.789a20.0969,20.0969,0,0,0-12.804-5.242c-10.785,0-19.078,7.885-19.078,18.133C124.223,210.555,133.354,217.773,143.129,217.773Zm28.187-35.406-11.3.022V217h11.3c11.774,0,18.971-6.531,18.971-17.273C190.287,188.898,183.09,182.324,171.316,182.367Zm-.15,25.975h-2.191V190.961h2.105c6.209,0,9.99,3.309,9.99,8.744C181.07,205.076,177.311,208.342,171.166,208.342Zm46.105-17.424v-8.551H194.82V217h22.451v-8.615H203.908v-4.963h11v-7.67h-11v-4.834Zm27.586,0v-8.637H222.406v34.762h9.088V204.217h11v-7.692h-11v-5.607Zm38.522,6.187H265.611v6.854h7.928c-.129,3.309-3.115,5.328-7.305,5.328-6.402,0-10.291-4.726-10.291-9.582a9.725,9.725,0,0,1,9.69-9.582,11.1156,11.1156,0,0,1,7.262,2.965l5.091-6.983c-2.857-2.642-7.949-4.511-12.353-4.576-10.742,0-19.078,8.315-19.078,18.198s8.314,18.089,19.314,18.089c9.84,0,17.789-6.81,17.789-17.337A23.0315,23.0315,0,0,0,283.379,197.105Zm24.299-14.738v12.998H297.387V182.367h-9.196V217h9.196V203.959h10.291V217h9.174V182.367ZM322.867,217h9.193V182.367h-9.193Zm21.463.559h.26c8.27,0,14.84-6.038,14.84-13.879l-.15-21.291-9.21-.022.17,21.27a5.5643,5.5643,0,0,1-5.7,5.263h-.15a5.3371,5.3371,0,0,1-3.78-1.31l-4.64,7.584A14.51,14.51,0,0,0,344.33,217.559ZM394.24,217l-11.93-17.746,10.62-16.887H382.36l-8.04,12.912V182.367h-9.17V217h9.17V203.83L383.09,217Zm12.5-8.637V182.367h-9.19V217H420v-8.637Zm50.62-26.318-14.87,20.367-14.87-20.367h-3.69V217h9.19V203.271l9.35,13.149h.07l9.32-13.149V217h9.19V182.045Zm30.42.279v16.887l-17.74-17.188h-2.97v34.998h9.2V200.092l17.81,17.252H497v-35.02Zm32.74,35.557c10.79,0,19.04-7.842,19.04-18.154,0-10.399-8.25-18.284-19.02-18.284-10.76,0-19.01,7.885-19.01,18.284C501.53,210.039,509.76,217.881,520.52,217.881Zm.02-8.787a9.4567,9.4567,0,1,1,9.72-9.432A9.4147,9.4147,0,0,1,520.54,209.094ZM544.07,217h9.2V206.795h3.88c7.27,0,13.09-5.607,13.09-12.289,0-6.768-5.95-12.139-13.09-12.139H544.07Zm13.08-18.67-3.88-.021v-7.455h3.88c2.45,0,4.22,1.589,4.22,3.695A3.8966,3.8966,0,0,1,557.15,198.33Zm53.65,17.188a39.4367,39.4367,0,0,1-7.93-.967,17.685,17.685,0,0,0,7.8-14.824c0-10.399-8.25-18.284-19.01-18.284-10.77,0-19.02,7.885-19.02,18.284,0,10.312,8.23,18.154,19,18.154a20.7668,20.7668,0,0,0,2.6-.151,20.7319,20.7319,0,0,0,13.42,5.973Zm-28.85-15.856a9.7141,9.7141,0,1,1,9.71,9.432A9.4355,9.4355,0,0,1,581.95,199.662ZM87.27,282l-9.282-13.9a10.4369,10.4369,0,0,0,5.994-9.475c0-6.209-5.349-11.258-12.826-11.258H58.008L58.051,282h9.195V266.961L76.506,282ZM67.203,255.639h3.76a3.4894,3.4894,0,1,1,0,6.961l-3.76-.022Zm34.182,26.834c6.939,0,13.084-4.104,13.084-10.7,0-5.113-3.588-8.421-9.002-10.699-3.738-1.568-6.188-2.084-6.188-3.674,0-1.181,1.354-2.148,3.244-2.148,1.655,0,4.319.795,5.35,2.621l5.307-5.113c-1.354-3.416-5.479-5.908-10.764-5.908-6.574,0-12.268,4.275-12.268,10.269,0,5.221,3.76,8.1,8.143,9.99,3.395,1.504,6.939,3.073,6.939,4.856,0,1.418-1.912,2.127-3.867,2.127a8.44,8.44,0,0,1-7.025-3.416l-5.565,5.457C90.514,279.959,95.691,282.473,101.385,282.473Zm41.013-35.106H116.574v8.594h8.315V282h9.216V255.961h8.293Zm17.983,35.6c7.928,0,14.373-5.608,14.373-13.557V247.367h-9.26v22.022a4.9946,4.9946,0,0,1-5.135,4.791,4.9145,4.9145,0,0,1-5.091-4.791V247.367h-9.26V269.41C146.008,277.359,152.453,282.967,160.381,282.967Zm43.484-35.6-8.013,18.756-7.993-18.756h-9.947l15.899,34.998h4.168l15.962-34.998Zm22.58,34.848h2.514l8.035-17.123,8.1,17.123h2.535l11.559-34.848H249.24l-4.769,15.813-7.09-15.748h-.688l-7.089,15.791-4.792-15.856h-9.947ZM260.111,282h10.592l5.801-10.227L282.326,282h10.592l-11.022-18.004,10.442-16.629H281.811l-5.286,9.153-5.306-9.153H260.691l10.399,16.651Zm44.409,0h9.13V267.047l10.7-19.68H313.908L309.096,257.4l-4.834-10.033h-10.42l10.678,19.68Zm22.085,0H352.79v-8.637H341.11l11.68-25.996H326.605v8.594H338.31ZM77.816,336.219l-.386,2.621a10.4362,10.4362,0,0,0-8.186-3.524c-7.541,0-12.848,6.123-12.848,13.793,0,7.391,5.092,13.793,12.848,13.793a10.3025,10.3025,0,0,0,8.164-3.566L77.816,362h8.036V336.219Zm-6.638,18.82a5.9429,5.9429,0,1,1,.021-11.881,5.9407,5.9407,0,1,1-.021,11.881Zm36.888-19.701a10.5416,10.5416,0,0,0-7.949,3.244V326.551H91.438V362h8.035l.408-2.686a10.325,10.325,0,0,0,8.185,3.588c7.735,0,12.827-6.402,12.827-13.771C120.893,341.461,115.586,335.338,108.066,335.338Zm-1.933,19.723a5.807,5.807,0,0,1-6.016-5.995,5.7479,5.7479,0,0,1,5.994-5.886,5.9424,5.9424,0,1,1,.022,11.881Zm31.904,7.798a15.1763,15.1763,0,0,0,9.453-3.265l-4.34-5.865a6.9012,6.9012,0,0,1-4.576,1.675,6.3064,6.3064,0,0,1-.021-12.611,7.0408,7.0408,0,0,1,4.64,1.74l3.953-6.166a15.141,15.141,0,0,0-9.109-3.008c-7.455,0-14.351,5.436-14.351,13.75S130.582,362.859,138.037,362.859Zm31.818-36.308v12.031a10.4169,10.4169,0,0,0-7.927-3.244c-7.541,0-12.848,6.123-12.848,13.793,0,7.369,5.092,13.771,12.848,13.771a10.304,10.304,0,0,0,8.164-3.566L170.5,362h7.949V326.551Zm-5.994,28.51a5.9429,5.9429,0,1,1,.022-11.881,5.73,5.73,0,0,1,5.972,5.886A5.8017,5.8017,0,0,1,163.861,355.061Zm45.762-6.983a12.6853,12.6853,0,0,0-12.998-12.719,13.7518,13.7518,0,1,0-.021,27.5,14.1468,14.1468,0,0,0,11.365-5.285l-6.467-3.76a6.8769,6.8769,0,0,1-4.727,2.041,5.8263,5.8263,0,0,1-5.414-3.802h17.66v-.172A11.7429,11.7429,0,0,0,209.623,348.078Zm-13.127-5.736c2.815,0,4.318,1.89,4.834,4.426H191.061A5.61,5.61,0,0,1,196.496,342.342Zm30.164-9.518a7.9845,7.9845,0,0,1,2.707.58v-6.746a19.1894,19.1894,0,0,0-5.779-.967c-5.736,0-8.422,4.491-8.422,9.625v.903h-3.309v7.691h3.309V362h8.68V343.91h5.521v-7.691h-5.521v-.903A2.5351,2.5351,0,0,1,226.66,332.824Zm26.383,3.395-.387,2.621a10.4326,10.4326,0,0,0-8.185-3.524c-7.541,0-12.848,6.123-12.848,13.793,0,7.391,5.092,13.793,12.848,13.793a10.39,10.39,0,0,0,7.927-3.287c-.193,3.717-3.416,5.865-7.863,5.865-2.621,0-5.607-.794-6.553-1.697l-4.576,5.393a18.6966,18.6966,0,0,0,11.559,3.781c10.312,0,16.027-5.994,16.113-13.535V336.219Zm-6.639,18.82a5.9429,5.9429,0,1,1,.022-11.881,5.7432,5.7432,0,0,1,5.972,5.887A5.8014,5.8014,0,0,1,246.404,355.039Zm36.545-19.615a11.1929,11.1929,0,0,0-7.605,2.75V326.551h-8.68V362h8.68V348.057c0-2.879,1.59-4.877,4.404-4.877,2.621,0,4.104,1.418,4.104,4.877V362h8.679V348.057C292.531,337.744,287.762,335.424,282.949,335.424Zm20.002-1.569a4.3841,4.3841,0,1,0-4.834-4.361A4.5539,4.5539,0,0,0,302.951,333.855ZM298.611,362h8.68V336.219h-8.68Zm19.229-28.145a4.3841,4.3841,0,1,0-4.834-4.361A4.5545,4.5545,0,0,0,317.84,333.855Zm-4.383,38.565c6.273,0,8.744-4.447,8.744-9.518V336.219h-8.68v26.683c0,.774-.472,2.385-2.814,2.385a6.32,6.32,0,0,1-2.385-.494v6.768A15.9489,15.9489,0,0,0,313.457,372.42ZM355.31,362l-10.83-12.998,9.84-12.783H344.7l-7.74,10.312v-19.98h-8.68V362h8.68v-9.904L345.21,362Zm3.65,0h8.68V326.551h-8.68Zm46.94-26.684a10.579,10.579,0,0,0-8.93,4.362c-1.74-3.373-4.69-4.362-7.72-4.362a10.7445,10.7445,0,0,0-7.69,2.944l-.3-2.041h-8.03V362h8.68V348.057c0-2.879,1.44-4.877,4.25-4.877,2.43,0,3.72,1.461,3.72,4.877V362h8.68V348.057c0-2.879,1.41-4.877,4.25-4.877,2.43,0,3.7,1.461,3.7,4.877V362h8.68V348.057C415.19,337.766,410.65,335.316,405.9,335.316Zm31.18.108a11.1129,11.1129,0,0,0-7.91,3.051l-.34-2.256h-8.04V362h8.68V348.057c0-2.879,1.59-4.877,4.41-4.877,2.62,0,4.1,1.418,4.1,4.877V362h8.68V348.057C446.66,337.744,441.89,335.424,437.08,335.424Zm28.27,27.478c8.14,0,14.48-6.058,14.48-13.793s-6.34-13.793-14.48-13.793c-8.16,0-14.5,6.059-14.5,13.793S457.19,362.902,465.35,362.902Zm0-7.97a5.8331,5.8331,0,1,1,5.8-5.823A5.7558,5.7558,0,0,1,465.35,354.932Zm35.24-19.594a10.4589,10.4589,0,0,0-8.21,3.523l-.39-2.642h-7.95v35.449h8.6V359.594a10.3337,10.3337,0,0,0,7.95,3.308c7.73,0,12.82-6.402,12.82-13.771C513.41,341.461,508.11,335.338,500.59,335.338Zm-1.94,19.723a5.9408,5.9408,0,1,1-.02-11.881,5.9423,5.9423,0,1,1,.02,11.881Zm38.97-18.842-.38,2.642a10.4457,10.4457,0,0,0-8.19-3.523c-7.54,0-12.84,6.123-12.84,13.793,0,7.369,5.09,13.771,12.84,13.771a10.3938,10.3938,0,0,0,7.93-3.287v12.053h8.59V336.219Zm-6.63,18.842a5.9431,5.9431,0,1,1,.02-11.881,5.7307,5.7307,0,0,1,5.97,5.886A5.8018,5.8018,0,0,1,530.99,355.061Zm28.66-15.77-.45-3.072h-8.04V362h8.68V351.602c0-6.897,3.65-7.971,6.23-7.971a7.9857,7.9857,0,0,1,1.44.129l1.33-8.658A12.3638,12.3638,0,0,0,559.65,339.291Zm21.05,23.654c6.77,0,11.77-3.416,11.77-8.916,0-4.017-2.77-6.123-7.75-7.949-4-1.332-5.33-1.783-5.33-2.685,0-.817.95-1.075,2.19-1.075a7.62,7.62,0,0,1,5.14,1.934l4.38-4.813c-1.35-2.47-5.35-4.146-9.26-4.146-5.39,0-10.61,3.029-10.61,8.637,0,3.974,3.26,6.595,7.71,8.013,2.6.946,4.83,1.612,4.83,2.686,0,.945-1.24,1.203-2.36,1.203-3.01,0-6.1-1.504-7.24-2.943l-3.82,5.199C571.74,360.84,575.89,362.945,580.7,362.945Zm25.93-.515a18.015,18.015,0,0,0,5.57-.881v-6.51a10.2228,10.2228,0,0,1-2.62.516,2.3971,2.3971,0,0,1-2.58-2.664v-9.002h5.26v-7.67H607v-5.436h-7.82v2.557a3.29,3.29,0,0,1-3.65,3.588h-.82v6.961h3.61v9.431C598.32,358.133,600.29,362.43,606.63,362.43ZM70.211,427.322c7.477,0,12.633-5.263,12.611-12.396l-.043-13.707H74.1l.021,13.685c0,2.901-1.525,4.748-3.932,4.748-2.298,0-3.695-1.847-3.695-4.748l-.021-13.685h-8.68l.043,13.707C57.836,422.059,62.777,427.322,70.211,427.322Zm34.396-26.103L100.375,413.1l-4.318-11.881H86.475l11.752,26.426h4.361l11.795-26.426Zm20.862,26.211h3.717l5.714-11.795,5.909,11.795h3.738l9.367-26.211h-9.41l-3.309,11.988-5.908-11.945h-.558l-5.93,11.967-3.33-12.01H116.08Zm30.142-.43h10.098l4.426-6.982L174.689,427h9.969l-9.367-13.621,8.766-12.16H174.002l-3.846,5.994-3.867-5.994H156.234l8.723,12.181Zm51.627-25.781-6.295,14.136-4.963-14.136h-9.646l10.42,23.525-5.328,11.924h9.023l16.156-35.449ZM218.861,427h22.795v-7.67h-9.968l9.753-18.111H219.549v7.67h9.066ZM66.387,472.152l-9.883,2.6v9.045l3.373-.817V507h9.195V472.152Zm37.468,26.405c5.694-3.159,10.571-8.616,10.571-14.287,0-6.811-5.951-12.633-13.321-12.633S87.85,477.223,87.85,483.496l7.476,2.471a5.7934,5.7934,0,0,1,5.758-5.651,4.2354,4.2354,0,0,1,4.104,4.319c0,3.222-4.985,8.013-18.133,19.035V507h27.779v-8.443Zm46.75-11.28a7.281,7.281,0,0,0,3.932-6.703c0-5.328-4.769-9.303-10.828-9.303a11.1544,11.1544,0,0,0-11.15,8.745l7.648,1.675a3.0948,3.0948,0,0,1,2.879-2.255,2.5075,2.5075,0,0,1,2.535,2.621c0,2.019-1.955,3.716-5.264,3.716l-1.052,4.082c5.263.043,7.863,2.557,7.863,5.307a3.62,3.62,0,0,1-3.781,3.781,4.5811,4.5811,0,0,1-4.426-2.986l-7.649,1.826c.817,5.221,6.102,9.754,12.59,9.754,6.768,0,12.569-4.598,12.569-11.215A9.5991,9.5991,0,0,0,150.605,487.277Zm52.293,5.457h-3.373v-7.562h-9.173v7.562h-5.629l8.142-20.517-9.281-.043-11.688,28.789h18.456V507h9.173v-6.037h3.373Zm30.852-9.453a10.2081,10.2081,0,0,0-4.705,1.031l.559-3.759h12.525v-8.207H223.137l-2.686,18.326,4.147,2.256c1.353-1.375,4.103-2.17,6.295-2.17,2.771,0,4.812,1.31,4.812,4.06,0,2.879-2.148,4.276-4.619,4.276a5.9662,5.9662,0,0,1-4.834-2.621l-7.498,3.308a13.9737,13.9737,0,0,0,12.934,7.756c7.712,0,13.578-4.984,13.578-12.482C245.266,488.416,240.668,483.281,233.75,483.281Zm43.42,1.59a7.8941,7.8941,0,0,0-1.225.086l7.627-12.547-10.484-.043c-10.527,17.166-11.365,20.367-11.365,23.354,0,8.013,5.994,11.945,12.998,11.945,7.627,0,13.191-5.629,13.191-12.074A10.739,10.739,0,0,0,277.17,484.871Zm-2.32,14.373a3.8126,3.8126,0,0,1-3.889-3.91,3.9224,3.9224,0,1,1,7.842-.022A3.8973,3.8973,0,0,1,274.85,499.244Zm28.939-26.877v8.444h12.633L306.432,507h9.625l13.193-33.043v-1.59Zm54.121,35.342c7.97,0,13.28-4.813,13.28-11.172a9.2675,9.2675,0,0,0-6.6-9.109,6.9876,6.9876,0,0,0,4.7-6.574c0-4.856-4.68-9.217-11.36-9.217-6.53,0-11.3,4.254-11.3,9.259,0,3.739,2.62,6.145,4.49,6.532-2.39.472-6.47,3.48-6.47,9.066C344.65,502.961,350.07,507.709,357.91,507.709Zm.04-22.773a2.9481,2.9481,0,0,1-3.03-2.965,3.0558,3.0558,0,0,1,6.1.021A2.9464,2.9464,0,0,1,357.95,484.936Zm-.04,14.502a4.0742,4.0742,0,0,1-4.26-3.975,4.2611,4.2611,0,0,1,4.28-4.19,4.2183,4.2183,0,0,1,4.28,4.125A4.15,4.15,0,0,1,357.91,499.438Zm42.86-27.844c-7.39,0-13.11,5.564-13.11,12.31,0,5.823,5.01,11.129,10.79,11.129.26,0,.49-.021.75-.043l-7.22,11.967h10.55c10.51-17.746,11.32-18.949,11.32-22.945C413.85,477.201,408.2,471.594,400.77,471.594Zm-.02,16.371a3.9365,3.9365,0,0,1-3.91-3.91,3.8751,3.8751,0,0,1,3.91-4.039,3.975,3.975,0,0,1,0,7.949Zm44.96,19.744c9.31,0,15.24-7.154,15.24-18.047,0-10.871-5.93-18.025-15.24-18.025-9.38,0-15.38,7.154-15.38,18.047C430.33,500.555,436.33,507.709,445.71,507.709Zm-.06-8.766c-3.78,0-6.14-3.716-6.14-9.281,0-5.586,2.36-9.303,6.12-9.303s6.1,3.739,6.1,9.346C451.73,495.248,449.39,498.943,445.65,498.943Z" style="fill:#f3f3f3"/><path d="M302.082,28.6914l.293-2.2383h-2.988l.703-5.3437h-2.402l-.704,5.3437h-4.453l.703-5.3437h-2.402l-.703,5.3437h-3.094l-.316,2.2383h3.117l-.574,4.3945h-3.071l-.293,2.2383h3.059L288.348,40h2.402l.609-4.6758h4.453L295.203,40h2.402l.61-4.6758h3.023l.317-2.2383H298.52l.574-4.3945Zm-5.965,4.3945h-4.453l.574-4.3945h4.453Zm19.981-9.07V21.0625h-11.25V40.0234h2.964V32.02h7.149V29.0664h-7.149V24.0156Zm10.804,5.4492a4.0339,4.0339,0,0,0,2.478-3.832,5.2514,5.2514,0,0,0-5.489-5.0625,5.5908,5.5908,0,0,0-5.461,4.2422l3.035.6328a2.4375,2.4375,0,0,1,2.402-1.9687,2.4093,2.4093,0,0,1,2.531,2.3789c0,1.7812-1.957,2.8359-4.148,2.8359l-.469,1.7344c3.258-.0235,5.578,1.43,5.578,3.7265a3.2866,3.2866,0,0,1-3.445,3.0938,3.5076,3.5076,0,0,1-3.445-2.4844l-2.907.7383a6.6231,6.6231,0,0,0,6.422,4.6758,6.1394,6.1394,0,0,0,6.366-5.8125A4.9456,4.9456,0,0,0,326.902,29.4648Zm17.438-5.4492V21.0625H333.09V40.0234h2.96V32.02h7.15V29.0664h-7.15V24.0156Zm10.8,5.4492a4.0325,4.0325,0,0,0,2.48-3.832,5.2486,5.2486,0,0,0-5.49-5.0625,5.5966,5.5966,0,0,0-5.46,4.2422l3.04.6328a2.4943,2.4943,0,0,1,4.93.41c0,1.7812-1.96,2.8359-4.15,2.8359l-.47,1.7344c3.26-.0235,5.58,1.43,5.58,3.7265a3.2845,3.2845,0,0,1-3.44,3.0938,3.512,3.512,0,0,1-3.45-2.4844L345.8,35.5a6.6359,6.6359,0,0,0,6.43,4.6758,6.1371,6.1371,0,0,0,6.36-5.8125A4.9449,4.9449,0,0,0,355.14,29.4648Zm17.44-5.4492V21.0625H361.33V40.0234h2.97V32.02h7.15V29.0664H364.3V24.0156Zm10.81,5.4492a4.0249,4.0249,0,0,0,2.47-3.832,5.2458,5.2458,0,0,0-5.48-5.0625,5.6,5.6,0,0,0-5.47,4.2422l3.04.6328a2.4346,2.4346,0,0,1,2.4-1.9687,2.4055,2.4055,0,0,1,2.53,2.3789c0,1.7812-1.95,2.8359-4.15,2.8359l-.46,1.7344c3.25-.0235,5.57,1.43,5.57,3.7265a3.2845,3.2845,0,0,1-3.44,3.0938,3.512,3.512,0,0,1-3.45-2.4844l-2.9.7383a6.6141,6.6141,0,0,0,6.42,4.6758,6.1371,6.1371,0,0,0,6.36-5.8125A4.9487,4.9487,0,0,0,383.39,29.4648Z" style="fill:#f3f3f3"/></svg>