<svg xmlns="http://www.w3.org/2000/svg" viewBox="0 0 182.21 470.7"><defs><style>.cls-1{fill:#1d1d1b;}.cls-2{fill:#12100b;}</style></defs><title>forme alfabetoRisorsa 2</title><g id="Livello_2" data-name="Livello 2"><g id="Livello_1-2" data-name="Livello 1"><path class="cls-1" d="M47.44.7h0A3.07,3.07,0,0,1,50.5,3.77a3.07,3.07,0,0,0,3.07,3.07,3.07,3.07,0,0,1,0,6.13A3.06,3.06,0,0,0,50.5,16h0a3.07,3.07,0,1,1-6.13,0A3.06,3.06,0,0,0,41.3,13,3.06,3.06,0,0,1,38.24,9.9h0A3.06,3.06,0,0,1,41.3,6.84h0a3.07,3.07,0,0,0,3.07-3.07h0A3.07,3.07,0,0,1,47.44.7" transform="translate(-1.41 -0.7)"/><path class="cls-1" d="M39.83,215a5.37,5.37,0,1,0,7.6,7.6L55,215a5.38,5.38,0,1,0-7.61-7.6l-7.6,7.6" transform="translate(-1.41 -0.7)"/><path class="cls-1" d="M48.75,134.1c10.51,10.51-13.14,10.51-2.63,0-10.51,10.51-10.51-13.14,0-2.63-10.51-10.51,13.14-10.51,2.63,0,10.51-10.51,10.51,13.14,0,2.63" transform="translate(-1.41 -0.7)"/><path class="cls-1" d="M55.29,91.68c3.92,6.5-1.35,11.77-7.85,7.85-6.51,3.92-11.78-1.35-7.86-7.85-3.92-6.51,1.35-11.78,7.86-7.86,6.5-3.92,11.77,1.35,7.85,7.86" transform="translate(-1.41 -0.7)"/><path class="cls-1" d="M55.34,295.56h0a3.75,3.75,0,1,1,0-5.31,3.75,3.75,0,0,1,0,5.31" transform="translate(-1.41 -0.7)"/><path class="cls-1" d="M44.83,295.56h0a3.75,3.75,0,1,1,0-5.31,3.75,3.75,0,0,1,0,5.31" transform="translate(-1.41 -0.7)"/><path class="cls-1" d="M55.34,306.17h0a3.75,3.75,0,1,1,0-5.31,3.74,3.74,0,0,1,0,5.31" transform="translate(-1.41 -0.7)"/><path class="cls-1" d="M44.83,306.17h0a3.75,3.75,0,1,1,0-5.31,3.74,3.74,0,0,1,0,5.31" transform="translate(-1.41 -0.7)"/><path class="cls-1" d="M51.92,46.3h0a4.49,4.49,0,1,0-9,0,4.49,4.49,0,1,0,0,9,4.49,4.49,0,1,0,9,0,4.49,4.49,0,0,0,0-9" transform="translate(-1.41 -0.7)"/><polygon class="cls-1" points="169.72 411.12 175.94 411.12 175.94 417.34 182.16 417.34 182.16 423.56 175.94 423.56 175.94 429.77 169.72 429.77 169.72 423.56 163.51 423.56 163.51 417.34 169.72 417.34 169.72 411.12"/><polygon class="cls-1" points="182.16 376.41 172.84 370.19 163.51 376.41 168.17 379.52 163.51 382.63 172.84 388.85 182.16 382.63 177.5 379.52 182.16 376.41"/><polygon class="cls-1" points="46.03 429.45 42.92 423.23 36.7 420.12 42.92 417.01 46.03 410.8 49.14 417.01 55.36 420.12 49.14 423.23 46.03 429.45"/><polygon class="cls-1" points="163.51 329.27 172.84 332.38 182.16 329.27 179.05 338.6 182.16 347.93 172.84 344.82 163.51 347.93 166.62 338.6 163.51 329.27"/><polygon class="cls-1" points="55.36 461.37 52.25 464.48 52.25 467.59 49.14 467.59 46.03 470.7 42.92 467.59 39.81 467.59 39.81 464.48 36.7 461.37 39.81 458.26 39.81 455.15 42.91 455.16 46.03 452.04 49.14 455.15 52.25 455.15 52.25 458.26 55.36 461.37"/><rect class="cls-1" x="163.51" y="288.35" width="9.33" height="9.33"/><rect class="cls-1" x="172.83" y="297.67" width="9.33" height="9.33"/><rect class="cls-1" x="175.58" y="249.31" width="6.66" height="6.66" transform="translate(-127.66 199.82) rotate(-45)"/><rect class="cls-1" x="166.24" y="249.31" width="6.66" height="6.66" transform="translate(-130.39 193.22) rotate(-45)"/><rect class="cls-1" x="175.58" y="258.74" width="6.66" height="6.66" transform="translate(-134.32 202.56) rotate(-45)"/><rect class="cls-1" x="166.24" y="258.74" width="6.66" height="6.66" transform="translate(-137.05 195.96) rotate(-45)"/><path class="cls-2" d="M38.53,347.66v-8.9a8.91,8.91,0,0,1,17.81,0v8.9Z" transform="translate(-1.41 -0.7)"/><path d="M19.54,12.13c0,3.26-2.23,6.27-5.74,6.27a4.8,4.8,0,0,1-4.06-2L9.62,18H7.4V1.78H9.77V7.84a4.78,4.78,0,0,1,4-2C17.08,5.84,19.54,8.61,19.54,12.13Zm-2.37,0a3.79,3.79,0,0,0-3.75-3.89,3.69,3.69,0,0,0-3.65,3.9A3.67,3.67,0,0,0,13.41,16,3.79,3.79,0,0,0,17.17,12.1Z" transform="translate(-1.41 -0.7)"/><path d="M145.64,93.53c0,3.26-2.23,6.27-5.75,6.27a4.78,4.78,0,0,1-4-2v6h-2.31V87.61h2.16l.13,1.66a4.8,4.8,0,0,1,4-2C143.18,87.24,145.64,90,145.64,93.53Zm-2.37,0a3.79,3.79,0,0,0-3.75-3.89,3.91,3.91,0,0,0,0,7.81A3.79,3.79,0,0,0,143.27,93.5Z" transform="translate(-1.41 -0.7)"/><path d="M145.92,128.31l-7,16.24h-2.48l2.24-5.19L134,128.31h2.56l3.26,8.41,3.62-8.41Z" transform="translate(-1.41 -0.7)"/><path d="M136.65,56.71,138,55.16a3.72,3.72,0,0,0,3.16,1.63c1,0,2.1-.41,2.1-1.35s-1.31-1.34-2.81-2c-1.26-.53-3.24-1.42-3.24-3.51s1.93-3.44,4.12-3.44a4.27,4.27,0,0,1,3.92,2.17l-1.63,1.36a2.77,2.77,0,0,0-2.37-1.22c-.92,0-1.67.44-1.67,1.12,0,.85,1.09,1.21,2.55,1.82,2.05.89,3.5,1.74,3.5,3.56,0,2.29-2.17,3.78-4.56,3.78A4.94,4.94,0,0,1,136.65,56.71Z" transform="translate(-1.41 -0.7)"/><path d="M9.44,52.87A6.3,6.3,0,0,1,19.67,48l-1.33,2a3.93,3.93,0,1,0-2.62,6.87,4,4,0,0,0,2.66-1l1.44,1.89a6.3,6.3,0,0,1-10.38-4.8Z" transform="translate(-1.41 -0.7)"/><path d="M16.36,248.85h2.37v16.24H16.36Z" transform="translate(-1.41 -0.7)"/><path d="M144.94,11.63V18h-2.37V11.63c0-2.51-1-3.43-2.71-3.43S137,9.33,137,11.63V18h-2.37V6.21h2.22L137,7.58a4.52,4.52,0,0,1,3.65-1.67C143,5.91,144.94,7.15,144.94,11.63Z" transform="translate(-1.41 -0.7)"/><path d="M13.51,226.15V224a2.7,2.7,0,0,0,1.16.25c1.25,0,1.59-.95,1.59-1.86V210h2.37v12.36c0,2.57-1,4.11-3.3,4.11A5.83,5.83,0,0,1,13.51,226.15ZM16,206.89a1.41,1.41,0,1,1,1.41,1.41A1.41,1.41,0,0,1,16,206.89Z" transform="translate(-1.41 -0.7)"/><path d="M18.73,299.47v6.32H16.36v-6.32c0-2.54-.82-3.49-2.4-3.49s-2.71,1.08-2.71,3.37v6.44H8.88v-6.44c0-2.47-.84-3.37-2.39-3.37-1.8,0-2.71,1.18-2.71,3.49v6.32H1.41V294H3.63l.1,1.28a4.24,4.24,0,0,1,3.51-1.66,3.45,3.45,0,0,1,3.5,2.38,4.31,4.31,0,0,1,4-2.38C16.93,293.6,18.73,294.92,18.73,299.47Z" transform="translate(-1.41 -0.7)"/><path d="M18.85,83.29V99.53H16.68l-.13-1.65a4.76,4.76,0,0,1-4,2c-3.52,0-5.76-3-5.76-6.27,0-3.52,2.47-6.29,5.77-6.29a4.79,4.79,0,0,1,4,2V83.29ZM16.53,93.62a3.69,3.69,0,0,0-3.65-3.9,3.91,3.91,0,0,0,0,7.81A3.66,3.66,0,0,0,16.53,93.62Z" transform="translate(-1.41 -0.7)"/><path d="M16.86,127.92v.55h3v2.3h-3v9.51H14.49v-9.51H12.75v-2.3h1.74v-.55c0-2.56,1-4.17,3.26-4.17a6.78,6.78,0,0,1,2.07.36v2.19a3.6,3.6,0,0,0-1.38-.32C17.15,126,16.86,127.08,16.86,127.92Z" transform="translate(-1.41 -0.7)"/><path d="M18.85,169.23V180a5.79,5.79,0,0,1-6.15,5.82,6.62,6.62,0,0,1-5.19-2.06l1.81-1.5a4.44,4.44,0,0,0,3.38,1.19A3.52,3.52,0,0,0,16.47,180v-.61a4.75,4.75,0,0,1-4,2c-3.52,0-5.76-3-5.76-6.27,0-3.52,2.47-6.29,5.77-6.29a4.76,4.76,0,0,1,4,2l.13-1.66Zm-2.38,5.89a3.68,3.68,0,0,0-3.65-3.89,3.9,3.9,0,0,0,0,7.8A3.66,3.66,0,0,0,16.47,175.12Z" transform="translate(-1.41 -0.7)"/><path d="M143.83,346.47l-5-5.86v5.86h-2.38V330.16h2.38v10.11l4.5-5.67h2.76l-4.58,5.73,5.29,6.14Z" transform="translate(-1.41 -0.7)"/><path d="M145.87,209.38l-.39,2.61h-.35c-1.71,0-3.73.91-3.73,4.63v5.11H139V209.85h2.24l.14,1.86A5.3,5.3,0,0,1,145.87,209.38Z" transform="translate(-1.41 -0.7)"/><path d="M141.52,424.19v-5.72h-1.58v-2.16h.39a1.27,1.27,0,0,0,1.35-1.45v-1h2.22v2.3h2.84v2.32H143.9v5.72c0,1.09.44,1.74,1.42,1.74a5.76,5.76,0,0,0,1.44-.28v2.22a8.24,8.24,0,0,1-2.21.34C142.59,428.21,141.52,426.8,141.52,424.19Z" transform="translate(-1.41 -0.7)"/><path d="M19.7,416.11l-5.65,12.26h-.11L8.31,416.11H11l3,7,3-7Z" transform="translate(-1.41 -0.7)"/><path d="M3.87,456.92H6.43l2.32,7.23,3-7.21h.06l3,7.2,2.33-7.22H19.7l-4.39,12.26H15l-3.26-7.34-3.23,7.34H8.26Z" transform="translate(-1.41 -0.7)"/><path d="M12.78,381,8.93,375.3h2.75L14.17,379l2.48-3.73h2.74L15.54,381l4.17,6.21H17L14.16,383l-2.78,4.19H8.63Z" transform="translate(-1.41 -0.7)"/><path d="M96,456.92l-5.65,12.26h-.12L84.6,456.92h2.65l3,7,3-7Z" transform="translate(-1.41 -0.7)"/><path d="M97.12,462.86a6.31,6.31,0,1,1,6.32,6.3A6.32,6.32,0,0,1,97.12,462.86Zm10.22,0a3.92,3.92,0,1,0-3.9,3.91A3.92,3.92,0,0,0,107.34,462.86Z" transform="translate(-1.41 -0.7)"/><path d="M111.15,462.86a6.33,6.33,0,0,1,10.28-4.95l-1.33,2a4,4,0,0,0-6.57,3,3.92,3.92,0,0,0,3.93,3.94,4.06,4.06,0,0,0,2.68-1l1.44,1.9a6.34,6.34,0,0,1-10.43-4.82Z" transform="translate(-1.41 -0.7)"/><path d="M134.92,456.92v11.87h-2.23l-.13-1.66a4.8,4.8,0,0,1-4.06,2c-3.53,0-5.79-3-5.79-6.29,0-3.54,2.49-6.32,5.8-6.32a4.79,4.79,0,0,1,4.05,2l.13-1.67Zm-2.38,5.93a3.7,3.7,0,0,0-3.67-3.92,3.92,3.92,0,0,0,0,7.84A3.68,3.68,0,0,0,132.54,462.85Z" transform="translate(-1.41 -0.7)"/><path d="M137.75,452.47h2.38v16.32h-2.38Z" transform="translate(-1.41 -0.7)"/><path d="M143,453.82a1.42,1.42,0,1,1,2.83,0,1.42,1.42,0,0,1-2.83,0Zm.22,3.1h2.38v11.87h-2.38Z" transform="translate(-1.41 -0.7)"/><path d="M141.64,171.36h-5.16V169h9.05l-5.45,9.54h5.55v2.33h-9.44Z" transform="translate(-1.41 -0.7)"/><path d="M145.78,375.38v16.31h-2.32v-6.07a4.79,4.79,0,0,1-4.05,2c-3.53,0-5.78-3-5.78-6.3,0-3.54,2.48-6.32,5.79-6.32a4.76,4.76,0,0,1,4.05,2.05l.13-1.68Zm-2.32,5.93a3.72,3.72,0,0,0-3.67-3.92,3.93,3.93,0,0,0,0,7.85A3.69,3.69,0,0,0,143.46,381.31Z" transform="translate(-1.41 -0.7)"/><path d="M108.7,293.83v10.85a5.81,5.81,0,0,1-6.17,5.84,6.67,6.67,0,0,1-5.22-2.06l1.82-1.52a4.48,4.48,0,0,0,3.4,1.2,3.53,3.53,0,0,0,3.79-3.46v-.61a4.81,4.81,0,0,1-4,2c-3.53,0-5.78-3-5.78-6.3,0-3.54,2.48-6.31,5.79-6.31a4.81,4.81,0,0,1,4.06,2l.12-1.67Zm-2.38,5.92a3.7,3.7,0,0,0-3.67-3.91,3.92,3.92,0,0,0,0,7.84A3.69,3.69,0,0,0,106.32,299.75Z" transform="translate(-1.41 -0.7)"/><path d="M117.23,288.58h2.22l-6.91,19.76h-2.2Z" transform="translate(-1.41 -0.7)"/><path d="M132.59,293.83v10.85a5.81,5.81,0,0,1-6.17,5.84,6.69,6.69,0,0,1-5.22-2.06l1.82-1.52a4.48,4.48,0,0,0,3.4,1.2,3.53,3.53,0,0,0,3.79-3.46v-.61a4.81,4.81,0,0,1-4.05,2c-3.53,0-5.78-3-5.78-6.3,0-3.54,2.48-6.31,5.79-6.31a4.81,4.81,0,0,1,4.06,2l.13-1.67Zm-2.38,5.92a3.7,3.7,0,0,0-3.67-3.91,3.92,3.92,0,0,0,0,7.84A3.68,3.68,0,0,0,130.21,299.75Z" transform="translate(-1.41 -0.7)"/><path d="M145.78,299.28v6.42H143.4v-6.42c0-2.52-1-3.44-2.73-3.44s-2.87,1.14-2.87,3.44v6.42h-2.38V289.38h2.38v5.79a4.52,4.52,0,0,1,3.63-1.63C143.77,293.54,145.78,294.78,145.78,299.28Z" transform="translate(-1.41 -0.7)"/><path d="M102,259a6.32,6.32,0,0,1,10.28-4.94L111,256a3.95,3.95,0,1,0-2.64,6.9,4.06,4.06,0,0,0,2.68-1l1.44,1.9A6.34,6.34,0,0,1,102,259Z" transform="translate(-1.41 -0.7)"/><path d="M120,247.81h2.22l-6.91,19.75h-2.2Z" transform="translate(-1.41 -0.7)"/><path d="M123.14,259a6.32,6.32,0,0,1,10.28-4.94l-1.33,2a3.95,3.95,0,1,0-2.64,6.9,4,4,0,0,0,2.68-1l1.44,1.9A6.34,6.34,0,0,1,123.14,259Z" transform="translate(-1.41 -0.7)"/><path d="M145.78,258.51v6.41H143.4v-6.41c0-2.52-1-3.44-2.73-3.44s-2.87,1.13-2.87,3.44v6.41h-2.38V248.61h2.38v5.78a4.55,4.55,0,0,1,3.63-1.63C143.77,252.76,145.78,254,145.78,258.51Z" transform="translate(-1.41 -0.7)"/><path d="M18.74,340.05v6.35H16.38v-6.35c0-2.5-1-3.41-2.71-3.41s-2.84,1.12-2.84,3.41v6.35H8.47V330.24h2.36V336a4.48,4.48,0,0,1,3.59-1.62C16.75,334.35,18.74,335.59,18.74,340.05Z" transform="translate(-1.41 -0.7)"/><path d="M47.44,251.22c0,1.7-1.38,6.14-3.07,6.14s-3.07-4.44-3.07-6.14a3.07,3.07,0,0,1,6.14,0Z" transform="translate(-1.41 -0.7)"/><path d="M56.64,254.29a3.08,3.08,0,0,1-3.07,3.07c-1.69,0-6.13-1.38-6.13-3.07s4.44-3.07,6.13-3.07A3.08,3.08,0,0,1,56.64,254.29Z" transform="translate(-1.41 -0.7)"/><path d="M53.57,263.49a3.07,3.07,0,1,1-6.13,0c0-1.69,1.37-6.13,3.06-6.13S53.57,261.8,53.57,263.49Z" transform="translate(-1.41 -0.7)"/><path d="M47.44,260.42c0,1.7-4.44,3.07-6.14,3.07a3.07,3.07,0,1,1,0-6.13C43,257.36,47.44,258.73,47.44,260.42Z" transform="translate(-1.41 -0.7)"/><polygon class="cls-2" points="163.46 182.3 182.12 182.3 175.9 172.97 182.12 163.64 163.46 163.64 169.68 172.97 163.46 182.3"/><rect class="cls-2" x="40.84" y="372.98" width="13.19" height="13.19" transform="translate(-255.92 144.01) rotate(-45)"/><path class="cls-1" d="M38.94,172.2l1-1a2.35,2.35,0,0,0,.7-1.68v0A2.39,2.39,0,0,1,43,167.1h0a2.39,2.39,0,0,0,1.69-.7l1-1a2.38,2.38,0,0,1,3.37,0l1,1a2.39,2.39,0,0,0,1.69.7h0a2.39,2.39,0,0,1,2.39,2.39v0a2.35,2.35,0,0,0,.7,1.68l1,1a2.38,2.38,0,0,1,0,3.38l-1,1a2.35,2.35,0,0,0-.7,1.68v0a2.38,2.38,0,0,1-2.4,2.38h0a2.39,2.39,0,0,0-1.69.7l-1,1a2.38,2.38,0,0,1-3.37,0l-1-1a2.39,2.39,0,0,0-1.69-.7h0a2.39,2.39,0,0,1-2.39-2.39v0a2.38,2.38,0,0,0-.69-1.68l-1-1A2.38,2.38,0,0,1,38.94,172.2Z" transform="translate(-1.41 -0.7)"/><path class="cls-1" d="M169.17,12c-3.8,4.1-1.15,6.74,3,2.94.21,5.57,3.94,5.57,4.15,0,4.09,3.78,6.73,1.13,2.93-3,5.59-.2,5.59-4,0-4.16,3.78-4.08,1.14-6.72-2.94-2.94-.22-5.57-4-5.57-4.16,0-4.09-3.79-6.74-1.15-3,2.93C163.6,8,163.61,11.77,169.17,12Z" transform="translate(-1.41 -0.7)"/><polygon class="cls-1" points="169.65 223.72 172.79 220.58 175.93 223.72 177.5 219.01 182.21 217.44 179.07 214.29 182.21 211.15 177.5 209.58 175.93 204.87 172.79 208.01 169.65 204.87 168.07 209.58 163.36 211.15 166.5 214.29 163.36 217.44 168.07 219.01 169.65 223.72"/><path class="cls-1" d="M179.54,47.2c0-.13,0-.27,0-.4a5.34,5.34,0,0,0-10.68.22,1.48,1.48,0,0,0,0,.21,3.6,3.6,0,0,1-1.59,3.07,5.34,5.34,0,0,0,5.37,9.19,3.61,3.61,0,0,1,3.11,0A5.34,5.34,0,0,0,181,50.25,3.49,3.49,0,0,1,179.54,47.2Z" transform="translate(-1.41 -0.7)"/><path class="cls-1" d="M180.93,95.41h0l-1.51-1.52h1.78a2.12,2.12,0,0,0,1.52-.63,2.14,2.14,0,0,0,0-3.05h0a2.12,2.12,0,0,0-1.52-.63h-1.8l2.73-2.73.59-.6a2.17,2.17,0,0,0,.64-1.53h0a2.16,2.16,0,0,0-2.16-2.16h0a2.13,2.13,0,0,0-1.53.64L177.88,85h0l-1.54,1.55V84.72a2.16,2.16,0,0,0-.63-1.52h0a2.15,2.15,0,0,0-3.06,0h0a2.16,2.16,0,0,0-.63,1.52V86.5l-2.25-2.26h0l-1.05-1a2.13,2.13,0,0,0-1.53-.64h0A2.16,2.16,0,0,0,165,84.72h0a2.16,2.16,0,0,0,.63,1.53l.71.71h0L169,89.58h-1.8a2.12,2.12,0,0,0-1.52.63h0a2.14,2.14,0,0,0,0,3.05h0a2.12,2.12,0,0,0,1.52.63H169l-2.59,2.59h0l-.71.72a2.12,2.12,0,0,0-.63,1.52h0a2.15,2.15,0,0,0,2.15,2.16,2.12,2.12,0,0,0,1.53-.63l1.79-1.79h0L172,97v1.77a2.16,2.16,0,0,0,.63,1.53h0a2.16,2.16,0,0,0,3.69-1.53v-1.8l1.54,1.54h0l1.17,1.17.13.13h0l.49.49a2.12,2.12,0,0,0,1.53.63,2.16,2.16,0,0,0,2.16-2.16h0a2.13,2.13,0,0,0-.64-1.52Z" transform="translate(-1.41 -0.7)"/><path class="cls-1" d="M181.7,462.08h1.87a6.23,6.23,0,0,0-6.22-6.23h-1.87a1.24,1.24,0,0,1-1.24-1.24v-1.86A6.22,6.22,0,0,0,168,459v1.87a1.24,1.24,0,0,1-1.24,1.24h-1.87a6.23,6.23,0,0,0,6.22,6.23H173a1.23,1.23,0,0,1,1.24,1.24v1.86a6.21,6.21,0,0,0,6.22-6.21v-1.87A1.24,1.24,0,0,1,181.7,462.08Z" transform="translate(-1.41 -0.7)"/><circle class="cls-1" cx="167.44" cy="137.25" r="3.82"/><circle class="cls-1" cx="178.13" cy="137.25" r="3.82"/><circle class="cls-1" cx="172.79" cy="126.57" r="3.82"/></g></g></svg>