<svg xmlns="http://www.w3.org/2000/svg" viewBox="0 0 404.15 225.74"><defs><style>.cls-1{fill:#1d1d1b;}.cls-2{fill:#12100b;}</style></defs><title>forme alfabetoRisorsa 1</title><g id="Livello_2" data-name="Livello 2"><g id="Livello_1-2" data-name="Livello 1"><path class="cls-1" d="M41.44,1h0A3.06,3.06,0,0,1,44.51,4a3.06,3.06,0,0,0,3.07,3.06,3.07,3.07,0,0,1,0,6.13,3.07,3.07,0,0,0-3.07,3.07h0a3.07,3.07,0,1,1-6.13,0,3.08,3.08,0,0,0-3.07-3.07,3.07,3.07,0,0,1-3.07-3.06h0a3.07,3.07,0,0,1,3.07-3.07h0A3.07,3.07,0,0,0,38.38,4h0A3.06,3.06,0,0,1,41.44,1" transform="translate(-0.7 -0.96)"/><path class="cls-1" d="M33.84,215.26a5.37,5.37,0,1,0,7.6,7.6l7.61-7.6a5.38,5.38,0,1,0-7.61-7.61l-7.6,7.61" transform="translate(-0.7 -0.96)"/><path class="cls-1" d="M42.76,134.35c10.51,10.51-13.14,10.51-2.63,0-10.51,10.51-10.51-13.14,0-2.63-10.51-10.51,13.14-10.51,2.63,0,10.51-10.51,10.51,13.14,0,2.63" transform="translate(-0.7 -0.96)"/><path class="cls-1" d="M49.29,91.93c3.93,6.5-1.34,11.78-7.85,7.85-6.5,3.93-11.77-1.35-7.85-7.85-3.92-6.5,1.35-11.78,7.85-7.85,6.51-3.93,11.78,1.35,7.85,7.85" transform="translate(-0.7 -0.96)"/><path class="cls-1" d="M276.57,48.73h0a3.75,3.75,0,1,1,0-5.3,3.75,3.75,0,0,1,0,5.3" transform="translate(-0.7 -0.96)"/><path class="cls-1" d="M266.06,48.73h0a3.75,3.75,0,1,1,0-5.3,3.75,3.75,0,0,1,0,5.3" transform="translate(-0.7 -0.96)"/><path class="cls-1" d="M276.57,59.35h0a3.75,3.75,0,1,1,0-5.31,3.75,3.75,0,0,1,0,5.31" transform="translate(-0.7 -0.96)"/><path class="cls-1" d="M266.06,59.35h0a3.75,3.75,0,1,1,0-5.31,3.75,3.75,0,0,1,0,5.31" transform="translate(-0.7 -0.96)"/><path class="cls-1" d="M45.93,46.56h0a4.49,4.49,0,1,0-9,0,4.49,4.49,0,0,0,0,9,4.49,4.49,0,0,0,9,0,4.49,4.49,0,1,0,0-9" transform="translate(-0.7 -0.96)"/><polygon class="cls-1" points="391.66 164.04 397.88 164.04 397.88 170.26 404.1 170.26 404.1 176.48 397.88 176.48 397.88 182.7 391.66 182.7 391.66 176.48 385.44 176.48 385.44 170.26 391.66 170.26 391.66 164.04"/><polygon class="cls-1" points="404.1 129.34 394.77 123.12 385.44 129.34 390.1 132.45 385.44 135.56 394.77 141.78 404.1 135.56 399.43 132.45 404.1 129.34"/><polygon class="cls-1" points="267.96 182.38 264.85 176.16 258.63 173.05 264.85 169.94 267.96 163.72 271.07 169.94 277.29 173.05 271.07 176.16 267.96 182.38"/><polygon class="cls-1" points="385.44 82.19 394.77 85.3 404.1 82.19 400.99 91.52 404.1 100.85 394.77 97.74 385.44 100.85 388.55 91.52 385.44 82.19"/><polygon class="cls-1" points="277.29 214.29 274.18 217.4 274.18 220.51 271.07 220.51 267.96 223.62 264.85 220.51 261.74 220.51 261.74 217.4 258.63 214.29 261.74 211.19 261.74 208.08 264.84 208.08 267.96 204.97 271.07 208.08 274.18 208.08 274.18 211.19 277.29 214.29"/><rect class="cls-1" x="385.44" y="41.27" width="9.33" height="9.33"/><rect class="cls-1" x="394.77" y="50.6" width="9.33" height="9.33"/><rect class="cls-1" x="396.8" y="2.49" width="6.66" height="6.66" transform="translate(112.39 283.7) rotate(-45)"/><rect class="cls-1" x="387.47" y="2.49" width="6.66" height="6.66" transform="translate(109.66 277.1) rotate(-45)"/><rect class="cls-1" x="396.8" y="11.92" width="6.66" height="6.66" transform="translate(105.71 286.44) rotate(-45)"/><rect class="cls-1" x="387.47" y="11.92" width="6.66" height="6.66" transform="translate(102.98 279.85) rotate(-45)"/><path class="cls-2" d="M259.76,100.84v-8.9a8.9,8.9,0,1,1,17.8,0v8.9Z" transform="translate(-0.7 -0.96)"/><path d="M13.55,12.39c0,3.25-2.23,6.26-5.75,6.26a4.78,4.78,0,0,1-4-2l-.12,1.63H1.41V2H3.78V8.09a4.78,4.78,0,0,1,4-2C11.09,6.1,13.55,8.86,13.55,12.39Zm-2.37,0A3.78,3.78,0,0,0,7.43,8.47a3.68,3.68,0,0,0-3.65,3.9,3.66,3.66,0,0,0,3.64,3.9A3.78,3.78,0,0,0,11.18,12.36Z" transform="translate(-0.7 -0.96)"/><path d="M123.87,93.79c0,3.25-2.24,6.26-5.75,6.26a4.79,4.79,0,0,1-4-2v6h-2.31V87.86H114l.12,1.66a4.81,4.81,0,0,1,4-2C121.41,87.5,123.87,90.26,123.87,93.79Zm-2.37,0a3.79,3.79,0,0,0-3.75-3.89,3.91,3.91,0,0,0,0,7.8A3.79,3.79,0,0,0,121.5,93.76Z" transform="translate(-0.7 -0.96)"/><path d="M124.14,128.56l-7,16.24h-2.48l2.23-5.19-4.68-11.05h2.56L118,137l3.62-8.42Z" transform="translate(-0.7 -0.96)"/><path d="M114.87,57l1.35-1.54A3.74,3.74,0,0,0,119.38,57c1,0,2.11-.4,2.11-1.35s-1.31-1.34-2.82-2c-1.26-.54-3.24-1.42-3.24-3.52s1.93-3.43,4.13-3.43a4.29,4.29,0,0,1,3.92,2.16l-1.64,1.37a2.73,2.73,0,0,0-2.36-1.22c-.93,0-1.67.43-1.67,1.11,0,.86,1.09,1.21,2.55,1.82,2,.9,3.5,1.74,3.5,3.56,0,2.3-2.18,3.78-4.57,3.78A5,5,0,0,1,114.87,57Z" transform="translate(-0.7 -0.96)"/><path d="M3.45,53.12A6.3,6.3,0,0,1,13.68,48.2l-1.33,2a3.93,3.93,0,1,0-2.63,6.87,4,4,0,0,0,2.67-1l1.44,1.89a6.3,6.3,0,0,1-10.38-4.8Z" transform="translate(-0.7 -0.96)"/><path d="M237.58,2H240V18.27h-2.38Z" transform="translate(-0.7 -0.96)"/><path d="M123.17,11.88v6.39H120.8V11.88c0-2.51-1-3.42-2.72-3.42s-2.85,1.13-2.85,3.42v6.39h-2.38V6.46h2.23l.11,1.38a4.49,4.49,0,0,1,3.65-1.67C121.17,6.17,123.17,7.41,123.17,11.88Z" transform="translate(-0.7 -0.96)"/><path d="M7.52,226.41V224.2a2.71,2.71,0,0,0,1.15.26c1.26,0,1.6-1,1.6-1.86V210.24h2.37V222.6c0,2.57-1,4.1-3.3,4.1A5.74,5.74,0,0,1,7.52,226.41ZM10,207.15a1.41,1.41,0,1,1,1.41,1.41A1.41,1.41,0,0,1,10,207.15Z" transform="translate(-0.7 -0.96)"/><path d="M240,52.65V59h-2.37V52.65c0-2.54-.82-3.5-2.4-3.5s-2.71,1.09-2.71,3.38V59H230.1V52.53c0-2.47-.83-3.38-2.39-3.38-1.79,0-2.71,1.19-2.71,3.5V59h-2.37V47.16h2.23l.1,1.28a4.21,4.21,0,0,1,3.51-1.66A3.45,3.45,0,0,1,232,49.15a4.33,4.33,0,0,1,4-2.37C238.15,46.78,240,48.1,240,52.65Z" transform="translate(-0.7 -0.96)"/><path d="M12.85,83.54V99.78H10.69l-.13-1.64a4.78,4.78,0,0,1-4.05,2c-3.51,0-5.75-3-5.75-6.27,0-3.53,2.47-6.29,5.76-6.29a4.81,4.81,0,0,1,4,2V83.54ZM10.54,93.88A3.68,3.68,0,0,0,6.89,90a3.9,3.9,0,0,0,0,7.8A3.66,3.66,0,0,0,10.54,93.88Z" transform="translate(-0.7 -0.96)"/><path d="M10.87,128.18v.55h3V131h-3v9.52H8.5V131H6.76v-2.29H8.5v-.55c0-2.56,1-4.18,3.26-4.18a6.5,6.5,0,0,1,2.07.37v2.18a3.63,3.63,0,0,0-1.38-.31C11.16,126.24,10.87,127.34,10.87,128.18Z" transform="translate(-0.7 -0.96)"/><path d="M12.85,169.48v10.8a5.79,5.79,0,0,1-6.14,5.82A6.62,6.62,0,0,1,1.52,184l1.81-1.51a4.44,4.44,0,0,0,3.38,1.19,3.51,3.51,0,0,0,3.77-3.44v-.61a4.75,4.75,0,0,1-4,2c-3.52,0-5.76-3-5.76-6.27,0-3.53,2.47-6.29,5.77-6.29a4.76,4.76,0,0,1,4,2l.13-1.67Zm-2.37,5.9a3.68,3.68,0,0,0-3.65-3.9,3.9,3.9,0,0,0,0,7.8A3.66,3.66,0,0,0,10.48,175.38Z" transform="translate(-0.7 -0.96)"/><path d="M365.06,99.65l-5-5.86v5.86h-2.38V83.33H360V93.45l4.5-5.67h2.76l-4.58,5.73L368,99.65Z" transform="translate(-0.7 -0.96)"/><path d="M124.09,209.64l-.38,2.61h-.35c-1.71,0-3.74.91-3.74,4.62V222h-2.38V210.11h2.23l.14,1.86A5.32,5.32,0,0,1,124.09,209.64Z" transform="translate(-0.7 -0.96)"/><path d="M362.75,177.37v-5.72h-1.59v-2.16h.4c.87,0,1.34-.52,1.34-1.45v-1h2.23v2.3H368v2.32h-2.84v5.72c0,1.09.43,1.74,1.41,1.74a5.83,5.83,0,0,0,1.45-.28v2.22a8.38,8.38,0,0,1-2.22.34C363.81,181.39,362.75,180,362.75,177.37Z" transform="translate(-0.7 -0.96)"/><path d="M240.93,169.29l-5.65,12.26h-.12l-5.62-12.26h2.65l3,7,3-7Z" transform="translate(-0.7 -0.96)"/><path d="M225.09,210.1h2.56l2.33,7.23,3-7.21H233l3,7.2,2.32-7.22h2.57l-4.39,12.26h-.28L233,215l-3.22,7.34h-.28Z" transform="translate(-0.7 -0.96)"/><path d="M234,134.14l-3.84-5.66h2.75l2.49,3.73,2.47-3.73h2.75l-3.86,5.66,4.18,6.2h-2.76l-2.79-4.18-2.79,4.18h-2.75Z" transform="translate(-0.7 -0.96)"/><path d="M317.21,210.1l-5.64,12.26h-.12l-5.63-12.26h2.65l3,7,3-7Z" transform="translate(-0.7 -0.96)"/><path d="M318.34,216a6.31,6.31,0,1,1,6.32,6.31A6.31,6.31,0,0,1,318.34,216Zm10.23,0a3.92,3.92,0,1,0-3.91,3.92A3.92,3.92,0,0,0,328.57,216Z" transform="translate(-0.7 -0.96)"/><path d="M332.37,216a6.31,6.31,0,0,1,6.31-6.32,6.39,6.39,0,0,1,4,1.38l-1.34,2a3.95,3.95,0,1,0-2.64,6.9,4,4,0,0,0,2.68-1l1.44,1.9A6.34,6.34,0,0,1,332.37,216Z" transform="translate(-0.7 -0.96)"/><path d="M356.15,210.1V222h-2.23l-.13-1.66a4.82,4.82,0,0,1-4.07,2c-3.53,0-5.78-3-5.78-6.3,0-3.54,2.48-6.31,5.79-6.31a4.81,4.81,0,0,1,4.06,2l.13-1.67ZM353.77,216a3.7,3.7,0,0,0-3.67-3.91,3.92,3.92,0,0,0,0,7.84A3.69,3.69,0,0,0,353.77,216Z" transform="translate(-0.7 -0.96)"/><path d="M359,205.65h2.38V222H359Z" transform="translate(-0.7 -0.96)"/><path d="M364.18,207a1.42,1.42,0,1,1,1.41,1.41A1.42,1.42,0,0,1,364.18,207Zm.22,3.1h2.38V222H364.4Z" transform="translate(-0.7 -0.96)"/><path d="M119.87,171.62h-5.16v-2.33h9l-5.44,9.55h5.54v2.32h-9.44Z" transform="translate(-0.7 -0.96)"/><path d="M367,128.56v16.31h-2.32V138.8a4.77,4.77,0,0,1-4,2c-3.53,0-5.79-3-5.79-6.3,0-3.54,2.48-6.32,5.8-6.32a4.77,4.77,0,0,1,4.05,2.05l.13-1.68Zm-2.32,5.93a3.71,3.71,0,0,0-3.67-3.92,3.92,3.92,0,0,0,0,7.84A3.68,3.68,0,0,0,364.68,134.49Z" transform="translate(-0.7 -0.96)"/><path d="M329.92,47V57.86a5.81,5.81,0,0,1-6.17,5.84,6.69,6.69,0,0,1-5.22-2.06l1.82-1.52a4.49,4.49,0,0,0,3.4,1.2,3.53,3.53,0,0,0,3.79-3.46v-.61a4.79,4.79,0,0,1-4,2c-3.53,0-5.79-3-5.79-6.3,0-3.54,2.48-6.31,5.8-6.31a4.79,4.79,0,0,1,4.05,2l.13-1.67Zm-2.38,5.92A3.7,3.7,0,0,0,323.87,49a3.92,3.92,0,0,0,0,7.84A3.68,3.68,0,0,0,327.54,52.93Z" transform="translate(-0.7 -0.96)"/><path d="M338.46,41.76h2.21l-6.9,19.76h-2.21Z" transform="translate(-0.7 -0.96)"/><path d="M353.82,47V57.86a5.81,5.81,0,0,1-6.17,5.84,6.7,6.7,0,0,1-5.23-2.06l1.82-1.52a4.5,4.5,0,0,0,3.41,1.2,3.53,3.53,0,0,0,3.78-3.46v-.61a4.79,4.79,0,0,1-4,2c-3.53,0-5.79-3-5.79-6.3,0-3.54,2.49-6.31,5.8-6.31a4.79,4.79,0,0,1,4.05,2l.13-1.67Zm-2.39,5.92A3.7,3.7,0,0,0,347.76,49a3.92,3.92,0,0,0,0,7.84A3.68,3.68,0,0,0,351.43,52.93Z" transform="translate(-0.7 -0.96)"/><path d="M367,52.46v6.42h-2.38V52.46c0-2.52-1-3.44-2.73-3.44S359,50.16,359,52.46v6.42h-2.38V42.56H359v5.79a4.53,4.53,0,0,1,3.63-1.64C365,46.71,367,48,367,52.46Z" transform="translate(-0.7 -0.96)"/><path d="M323.23,12.17a6.33,6.33,0,0,1,10.29-4.94l-1.34,2a3.95,3.95,0,1,0-2.64,6.91,4,4,0,0,0,2.68-1l1.45,1.9a6.34,6.34,0,0,1-10.44-4.83Z" transform="translate(-0.7 -0.96)"/><path d="M341.21,1h2.22l-6.9,19.75h-2.21Z" transform="translate(-0.7 -0.96)"/><path d="M344.37,12.17a6.31,6.31,0,0,1,6.3-6.33,6.37,6.37,0,0,1,4,1.39l-1.34,2a3.95,3.95,0,1,0-2.64,6.91,4,4,0,0,0,2.68-1L354.8,17a6.34,6.34,0,0,1-10.43-4.83Z" transform="translate(-0.7 -0.96)"/><path d="M367,11.69V18.1h-2.38V11.69c0-2.52-1-3.44-2.73-3.44S359,9.38,359,11.69V18.1h-2.38V1.79H359V7.57a4.55,4.55,0,0,1,3.63-1.63C365,5.94,367,7.19,367,11.69Z" transform="translate(-0.7 -0.96)"/><path d="M240,93.23v6.35H237.6V93.23c0-2.5-1-3.41-2.7-3.41s-2.84,1.12-2.84,3.41v6.35h-2.37V83.42h2.37v5.73a4.46,4.46,0,0,1,3.59-1.62C238,87.53,240,88.77,240,93.23Z" transform="translate(-0.7 -0.96)"/><path d="M268.66,4.4c0,1.7-1.37,6.14-3.07,6.14s-3.06-4.44-3.06-6.14a3.07,3.07,0,0,1,6.13,0Z" transform="translate(-0.7 -0.96)"/><path d="M277.86,7.47a3.07,3.07,0,0,1-3.07,3.07c-1.69,0-6.13-1.38-6.13-3.07s4.44-3.07,6.13-3.07A3.07,3.07,0,0,1,277.86,7.47Z" transform="translate(-0.7 -0.96)"/><path d="M274.79,16.67a3.07,3.07,0,1,1-6.13,0c0-1.69,1.37-6.13,3.07-6.13S274.79,15,274.79,16.67Z" transform="translate(-0.7 -0.96)"/><path d="M268.66,13.6c0,1.7-4.44,3.07-6.13,3.07a3.07,3.07,0,1,1,0-6.13C264.22,10.54,268.66,11.91,268.66,13.6Z" transform="translate(-0.7 -0.96)"/><polygon class="cls-2" points="142.39 182.3 161.05 182.3 154.83 172.97 161.05 163.64 142.39 163.64 148.61 172.97 142.39 182.3"/><rect class="cls-2" x="262.06" y="126.16" width="13.19" height="13.19" transform="translate(-15.89 227.9) rotate(-45)"/><path class="cls-1" d="M32.94,172.46l1-1a2.39,2.39,0,0,0,.7-1.69v0A2.39,2.39,0,0,1,37,167.35h0a2.39,2.39,0,0,0,1.69-.7l1-1a2.37,2.37,0,0,1,3.37,0l1,1a2.38,2.38,0,0,0,1.69.7h0a2.38,2.38,0,0,1,2.38,2.39v0a2.44,2.44,0,0,0,.7,1.69l1,1a2.38,2.38,0,0,1,0,3.37l-1,1a2.44,2.44,0,0,0-.7,1.69h0a2.39,2.39,0,0,1-2.39,2.39h0a2.39,2.39,0,0,0-1.69.7l-1,1a2.37,2.37,0,0,1-3.37,0l-1-1a2.43,2.43,0,0,0-1.69-.69h0a2.39,2.39,0,0,1-2.39-2.39v0a2.39,2.39,0,0,0-.7-1.69l-1-1A2.38,2.38,0,0,1,32.94,172.46Z" transform="translate(-0.7 -0.96)"/><path class="cls-1" d="M147.4,12.24c-3.8,4.09-1.15,6.74,2.94,2.94.21,5.56,3.94,5.57,4.16,0,4.09,3.78,6.73,1.14,2.93-2.95,5.58-.21,5.59-4,0-4.16,3.78-4.08,1.14-6.72-2.94-2.94-.21-5.58-3.95-5.57-4.16,0-4.09-3.8-6.74-1.16-3,2.93C141.83,8.29,141.83,12,147.4,12.24Z" transform="translate(-0.7 -0.96)"/><polygon class="cls-1" points="148.58 223.72 151.72 220.58 154.86 223.72 156.43 219.01 161.15 217.44 158 214.29 161.15 211.15 156.43 209.58 154.86 204.87 151.72 208.01 148.58 204.87 147.01 209.58 142.29 211.15 145.43 214.29 142.29 217.44 147.01 219.01 148.58 223.72"/><path class="cls-1" d="M157.76,47.46v-.41a5.34,5.34,0,0,0-10.68.22v.22a3.62,3.62,0,0,1-1.58,3.07,5.34,5.34,0,0,0,2.43,9.65,5.46,5.46,0,0,0,2.94-.47,3.65,3.65,0,0,1,3.1,0,5.46,5.46,0,0,0,2.94.47,5.34,5.34,0,0,0,2.35-9.71A3.51,3.51,0,0,1,157.76,47.46Z" transform="translate(-0.7 -0.96)"/><path class="cls-1" d="M159.16,95.66h0l-1.52-1.51h1.78a2.2,2.2,0,0,0,1.53-.63,2.17,2.17,0,0,0,0-3.06h0a2.2,2.2,0,0,0-1.53-.63h-1.8l2.73-2.73.6-.6a2.16,2.16,0,0,0,.63-1.52h0a2.16,2.16,0,0,0-2.16-2.16h0a2.2,2.2,0,0,0-1.53.63l-1.78,1.79h0l-1.55,1.54V85a2.14,2.14,0,0,0-.63-1.53h0a2.16,2.16,0,0,0-3.05,0h0a2.14,2.14,0,0,0-.63,1.53v1.77L148,84.5h0l-1-1a2.2,2.2,0,0,0-1.53-.63h0A2.16,2.16,0,0,0,143.26,85h0a2.16,2.16,0,0,0,.63,1.52l.72.72h0l2.61,2.61h-1.8a2.2,2.2,0,0,0-1.53.63h0a2.17,2.17,0,0,0,0,3.06h0a2.2,2.2,0,0,0,1.53.63h1.78l-2.59,2.59h0l-.72.71a2.2,2.2,0,0,0-.63,1.53h0a2.16,2.16,0,0,0,2.16,2.16,2.2,2.2,0,0,0,1.53-.63l1.78-1.79h0l1.52-1.52V99a2.16,2.16,0,0,0,.63,1.53h0A2.16,2.16,0,0,0,154.56,99v-1.8l1.55,1.54h0l1.16,1.16.14.14h0l.48.49a2.2,2.2,0,0,0,1.53.63A2.16,2.16,0,0,0,161.58,99h0a2.2,2.2,0,0,0-.63-1.53Z" transform="translate(-0.7 -0.96)"/><path class="cls-1" d="M402.93,215.26h1.87a6.23,6.23,0,0,0-6.22-6.23h-1.87a1.23,1.23,0,0,1-1.24-1.24v-1.86a6.21,6.21,0,0,0-6.22,6.21V214a1.24,1.24,0,0,1-1.25,1.24h-1.86a6.22,6.22,0,0,0,6.22,6.23h1.87a1.24,1.24,0,0,1,1.24,1.24v1.86a6.22,6.22,0,0,0,6.22-6.21V216.5A1.23,1.23,0,0,1,402.93,215.26Z" transform="translate(-0.7 -0.96)"/><circle class="cls-1" cx="146.38" cy="137.25" r="3.82"/><circle class="cls-1" cx="157.06" cy="137.25" r="3.82"/><circle class="cls-1" cx="151.72" cy="126.57" r="3.82"/></g></g></svg>