<svg width="1440" height="178" viewBox="0 0 1440 178" fill="none" xmlns="http://www.w3.org/2000/svg">
<path d="M814.513 27.3411L796.286 36.4546L787.172 54.6816L778.059 36.4546L759.832 27.3411L778.059 18.2277L787.172 0.000639674L796.286 18.2277L814.513 27.3411Z" fill="#FF006E"/>
<path d="M650.973 175.702L647.993 172.723C646.801 171.531 644.715 170.637 642.927 170.637C639.053 170.637 635.776 167.359 635.776 163.485C635.776 161.697 634.882 159.909 633.69 158.419L630.71 155.439C628.028 152.757 628.028 148.287 630.71 145.308L633.69 142.328C634.882 141.136 635.776 139.05 635.776 137.262C635.776 133.388 639.053 130.11 642.927 130.11C644.715 130.11 646.503 129.216 647.993 128.024L650.973 125.044C653.655 122.362 658.125 122.362 661.105 125.044L664.084 128.024C665.276 129.216 667.362 130.11 669.15 130.11C673.024 130.11 676.302 133.388 676.302 137.262C676.302 139.05 676.898 140.838 678.388 142.328L681.368 145.308C684.05 147.989 684.05 152.459 681.368 155.439L678.388 158.419C677.196 159.611 676.302 161.697 676.302 163.485C676.302 167.359 673.024 170.637 669.15 170.637C667.362 170.637 665.574 171.531 664.084 172.723L661.105 175.702C658.125 178.384 653.655 178.384 650.973 175.702Z" fill="#FF7900"/>
<path d="M927.184 123.363H909.143V141.541H890.966V159.582H909.143V177.76H927.184V159.582H945.362V141.541H927.184V123.363Z" fill="#06B9FF"/>
<path d="M1048.33 0C1043.35 0 1039.26 4.0861 1039.26 9.06604C1039.26 14.046 1035.17 18.1321 1030.19 18.1321C1025.21 18.1321 1021.13 22.2182 1021.13 27.1981C1021.13 32.1781 1025.21 36.2642 1030.19 36.2642C1035.17 36.2642 1039.26 40.3503 1039.26 45.3302C1039.26 50.3102 1043.35 54.3963 1048.33 54.3963C1053.31 54.3963 1057.39 50.3102 1057.39 45.3302C1057.39 40.3503 1061.48 36.2642 1066.46 36.2642C1071.44 36.2642 1075.52 32.1781 1075.52 27.1981C1075.52 22.2182 1071.44 18.1321 1066.46 18.1321C1061.48 18.1321 1057.39 14.046 1057.39 9.06604C1057.39 4.0861 1053.31 0 1048.33 0Z" fill="#FF7900"/>
<path d="M1151.29 177.76H1205.69L1187.65 150.561L1205.69 123.363H1151.29L1169.62 150.561L1151.29 177.76Z" fill="#FECE00"/>
<path d="M1293.9 33.5199C1282.67 45.5753 1290.35 53.2201 1302.47 42.0469C1303.06 58.5128 1313.99 58.5128 1314.87 42.0469C1326.99 53.2201 1334.67 45.2812 1323.44 33.2258C1339.99 32.6378 1339.99 21.7585 1323.44 20.8764C1334.67 8.82102 1326.69 1.17614 1314.87 12.3494C1314.28 -4.11648 1303.06 -4.11648 1302.47 12.3494C1290.35 1.17614 1282.67 8.82102 1293.6 20.8764C1277.35 22.0525 1277.35 32.9318 1293.9 33.5199Z" fill="#893DFF"/>
<path d="M524.886 3.97073C544.128 -7.56656 559.818 7.8165 548.273 27.3411C559.818 46.57 544.424 62.2488 524.886 50.7116C505.644 62.2488 489.954 46.8658 501.499 27.3411C489.954 8.11233 505.644 -7.56656 524.886 3.97073Z" fill="#FECE00"/>
<path d="M248.967 13.6709C241.372 13.6709 235.296 19.7466 235.296 27.3411C235.296 34.9357 241.372 41.0114 248.967 41.0114C248.967 48.606 255.042 54.6816 262.637 54.6816C270.231 54.6816 276.307 48.606 276.307 41.0114C283.902 41.0114 289.977 34.9357 289.977 27.3411C289.977 19.7466 283.902 13.6709 276.307 13.6709C276.307 6.07631 270.231 0.000639342 262.637 0.000639674C255.042 0.000640006 248.967 6.07631 248.967 13.6709Z" fill="#FF006E"/>
<path d="M109.802 150.709C103.577 156.9 103.577 166.925 109.802 173.116C116.027 179.307 126.106 179.307 132.331 173.116L154.861 150.709C161.086 144.517 161.086 134.198 154.861 128.007C148.636 121.815 138.26 121.815 132.035 128.007L109.802 150.709Z" fill="#FECE00"/>
<path d="M366.43 177.714L375.495 150.373L366.43 123.033L393.917 132.146L421.111 123.033L412.046 150.373L421.111 177.714L393.917 168.6L366.43 177.714Z" fill="#06B9FF"/>
<path d="M1439.02 122.579L1411.62 149.981L1439.02 177.384L1466.42 149.982L1439.02 122.579Z" fill="#893DFF"/>
<path d="M-8.19164 54.3963L0.8538 45.1863L9.61663 54.3963L14.1394 40.8692L27.4249 36.2642L18.3795 27.342L27.4249 18.1321L14.1394 13.5271L9.61663 0L0.8538 9.20994L-8.19164 0L-12.7144 13.5271L-26 18.1321L-16.9545 27.342L-26 36.2642L-12.7144 40.8692L-8.19164 54.3963Z" fill="#FF7900"/>
</svg>
