<svg width="1260" height="285" viewBox="0 0 1260 285" fill="none" xmlns="http://www.w3.org/2000/svg">
<path d="M73.5 251.855C76.2715 251.855 78.334 249.9 78.334 247.494C78.334 245.088 76.2715 243.133 73.5 243.133C70.75 243.133 68.666 245.088 68.666 247.494C68.666 249.9 70.75 251.855 73.5 251.855ZM69.1602 280H77.8398V254.219H69.1602V280Z" fill="#1C1C1C"/>
<path d="M365.992 266.078C365.992 259.805 361.18 253.359 352.994 253.359C345.303 253.359 339.008 259.074 339.008 267.109C339.008 275.037 345.131 280.859 352.973 280.859C356.088 280.859 360.965 279.936 364.338 275.574L357.871 271.814C356.002 273.49 354.391 273.855 353.145 273.855C350.631 273.855 348.676 272.309 347.73 270.053H365.391V269.881C365.756 268.893 365.992 267.453 365.992 266.078ZM352.865 260.342C355.68 260.342 357.184 262.232 357.699 264.768H347.43C348.139 262.254 350.051 260.342 352.865 260.342Z" fill="#1C1C1C"/>
<path d="M636.494 254.219L636.107 256.84C634.131 254.562 631.338 253.316 627.922 253.316C620.381 253.316 615.074 259.439 615.074 267.109C615.074 274.5 620.166 280.902 627.922 280.902C631.402 280.902 634.174 279.592 636.086 277.336L636.494 280H644.529V254.219H636.494ZM629.855 273.039C626.139 273.039 623.754 270.16 623.754 267.066C623.754 263.844 626.354 261.158 629.877 261.158C633.121 261.158 635.85 263.436 635.85 267.045C635.85 270.568 633.271 273.039 629.855 273.039Z" fill="#1C1C1C"/>
<path d="M909 280.902C917.143 280.902 923.48 274.844 923.48 267.109C923.48 259.375 917.143 253.316 909 253.316C900.836 253.316 894.498 259.375 894.498 267.109C894.498 274.844 900.836 280.902 909 280.902ZM909 272.932C905.713 272.932 903.178 270.354 903.178 267.109C903.178 263.865 905.713 261.266 909 261.266C912.287 261.266 914.801 263.865 914.801 267.109C914.801 270.354 912.287 272.932 909 272.932Z" fill="#1C1C1C"/>
<path d="M1187.39 280.322C1194.87 280.322 1200.03 275.059 1200 267.926L1199.96 254.219H1191.28L1191.3 267.904C1191.3 270.805 1189.78 272.652 1187.37 272.652C1185.07 272.652 1183.68 270.805 1183.68 267.904L1183.65 254.219H1174.97L1175.02 267.926C1175.02 275.059 1179.96 280.322 1187.39 280.322Z" fill="#1C1C1C"/>
<path d="M117.519 124.198H129C129 103.652 112.08 86.7326 91.5348 86.7326H80.0535C75.8235 86.7326 72.8021 83.107 72.8021 79.4813V68C51.6524 68 34.7326 84.9198 34.7326 105.465V116.947C34.7326 121.176 31.107 124.198 27.4813 124.198H16C16 144.743 32.9198 161.663 53.4652 161.663H64.9465C69.1765 161.663 72.1979 165.289 72.1979 168.914V180.396C92.7433 180.396 109.663 163.476 109.663 142.93V132.053C109.663 127.824 113.289 124.198 117.519 124.198Z" fill="#FECE00"/>
<path d="M397.417 124.198H409C409 103.652 391.93 86.7326 371.203 86.7326H359.62C355.353 86.7326 352.305 83.107 352.305 79.4813V68C330.968 68 313.898 84.9198 313.898 105.465V116.947C313.898 121.176 310.241 124.198 306.583 124.198H295C295 144.743 312.07 161.663 332.797 161.663H344.38C348.647 161.663 351.695 165.289 351.695 168.914V180.396C372.422 180.396 389.492 163.476 389.492 142.93V132.053C389.492 127.824 393.15 124.198 397.417 124.198Z" fill="#FF7900"/>
<path d="M674.62 124.198H686C686 103.652 669.23 86.7326 648.866 86.7326H637.487C633.294 86.7326 630.299 83.107 630.299 79.4813V68C609.337 68 592.567 84.9198 592.567 105.465V116.947C592.567 121.176 588.973 124.198 585.38 124.198H574C574 144.743 590.77 161.663 611.134 161.663H622.513C626.706 161.663 629.701 165.289 629.701 168.914V180.396C650.064 180.396 666.834 163.476 666.834 142.93V132.053C666.834 127.824 670.428 124.198 674.62 124.198Z" fill="#FF006E"/>
<path d="M953.417 124.198H965C965 103.652 947.93 86.7326 927.203 86.7326H915.62C911.353 86.7326 908.305 83.107 908.305 79.4813V68C886.968 68 869.898 84.9198 869.898 105.465V116.947C869.898 121.176 866.241 124.198 862.583 124.198H851C851 144.743 868.07 161.663 888.797 161.663H900.38C904.647 161.663 907.695 165.289 907.695 168.914V180.396C928.422 180.396 945.492 163.476 945.492 142.93V132.053C945.492 127.824 949.15 124.198 953.417 124.198Z" fill="#893DFF"/>
<path d="M1232.42 124.198H1244C1244 103.652 1226.93 86.7326 1206.2 86.7326H1194.62C1190.35 86.7326 1187.3 83.107 1187.3 79.4813V68C1165.97 68 1148.9 84.9198 1148.9 105.465V116.947C1148.9 121.176 1145.24 124.198 1141.58 124.198H1130C1130 144.743 1147.07 161.663 1167.8 161.663H1179.38C1183.65 161.663 1186.7 165.289 1186.7 168.914V180.396C1207.42 180.396 1224.49 163.476 1224.49 142.93V132.053C1224.49 127.824 1228.15 124.198 1232.42 124.198Z" fill="#06B9FF"/>
<path d="M33.1602 34.6914L33.4531 32.4531H30.4648L31.168 27.1094H28.7656L28.0625 32.4531H23.6094L24.3125 27.1094H21.9102L21.207 32.4531H18.1133L17.7969 34.6914H20.9141L20.3398 39.0859H17.2695L16.9766 41.3242H20.0352L19.4258 46H21.8281L22.4375 41.3242H26.8906L26.2812 46H28.6836L29.293 41.3242H32.3164L32.6328 39.0859H29.5977L30.1719 34.6914H33.1602ZM27.1953 39.0859H22.7422L23.3164 34.6914H27.7695L27.1953 39.0859ZM47.1758 30.0156V27.0625H35.9258V46.0234H38.8906V38.0195H46.0391V35.0664H38.8906V30.0156H47.1758ZM60.793 30.0273V27.1094H49.543V46H60.793V43.0469H52.5078V37.8203H59.6562V34.8672H52.5078V30.0273H60.793ZM72.7812 46.3047C75.5938 46.3047 77.668 45.0742 79.2969 43.4688L77.5859 41.0781C76.2852 42.3672 74.6211 43.3281 72.6875 43.3281C69.3008 43.3281 65.9844 40.3867 65.9844 36.5781C65.9844 32.793 69.2539 29.793 72.6758 29.793C74.5273 29.793 76.25 30.6719 77.5742 31.9961L79.2969 29.6641C77.4453 27.8594 75.1836 26.8164 72.7344 26.7812C67.4258 26.7812 62.9844 31.2461 62.9844 36.5664C62.9844 41.8984 67.4258 46.3047 72.7812 46.3047ZM92.9023 30.0273V27.1094H81.6523V46H92.9023V43.0469H84.6172V37.8203H91.7656V34.8672H84.6172V30.0273H92.9023ZM102.805 46.2695C107.398 46.2695 110.516 42.2383 110.516 36.5547C110.516 30.8594 107.398 26.8281 102.805 26.8281C98.2109 26.8281 95.0938 30.8594 95.0938 36.5547C95.0938 42.2383 98.2109 46.2695 102.805 46.2695ZM102.793 43.2812C99.9336 43.2812 98.0469 40.4922 98.0469 36.5547C98.0469 32.6055 99.9336 29.8047 102.793 29.8047C105.641 29.8047 107.539 32.6055 107.539 36.5547C107.539 40.4922 105.641 43.2812 102.793 43.2812ZM120.055 46.2695C124.648 46.2695 127.766 42.2383 127.766 36.5547C127.766 30.8594 124.648 26.8281 120.055 26.8281C115.461 26.8281 112.344 30.8594 112.344 36.5547C112.344 42.2383 115.461 46.2695 120.055 46.2695ZM120.043 43.2812C117.184 43.2812 115.297 40.4922 115.297 36.5547C115.297 32.6055 117.184 29.8047 120.043 29.8047C122.891 29.8047 124.789 32.6055 124.789 36.5547C124.789 40.4922 122.891 43.2812 120.043 43.2812Z" fill="#FECE00"/>
<path d="M315.152 34.6914L315.445 32.4531H312.457L313.16 27.1094H310.758L310.055 32.4531H305.602L306.305 27.1094H303.902L303.199 32.4531H300.105L299.789 34.6914H302.906L302.332 39.0859H299.262L298.969 41.3242H302.027L301.418 46H303.82L304.43 41.3242H308.883L308.273 46H310.676L311.285 41.3242H314.309L314.625 39.0859H311.59L312.164 34.6914H315.152ZM309.188 39.0859H304.734L305.309 34.6914H309.762L309.188 39.0859ZM329.168 30.0156V27.0625H317.918V46.0234H320.883V38.0195H328.031V35.0664H320.883V30.0156H329.168ZM342.785 30.0156V27.0625H331.535V46.0234H334.5V38.0195H341.648V35.0664H334.5V30.0156H342.785ZM343.887 27.1094V30.0039H352.594L346.113 46H349.23L356.801 27.6602V27.1094H343.887ZM364.617 26.8633C360.914 26.8633 357.984 29.8633 357.984 33.3086C357.984 36.8477 360.773 39.3906 363.762 39.3906C364.359 39.3906 364.969 39.2852 365.543 39.0742L361.523 46.0234H364.91C370.266 36.7422 371.273 36.0039 371.273 33.3438C371.273 29.8867 368.344 26.8633 364.617 26.8633ZM364.605 36.9414C362.59 36.9414 360.938 35.3125 360.938 33.3555C360.938 31.4805 362.59 29.8047 364.617 29.8047C366.633 29.8047 368.309 31.4805 368.309 33.3555C368.309 35.3125 366.633 36.9414 364.605 36.9414ZM380.812 46.2695C385.406 46.2695 388.523 42.2383 388.523 36.5547C388.523 30.8594 385.406 26.8281 380.812 26.8281C376.219 26.8281 373.102 30.8594 373.102 36.5547C373.102 42.2383 376.219 46.2695 380.812 46.2695ZM380.801 43.2812C377.941 43.2812 376.055 40.4922 376.055 36.5547C376.055 32.6055 377.941 29.8047 380.801 29.8047C383.648 29.8047 385.547 32.6055 385.547 36.5547C385.547 40.4922 383.648 43.2812 380.801 43.2812ZM398.062 46.2695C402.656 46.2695 405.773 42.2383 405.773 36.5547C405.773 30.8594 402.656 26.8281 398.062 26.8281C393.469 26.8281 390.352 30.8594 390.352 36.5547C390.352 42.2383 393.469 46.2695 398.062 46.2695ZM398.051 43.2812C395.191 43.2812 393.305 40.4922 393.305 36.5547C393.305 32.6055 395.191 29.8047 398.051 29.8047C400.898 29.8047 402.797 32.6055 402.797 36.5547C402.797 40.4922 400.898 43.2812 398.051 43.2812Z" fill="#FF7900"/>
<path d="M592.848 34.6914L593.141 32.4531H590.152L590.855 27.1094H588.453L587.75 32.4531H583.297L584 27.1094H581.598L580.895 32.4531H577.801L577.484 34.6914H580.602L580.027 39.0859H576.957L576.664 41.3242H579.723L579.113 46H581.516L582.125 41.3242H586.578L585.969 46H588.371L588.98 41.3242H592.004L592.32 39.0859H589.285L589.859 34.6914H592.848ZM586.883 39.0859H582.43L583.004 34.6914H587.457L586.883 39.0859ZM606.863 30.0156V27.0625H595.613V46.0234H598.578V38.0195H605.727V35.0664H598.578V30.0156H606.863ZM620.48 30.0156V27.0625H609.23V46.0234H612.195V38.0195H619.344V35.0664H612.195V30.0156H620.48ZM629.656 46.2695C634.25 46.2695 637.367 42.2383 637.367 36.5547C637.367 30.8594 634.25 26.8281 629.656 26.8281C625.062 26.8281 621.945 30.8594 621.945 36.5547C621.945 42.2383 625.062 46.2695 629.656 46.2695ZM629.645 43.2812C626.785 43.2812 624.898 40.4922 624.898 36.5547C624.898 32.6055 626.785 29.8047 629.645 29.8047C632.492 29.8047 634.391 32.6055 634.391 36.5547C634.391 40.4922 632.492 43.2812 629.645 43.2812ZM646.906 46.2695C651.5 46.2695 654.617 42.2383 654.617 36.5547C654.617 30.8594 651.5 26.8281 646.906 26.8281C642.312 26.8281 639.195 30.8594 639.195 36.5547C639.195 42.2383 642.312 46.2695 646.906 46.2695ZM646.895 43.2812C644.035 43.2812 642.148 40.4922 642.148 36.5547C642.148 32.6055 644.035 29.8047 646.895 29.8047C649.742 29.8047 651.641 32.6055 651.641 36.5547C651.641 40.4922 649.742 43.2812 646.895 43.2812ZM663.922 33.8945C663.289 33.8945 662.645 34.0117 662.035 34.2461L666.172 27.1211L662.809 27.1094C657.359 36.8711 656.445 37.7617 656.445 39.9883C656.445 43.6914 659.363 46.2461 663.055 46.2461C666.781 46.2461 669.734 43.2812 669.734 39.8477C669.734 36.3086 666.887 33.8945 663.922 33.8945ZM663.102 43.293C661.074 43.293 659.41 41.6406 659.41 39.7656C659.41 37.7969 661.086 36.168 663.113 36.168C665.129 36.168 666.793 37.7969 666.793 39.7539C666.793 41.6289 665.117 43.293 663.102 43.293ZM683.715 30.0273V27.1094H672.465V46H683.715V43.0469H675.43V37.8203H682.578V34.8672H675.43V30.0273H683.715Z" fill="#FF006E"/>
<path d="M872.68 34.6914L872.973 32.4531H869.984L870.688 27.1094H868.285L867.582 32.4531H863.129L863.832 27.1094H861.43L860.727 32.4531H857.633L857.316 34.6914H860.434L859.859 39.0859H856.789L856.496 41.3242H859.555L858.945 46H861.348L861.957 41.3242H866.41L865.801 46H868.203L868.812 41.3242H871.836L872.152 39.0859H869.117L869.691 34.6914H872.68ZM866.715 39.0859H862.262L862.836 34.6914H867.289L866.715 39.0859ZM880.977 46.3047C884.738 46.3047 887.422 43.5508 887.422 40.3516C887.422 37.4336 885.09 35.5938 883.648 35.3359C884.891 35.0781 886.449 33.6016 886.449 31.5977C886.449 29.0664 884.164 26.793 880.988 26.793C877.801 26.793 875.539 29.1016 875.539 31.5977C875.539 33.4961 876.91 35.043 878.352 35.3359C876.77 35.5586 874.543 37.457 874.543 40.3398C874.543 43.5156 877.191 46.3047 880.977 46.3047ZM881 34.0117C879.617 34.0117 878.41 33.1562 878.41 31.7852C878.41 30.3906 879.57 29.5469 881 29.5469C882.43 29.5469 883.59 30.3906 883.59 31.8086C883.59 33.2383 882.312 34.0117 881 34.0117ZM880.965 43.3516C879.031 43.3516 877.508 41.9453 877.508 40.1875C877.508 38.418 879.125 36.9766 881 36.9766C882.863 36.9766 884.445 38.418 884.445 40.1641C884.445 41.9453 882.898 43.3516 880.965 43.3516ZM895.895 26.8633C892.191 26.8633 889.262 29.8633 889.262 33.3086C889.262 36.8477 892.051 39.3906 895.039 39.3906C895.637 39.3906 896.246 39.2852 896.82 39.0742L892.801 46.0234H896.188C901.543 36.7422 902.551 36.0039 902.551 33.3438C902.551 29.8867 899.621 26.8633 895.895 26.8633ZM895.883 36.9414C893.867 36.9414 892.215 35.3125 892.215 33.3555C892.215 31.4805 893.867 29.8047 895.895 29.8047C897.91 29.8047 899.586 31.4805 899.586 33.3555C899.586 35.3125 897.91 36.9414 895.883 36.9414ZM913.719 35.4648C915.078 34.9141 916.191 33.543 916.191 31.6328C916.191 28.7148 913.672 26.5703 910.707 26.5703C907.895 26.5703 905.762 28.5625 905.246 30.8125L908.281 31.4453C908.504 30.2969 909.512 29.4766 910.684 29.4766C912.078 29.4766 913.215 30.4609 913.215 31.8555C913.215 33.6367 911.258 34.6914 909.066 34.6914L908.598 36.4258C911.855 36.4023 914.176 37.8555 914.176 40.1523C914.176 41.7578 912.734 43.2461 910.73 43.2461C909.102 43.2461 907.637 42.1914 907.285 40.7617L904.379 41.5C905.023 44.1016 907.742 46.1758 910.801 46.1758C914.375 46.1758 917.164 43.4688 917.164 40.3633C917.164 37.7734 915.676 36.168 913.719 35.4648ZM925.285 27.1094H919.906V46H925.285C931.285 46 935.023 42.3789 935.023 36.5781C935.023 30.7305 931.285 27.0977 925.285 27.1094ZM925.309 43.0469H922.859V30.0508H925.273C929.422 30.0508 932.023 32.5586 932.023 36.5664C932.023 40.5508 929.434 43.0469 925.309 43.0469ZM948.992 30.0156V27.0625H937.742V46.0234H940.707V38.0195H947.855V35.0664H940.707V30.0156H948.992ZM962.609 30.0156V27.0625H951.359V46.0234H954.324V38.0195H961.473V35.0664H954.324V30.0156H962.609Z" fill="#893DFF"/>
<path d="M1150.4 34.6914L1150.69 32.4531H1147.7L1148.41 27.1094H1146L1145.3 32.4531H1140.85L1141.55 27.1094H1139.15L1138.45 32.4531H1135.35L1135.04 34.6914H1138.15L1137.58 39.0859H1134.51L1134.21 41.3242H1137.27L1136.66 46H1139.07L1139.68 41.3242H1144.13L1143.52 46H1145.92L1146.53 41.3242H1149.55L1149.87 39.0859H1146.84L1147.41 34.6914H1150.4ZM1144.43 39.0859H1139.98L1140.55 34.6914H1145.01L1144.43 39.0859ZM1159.97 46.2695C1164.57 46.2695 1167.68 42.2383 1167.68 36.5547C1167.68 30.8594 1164.57 26.8281 1159.97 26.8281C1155.38 26.8281 1152.26 30.8594 1152.26 36.5547C1152.26 42.2383 1155.38 46.2695 1159.97 46.2695ZM1159.96 43.2812C1157.1 43.2812 1155.21 40.4922 1155.21 36.5547C1155.21 32.6055 1157.1 29.8047 1159.96 29.8047C1162.81 29.8047 1164.71 32.6055 1164.71 36.5547C1164.71 40.4922 1162.81 43.2812 1159.96 43.2812ZM1176.99 33.8945C1176.36 33.8945 1175.71 34.0117 1175.1 34.2461L1179.24 27.1211L1175.88 27.1094C1170.43 36.8711 1169.51 37.7617 1169.51 39.9883C1169.51 43.6914 1172.43 46.2461 1176.12 46.2461C1179.85 46.2461 1182.8 43.2812 1182.8 39.8477C1182.8 36.3086 1179.95 33.8945 1176.99 33.8945ZM1176.17 43.293C1174.14 43.293 1172.48 41.6406 1172.48 39.7656C1172.48 37.7969 1174.15 36.168 1176.18 36.168C1178.2 36.168 1179.86 37.7969 1179.86 39.7539C1179.86 41.6289 1178.18 43.293 1176.17 43.293ZM1194.03 35.3594C1194.73 35.3594 1196.15 34 1196.15 31.9609C1196.15 29.4531 1193.95 27.1094 1190.69 27.1094H1185.53V46H1192.6C1196.35 46 1198.54 43.1406 1198.54 40.2461C1198.54 37.3047 1196.15 35.3594 1194.03 35.3594ZM1190.86 29.9922C1192.2 29.9922 1193.37 31 1193.37 32.3477C1193.37 33.6953 1192.29 34.7031 1190.83 34.6914L1188.48 34.7031V29.9922H1190.86ZM1192.33 43.1055H1188.48V37.3164L1192.28 37.3047C1194.43 37.3047 1195.64 38.6172 1195.64 40.0469C1195.64 41.875 1194.03 43.1055 1192.33 43.1055ZM1206.64 26.8633C1202.93 26.8633 1200 29.8633 1200 33.3086C1200 36.8477 1202.79 39.3906 1205.78 39.3906C1206.38 39.3906 1206.99 39.2852 1207.56 39.0742L1203.54 46.0234H1206.93C1212.29 36.7422 1213.29 36.0039 1213.29 33.3438C1213.29 29.8867 1210.36 26.8633 1206.64 26.8633ZM1206.62 36.9414C1204.61 36.9414 1202.96 35.3125 1202.96 33.3555C1202.96 31.4805 1204.61 29.8047 1206.64 29.8047C1208.65 29.8047 1210.33 31.4805 1210.33 33.3555C1210.33 35.3125 1208.65 36.9414 1206.62 36.9414ZM1227.27 30.0156V27.0625H1216.02V46.0234H1218.99V38.0195H1226.14V35.0664H1218.99V30.0156H1227.27ZM1240.89 30.0156V27.0625H1229.64V46.0234H1232.61V38.0195H1239.75V35.0664H1232.61V30.0156H1240.89Z" fill="#06B9FF"/>
</svg>
